<svg id="Layer_1" data-name="Layer 1" xmlns="http://www.w3.org/2000/svg" viewBox="0 0 500 500">
  <defs>
    <style>
      .cls-1, .cls-3 {
        fill: #a2b1ba;
      }

      .cls-2 {
        fill: none;
      }

      .cls-3 {
        opacity: 0.19;
      }
    </style>
  </defs>
  <title>ep-activations-disabled</title>
  <g>
    <g>
      <g>
        <g>
          <path class="cls-1" d="M322,149.11H292.27a7.57,7.57,0,0,1,.37,1.28l.7,4.19h22.83a5.65,5.65,0,0,1,5.53,5.74v138l1.2-1.52c.58-.74,1.18-1.48,1.76-2.21s1.37-1.67,2.06-2.49a0,0,0,0,1,0,0c.11-.14.23-.29.36-.43V154.37A5.17,5.17,0,0,0,322,149.11ZM204.6,336.85l-1.34-2.43v0a5.63,5.63,0,0,1-5.34-5.74v-3.87l-2-3.69,0,0v0l-3.29-6,0,0v19.55a5.41,5.41,0,0,0,.53,2.32s0,0,0,.07a5,5,0,0,0,4.49,2.86h8.7Zm-7-187.74a5.11,5.11,0,0,0-5,4.62h0a3.28,3.28,0,0,0-.06.63v5.71h0l6.38-3.84,0,0,11.83-7.1ZM325.7,313.43c-1.35,2.44-2.67,5-4,7.55v7.68a5.65,5.65,0,0,1-5.53,5.76h-1q-1.21,2.67-2.45,5.45H322a5.15,5.15,0,0,0,5-5.25V310.94C326.61,311.77,326.16,312.59,325.7,313.43Zm-36.66,21H248l-2.28,1.37-6.8,4.08h53.19Zm-45.6-185.31,2.26,4.06,5.63-1h0l16.54-3Z"/>
          <g>
            <path class="cls-1" d="M302,205.84l1.16,6.92h5.87a3.32,3.32,0,0,0,3.18-3.47,3.6,3.6,0,0,0-.93-2.44,3.07,3.07,0,0,0-2.25-1Z"/>
            <path class="cls-1" d="M289.47,212l-4.28.79h6.9a3.16,3.16,0,0,0-2.09-.84A3.07,3.07,0,0,0,289.47,212Z"/>
            <path class="cls-1" d="M309.06,221.75h-4.35l1.18,6.92h3.17a3,3,0,0,0,2.14-.89,3.64,3.64,0,0,0,1-2.58,3.59,3.59,0,0,0-.93-2.44,3.13,3.13,0,0,0-2.25-1Z"/>
            <path class="cls-1" d="M310.13,253.77l1,5.88a3.68,3.68,0,0,0,.18-5.08A3.17,3.17,0,0,0,310.13,253.77Z"/>
            <path class="cls-1" d="M311.31,270.48a3,3,0,0,0-1-.72l1.89,3.4a1.77,1.77,0,0,0,0-.23A3.57,3.57,0,0,0,311.31,270.48Z"/>
            <path class="cls-1" d="M309.06,237.66h-1.64l1.15,6.92h.49a3.32,3.32,0,0,0,3.18-3.47,3.59,3.59,0,0,0-.93-2.44A3.07,3.07,0,0,0,309.06,237.66Z"/>
          </g>
        </g>
        <g>
          <path class="cls-1" d="M319.45,286.57a6.6,6.6,0,0,0-.56-1.4h0L314,276.25v.05l2.84,16.75h0l.06,0a5.18,5.18,0,0,0,1.17-.95c.17-.19.33-.37.48-.57a5.82,5.82,0,0,0,.7-1.3A6,6,0,0,0,319.45,286.57Zm0,0a6.6,6.6,0,0,0-.56-1.4h0L314,276.25v.05l2.84,16.75h0l.06,0a5.18,5.18,0,0,0,1.17-.95c.17-.19.33-.37.48-.57a5.82,5.82,0,0,0,.7-1.3A6,6,0,0,0,319.45,286.57Zm0,0a6.6,6.6,0,0,0-.56-1.4h0L314,276.25v.05l2.84,16.75h0l.06,0a5.18,5.18,0,0,0,1.17-.95c.17-.19.33-.37.48-.57a5.82,5.82,0,0,0,.7-1.3A6,6,0,0,0,319.45,286.57Zm0,0a6.6,6.6,0,0,0-.56-1.4h0L314,276.25v.05l2.84,16.75h0l.06,0a5.18,5.18,0,0,0,1.17-.95c.17-.19.33-.37.48-.57a5.82,5.82,0,0,0,.7-1.3A6,6,0,0,0,319.45,286.57Zm0,0a6.6,6.6,0,0,0-.56-1.4h0L314,276.25v.05l2.84,16.75h0l.06,0a5.18,5.18,0,0,0,1.17-.95c.17-.19.33-.37.48-.57a5.82,5.82,0,0,0,.7-1.3A6,6,0,0,0,319.45,286.57Zm0,0a6.6,6.6,0,0,0-.56-1.4h0L314,276.25v.05l2.84,16.75h0l.06,0a5.18,5.18,0,0,0,1.17-.95c.17-.19.33-.37.48-.57a5.82,5.82,0,0,0,.7-1.3A6,6,0,0,0,319.45,286.57Zm0,0a6.6,6.6,0,0,0-.56-1.4h0L314,276.25v.05l2.84,16.75h0l.06,0a5.18,5.18,0,0,0,1.17-.95c.17-.19.33-.37.48-.57a5.82,5.82,0,0,0,.7-1.3A6,6,0,0,0,319.45,286.57Zm0,0a6.6,6.6,0,0,0-.56-1.4h0L314,276.25v.05l2.84,16.75h0l.06,0a5.18,5.18,0,0,0,1.17-.95c.17-.19.33-.37.48-.57a5.82,5.82,0,0,0,.7-1.3A6,6,0,0,0,319.45,286.57Zm0,0a6.6,6.6,0,0,0-.56-1.4h0L314,276.25v.05l2.84,16.75h0l.06,0a5.18,5.18,0,0,0,1.17-.95c.17-.19.33-.37.48-.57a5.82,5.82,0,0,0,.7-1.3A6,6,0,0,0,319.45,286.57Zm0,0a6.6,6.6,0,0,0-.56-1.4h0L314,276.25v.05l2.84,16.75h0l.06,0a5.18,5.18,0,0,0,1.17-.95c.17-.19.33-.37.48-.57a5.82,5.82,0,0,0,.7-1.3A6,6,0,0,0,319.45,286.57Zm0,0a6.6,6.6,0,0,0-.56-1.4h0L314,276.25v.05l2.84,16.75h0l.06,0a5.18,5.18,0,0,0,1.17-.95c.17-.19.33-.37.48-.57a5.82,5.82,0,0,0,.7-1.3A6,6,0,0,0,319.45,286.57Zm0,0a6.6,6.6,0,0,0-.56-1.4h0L314,276.25v.05l2.84,16.75h0l.06,0a5.18,5.18,0,0,0,1.17-.95c.17-.19.33-.37.48-.57a5.82,5.82,0,0,0,.7-1.3A6,6,0,0,0,319.45,286.57Zm0,0a6.6,6.6,0,0,0-.56-1.4h0L314,276.25v.05l2.84,16.75h0l.06,0a5.18,5.18,0,0,0,1.17-.95c.17-.19.33-.37.48-.57a5.82,5.82,0,0,0,.7-1.3A6,6,0,0,0,319.45,286.57Zm0,0a6.6,6.6,0,0,0-.56-1.4h0L314,276.25v.05l2.84,16.75h0l.06,0a5.18,5.18,0,0,0,1.17-.95c.17-.19.33-.37.48-.57a5.82,5.82,0,0,0,.7-1.3A6,6,0,0,0,319.45,286.57Zm0,0a6.6,6.6,0,0,0-.56-1.4h0L314,276.25v.05l2.84,16.75h0l.06,0a5.18,5.18,0,0,0,1.17-.95c.17-.19.33-.37.48-.57a5.82,5.82,0,0,0,.7-1.3A6,6,0,0,0,319.45,286.57Zm0,0a6.6,6.6,0,0,0-.56-1.4h0L314,276.25v.05l2.84,16.75h0l.06,0a5.18,5.18,0,0,0,1.17-.95c.17-.19.33-.37.48-.57a5.82,5.82,0,0,0,.7-1.3A6,6,0,0,0,319.45,286.57Zm0,0a6.6,6.6,0,0,0-.56-1.4h0L314,276.25v.05l2.84,16.75h0l.06,0a5.18,5.18,0,0,0,1.17-.95c.17-.19.33-.37.48-.57a5.82,5.82,0,0,0,.7-1.3A6,6,0,0,0,319.45,286.57ZM207.88,342.75l-2.66.49a5.38,5.38,0,0,1-3.61-.63v0h0a5.62,5.62,0,0,1-2.4-2.7v0a4.87,4.87,0,0,1-.38-1.31l-.23-1.34v-.05l-2.72-16.07,0,0v0l-3.3-6,0,0L188,306.85l2.73,16.1h0l1.81,10.77,0,.09.54,3.13V337l1.41,8.41a5.06,5.06,0,0,0,5.86,4.25l4.67-.85h0l5.63-1h0Zm111.57-56.18a6.6,6.6,0,0,0-.56-1.4h0L314,276.25v.05l2.84,16.75h0l.06,0a5.18,5.18,0,0,0,1.17-.95c.17-.19.33-.37.48-.57a5.82,5.82,0,0,0,.7-1.3A6,6,0,0,0,319.45,286.57Zm0,0a6.6,6.6,0,0,0-.56-1.4h0L314,276.25v.05l2.84,16.75h0l.06,0a5.18,5.18,0,0,0,1.17-.95c.17-.19.33-.37.48-.57a5.82,5.82,0,0,0,.7-1.3A6,6,0,0,0,319.45,286.57Zm0,0a6.6,6.6,0,0,0-.56-1.4h0L314,276.25v.05l2.84,16.75h0l.06,0a5.18,5.18,0,0,0,1.17-.95c.17-.19.33-.37.48-.57a5.82,5.82,0,0,0,.7-1.3A6,6,0,0,0,319.45,286.57Zm0,0a6.6,6.6,0,0,0-.56-1.4h0L314,276.25v.05l2.84,16.75h0l.06,0a5.18,5.18,0,0,0,1.17-.95c.17-.19.33-.37.48-.57a5.82,5.82,0,0,0,.7-1.3A6,6,0,0,0,319.45,286.57Zm0,0a6.6,6.6,0,0,0-.56-1.4h0L314,276.25v.05l2.84,16.75h0l.06,0a5.18,5.18,0,0,0,1.17-.95c.17-.19.33-.37.48-.57a5.82,5.82,0,0,0,.7-1.3A6,6,0,0,0,319.45,286.57Zm0,0a6.6,6.6,0,0,0-.56-1.4h0L314,276.25v.05l2.84,16.75h0l.06,0a5.18,5.18,0,0,0,1.17-.95c.17-.19.33-.37.48-.57a5.82,5.82,0,0,0,.7-1.3A6,6,0,0,0,319.45,286.57Zm0,0a6.6,6.6,0,0,0-.56-1.4h0L314,276.25v.05l2.84,16.75h0l.06,0a5.18,5.18,0,0,0,1.17-.95c.17-.19.33-.37.48-.57a5.82,5.82,0,0,0,.7-1.3A6,6,0,0,0,319.45,286.57Zm0,0a6.6,6.6,0,0,0-.56-1.4h0L314,276.25v.05l2.84,16.75h0l.06,0a5.18,5.18,0,0,0,1.17-.95c.17-.19.33-.37.48-.57a5.82,5.82,0,0,0,.7-1.3A6,6,0,0,0,319.45,286.57Zm0,0a6.6,6.6,0,0,0-.56-1.4h0L314,276.25v.05l2.84,16.75h0l.06,0a5.18,5.18,0,0,0,1.17-.95c.17-.19.33-.37.48-.57a5.82,5.82,0,0,0,.7-1.3A6,6,0,0,0,319.45,286.57Zm0,0a6.6,6.6,0,0,0-.56-1.4h0L314,276.25v.05l2.84,16.75h0l.06,0a5.18,5.18,0,0,0,1.17-.95c.17-.19.33-.37.48-.57a5.82,5.82,0,0,0,.7-1.3A6,6,0,0,0,319.45,286.57Zm0,0a6.6,6.6,0,0,0-.56-1.4h0L314,276.25v.05l2.84,16.75h0l.06,0a5.18,5.18,0,0,0,1.17-.95c.17-.19.33-.37.48-.57a5.82,5.82,0,0,0,.7-1.3A6,6,0,0,0,319.45,286.57Zm0,0a6.6,6.6,0,0,0-.56-1.4h0L314,276.25v.05l2.84,16.75h0l.06,0a5.18,5.18,0,0,0,1.17-.95c.17-.19.33-.37.48-.57a5.82,5.82,0,0,0,.7-1.3A6,6,0,0,0,319.45,286.57Zm0,0a6.6,6.6,0,0,0-.56-1.4h0L314,276.25v.05l2.84,16.75h0l.06,0a5.18,5.18,0,0,0,1.17-.95c.17-.19.33-.37.48-.57a5.82,5.82,0,0,0,.7-1.3A6,6,0,0,0,319.45,286.57Zm0,0a6.6,6.6,0,0,0-.56-1.4h0L314,276.25v.05l2.84,16.75h0l.06,0a5.18,5.18,0,0,0,1.17-.95c.17-.19.33-.37.48-.57a5.82,5.82,0,0,0,.7-1.3A6,6,0,0,0,319.45,286.57Zm0,0a6.6,6.6,0,0,0-.56-1.4h0L314,276.25v.05l2.84,16.75h0l.06,0a5.18,5.18,0,0,0,1.17-.95c.17-.19.33-.37.48-.57a5.82,5.82,0,0,0,.7-1.3A6,6,0,0,0,319.45,286.57Zm0,0a6.6,6.6,0,0,0-.56-1.4h0L314,276.25v.05l2.84,16.75h0l.06,0a5.18,5.18,0,0,0,1.17-.95c.17-.19.33-.37.48-.57a5.82,5.82,0,0,0,.7-1.3A6,6,0,0,0,319.45,286.57Zm0,0a6.6,6.6,0,0,0-.56-1.4h0L314,276.25v.05l2.84,16.75h0l.06,0a5.18,5.18,0,0,0,1.17-.95c.17-.19.33-.37.48-.57a5.82,5.82,0,0,0,.7-1.3A6,6,0,0,0,319.45,286.57Zm0,0a6.6,6.6,0,0,0-.56-1.4h0L314,276.25v.05l2.84,16.75h0l.06,0a5.18,5.18,0,0,0,1.17-.95c.17-.19.33-.37.48-.57a5.82,5.82,0,0,0,.7-1.3A6,6,0,0,0,319.45,286.57ZM198.92,156.24l-6.38,1.16h0l-8.69,1.6-15.28,2.81a5.25,5.25,0,0,0-4.11,6.08l.42,2.51h0l1,5.74h0l4.92-3h0l-.07-.36a5.73,5.73,0,0,1,4.48-6.66l10.47-1.93,6.84-4.13h0l4-2.41,2.41-1.45ZM285.7,328.45,260.83,333h0l-4.56.84-3,.56h-.08l-7.49,1.37h0l-6.76,4.07,0,0-6.51,3.92L247.51,341h0l6.19-1.14.07,0,5-.92,24.63-4.52h.07l5-.93Zm15.57-2.85.54.93c.26-.39.5-.79.76-1.17Zm21.46-29.79-1-6v-.09l-2.61-15.4v0L314.14,245l-2.92-17.25v0l-1-5.75v0l-1.56-9.21v0l-1.17-6.91h0l-8.69-51.24v0l-.93-5.47-.94-5.54a5.06,5.06,0,0,0-5.85-4.26l-42.54,7.82h0l-5.62,1,.42.77.11.2v0l2.24,4v0l5.62-1h0l16.54-3h0l18.33-3.36a5.5,5.5,0,0,1,6,3.36,6.94,6.94,0,0,1,.37,1.3l.7,4.17v0L302,205.84h0l1.16,6.91v0l1.53,9h0l1.17,6.91,1.53,9,1.16,6.91v0l.12.67,1.44,8.51,1,5.86v0l.09.47v0L314,276.25v.05l2.84,16.75h0l1,5.73h0l.65,3.82q1.63-2.16,3.28-4.26l1.2-1.52ZM327,321.08l-1.3-7.65c-1.35,2.44-2.67,5-4,7.55-1.18,2.28-2.34,4.63-3.5,7.06l3.5-.64h0l1.22-.22a5.2,5.2,0,0,0,4.16-5.16A5.07,5.07,0,0,0,327,321.08Z"/>
          <path class="cls-1" d="M271.23,199.19l3.52,6.38,5.64-1,7.58-1.39a3.4,3.4,0,0,0,2.57-4,3.33,3.33,0,0,0-3.18-2.88,3.07,3.07,0,0,0-.53,0l-10,1.83Z"/>
          <path class="cls-1" d="M279.35,213.84l3.54,6.38,5.63-1,2.1-.38a3.38,3.38,0,0,0,2.56-4,3.57,3.57,0,0,0-1.08-2,3.16,3.16,0,0,0-2.09-.84,3.27,3.27,0,0,0-.53,0l-4.28.79-.22,0Z"/>
          <path class="cls-1" d="M295.67,243.3a3.05,3.05,0,0,1,2.14,1.29,3.26,3.26,0,0,1,.68,1.55,3.55,3.55,0,0,1-.18,1.9l-1.91-3.45Z"/>
          <path class="cls-1" d="M286.55,228.68h1l3.44,6.21,2.27-.42a3.2,3.2,0,0,0,2.44-2.29,3.55,3.55,0,0,0,.12-1.69,3.42,3.42,0,0,0-.87-1.81,3,3,0,0,0-1.74-1h0a2.36,2.36,0,0,0-.54,0,2.45,2.45,0,0,0-.55,0l-4.63.85Z"/>
        </g>
        <g>
          <path class="cls-1" d="M326.4,287.51,321.71,279v0l-2.61-4.66,0,0-7.84-14.13v0l-.19-.36h0l-3.45-6.19-4.23-7.64-.74-1.34-3.84-6.91-3-5.5h0v0l-1.91-3.47-.59-1h0l-3.26-5.9-1.44-2.57L285,212.8h0l0,0-3.83-6.93-.73-1.32-3.54-6.37h0l-5.78-10.43-3.83-6.93-.15-.24-3-5.47L252.71,154.6l-1.37-2.45-1.69-3,0,0-1.09-2-8.68-15.71A5,5,0,0,0,233,129.5l-32.63,19.61,0,0-7.71,4.61L183.83,159l-19,11.41-39.69,23.86a5.36,5.36,0,0,0-1.84,7.18L190.71,323h0l1.81,3.28,0,0,6,10.91,0,0,1.48,2.65,1.54,2.72v0l3.42,6.21h0l4.84,8.72a5,5,0,0,0,6.93,1.95L247.51,341h0l1.9-1.14,0,0,7.49-4.51,1.54-.93h0l2.31-1.4h0l20.53-12.33L278.72,316l-23.9,14.37-6.8,4.09h0l-2.29,1.37h0l-6.76,4.07,0,0-6.51,3.92-13.17,7.9a5.4,5.4,0,0,1-7.53-2.11l-1-1.81-2.79-5-1.6-2.86v0h0l-1.67-3-1.34-2.43v0l-5.33-9.6h0l-2-3.69,0,0v0l-3.29-6,0,0L188,306.85l-57.13-103a5.88,5.88,0,0,1,2-7.85l33-19.82h0l4.92-3h0l14.88-8.95,6.86-4.11,4-2.43,2.41-1.45,11.83-7.09,19.7-11.84a5.39,5.39,0,0,1,7.55,2.09l4.87,8.78.43.75.11.2v0l2.24,4v0l.77,1.41,11.94,21.49,2.58,4.7,1,1.69,2.89,5.24,6.36,11.47,1.19,2.12.6,1.07,1.76,3.19.14.28,3.85,6.93.61,1.06,3.52,6.39.87,1.53,3.72,6.74h0v0l.09.15v0l3.45,6.19v0l1.55,2.78,3.1,5.61h0l.21.39.12.21.37.69,1.42,2.55.5.89,3.06,5.54,3.83,6.93,5.15,9.26h0l1.88,3.38v0h0l1.71,3.06,0,.05,4.92,8.86h0a6.6,6.6,0,0,1,.56,1.4,6.07,6.07,0,0,1-.23,3.63,5.82,5.82,0,0,1-.7,1.3c-.15.2-.31.38-.48.57a5.18,5.18,0,0,1-1.17.95l-.06,0h0l-13.7,8.24-11.51,6.92-.43.26,2.76,4.66,8.18-4.92,9.43-5.67,6.24-3.75h0l3.92-2.36v0l1-.6,1.82-1.09s.09-.05.11-.09c.69-.84,1.37-1.67,2.06-2.49a0,0,0,0,1,0,0,5.66,5.66,0,0,0,.36-1.95A5.41,5.41,0,0,0,326.4,287.51ZM278.72,316l-23.9,14.37-6.8,4.09h0l-2.29,1.37,7.49-1.37h3.31c-.07-.19-.16-.37-.24-.56l4.56-.84h0l20.53-12.33Zm38.09-22.9h0l-13.7,8.24-11.51,6.92-.43.26,2.76,4.66,8.18-4.92,9.43-5.67,6.24-3.75h0ZM296.4,244.59l-.38-.69.37.69,1.42,2.55Zm-90.12,95.3v0h0l-1.67-3-1.34-2.43v0l-5.33-9.6h0l-2-3.69,2.72,16.07v.05l1.48,2.65,1.54,2.72v0a5.38,5.38,0,0,0,3.61.63l2.66-.49ZM192.54,160.08h0l-6.84,4.13,6.86-4.11,4-2.43Zm-17.33,6.06a5.73,5.73,0,0,0-4.48,6.66l.07.36,14.88-8.95ZM278.72,316l-23.9,14.37-6.8,4.09h0l-2.29,1.37,7.49-1.37h3.31c-.07-.19-.16-.37-.24-.56l4.56-.84h0l20.53-12.33Zm38.09-22.9h0l-13.7,8.24-11.51,6.92-.43.26,2.76,4.66,8.18-4.92,9.43-5.67,6.24-3.75h0ZM296.4,244.59l-.38-.69.37.69,1.42,2.55Zm-90.12,95.3v0h0l-1.67-3-1.34-2.43v0l-5.33-9.6h0l-2-3.69,2.72,16.07v.05l1.48,2.65,1.54,2.72v0a5.38,5.38,0,0,0,3.61.63l2.66-.49ZM192.54,160.08h0l-6.84,4.13,6.86-4.11,4-2.43Zm-17.33,6.06a5.73,5.73,0,0,0-4.48,6.66l.07.36,14.88-8.95ZM296.4,244.59l-.38-.69.37.69,1.42,2.55ZM278.72,316l-23.9,14.37-6.8,4.09h0l-2.29,1.37,7.49-1.37h3.31c-.07-.19-.16-.37-.24-.56l4.56-.84h0l20.53-12.33Zm-72.44,23.93v0h0l-1.67-3-1.34-2.43v0l-5.33-9.6h0l-2-3.69,2.72,16.07v.05l1.48,2.65,1.54,2.72v0a5.38,5.38,0,0,0,3.61.63l2.66-.49ZM192.54,160.08h0l-6.84,4.13,6.86-4.11,4-2.43Zm-17.33,6.06a5.73,5.73,0,0,0-4.48,6.66l.07.36,14.88-8.95ZM296.4,244.59l-.38-.69.37.69,1.42,2.55ZM278.72,316l-23.9,14.37-6.8,4.09h0l-2.29,1.37,7.49-1.37h3.31c-.07-.19-.16-.37-.24-.56l4.56-.84h0l20.53-12.33Zm-72.44,23.93v0h0l-1.67-3-1.34-2.43v0l-5.33-9.6h0l-2-3.69,2.72,16.07v.05l1.48,2.65,1.54,2.72v0a5.38,5.38,0,0,0,3.61.63l2.66-.49ZM192.54,160.08h0l-6.84,4.13,6.86-4.11,4-2.43Zm-17.33,6.06a5.73,5.73,0,0,0-4.48,6.66l.07.36,14.88-8.95Zm0,0a5.73,5.73,0,0,0-4.48,6.66l.07.36,14.88-8.95Zm17.33-6.06h0l-6.84,4.13,6.86-4.11,4-2.43Zm13.74,179.81v0h0l-1.67-3-1.34-2.43v0l-5.33-9.6h0l-2-3.69,2.72,16.07v.05l1.48,2.65,1.54,2.72v0a5.38,5.38,0,0,0,3.61.63l2.66-.49ZM278.72,316l-23.9,14.37-6.8,4.09h0l-2.29,1.37,7.49-1.37h3.31c-.07-.19-.16-.37-.24-.56l4.56-.84h0l20.53-12.33Zm17.68-71.37-.38-.69.37.69,1.42,2.55ZM175.21,166.14a5.73,5.73,0,0,0-4.48,6.66l.07.36,14.88-8.95Zm17.33-6.06h0l-6.84,4.13,6.86-4.11,4-2.43Zm13.74,179.81v0h0l-1.67-3-1.34-2.43v0l-5.33-9.6h0l-2-3.69,2.72,16.07v.05l1.48,2.65,1.54,2.72v0a5.38,5.38,0,0,0,3.61.63l2.66-.49ZM278.72,316l-23.9,14.37-6.8,4.09h0l-2.29,1.37,7.49-1.37h3.31c-.07-.19-.16-.37-.24-.56l4.56-.84h0l20.53-12.33Zm17.68-71.37-.38-.69.37.69,1.42,2.55ZM175.21,166.14a5.73,5.73,0,0,0-4.48,6.66l.07.36,14.88-8.95Zm17.33-6.06h0l-6.84,4.13,6.86-4.11,4-2.43Zm13.74,179.81v0h0l-1.67-3-1.34-2.43v0l-5.33-9.6h0l-2-3.69,2.72,16.07v.05l1.48,2.65,1.54,2.72v0a5.38,5.38,0,0,0,3.61.63l2.66-.49Zm90.12-95.3-.38-.69.37.69,1.42,2.55ZM278.72,316l-23.9,14.37-6.8,4.09h0l-2.29,1.37,7.49-1.37h3.31c-.07-.19-.16-.37-.24-.56l4.56-.84h0l20.53-12.33Zm38.09-22.9h0l-13.7,8.24-11.51,6.92-.43.26,2.76,4.66,8.18-4.92,9.43-5.67,6.24-3.75h0ZM175.21,166.14a5.73,5.73,0,0,0-4.48,6.66l.07.36,14.88-8.95Zm17.33-6.06h0l-6.84,4.13,6.86-4.11,4-2.43Zm13.74,179.81v0h0l-1.67-3-1.34-2.43v0l-5.33-9.6h0l-2-3.69,2.72,16.07v.05l1.48,2.65,1.54,2.72v0a5.38,5.38,0,0,0,3.61.63l2.66-.49Zm90.12-95.3-.38-.69.37.69,1.42,2.55ZM278.72,316l-23.9,14.37-6.8,4.09h0l-2.29,1.37,7.49-1.37h3.31c-.07-.19-.16-.37-.24-.56l4.56-.84h0l20.53-12.33Zm38.09-22.9h0l-13.7,8.24-11.51,6.92-.43.26,2.76,4.66,8.18-4.92,9.43-5.67,6.24-3.75h0ZM175.21,166.14a5.73,5.73,0,0,0-4.48,6.66l.07.36,14.88-8.95Zm17.33-6.06h0l-6.84,4.13,6.86-4.11,4-2.43Zm13.74,179.81v0h0l-1.67-3-1.34-2.43v0l-5.33-9.6h0l-2-3.69,2.72,16.07v.05l1.48,2.65,1.54,2.72v0a5.38,5.38,0,0,0,3.61.63l2.66-.49Zm90.12-95.3-.38-.69.37.69,1.42,2.55ZM278.72,316l-23.9,14.37-6.8,4.09h0l-2.29,1.37,7.49-1.37h3.31c-.07-.19-.16-.37-.24-.56l4.56-.84h0l20.53-12.33Zm38.09-22.9h0l-13.7,8.24-11.51,6.92-.43.26,2.76,4.66,8.18-4.92,9.43-5.67,6.24-3.75h0Z"/>
          <g>
            <path class="cls-1" d="M207.57,201.69l30.18-18.13,4-2.42h0l1.19-.72a3,3,0,0,1,1.51-.42,2.83,2.83,0,0,1,1.46.39h0a3.31,3.31,0,0,1,1.41,1.39,3.49,3.49,0,0,1,.47,1.78,3.36,3.36,0,0,1-1.56,2.88l-25.38,15.25-4.07,2.45h0l-7.43,4.46-9.44,5.67-6.71,4-5.38,3.23-11.67,7-4.95,3-10.28,6.18a3.16,3.16,0,0,1-4.4-1.34,3.44,3.44,0,0,1,1.09-4.65L170,224.28l4.95-3,8.74-5.24,4.15-2.5,5.38-3.25,4.41-2.64,0,0,5-3Z"/>
            <path class="cls-1" d="M164.18,250.15a3.16,3.16,0,0,0,4.4,1.34l5.46-3.28,5-3,8.83-5.31,5.38-3.25,12-7.22h0l8.19-4.93,8.6-5.17,0,0L225,217.6l15-9,4-2.41h0l7.49-4.51,2.48-1.49a3.27,3.27,0,0,0,1.54-3.15,3.38,3.38,0,0,0-.45-1.51,3.32,3.32,0,0,0-2.87-1.77,3,3,0,0,0-1.53.44l-8.95,5.37h0l-3.49,2.11-11.5,6.92-1.85,1.1-13.13,7.89-8.59,5.17-.12.07-9.74,5.86-5.38,3.23-.57.35h0l-9.49,5.7-5,3-7.54,4.54A3.44,3.44,0,0,0,164.18,250.15Z"/>
            <path class="cls-1" d="M234.82,240.42l.59-.35,10.93-6.56,5.91-3.57,9-5.43,4.57-2.74a3,3,0,0,1,1.55-.44,3.31,3.31,0,0,1,2.87,1.78,3.18,3.18,0,0,1,.44,1.4,3.33,3.33,0,0,1-.44,2.13,3,3,0,0,1-1.09,1.12l-9.55,5.75-5.09,3.05-6.43,3.86-15,9-.45.26-11.06,6.65-5.76,3.47h0l-9.14,5.5-3.86,2.32h0l-9.62,5.78-5.38,3.23-3.19,1.93-.79.47a3.19,3.19,0,0,1-4.42-1.34,3.48,3.48,0,0,1,1.11-4.66l2.88-1.72,4.41-2.66,5.38-3.24,3.48-2.09v0h0l11.63-7,5.21-3.13,6.29-3.78Z"/>
            <path class="cls-1" d="M187.08,291.48a3.17,3.17,0,0,0,.76.92,3.06,3.06,0,0,0,3.66.42l1.72-1,2.92-1.74,3.16-1.91,0,0,3.59-2.14,7.89-4.75L221.16,275h0l4.57-2.75,11.53-6.93.69-.44H238l14.19-8.53,7.64-4.59,3.86-2.32,13-7.81.13-.08a3,3,0,0,0,1.08-1.11,3.5,3.5,0,0,0,0-3.55,3.29,3.29,0,0,0-2.87-1.76,3.09,3.09,0,0,0-1.55.42l-8.14,4.89-7.8,4.71-7.16,4.29-9.69,5.84-1.81,1.07-14.92,9-5.1,3.06-6.43,3.87L202,278.5v0l-8.79,5.27-5,3a2.22,2.22,0,0,0-.35.25A3.48,3.48,0,0,0,187.08,291.48Z"/>
            <path class="cls-1" d="M171.82,263.93a3.17,3.17,0,0,0,4.4,1.34l.65-.38,4.95-3,6-3.62,5.38-3.23,17.33-10.42h0l7-4.21,9.83-5.91h0l1.66-1,14.95-9,5.23-3.14,6.28-3.77,6-3.62a3.25,3.25,0,0,0,1.5-2.17,3.62,3.62,0,0,0-.41-2.48,2.74,2.74,0,0,0-.53-.72,3.18,3.18,0,0,0-2.34-1.06,3,3,0,0,0-1.55.44l-1,.62L247,214.77l-4.72,2.83-11.5,6.91-.61.37-14.35,8.63-7.49,4.5-3.6,2.18-11.46,6.88-1.75,1.06h0l-3.6,2.16-7.24,4.36-5,3-2.73,1.64A3.43,3.43,0,0,0,171.82,263.93Z"/>
            <path class="cls-1" d="M194.72,305.26a3.24,3.24,0,0,0,3.72,1.64,2.39,2.39,0,0,0,.7-.3l5.07-3.05.45-.26,10.25-6.17,11.56-6.95h0l3.36-2,11.53-6.93,2-1.18,13-7.8,8.86-5.33,2.67-1.6L282,256.78l.76-.45,1.7-1a3.48,3.48,0,0,0,1.1-4.66,3.68,3.68,0,0,0-1.15-1.23,3,3,0,0,0-1.73-.54,3,3,0,0,0-1.55.44l-.16.1-11.52,6.91-6.59,4-8.33,5L246,270.43l-3,1.81-14.93,9-3.86,2.32,0,0h0l-7.64,4.59-9.19,5.52-11.53,6.94A3.45,3.45,0,0,0,194.72,305.26Z"/>
            <path class="cls-1" d="M202.36,319a3.21,3.21,0,0,0,4.42,1.34l25-15,2.16-1.29,11.53-6.94,3.17-1.9,11.76-7.07,10-6h0l1.46-.87,14.93-9,.48-.28,4.76-2.87a3.41,3.41,0,0,0,1.45-3.78,3.6,3.6,0,0,0-.35-.87,3.34,3.34,0,0,0-2.88-1.78,3,3,0,0,0-1.55.44l-3.68,2.21-11.53,6.93-5.38,3.23-9.55,5.75-7.32,4.38v0l-4.2,2.53-15,9-2.67,1.61-8.86,5.33-8,4.8h0l0,0-9.12,5.49A3.49,3.49,0,0,0,202.36,319Z"/>
            <path class="cls-1" d="M160.89,204.81a3.27,3.27,0,0,0,4.54,1.27l1.34-.81,5-3,16.1-9.68,5.38-3.23,4.15-2.49,11.1-6.67,9.25-5.56a3.56,3.56,0,0,0,1.21-4.74,3.33,3.33,0,0,0-2.88-1.74,3.17,3.17,0,0,0-1.66.47l-21.17,12.73-5.38,3.25L170.5,195l-5,3-3.42,2.06A3.54,3.54,0,0,0,160.89,204.81Z"/>
          </g>
        </g>
      </g>
      <g>
        <path class="cls-1" d="M324.55,294.72l-1.82,1.09-1,.6v-6.67l-2.61-15.4,0,0-7.84-14.13v0l-.19-.36h0l-3.45-6.19-4.23-7.64c-1.62.28-3.25.61-4.83,1-.24.06-.47.11-.71.19a62.27,62.27,0,0,0-11.88,4.45,63.35,63.35,0,0,0-18.62,14h0a63.14,63.14,0,0,0-12.48,64.69c.44,1.2.92,2.38,1.44,3.53l4.56-.84h0l24.87-4.57-4.34-7.76L278.72,316l-4.39-7.87c-2.93-4.68,7.31-15.5,11.43-8.77l5.4,9.16,2.76,4.66,7.35,12.46.54.93c.26-.39.5-.79.76-1.17,5.14-8,10.45-15.6,15.85-22.74q1.63-2.16,3.28-4.26l1.2-1.52c.58-.74,1.18-1.48,1.76-2.21C324.64,294.67,324.59,294.69,324.55,294.72Zm-9.35,39.7h1a5.65,5.65,0,0,0,5.53-5.76V321c-1.18,2.28-2.34,4.63-3.5,7.06C317.2,330.12,316.2,332.24,315.2,334.42Zm9.35-39.7-1.82,1.09.17,1c.58-.74,1.18-1.48,1.76-2.21C324.64,294.67,324.59,294.69,324.55,294.72Zm0,0-1.82,1.09-1,.6v-6.67l-2.61-15.4,0,0-7.84-14.13L314,276.25v.05l4.92,8.86h0a6.6,6.6,0,0,1,.56,1.4,6.07,6.07,0,0,1-.23,3.63,5.82,5.82,0,0,1-.7,1.3c-.15.2-.31.38-.48.57a5.18,5.18,0,0,1-1.17.95l-.06,0h0l-13.7,8.24-11.51,6.92-.43.26,2.76,4.66,7.35,12.46.54.93c.26-.39.5-.79.76-1.17,5.14-8,10.45-15.6,15.85-22.74q1.63-2.16,3.28-4.26l1.2-1.52c.58-.74,1.18-1.48,1.76-2.21C324.64,294.67,324.59,294.69,324.55,294.72Zm0,0-1.82,1.09-1,.6v-6.67l-2.61-15.4,0,0-7.84-14.13L314,276.25v.05l4.92,8.86h0a6.6,6.6,0,0,1,.56,1.4,6.07,6.07,0,0,1-.23,3.63,5.82,5.82,0,0,1-.7,1.3c-.15.2-.31.38-.48.57a5.18,5.18,0,0,1-1.17.95l-.06,0h0l-13.7,8.24-11.51,6.92-.43.26,2.76,4.66,7.35,12.46.54.93c.26-.39.5-.79.76-1.17,5.14-8,10.45-15.6,15.85-22.74q1.63-2.16,3.28-4.26l1.2-1.52c.58-.74,1.18-1.48,1.76-2.21C324.64,294.67,324.59,294.69,324.55,294.72Zm0,0-1.82,1.09-1,.6v-6.67l-2.61-15.4,0,0-7.84-14.13L314,276.25v.05l4.92,8.86h0a6.6,6.6,0,0,1,.56,1.4,6.07,6.07,0,0,1-.23,3.63,5.82,5.82,0,0,1-.7,1.3c-.15.2-.31.38-.48.57a5.18,5.18,0,0,1-1.17.95l-.06,0h0l-13.7,8.24-11.51,6.92-.43.26,2.76,4.66,7.35,12.46.54.93c.26-.39.5-.79.76-1.17,5.14-8,10.45-15.6,15.85-22.74q1.63-2.16,3.28-4.26l1.2-1.52c.58-.74,1.18-1.48,1.76-2.21C324.64,294.67,324.59,294.69,324.55,294.72ZM318.2,328c-1,2.08-2,4.2-3,6.38h1a5.65,5.65,0,0,0,5.53-5.76V321C320.52,323.26,319.36,325.61,318.2,328Zm8.89-81.63q-2.65-.56-5.39-.9a62.89,62.89,0,0,0-7.56-.47H314c-1.77,0-3.52.07-5.26.22s-3.59.37-5.36.67-3.25.61-4.83,1c-.24.06-.47.11-.71.19a62.27,62.27,0,0,0-11.88,4.45,63.35,63.35,0,0,0-18.62,14h0a63.14,63.14,0,0,0-12.48,64.69c.44,1.2.92,2.38,1.44,3.53.08.19.17.37.24.56s.3.62.44.94c.58,1.22,1.21,2.42,1.87,3.59l.52.92a63.15,63.15,0,1,0,67.76-93.46Zm26.48,27.19a209.6,209.6,0,0,0-26.48,37.34c-.48.83-.93,1.65-1.39,2.49-1.35,2.44-2.67,5-4,7.55-1.18,2.28-2.34,4.63-3.5,7.06-1,2.08-2,4.2-3,6.38q-1.21,2.67-2.45,5.45c-.52,1.2-1,2.4-1.56,3.62-5.86,4.08-12.58,6.14-15.79,2.34l-3.32-6-3-5.45-.52-.93-2.82-5-4.34-7.76L278.72,316l-4.39-7.87c-2.93-4.68,7.31-15.5,11.43-8.77l5.4,9.16,2.76,4.66,7.35,12.46.54.93c.26-.39.5-.79.76-1.17,5.14-8,10.45-15.6,15.85-22.74q1.63-2.16,3.28-4.26l1.2-1.52c.58-.74,1.18-1.48,1.76-2.21s1.37-1.67,2.06-2.49a0,0,0,0,1,0,0c.11-.14.23-.29.36-.43a199.44,199.44,0,0,1,22.19-23.09C353.61,268.19,355,269.93,353.57,273.6Zm-72.21,47.09L278.72,316l-23.9,14.37c.44,1.2.92,2.38,1.44,3.53l4.56-.84h0l24.87-4.57ZM318.2,328c-1,2.08-2,4.2-3,6.38h1a5.65,5.65,0,0,0,5.53-5.76V321C320.52,323.26,319.36,325.61,318.2,328Zm6.35-33.32-1.82,1.09-1,.6v-6.67l-2.61-15.4,0,0-7.84-14.13L314,276.25v.05l4.92,8.86h0a6.6,6.6,0,0,1,.56,1.4,6.07,6.07,0,0,1-.23,3.63,5.82,5.82,0,0,1-.7,1.3c-.15.2-.31.38-.48.57a5.18,5.18,0,0,1-1.17.95l-.06,0h0l-13.7,8.24-11.51,6.92-.43.26,2.76,4.66,7.35,12.46.54.93c.26-.39.5-.79.76-1.17,5.14-8,10.45-15.6,15.85-22.74q1.63-2.16,3.28-4.26l1.2-1.52c.58-.74,1.18-1.48,1.76-2.21C324.64,294.67,324.59,294.69,324.55,294.72ZM318.2,328c-1,2.08-2,4.2-3,6.38h1a5.65,5.65,0,0,0,5.53-5.76V321C320.52,323.26,319.36,325.61,318.2,328Zm6.35-33.32-1.82,1.09-1,.6v-6.67l-2.61-15.4,0,0-7.84-14.13L314,276.25v.05l4.92,8.86h0a6.6,6.6,0,0,1,.56,1.4,6.07,6.07,0,0,1-.23,3.63,5.82,5.82,0,0,1-.7,1.3c-.15.2-.31.38-.48.57a5.18,5.18,0,0,1-1.17.95l-.06,0h0l-13.7,8.24-11.51,6.92-.43.26,2.76,4.66,7.35,12.46.54.93c.26-.39.5-.79.76-1.17,5.14-8,10.45-15.6,15.85-22.74q1.63-2.16,3.28-4.26l1.2-1.52c.58-.74,1.18-1.48,1.76-2.21C324.64,294.67,324.59,294.69,324.55,294.72Zm0,0-1.82,1.09-1,.6v-6.67l-2.61-15.4,0,0-7.84-14.13L314,276.25v.05l4.92,8.86h0a6.6,6.6,0,0,1,.56,1.4,6.07,6.07,0,0,1-.23,3.63,5.82,5.82,0,0,1-.7,1.3c-.15.2-.31.38-.48.57a5.18,5.18,0,0,1-1.17.95l-.06,0h0l-13.7,8.24-11.51,6.92-.43.26,2.76,4.66,7.35,12.46.54.93c.26-.39.5-.79.76-1.17,5.14-8,10.45-15.6,15.85-22.74q1.63-2.16,3.28-4.26l1.2-1.52c.58-.74,1.18-1.48,1.76-2.21C324.64,294.67,324.59,294.69,324.55,294.72Zm0,0-1.82,1.09-1,.6v1.95l1.2-1.52c.58-.74,1.18-1.48,1.76-2.21C324.64,294.67,324.59,294.69,324.55,294.72Z"/>
        <path class="cls-2" d="M326.72,292.14c-.69.82-1.37,1.65-2.06,2.49"/>
      </g>
    </g>
    <g>
      <circle class="cls-3" cx="249.87" cy="250.06" r="167.19"/>
      <path class="cls-1" d="M249.88,50.06c-110.46,0-200,89.54-200,200s89.55,200,200,200,200-89.53,200-200S360.34,50.06,249.88,50.06Zm0,385.49c-102.45,0-185.49-83.05-185.49-185.49A185.48,185.48,0,0,1,249.87,64.57c102.45,0,185.5,83,185.5,185.49S352.32,435.55,249.87,435.55Z"/>
    </g>
  </g>
</svg>
