<svg id="Layer_1" data-name="Layer 1" xmlns="http://www.w3.org/2000/svg" viewBox="0 0 500 500">
  <defs>
    <style>
      .cls-1, .cls-2 {
        fill: #2d98d4;
      }

      .cls-1 {
        opacity: 0.19;
      }
    </style>
  </defs>
  <title>ep-actions</title>
  <g>
    <g>
      <circle class="cls-1" cx="247.69" cy="240.51" r="167.19"/>
      <path class="cls-2" d="M247.7,40.51c-110.47,0-200,89.54-200,200s89.54,200,200,200,200-89.53,200-200S358.16,40.51,247.7,40.51Zm0,385.49A185.49,185.49,0,1,1,433.18,240.51,185.48,185.48,0,0,1,247.69,426Z"/>
    </g>
    <path class="cls-2" d="M263.43,339.63h0c-3.2,0-5.41-2.51-6.13-5.23L207.54,169.05l-28.85,95.58a6.2,6.2,0,0,1-5.93,4.4h-49a6.2,6.2,0,1,1,0-12.39h44.37l33.46-110.85a6.19,6.19,0,0,1,5.93-4.4h0a6.2,6.2,0,0,1,5.93,4.41l50,166.07,34.31-113.69a6.19,6.19,0,0,1,5.93-4.4h0a6.18,6.18,0,0,1,5.92,4.4l17.6,58.46h44.36a6.2,6.2,0,1,1,0,12.39h-49a6.18,6.18,0,0,1-5.93-4.41l-13-43.18L269.35,335.23A6.2,6.2,0,0,1,263.43,339.63Z"/>
  </g>
</svg>
