<svg id="Layer_1" data-name="Layer 1" xmlns="http://www.w3.org/2000/svg" viewBox="0 0 500 500">
  <defs>
    <style>
      .cls-1, .cls-2 {
        fill: #a2b1ba;
      }

      .cls-1 {
        opacity: 0.19;
      }
    </style>
  </defs>
  <title>ep-disseminations-disabled</title>
  <g>
    <g>
      <circle class="cls-1" cx="251" cy="254.05" r="167.19"/>
      <path class="cls-2" d="M251,54.05c-110.47,0-200,89.54-200,200s89.54,200,200,200,200-89.53,200-200S361.47,54.05,251,54.05Zm0,385.49c-102.45,0-185.49-83.05-185.49-185.49A185.48,185.48,0,0,1,251,68.56c102.44,0,185.49,83,185.49,185.49S353.44,439.54,251,439.54Z"/>
    </g>
    <g>
      <g>
        <rect class="cls-2" x="97.57" y="225.2" width="107.19" height="5.31" rx="1.56"/>
        <rect class="cls-2" x="126.83" y="267.73" width="77.93" height="5.31" rx="1.56"/>
        <rect class="cls-2" x="113.44" y="246.46" width="91.32" height="5.31" rx="1.56"/>
        <rect class="cls-2" x="143.44" y="288.99" width="61.32" height="5.31" rx="1.56"/>
      </g>
      <g>
        <g>
          <path class="cls-2" d="M339.62,324.86l-1.85,3.2v3.29a4.88,4.88,0,0,1-4.73,4.88l-2.68,4.66h7.71a4.46,4.46,0,0,0,4-2.49,4.41,4.41,0,0,0,.47-2V319.79Zm2.88-142.32a4.47,4.47,0,0,0-4.43-3.93h-11.7l10.47,6,5.7,3.29v-4.86A3.12,3.12,0,0,0,342.5,182.54Zm-47,154.87-2-1.16H233a4.91,4.91,0,0,1-4.9-4.9V188.15a4.91,4.91,0,0,1,4.9-4.89h20.22l.63-3.56a5.5,5.5,0,0,1,.32-1.09H227.84a4.48,4.48,0,0,0-4.48,4.47V336.42a4.47,4.47,0,0,0,4.48,4.47h73.63Zm0-155.34,2-3.46H275.8l14.66,2.57Z"/>
          <g>
            <path class="cls-2" d="M245.56,226.87l-1,5.88h-5.2a2.87,2.87,0,0,1-2.82-2.95,3,3,0,0,1,.83-2.08,2.78,2.78,0,0,1,2-.85Z"/>
            <path class="cls-2" d="M256.68,232.08l3.79.67h-6.11a2.86,2.86,0,0,1,1.85-.71A3.57,3.57,0,0,1,256.68,232.08Z"/>
            <path class="cls-2" d="M239.33,240.4h3.85l-1,5.89h-2.81a2.69,2.69,0,0,1-1.89-.76,3,3,0,0,1-.93-2.19,3,3,0,0,1,.83-2.08,2.7,2.7,0,0,1,1-.66A2.61,2.61,0,0,1,239.33,240.4Z"/>
            <path class="cls-2" d="M238.38,267.64l-.89,5a3,3,0,0,1-1-2.24,3,3,0,0,1,.83-2.08A2.89,2.89,0,0,1,238.38,267.64Z"/>
            <path class="cls-2" d="M237.34,281.86a2.46,2.46,0,0,1,.85-.61l-1.66,2.89a.68.68,0,0,1,0-.2A2.94,2.94,0,0,1,237.34,281.86Z"/>
            <path class="cls-2" d="M239.33,253.94h1.45l-1,5.88h-.43a2.87,2.87,0,0,1-2.82-2.95,3,3,0,0,1,.83-2.08A2.74,2.74,0,0,1,239.33,253.94Z"/>
          </g>
        </g>
        <g>
          <path class="cls-2" d="M230.61,294.34a4.9,4.9,0,0,0,1.8,6.68l.06.05,2.52-14.3Zm0,0a4.9,4.9,0,0,0,1.8,6.68l.06.05,2.52-14.3Zm0,0a4.9,4.9,0,0,0,1.8,6.68l.06.05,2.52-14.3Zm0,0a4.9,4.9,0,0,0,1.8,6.68l.06.05,2.52-14.3Zm0,0a4.9,4.9,0,0,0,1.8,6.68l.06.05,2.52-14.3Zm0,0a4.9,4.9,0,0,0,1.8,6.68l.06.05,2.52-14.3Zm0,0a4.9,4.9,0,0,0,1.8,6.68l.06.05,2.52-14.3Zm0,0a4.9,4.9,0,0,0,1.8,6.68l.06.05,2.52-14.3Zm0,0a4.9,4.9,0,0,0,1.8,6.68l.06.05,2.52-14.3Zm0,0a4.9,4.9,0,0,0,1.8,6.68l.06.05,2.52-14.3Zm0,0a4.9,4.9,0,0,0,1.8,6.68l.06.05,2.52-14.3Zm0,0a4.9,4.9,0,0,0,1.8,6.68l.06.05,2.52-14.3Zm0,0a4.9,4.9,0,0,0,1.8,6.68l.06.05,2.52-14.3Zm0,0a4.9,4.9,0,0,0,1.8,6.68l.06.05,2.52-14.3Zm0,0a4.9,4.9,0,0,0,1.8,6.68l.06.05,2.52-14.3Zm0,0a4.9,4.9,0,0,0,1.8,6.68l.06.05,2.52-14.3Zm0,0a4.9,4.9,0,0,0,1.8,6.68l.06.05,2.52-14.3ZM342.53,319.8l-2.92,5.07-2.43,13.72-.21,1.18a4.5,4.5,0,0,1-.34,1.13,4.92,4.92,0,0,1-5.33,2.85l-2.36-.42-2.48,4.29,5,.89,4.14.72a4.47,4.47,0,0,0,5.19-3.63l1.27-7.19.47-2.67,1.62-9.24,2.42-13.71ZM230.61,294.34a4.9,4.9,0,0,0,1.8,6.68l.06.05,2.52-14.3Zm0,0a4.9,4.9,0,0,0,1.8,6.68l.06.05,2.52-14.3Zm0,0a4.9,4.9,0,0,0,1.8,6.68l.06.05,2.52-14.3Zm0,0a4.9,4.9,0,0,0,1.8,6.68l.06.05,2.52-14.3Zm0,0a4.9,4.9,0,0,0,1.8,6.68l.06.05,2.52-14.3Zm0,0a4.9,4.9,0,0,0,1.8,6.68l.06.05,2.52-14.3Zm0,0a4.9,4.9,0,0,0,1.8,6.68l.06.05,2.52-14.3Zm0,0a4.9,4.9,0,0,0,1.8,6.68l.06.05,2.52-14.3Zm0,0a4.9,4.9,0,0,0,1.8,6.68l.06.05,2.52-14.3Zm0,0a4.9,4.9,0,0,0,1.8,6.68l.06.05,2.52-14.3Zm0,0a4.9,4.9,0,0,0,1.8,6.68l.06.05,2.52-14.3Zm0,0a4.9,4.9,0,0,0,1.8,6.68l.06.05,2.52-14.3Zm0,0a4.9,4.9,0,0,0,1.8,6.68l.06.05,2.52-14.3Zm0,0a4.9,4.9,0,0,0,1.8,6.68l.06.05,2.52-14.3Zm0,0a4.9,4.9,0,0,0,1.8,6.68l.06.05,2.52-14.3Zm0,0a4.9,4.9,0,0,0,1.8,6.68l.06.05,2.52-14.3Zm0,0a4.9,4.9,0,0,0,1.8,6.68l.06.05,2.52-14.3Zm0,0a4.9,4.9,0,0,0,1.8,6.68l.06.05,2.52-14.3ZM363.78,189.41,350.23,187l-7.7-1.35-5.7-1,5.7,3.29,6.06,3.51,9.28,1.64a4.89,4.89,0,0,1,4,5.67l0,.31,4.38,2.54.87-4.89.37-2.14A4.46,4.46,0,0,0,363.78,189.41ZM301.46,340.9l-6-3.48-6.64-1.17-6.76-1.19L233,326.41a4.9,4.9,0,0,1-4-5.67l2.61-14.8.86-4.87,2.52-14.3,2.42-13.72.07-.4.88-5,1.39-7.82,1-5.89,1.35-7.65,1-5.88,1.36-7.65,1-5.88,7.7-43.61.62-3.56a5.82,5.82,0,0,1,.33-1.1,4.93,4.93,0,0,1,5.36-2.86l16.24,2.86,14.65,2.58,5,.89,2-3.47.47-.82-5-.87-37.68-6.65a4.47,4.47,0,0,0-5.18,3.63l-.83,4.71-.82,4.66-7.7,43.61-1,5.88-1.38,7.85-.87,4.93-7,39.56-2.34,13.22-.9,5.08-3.79,21.5a4.47,4.47,0,0,0,3.62,5.19l1.07.18,33.91,6,26.32,4.65,5.49,1,13.39,2.36Z"/>
          <path class="cls-2" d="M272.84,221.21l-3.12,5.43-5-.89L258,224.57a3,3,0,0,1,.54-5.84,2.49,2.49,0,0,1,.47,0l8.83,1.55Z"/>
          <path class="cls-2" d="M265.64,233.67l-3.13,5.43-5-.88-1.86-.33a2.88,2.88,0,0,1-2.27-3.39,3,3,0,0,1,1-1.74,2.84,2.84,0,0,1,1.85-.71,2.49,2.49,0,0,1,.47,0l3.79.67.2,0Z"/>
          <path class="cls-2" d="M251.18,258.73a2.76,2.76,0,0,0-1.89,1.1,2.81,2.81,0,0,0-.6,1.32,2.89,2.89,0,0,0,.16,1.61l1.69-2.93Z"/>
          <path class="cls-2" d="M259.26,246.29h-.9l-3,5.29-2-.36a2.78,2.78,0,0,1-2.17-1.95,2.9,2.9,0,0,1-.1-1.44,2.83,2.83,0,0,1,.77-1.54,2.78,2.78,0,0,1,1.54-.87h0a3.89,3.89,0,0,1,.49,0,3.58,3.58,0,0,1,.48,0l4.11.73Z"/>
        </g>
        <g>
          <path class="cls-2" d="M402.19,217l-35.14-20.3L350.24,187l-7.75-4.47-6.82-3.93-28.94-16.7a4.47,4.47,0,0,0-6.11,1.64l-7.69,13.36-1,1.7-1.5,2.58-1.21,2.08-10,17.42-2.7,4.66-.12.2L273,211.45l-5.13,8.88-3.15,5.43-.64,1.12-3.39,5.88,0,0-3.12,5.43-1.27,2.19-2.89,5h0l-.51.87-1.71,3L248.44,254l-3.4,5.88-4.41,7.65-3,5.26h0l-.17.3-6.95,12.05-2.33,4L224,296.34a4.48,4.48,0,0,0,1.63,6.13l1.63.94.9.51,3.47,2,5.54,3.19,8.35,4.83L282,335.06l2.08,1.2,8,4.64,1.68,1,27.22,15.71a4.48,4.48,0,0,0,6.12-1.65l4.29-7.42,3-5.3,2.69-4.62,5.34-9.27,1.61-2.82,59.68-103.37A4.46,4.46,0,0,0,402.19,217Zm-5,8.12-50.6,87.66-4,7-2.92,5.08-1.85,3.19L333,336.24l-2.68,4.66-1.41,2.44-2.48,4.29-.9,1.53a4.9,4.9,0,0,1-6.68,1.8l-11.65-6.73-5.77-3.33-6-3.47-2-1.17L254.81,314l-10.2-5.89-12.14-7-.06,0a4.91,4.91,0,0,1-1.79-6.68l4.37-7.58,1.53-2.61h0l1.66-2.89v0l4.56-7.88,3.39-5.88,2.72-4.72,1.7-2.93.63-1.1,2.76-4.78,1.37-2.37,3.06-5.28.07-.15,3.31-5.74.76-1.31,3.12-5.42.55-.92,3.4-5.88.13-.24,3.13-5.43,5.64-9.76,2.57-4.46.84-1.43,2.29-4,10.57-18.29.69-1.2,2-3.46.48-.83,4.32-7.46a4.88,4.88,0,0,1,6.68-1.78l17.45,10.07,10.47,6,5.7,3.29,6.07,3.5,13.19,7.62,4.37,2.54,29.21,16.85A4.89,4.89,0,0,1,397.16,225.14Z"/>
          <g>
            <path class="cls-2" d="M329.21,223.34l-26.72-15.43-3.55-2h0l-1.06-.62a2.68,2.68,0,0,0-1.34-.35,2.58,2.58,0,0,0-1.29.33h0A2.94,2.94,0,0,0,294,206.4a3,3,0,0,0-.41,1.51,2.83,2.83,0,0,0,1.38,2.45l22.48,13,3.6,2.08h0l6.58,3.79,8.36,4.83,5.94,3.43,4.77,2.75,10.33,6,4.39,2.53,9.1,5.26a2.95,2.95,0,0,0,2.94-5.1l-11-6.33L358.1,240l-7.73-4.46-3.68-2.12-4.77-2.77-3.9-2.25h0l-4.47-2.58Z"/>
            <path class="cls-2" d="M367.65,264.56a2.87,2.87,0,0,1-3.91,1.14l-4.82-2.79-4.41-2.54-7.82-4.51-4.77-2.76L331.27,247l0,0L324,242.75l-7.62-4.4h0l-2.55-1.47-13.26-7.65L297,227.17h0l-6.63-3.83-2.2-1.27a2.77,2.77,0,0,1-1.37-2.68,2.9,2.9,0,0,1,.4-1.28,3,3,0,0,1,2.55-1.51,2.81,2.81,0,0,1,1.36.37l7.92,4.57h0l3.09,1.8,10.19,5.88,1.64.94,11.62,6.71,7.61,4.4.11.06,8.62,5,4.77,2.75.5.3h0l8.4,4.85,4.39,2.53,6.68,3.86A2.88,2.88,0,0,1,367.65,264.56Z"/>
            <path class="cls-2" d="M305.08,256.29l-.53-.3-9.67-5.59-5.24-3-8-4.62-4-2.33a2.71,2.71,0,0,0-1.37-.37,3,3,0,0,0-2.55,1.51,2.52,2.52,0,0,0-.38,1.19,2.72,2.72,0,0,0,.38,1.81,2.79,2.79,0,0,0,1,1l8.46,4.88,4.5,2.6,5.7,3.29,13.25,7.65.4.22,9.8,5.66,5.1,2.95h0l8.09,4.67,3.42,2h0l8.52,4.91,4.77,2.75,2.82,1.64.7.4a2.95,2.95,0,0,0,2.94-5.1l-2.55-1.47-3.91-2.27-4.77-2.75-3.08-1.78h0l-10.3-5.94-4.62-2.66-5.57-3.22Z"/>
            <path class="cls-2" d="M347.36,299.72a2.69,2.69,0,0,1-.67.78,2.8,2.8,0,0,1-3.25.36l-1.52-.88-2.58-1.48-2.8-1.63h0L333.34,295l-7-4-9.17-5.29h0l-4-2.34-10.22-5.9-.61-.37h0l-12.57-7.25-6.76-3.9-3.42-2L268,257.3l-.12-.07a2.67,2.67,0,0,1-.95-.94,2.88,2.88,0,0,1,0-3,3,3,0,0,1,2.55-1.5,2.7,2.7,0,0,1,1.37.36l7.21,4.16,6.91,4,6.34,3.65,8.59,5,1.59.91,13.22,7.63,4.52,2.61,5.7,3.29,9.23,5.33h0l7.78,4.49,4.46,2.58a3.37,3.37,0,0,1,.31.21A2.9,2.9,0,0,1,347.36,299.72Z"/>
            <path class="cls-2" d="M360.88,276.29a2.88,2.88,0,0,1-3.9,1.14l-.57-.33L352,274.56l-5.33-3.07-4.77-2.75-15.34-8.86h0v0l-6.18-3.57-8.71-5v0h0l-1.46-.84-13.25-7.65-4.63-2.68-5.56-3.2-5.32-3.08a2.75,2.75,0,0,1-1.33-1.85,3,3,0,0,1,.36-2.11,2.36,2.36,0,0,1,.47-.61,2.9,2.9,0,0,1,2.08-.9,2.75,2.75,0,0,1,1.36.37l.92.53,9.07,5.24,4.17,2.41,10.19,5.88.54.32L322,250.4l6.64,3.83,3.19,1.86,10.14,5.85,1.55.9h0l3.19,1.84,6.41,3.7,4.39,2.54,2.42,1.4A2.86,2.86,0,0,1,360.88,276.29Z"/>
            <path class="cls-2" d="M340.6,311.44a2.91,2.91,0,0,1-3.29,1.4,2.47,2.47,0,0,1-.63-.26L332.19,310l-.4-.23-9.07-5.24-10.24-5.91h0l-3-1.71L299.27,291l-1.72-1-11.5-6.64-7.85-4.53-2.36-1.37-12.55-7.25-.67-.38-1.51-.87a2.88,2.88,0,0,1-1-4,3,3,0,0,1,1-1.05,2.86,2.86,0,0,1,1.54-.46,2.75,2.75,0,0,1,1.36.37l.15.09,10.2,5.88,5.84,3.38,7.38,4.25,7.53,4.36,2.68,1.54L311.05,291l3.42,2h0l6.76,3.91,8.14,4.7,10.21,5.89A2.88,2.88,0,0,1,340.6,311.44Z"/>
            <path class="cls-2" d="M333.83,323.17a2.92,2.92,0,0,1-3.92,1.14l-22.15-12.79-1.91-1.1-10.21-5.9-2.81-1.62-10.41-6-8.91-5.15h0l-1.3-.74L259,283.35l-.42-.24-4.22-2.44a2.84,2.84,0,0,1-1.28-3.22,3.33,3.33,0,0,1,.31-.74,3,3,0,0,1,2.55-1.51,2.82,2.82,0,0,1,1.37.37l3.26,1.88,10.21,5.9,4.76,2.75L284,291l6.49,3.73h0l3.72,2.16,13.23,7.63,2.37,1.37,7.85,4.53,7.09,4.09h0l8.08,4.67A2.91,2.91,0,0,1,333.83,323.17Z"/>
            <path class="cls-2" d="M370.55,226a2.94,2.94,0,0,1-4,1.08l-1.19-.69-4.4-2.53-14.26-8.23-4.77-2.75-3.67-2.13-9.83-5.67-8.2-4.73a3,3,0,0,1,1.49-5.51,2.9,2.9,0,0,1,1.46.4l18.75,10.83,4.77,2.76,15.36,8.86,4.39,2.54,3,1.75A2.93,2.93,0,0,1,370.55,226Z"/>
          </g>
        </g>
      </g>
    </g>
  </g>
</svg>
