<svg id="Layer_1" data-name="Layer 1" xmlns="http://www.w3.org/2000/svg" viewBox="0 0 500 500">
  <defs>
    <style>
      .cls-1, .cls-2 {
        fill: #a2b1ba;
      }

      .cls-1 {
        opacity: 0.19;
      }
    </style>
  </defs>
  <title>ep-drillsandexercises-disabled</title>
  <g>
    <g>
      <circle class="cls-1" cx="250.54" cy="248.2" r="167.19"/>
      <path class="cls-2" d="M250.55,48.2c-110.47,0-200,89.54-200,200s89.54,200,200,200,200-89.53,200-200S361,48.2,250.55,48.2Zm0,385.49c-102.45,0-185.49-83.05-185.49-185.49a185.49,185.49,0,0,1,371,0C436,350.64,353,433.69,250.54,433.69Z"/>
    </g>
    <g>
      <path class="cls-2" d="M272.75,355.38a16.77,16.77,0,0,1-13.95-26.05l17.41-26.2-15.43-24.56-22.2-35,16.94-25.53-15.68-3.57L224.29,237.9a16.77,16.77,0,1,1-27.94-18.56l22.11-33.21A16.76,16.76,0,0,1,236,179.22l38.23,8.7c2.2.5,17.1,8.38,44.27,23.41l4.55,2.51-32.56,49,19.81,31.48a16.77,16.77,0,0,1-.7,18.81,16,16,0,0,1-1.17,2.1l-21.68,32.65A16.78,16.78,0,0,1,272.75,355.38Zm-3.43-81.19,18.3,29.08-20.83,31.37a7.18,7.18,0,1,0,12,7.95l21.7-32.66a8,8,0,0,0,.59-1.15l.25-.58.4-.5a7.19,7.19,0,0,0,.49-8.27l-20.82-33.09c-.22-.26-.35-.41-.47-.57l-2-2.71,30.45-45.86c-17-9.35-34.64-18.87-37.43-20l-38-8.65a7.13,7.13,0,0,0-7.58,3.09l-.41.55-21.55,32.44a7.19,7.19,0,0,0,12,8l19.2-28.92,35.67,8.12L250,243.7Z"/>
      <path class="cls-2" d="M314.73,198.51a28.74,28.74,0,1,1,24-12.84A28.59,28.59,0,0,1,314.73,198.51Zm.08-47.92a19.18,19.18,0,0,0-10.64,35.15,19.17,19.17,0,1,0,10.64-35.15Z"/>
      <path class="cls-2" d="M343.73,253.29a15.71,15.71,0,0,1-3.55-.4L307,245.34l19.72-29.41,10.48,2.38,15.29-23a16.54,16.54,0,0,1,22.91-4.62h0A16.52,16.52,0,0,1,380,213.59l-21.25,32a16.47,16.47,0,0,1-9.2,6.69l-.45.14-.33.09-.26.08A17,17,0,0,1,343.73,253.29Zm-21-14.2,19.57,4.46a6.82,6.82,0,0,0,3.57-.18l.31-.09.06,0,.61-.18a6.86,6.86,0,0,0,3.94-2.8l21.25-32a7,7,0,0,0-1.94-9.63h0a6.95,6.95,0,0,0-9.63,1.95l-19,28.53L331,226.73Z"/>
      <path class="cls-2" d="M223.23,311.73a16.44,16.44,0,0,1-6.59-1.38l-34.37-7.82a16.54,16.54,0,0,1-12.44-19.78,16.53,16.53,0,0,1,19.78-12.45l26.38,6,14.74-22.19a8.72,8.72,0,0,1,.86-1.1l4.2-5.17,3.71,5.46,15.36,24.21L237,304.39A16.54,16.54,0,0,1,223.23,311.73Zm-37.3-32.26a6.95,6.95,0,0,0-6.76,5.41,7,7,0,0,0,5.23,8.31l35.37,8.05.49.23A7,7,0,0,0,229,299.1l14.41-21.7-8.13-12.82-15,22.53-32.83-7.46A6.77,6.77,0,0,0,185.93,279.47Z"/>
      <rect class="cls-2" x="146.79" y="147.96" width="133.37" height="9.58" rx="4.79"/>
      <rect class="cls-2" x="146.79" y="171.92" width="64.89" height="9.58" rx="4.79"/>
      <rect class="cls-2" x="146.79" y="195.88" width="46.72" height="9.58" rx="4.79"/>
      <rect class="cls-2" x="146.79" y="219.84" width="37.54" height="9.58" rx="4.79"/>
      <rect class="cls-2" x="146.79" y="243.79" width="23.36" height="9.58" rx="4.79"/>
      <rect class="cls-2" x="146.79" y="267.75" width="13.98" height="9.58" rx="4.79"/>
      <rect class="cls-2" x="146.79" y="291.71" width="13.98" height="9.58" rx="4.79"/>
      <rect class="cls-2" x="146.79" y="315.67" width="57.1" height="9.58" rx="4.79"/>
      <rect class="cls-2" x="146.79" y="339.63" width="93.04" height="9.58" rx="4.79"/>
    </g>
  </g>
</svg>
