<svg id="Layer_1" data-name="Layer 1" xmlns="http://www.w3.org/2000/svg" viewBox="0 0 500 500">
  <defs>
    <style>
      .cls-1, .cls-2 {
        fill: #2d98d4;
      }

      .cls-1 {
        opacity: 0.19;
      }
    </style>
  </defs>
  <title>ep-sops</title>
  <g>
    <g>
      <circle class="cls-1" cx="248.86" cy="249.64" r="167.19"/>
      <path class="cls-2" d="M248.86,49.64c-110.46,0-200,89.54-200,200s89.54,200,200,200,200-89.54,200-200S359.32,49.64,248.86,49.64Zm0,385.49a185.49,185.49,0,0,1,0-371c102.44,0,185.49,83,185.49,185.49S351.3,435.13,248.86,435.13Z"/>
    </g>
    <g>
      <g>
        <path class="cls-2" d="M245.71,212.22a5.15,5.15,0,0,1-3.63-1.53c-4.09-3.86-8.19-7.84-12.29-11.7s-8.31-8-12.41-11.94a4.66,4.66,0,0,1-1.17-5.39,5.46,5.46,0,0,1,4.92-3.39,4.8,4.8,0,0,1,3.51,1.52c7.14,6.67,14.4,13.7,20.84,20,15.33-17.09,31.72-35.24,48-53.5a4.74,4.74,0,0,1,3.63-1.64,5.22,5.22,0,0,1,4.68,3.16,5,5,0,0,1-.93,5.5c-12.53,13.93-25.05,27.86-37.23,41.44L251.68,208c-.35.47-.82.94-1.17,1.41s-.82.82-1.17,1.28A5.13,5.13,0,0,1,245.71,212.22Z"/>
        <path class="cls-2" d="M288,186.35v38.51a10.44,10.44,0,0,1-10.42,10.42H205.91a10.44,10.44,0,0,1-10.42-10.42V153.22a10.44,10.44,0,0,1,10.42-10.42h71.64a10,10,0,0,1,2,.23l-8.07,8.78H205.91a1.35,1.35,0,0,0-1.4,1.41v71.64a1.34,1.34,0,0,0,1.4,1.4h71.64a1.35,1.35,0,0,0,1.41-1.4v-28.8Z"/>
      </g>
      <path class="cls-2" d="M277.72,264h-72a10.31,10.31,0,0,0-10.28,10.27V346.2a10.31,10.31,0,0,0,10.28,10.28h72A10.3,10.3,0,0,0,288,346.2V274.25A10.3,10.3,0,0,0,277.72,264Zm.73,80.56a2.34,2.34,0,0,1-2.34,2.34H207.36a2.34,2.34,0,0,1-2.34-2.34V275.92a2.34,2.34,0,0,1,2.34-2.34h68.75a2.34,2.34,0,0,1,2.34,2.34Z"/>
    </g>
  </g>
</svg>
