<svg id="Layer_1" data-name="Layer 1" xmlns="http://www.w3.org/2000/svg" viewBox="0 0 500 500">
  <defs>
    <style>
      .cls-1, .cls-2 {
        fill: #2d98d4;
      }

      .cls-1 {
        opacity: 0.19;
      }
    </style>
  </defs>
  <title>IN-Actions</title>
  <g>
    <g>
      <circle class="cls-1" cx="252.58" cy="254.28" r="167.19"/>
      <path class="cls-2" d="M252.59,54.28c-110.47,0-200,89.54-200,200s89.54,200,200,200,200-89.54,200-200S363.05,54.28,252.59,54.28Zm0,385.49c-102.45,0-185.49-83-185.49-185.49a185.49,185.49,0,1,1,371,0C438.07,356.72,355,439.77,252.58,439.77Z"/>
    </g>
    <path class="cls-2" d="M153.15,170.8a19.64,19.64,0,0,0,19.64,19.64h40.27v19.15a12.27,12.27,0,0,0,12.27,12.28H272a2.45,2.45,0,0,1,2.45,2.45v12.77H234.17a19.64,19.64,0,0,0-19.64,19.64v9.82a19.64,19.64,0,0,0,19.64,19.64h36.58v31.92H234.17a19.64,19.64,0,0,0-19.64,19.64v9.82a19.64,19.64,0,0,0,19.64,19.64h98.2A19.64,19.64,0,0,0,352,347.57v-9.82a19.64,19.64,0,0,0-19.64-19.64h-51.8V286.19h51.8A19.64,19.64,0,0,0,352,266.55v-9.82a19.64,19.64,0,0,0-19.64-19.64H284.25V224.32A12.27,12.27,0,0,0,272,212.05H225.33a2.46,2.46,0,0,1-2.45-2.46V190.44h45.66a19.64,19.64,0,0,0,19.64-19.64V161a19.64,19.64,0,0,0-19.64-19.64H172.79A19.65,19.65,0,0,0,153.15,161Zm189,167v9.82a9.82,9.82,0,0,1-9.82,9.82h-98.2a9.82,9.82,0,0,1-9.82-9.82v-9.82a9.82,9.82,0,0,1,9.82-9.82h98.2A9.82,9.82,0,0,1,342.19,337.75Zm0-81v9.82a9.81,9.81,0,0,1-9.82,9.82h-98.2a9.82,9.82,0,0,1-9.82-9.82v-9.82a9.82,9.82,0,0,1,9.82-9.82h98.2A9.82,9.82,0,0,1,342.19,256.73ZM163,161a9.82,9.82,0,0,1,9.82-9.82h95.75a9.82,9.82,0,0,1,9.82,9.82v9.82a9.81,9.81,0,0,1-9.82,9.82H172.79A9.82,9.82,0,0,1,163,170.8Z"/>
  </g>
</svg>
