<svg id="Layer_1" data-name="Layer 1" xmlns="http://www.w3.org/2000/svg" viewBox="0 0 500 500">
  <defs>
    <style>
      .cls-1, .cls-2 {
        fill: #2d98d4;
      }

      .cls-1 {
        opacity: 0.19;
      }

      .cls-3 {
        fill: #fff;
      }
    </style>
  </defs>
  <title>EP-Activations</title>
  <g>
    <g>
      <circle class="cls-1" cx="239.82" cy="248.2" r="167.19"/>
      <path class="cls-2" d="M239.83,48.2c-110.47,0-200,89.54-200,200s89.54,200,200,200,200-89.53,200-200S350.28,48.2,239.83,48.2Zm0,385.49c-102.45,0-185.49-83.05-185.49-185.49A185.48,185.48,0,0,1,239.82,62.71c102.44,0,185.49,83,185.49,185.49S342.26,433.69,239.82,433.69Z"/>
    </g>
    <g>
      <g>
        <g>
          <path class="cls-2" d="M206.41,139.17H328.5a5,5,0,0,1,5,5V314a5,5,0,0,1-5,5H206.41a5,5,0,0,1-4.95-5V144.13A5,5,0,0,1,206.41,139.17Z"/>
          <path class="cls-3" d="M206.74,308.36a5.41,5.41,0,0,0,5.42,5.42H322.75a5.42,5.42,0,0,0,5.43-5.42V149.75a5.43,5.43,0,0,0-5.43-5.42H212.16a5.42,5.42,0,0,0-5.42,5.42Z"/>
          <path class="cls-2" d="M215.25,194.61h0a3.21,3.21,0,0,0,3.13,3.27H315a3.21,3.21,0,0,0,3.13-3.27h0a3.2,3.2,0,0,0-3.13-3.26H218.38A3.2,3.2,0,0,0,215.25,194.61Z"/>
          <path class="cls-2" d="M215.25,209.6h0a3.21,3.21,0,0,0,3.13,3.27H315a3.21,3.21,0,0,0,3.13-3.27h0a3.2,3.2,0,0,0-3.13-3.26H218.38A3.2,3.2,0,0,0,215.25,209.6Z"/>
          <path class="cls-2" d="M215.25,239.58h0a3.2,3.2,0,0,0,3.13,3.26H315a3.2,3.2,0,0,0,3.13-3.26h0a3.2,3.2,0,0,0-3.13-3.26H218.38A3.2,3.2,0,0,0,215.25,239.58Z"/>
          <path class="cls-2" d="M215.25,254.57h0a3.2,3.2,0,0,0,3.13,3.26H315a3.2,3.2,0,0,0,3.13-3.26h0a3.2,3.2,0,0,0-3.13-3.26H218.38A3.2,3.2,0,0,0,215.25,254.57Z"/>
          <path class="cls-2" d="M215.25,224.59h0a3.21,3.21,0,0,0,3.13,3.27H315a3.21,3.21,0,0,0,3.13-3.27h0a3.2,3.2,0,0,0-3.13-3.26H218.38A3.2,3.2,0,0,0,215.25,224.59Z"/>
          <path class="cls-2" d="M215.25,269.56h0a3.2,3.2,0,0,0,3.13,3.26H315a3.2,3.2,0,0,0,3.13-3.26h0A3.2,3.2,0,0,0,315,266.3H218.38A3.2,3.2,0,0,0,215.25,269.56Z"/>
          <path class="cls-2" d="M215.25,284.55h0a3.2,3.2,0,0,0,3.13,3.26H315a3.2,3.2,0,0,0,3.13-3.26h0a3.2,3.2,0,0,0-3.13-3.26H218.38A3.2,3.2,0,0,0,215.25,284.55Z"/>
          <rect class="cls-2" x="233.83" y="167.73" width="65.75" height="6.53" rx="3.26"/>
        </g>
        <g>
          <rect class="cls-2" x="187.64" y="148.49" width="132" height="179.76" rx="4.96" transform="translate(-37.54 47.67) rotate(-10)"/>
          <path class="cls-3" d="M207.61,327a5.42,5.42,0,0,0,6.28,4.4l108.92-19.2a5.43,5.43,0,0,0,4.4-6.28L299.66,149.72a5.42,5.42,0,0,0-6.28-4.4L184.47,164.53a5.42,5.42,0,0,0-4.4,6.28Z"/>
          <path class="cls-2" d="M196.25,213.51h0a3.19,3.19,0,0,0,3.64,2.67l95.19-16.78a3.2,3.2,0,0,0,2.51-3.76h0a3.2,3.2,0,0,0-3.65-2.67l-95.18,16.79A3.19,3.19,0,0,0,196.25,213.51Z"/>
          <path class="cls-2" d="M198.85,228.27h0a3.19,3.19,0,0,0,3.64,2.67l95.19-16.78a3.2,3.2,0,0,0,2.51-3.76h0a3.19,3.19,0,0,0-3.64-2.67l-95.19,16.79A3.19,3.19,0,0,0,198.85,228.27Z"/>
          <path class="cls-2" d="M204.05,257.8h0a3.21,3.21,0,0,0,3.65,2.67l95.19-16.79a3.19,3.19,0,0,0,2.51-3.75h0a3.2,3.2,0,0,0-3.65-2.67L206.57,254A3.21,3.21,0,0,0,204.05,257.8Z"/>
          <path class="cls-2" d="M206.66,272.56h0a3.19,3.19,0,0,0,3.64,2.67l95.19-16.78a3.2,3.2,0,0,0,2.51-3.76h0a3.19,3.19,0,0,0-3.64-2.67L209.17,268.8A3.2,3.2,0,0,0,206.66,272.56Z"/>
          <path class="cls-2" d="M201.45,243h0a3.2,3.2,0,0,0,3.65,2.67l95.18-16.79a3.19,3.19,0,0,0,2.51-3.75h0a3.19,3.19,0,0,0-3.64-2.67L204,239.28A3.2,3.2,0,0,0,201.45,243Z"/>
          <path class="cls-2" d="M209.26,287.32h0A3.19,3.19,0,0,0,212.9,290l95.19-16.78a3.19,3.19,0,0,0,2.51-3.76h0a3.19,3.19,0,0,0-3.64-2.67l-95.19,16.79A3.19,3.19,0,0,0,209.26,287.32Z"/>
          <path class="cls-2" d="M211.86,302.08h0a3.2,3.2,0,0,0,3.65,2.67L310.7,288a3.2,3.2,0,0,0,2.51-3.76h0a3.21,3.21,0,0,0-3.65-2.67l-95.19,16.79A3.19,3.19,0,0,0,211.86,302.08Z"/>
          <rect class="cls-2" x="209.94" y="178.06" width="65.75" height="6.53" rx="3.26" transform="translate(-27.8 44.92) rotate(-10)"/>
        </g>
        <g>
          <path class="cls-2" d="M135.37,200.88l105.73-61a5,5,0,0,1,6.77,1.81l84.92,147.09a5,5,0,0,1-1.81,6.78l-105.73,61a5,5,0,0,1-6.78-1.82L133.55,207.65A5,5,0,0,1,135.37,200.88Z"/>
          <path class="cls-3" d="M220.24,347.24a5.44,5.44,0,0,0,7.41,2l95.77-55.3a5.42,5.42,0,0,0,2-7.41L246.1,149.16a5.41,5.41,0,0,0-7.4-2l-95.78,55.29a5.44,5.44,0,0,0-2,7.41Z"/>
          <path class="cls-2" d="M170.74,244.47h0a3.21,3.21,0,0,0,4.34,1.27l83.71-48.33a3.2,3.2,0,0,0,1.07-4.39h0a3.19,3.19,0,0,0-4.34-1.26l-83.7,48.33A3.18,3.18,0,0,0,170.74,244.47Z"/>
          <path class="cls-2" d="M178.24,257.46h0a3.19,3.19,0,0,0,4.33,1.26l83.71-48.33a3.2,3.2,0,0,0,1.08-4.39h0a3.2,3.2,0,0,0-4.34-1.26l-83.71,48.33A3.2,3.2,0,0,0,178.24,257.46Z"/>
          <path class="cls-2" d="M193.23,283.42h0a3.19,3.19,0,0,0,4.33,1.26l83.71-48.33a3.19,3.19,0,0,0,1.08-4.39h0A3.2,3.2,0,0,0,278,230.7L194.3,279A3.2,3.2,0,0,0,193.23,283.42Z"/>
          <path class="cls-2" d="M200.72,296.4h0a3.19,3.19,0,0,0,4.34,1.26l83.71-48.32a3.2,3.2,0,0,0,1.07-4.39h0a3.2,3.2,0,0,0-4.34-1.27L201.8,292A3.2,3.2,0,0,0,200.72,296.4Z"/>
          <path class="cls-2" d="M185.73,270.44h0a3.2,3.2,0,0,0,4.34,1.26l83.71-48.33a3.2,3.2,0,0,0,1.07-4.39h0a3.2,3.2,0,0,0-4.34-1.26l-83.7,48.33A3.2,3.2,0,0,0,185.73,270.44Z"/>
          <path class="cls-2" d="M208.22,309.38h0a3.18,3.18,0,0,0,4.33,1.26l83.71-48.32a3.2,3.2,0,0,0,1.08-4.39h0a3.21,3.21,0,0,0-4.34-1.27L209.29,305A3.19,3.19,0,0,0,208.22,309.38Z"/>
          <path class="cls-2" d="M215.71,322.36h0a3.2,3.2,0,0,0,4.34,1.27l83.71-48.33a3.2,3.2,0,0,0,1.07-4.39h0a3.19,3.19,0,0,0-4.34-1.26L216.79,318A3.2,3.2,0,0,0,215.71,322.36Z"/>
          <rect class="cls-2" x="170.62" y="195.03" width="65.75" height="6.53" rx="3.26" transform="translate(-71.88 128.31) rotate(-30)"/>
        </g>
      </g>
      <g>
        <circle class="cls-2" cx="283.61" cy="294.09" r="63.14"/>
        <path class="cls-3" d="M255.4,285.22l16.07,27.21c15.08-23.55,31.82-44.4,47.46-57.94,4.32-.4,5.72,1.33,4.28,5-16.07,18-29.12,39-42.37,69.89-5.86,4.08-12.58,6.14-15.79,2.34L244,294C241.05,289.3,251.29,278.49,255.4,285.22Z"/>
      </g>
    </g>
  </g>
</svg>
