<svg id="Layer_1" data-name="Layer 1" xmlns="http://www.w3.org/2000/svg" viewBox="0 0 500 500">
  <defs>
    <style>
      .cls-1, .cls-2 {
        fill: #2d98d4;
      }

      .cls-1 {
        opacity: 0.19;
      }
    </style>
  </defs>
  <title>RE-Adjustment</title>
  <g>
    <circle class="cls-1" cx="242.54" cy="251.37" r="167.19"/>
    <path class="cls-2" d="M242.55,51.37c-110.47,0-200,89.54-200,200s89.54,200,200,200,200-89.53,200-200S353,51.37,242.55,51.37Zm0,385.49c-102.45,0-185.49-83.05-185.49-185.49a185.49,185.49,0,1,1,371,0C428,353.81,345,436.86,242.54,436.86Z"/>
    <path class="cls-2" d="M265,247.35H156.19a4,4,0,0,0,0,8H265a24,24,0,0,0,47.4,0h16.46a4,4,0,1,0,0-8H312.43a24,24,0,0,0-47.4,0Zm39.77,4a16.07,16.07,0,1,1-16.07-16.06A16.12,16.12,0,0,1,304.8,251.37ZM172.66,313.62H156.19a4,4,0,0,0,0,8h16.47a24,24,0,0,0,47.39,0H328.89a4,4,0,1,0,0-8H220.05a24,24,0,0,0-47.39,0Zm39.76,4a16.07,16.07,0,1,1-16.06-16.07A16.11,16.11,0,0,1,212.42,317.64Zm.4-136.55H156.19a4,4,0,0,0,0,8h56.63a24,24,0,0,0,47.39,0h68.68a4,4,0,1,0,0-8H260.21a24,24,0,0,0-47.39,0Zm39.76,4A16.07,16.07,0,1,1,236.52,169,16.11,16.11,0,0,1,252.58,185.1Z"/>
  </g>
</svg>
