<svg id="Layer_1" data-name="Layer 1" xmlns="http://www.w3.org/2000/svg" viewBox="0 0 500 500">
  <defs>
    <style>
      .cls-1 {
        fill: #29abe2;
        opacity: 0.19;
      }

      .cls-2 {
        fill: #2d98d4;
      }
    </style>
  </defs>
  <title>GF-Admin-Boundaries</title>
  <g>
    <circle class="cls-1" cx="252.85" cy="260.27" r="167.19"/>
    <path class="cls-2" d="M252.86,60.27c-110.46,0-200,89.54-200,200s89.55,200,200,200,200-89.53,200-200S363.32,60.27,252.86,60.27Zm0,385.49a185.49,185.49,0,0,1,0-371c102.45,0,185.5,83,185.5,185.49S355.3,445.76,252.85,445.76Z"/>
    <g>
      <rect class="cls-2" x="165.44" y="214.54" width="26.38" height="88.79" rx="1.93"/>
      <rect class="cls-2" x="241.31" y="214.54" width="26.38" height="88.79" rx="1.93"/>
      <rect class="cls-2" x="313.87" y="214.54" width="26.39" height="88.79" rx="1.93"/>
      <rect class="cls-2" x="156.37" y="194.2" width="192.97" height="14.01" rx="1.93"/>
      <rect class="cls-2" x="156.37" y="309.66" width="192.97" height="14.01" rx="1.93"/>
      <path class="cls-2" d="M152.4,184.09l99.94-27.43a2,2,0,0,1,1,0l99.94,27.43a1.93,1.93,0,0,1-.51,3.79H152.91A1.93,1.93,0,0,1,152.4,184.09Z"/>
      <rect class="cls-2" x="123.39" y="330" width="258.94" height="14.01" rx="1.93"/>
    </g>
  </g>
</svg>
