<svg id="Layer_1" data-name="Layer 1" xmlns="http://www.w3.org/2000/svg" viewBox="0 0 500 500">
  <defs>
    <style>
      .cls-1 {
        fill: #29abe2;
        opacity: 0.19;
      }

      .cls-2 {
        fill: #2d98d4;
      }
    </style>
  </defs>
  <title>Alerts</title>
  <g>
    <circle class="cls-1" cx="250.4" cy="251.27" r="167.19"/>
    <g>
      <g>
        <path class="cls-2" d="M318.18,171.74v2.43a32.6,32.6,0,0,1-.14,3.67.63.63,0,0,0,.44.69l27.34,8.55a.65.65,0,0,1,.46.62v17.41a.67.67,0,0,1-.16.43l-41,47.37a4,4,0,0,0-.88,2V305a.65.65,0,0,1-.75.64,162,162,0,0,0-19.2-1.85.64.64,0,0,1-.62-.64V247a.65.65,0,0,0-.83-.64,8.59,8.59,0,0,1-2.49.37h0a7.15,7.15,0,0,1-2.27-.36.64.64,0,0,0-.83.62v55.89a.66.66,0,0,1-.7.65c-8.06-.54-14.23-3-18.32-7.47a20.76,20.76,0,0,1-1.77-2.22l-.22-.22a25.53,25.53,0,0,1-3.76-13.93V231.59a3.76,3.76,0,0,0-1.78-3.31,2.6,2.6,0,0,0-2.42-.14l-33,9.28a.65.65,0,0,1-.82-.63V187.25a.65.65,0,0,1,.45-.62L242,178.08a.63.63,0,0,0,.45-.67c-.15-1.74-.17-3.49-.17-5.24a.65.65,0,0,0-.85-.61L211.32,181a.86.86,0,0,1-.39,0l-71.07-22a.65.65,0,0,0-.84.62V335.38a.63.63,0,0,0,.46.62l71.45,22.14a.65.65,0,0,0,.39,0l68.41-21.33a.62.62,0,0,1,.38,0l71.08,22a.66.66,0,0,0,.84-.63V182.39a.65.65,0,0,0-.47-.62Zm-171-3.72,16.17,5.12a.64.64,0,0,1,.45.63l-1.07,49.08a.65.65,0,0,1-.85.61l-15.09-4.69a.65.65,0,0,1-.45-.62V168.64A.65.65,0,0,1,147.16,168Zm0,57.5,31.41,9.7a.65.65,0,0,1,.4.89l-14.24,31.46a.65.65,0,0,1-.88.31l-17.17-8.37a.66.66,0,0,1-.36-.59V226.14A.65.65,0,0,1,147.16,225.52Zm-.84,105.66V267.67a.64.64,0,0,1,.93-.58L181,283.62a.65.65,0,0,1,.32.81L161.8,336a.66.66,0,0,1-.81.39l-14.22-4.54A.64.64,0,0,1,146.32,331.18Zm62.37,19.94-40.25-12.4a.65.65,0,0,1-.42-.85l20.55-54.21a3,3,0,0,0-1.55-4l-16.24-7.91a.64.64,0,0,1-.31-.85l14.76-32.53A.66.66,0,0,1,186,238l22.44,7a.65.65,0,0,1,.46.62V351.12Zm0-114.13a.65.65,0,0,1-.84.62l-23.27-7.26h-.22l-14.8-4.72a.66.66,0,0,1-.45-.63l1.08-49.09a.65.65,0,0,1,.84-.6l37.21,11.55a.64.64,0,0,1,.45.62Zm6.42,113.25v-105a.63.63,0,0,1,.47-.62l30.11-8.49a.66.66,0,0,1,.83.63v42.94a31.5,31.5,0,0,0,2.39,13.58.63.63,0,0,1-.3.83,16.5,16.5,0,0,0-4.52,3.28c-7.69,7.69-10.8,23.66-9.33,47.05a.64.64,0,0,1-.45.66L216,350.86A.65.65,0,0,1,215.11,350.24ZM277,331.8l-35.24,10.89a.66.66,0,0,1-.84-.6C239.77,316,244.79,306,248.29,302a7.63,7.63,0,0,1,4.2-2.66c.44.45.66.89,1.11,1.33,5.42,5.85,13.17,9.16,23.27,9.7a.65.65,0,0,1,.62.64v20.15A.65.65,0,0,1,277,331.8Zm69.25,19.32L284.36,331.8a.64.64,0,0,1-.46-.62V311.32a.64.64,0,0,1,.67-.65,169.58,169.58,0,0,1,22.56,2.41,313.63,313.63,0,0,1,38.92,9.37.64.64,0,0,1,.45.62v28.05Zm-.81-35.62a318.79,318.79,0,0,0-34.05-8.3.64.64,0,0,1-.53-.64V256.69a.66.66,0,0,1,.15-.42l34.09-39.63a.65.65,0,0,1,1.15.42v97.82A.63.63,0,0,1,345.47,315.5Z"/>
        <path class="cls-2" d="M278.81,239.42a2,2,0,0,0,1.77,1.11,1.45,1.45,0,0,0,1.55-1.11c.22-.44,21.46-41.81,26.32-51.32a31.11,31.11,0,1,0-55.74-.22Zm1.77-83.17c14.16,0,24.28,16.1,13.22,31.13-15,11.07-31.13.94-31.13-13.21A18,18,0,0,1,280.58,156.25Z"/>
      </g>
      <path class="cls-2" d="M279.51,342l24.35,7.91a2.74,2.74,0,0,1,1.57,3.26h0a2.24,2.24,0,0,1-2.77,1.85l-22.55-7.33a1.89,1.89,0,0,0-1.2,0l-37,12a2.23,2.23,0,0,1-2.77-1.84h0a2.73,2.73,0,0,1,1.57-3.26L279.51,342h0Z"/>
      <path class="cls-2" d="M211.25,175.86l24.35-7.92a2.74,2.74,0,0,0,1.56-3.26h0a2.22,2.22,0,0,0-2.76-1.84l-22.55,7.33a1.89,1.89,0,0,1-1.2,0l-37-12a2.23,2.23,0,0,0-2.76,1.85h0a2.73,2.73,0,0,0,1.57,3.26l38.75,12.6Z"/>
      <rect class="cls-2" x="356.63" y="209.05" width="5.15" height="95.49" rx="0.87"/>
      <rect class="cls-2" x="356.63" y="309.7" width="5.15" height="21.19" rx="0.87"/>
      <rect class="cls-2" x="356.63" y="335.5" width="5.15" height="10.63" rx="0.87"/>
    </g>
    <path class="cls-2" d="M250.41,51.27c-110.47,0-200,89.55-200,200s89.54,200,200,200,200-89.53,200-200S360.87,51.27,250.41,51.27Zm0,385.5c-102.45,0-185.49-83-185.49-185.5A185.48,185.48,0,0,1,250.4,65.78c102.44,0,185.49,83,185.49,185.49S352.84,436.77,250.4,436.77Z"/>
  </g>
</svg>
