<svg id="Layer_1" data-name="Layer 1" xmlns="http://www.w3.org/2000/svg" viewBox="0 0 500 500">
  <defs>
    <style>
      .cls-1, .cls-2 {
        fill: #2d98d4;
      }

      .cls-1 {
        opacity: 0.19;
      }

      .cls-3 {
        fill: #fff;
      }
    </style>
  </defs>
  <title>IN-Incident-Command-Centre</title>
  <g>
    <circle class="cls-1" cx="250" cy="277.17" r="167.19"/>
    <path class="cls-2" d="M250,77.17c-110.47,0-200,89.54-200,200s89.54,200,200,200,200-89.54,200-200S360.47,77.17,250,77.17Zm0,385.49c-102.45,0-185.49-83.05-185.49-185.49A185.48,185.48,0,0,1,250,91.67c102.44,0,185.49,83,185.49,185.5S352.44,462.66,250,462.66Z"/>
    <g>
      <g>
        <path class="cls-2" d="M266.29,315.92A16.29,16.29,0,1,0,250,332.2,16.31,16.31,0,0,0,266.29,315.92Zm-26.06,0a9.77,9.77,0,1,1,9.77,9.77A9.79,9.79,0,0,1,240.23,315.92Z"/>
        <path class="cls-2" d="M302.12,315.92a16.29,16.29,0,1,0,16.29-16.29A16.3,16.3,0,0,0,302.12,315.92Zm16.29-9.78a9.78,9.78,0,1,1-9.78,9.78A9.79,9.79,0,0,1,318.41,306.14Z"/>
        <path class="cls-2" d="M181.59,332.2a16.29,16.29,0,1,0-16.28-16.28A16.3,16.3,0,0,0,181.59,332.2Zm0-26.06a9.78,9.78,0,1,1-9.77,9.78A9.79,9.79,0,0,1,181.59,306.14Z"/>
        <path class="cls-2" d="M250,338.72A29.35,29.35,0,0,0,220.68,368v6.51h6.52V368a22.8,22.8,0,1,1,45.6,0v6.51h6.52V368A29.35,29.35,0,0,0,250,338.72Z"/>
        <path class="cls-2" d="M318.41,338.72A29.35,29.35,0,0,0,289.09,368v6.51h6.51V368a22.81,22.81,0,1,1,45.61,0v6.51h6.51V368A29.35,29.35,0,0,0,318.41,338.72Z"/>
        <path class="cls-2" d="M181.59,338.72A29.35,29.35,0,0,0,152.28,368v6.51h6.51V368a22.81,22.81,0,1,1,45.61,0v6.51h6.51V368A29.35,29.35,0,0,0,181.59,338.72Z"/>
      </g>
      <g>
        <g>
          <g>
            <path class="cls-2" d="M151.2,241.37c0,.11.07.22.1.33a34.22,34.22,0,0,0-2.65,8.58h-.49a34.06,34.06,0,0,1-27.62-13.9V218.1c.54,0,1.08.07,1.61.12.93.09,1.84.21,2.75.37A33.51,33.51,0,0,1,151.2,241.37Z"/>
            <path class="cls-2" d="M162.69,227.81A35.73,35.73,0,0,0,153,238.48,36.11,36.11,0,0,0,129.46,217a33.5,33.5,0,0,1,8.83-7H149.8A35.45,35.45,0,0,0,162.69,227.81Z"/>
            <path class="cls-2" d="M152,271.88H129.15a32.12,32.12,0,0,1-2.44-25.8,37,37,0,0,0,21.45,6.77h.15c-.1,1.08-.15,2.16-.15,3.25A34.42,34.42,0,0,0,152,271.88Z"/>
            <path class="cls-2" d="M151,252.75a37.07,37.07,0,0,0,14.22-4,36.08,36.08,0,0,0,24.41,23.12H155a31.91,31.91,0,0,1-4.15-15.78C150.8,255,150.86,253.85,151,252.75Z"/>
            <path class="cls-2" d="M184.46,220.68c-.08.87-.2,1.73-.35,2.58-.91,0-1.81.05-2.7.14a31.59,31.59,0,0,1-2.86,8.42,34.07,34.07,0,0,1-10.88-3.89c-.28.84-.52,1.7-.73,2.56a36.85,36.85,0,0,0,10.29,3.71,33.23,33.23,0,0,1-10.39,10.62c.19.89.43,1.76.7,2.62-.77.47-1.55.91-2.35,1.32-.28-.83-.52-1.68-.73-2.53a34.48,34.48,0,0,1-13.11,3.91,32.74,32.74,0,0,1,13.05-20.38l.18-.66c-.65-.42-1.28-.85-1.89-1.3.74-.55,1.5-1.06,2.29-1.55a33,33,0,0,1-12.4-16.2h29.36c-.25.14-.49.3-.73.46a31.62,31.62,0,0,1,.75,6.92,30.92,30.92,0,0,1-.17,3.35C182.67,220.72,183.56,220.69,184.46,220.68Z"/>
            <path class="cls-2" d="M184.61,223.25a34.44,34.44,0,0,1,17.18,4.55,34.44,34.44,0,0,1-17.18,4.55c-1.12,0-2.22,0-3.31-.15a34,34,0,0,0,2.81-8.94Z"/>
            <path class="cls-2" d="M218.43,256.1a32.22,32.22,0,0,1-1.69,10.29,34.45,34.45,0,0,1-16.84,4.35,33.71,33.71,0,0,1-32.36-23.3A36.05,36.05,0,0,0,180,234.65a38.74,38.74,0,0,0,4.59.27,37,37,0,0,0,19.64-5.57A32.54,32.54,0,0,1,218.43,256.1Z"/>
            <path class="cls-2" d="M204.24,226.25a37,37,0,0,0-19.63-5.57h-.15c.1-1.07.15-2.15.15-3.25a34.55,34.55,0,0,0-.79-7.38h32.82A33,33,0,0,1,204.24,226.25Z"/>
            <path class="cls-2" d="M228.78,215.85V255a33.18,33.18,0,0,1-8.67,9.24,34.57,34.57,0,0,0,1-8.12,35,35,0,0,0-14.52-28.3,35.71,35.71,0,0,0,10.21-11.6c.63-.14,1.26-.25,1.9-.35A34.66,34.66,0,0,1,228.78,215.85Z"/>
          </g>
          <path class="cls-2" d="M233.64,202.57H116.51a3.33,3.33,0,0,0-3.33,3.33V276a3.33,3.33,0,0,0,3.33,3.34H233.64A3.34,3.34,0,0,0,237,276V205.9A3.34,3.34,0,0,0,233.64,202.57Zm-2.06,68.71a2.9,2.9,0,0,1-2.9,2.9H121.47a2.9,2.9,0,0,1-2.9-2.9V210.65a2.9,2.9,0,0,1,2.9-2.91H228.68a2.9,2.9,0,0,1,2.9,2.91Z"/>
        </g>
        <g>
          <rect class="cls-2" x="264.46" y="202.57" width="123.78" height="76.78" rx="4.82"/>
          <rect class="cls-3" x="269.84" y="207.74" width="113.01" height="66.44" rx="4.21"/>
          <g>
            <g>
              <path class="cls-2" d="M305.65,222.28h0c0,.9-.23,1.62-.51,1.62H289.35c-.28,0-.51-.72-.51-1.62h0c0-.89.23-1.62.51-1.62h15.79C305.42,220.66,305.65,221.39,305.65,222.28Z"/>
              <path class="cls-2" d="M305.65,241.18h0c0,.89-.23,1.61-.51,1.61H289.35c-.28,0-.51-.72-.51-1.61h0c0-.9.23-1.62.51-1.62h15.79C305.42,239.56,305.65,240.28,305.65,241.18Z"/>
              <path class="cls-2" d="M305.65,251.14h0c0,.89-.23,1.62-.51,1.62H289.35c-.28,0-.51-.73-.51-1.62h0c0-.9.23-1.62.51-1.62h15.79C305.42,249.52,305.65,250.24,305.65,251.14Z"/>
              <path class="cls-2" d="M305.65,261.45h0c0,.89-.23,1.61-.51,1.61H289.35c-.28,0-.51-.72-.51-1.61h0c0-.9.23-1.62.51-1.62h15.79C305.42,259.83,305.65,260.55,305.65,261.45Z"/>
              <path class="cls-2" d="M282.51,257.08h-3.34a2,2,0,0,0-2,2v3.34a2,2,0,0,0,2,2h3.34a2,2,0,0,0,2-2v-3.34A2,2,0,0,0,282.51,257.08Zm1,4.84a1.56,1.56,0,0,1-1.55,1.55h-2.26a1.56,1.56,0,0,1-1.55-1.55v-2.26a1.56,1.56,0,0,1,1.55-1.55H282a1.56,1.56,0,0,1,1.55,1.55Z"/>
              <path class="cls-2" d="M282.51,236.71h-3.34a2,2,0,0,0-2,2v3.34a2,2,0,0,0,2,2h3.34a2,2,0,0,0,2-2v-3.34A2,2,0,0,0,282.51,236.71Zm1,4.84A1.56,1.56,0,0,1,282,243.1h-2.26a1.56,1.56,0,0,1-1.55-1.55v-2.26a1.56,1.56,0,0,1,1.55-1.55H282a1.56,1.56,0,0,1,1.55,1.55Z"/>
              <path class="cls-2" d="M282.51,226.64h-3.34a2,2,0,0,0-2,2V232a2,2,0,0,0,2,2.05h3.34a2,2,0,0,0,2-2.05v-3.33A2,2,0,0,0,282.51,226.64Zm1,4.84A1.55,1.55,0,0,1,282,233h-2.26a1.55,1.55,0,0,1-1.55-1.54v-2.27a1.55,1.55,0,0,1,1.55-1.54H282a1.55,1.55,0,0,1,1.55,1.54Z"/>
              <path class="cls-2" d="M282.51,217.43h-3.34a2,2,0,0,0-2,2v3.34a2,2,0,0,0,2,2h3.34a2,2,0,0,0,2-2v-3.34A2,2,0,0,0,282.51,217.43Zm1,4.84a1.55,1.55,0,0,1-1.55,1.54h-2.26a1.55,1.55,0,0,1-1.55-1.54V220a1.55,1.55,0,0,1,1.55-1.55H282a1.55,1.55,0,0,1,1.55,1.55Z"/>
              <path class="cls-2" d="M282.51,247.09h-3.34a2,2,0,0,0-2,2v3.33a2,2,0,0,0,2,2h3.34a2,2,0,0,0,2-2v-3.33A2,2,0,0,0,282.51,247.09Zm1,4.84a1.55,1.55,0,0,1-1.55,1.54h-2.26a1.55,1.55,0,0,1-1.55-1.54v-2.26a1.55,1.55,0,0,1,1.55-1.55H282a1.55,1.55,0,0,1,1.55,1.55Z"/>
              <path class="cls-2" d="M305.65,231.92h0c0,.9-.23,1.62-.51,1.62H289.35c-.28,0-.51-.72-.51-1.62h0c0-.89.23-1.61.51-1.61h15.79C305.42,230.31,305.65,231,305.65,231.92Z"/>
            </g>
            <g>
              <path class="cls-2" d="M337.27,222h0c0,.9-.21,1.63-.49,1.63l-15.78.2c-.28,0-.52-.72-.53-1.62h0c0-.89.21-1.62.49-1.62l15.78-.2C337,220.36,337.26,221.08,337.27,222Z"/>
              <path class="cls-2" d="M337.51,240.87h0c0,.89-.21,1.62-.49,1.62l-15.78.2c-.29,0-.52-.72-.53-1.61h0c0-.9.2-1.63.49-1.63l15.78-.2C337.26,239.25,337.49,240,337.51,240.87Z"/>
              <path class="cls-2" d="M337.63,250.83h0c0,.89-.21,1.62-.49,1.62l-15.78.2c-.28,0-.52-.72-.53-1.61h0c0-.9.21-1.62.49-1.63l15.78-.19C337.38,249.21,337.62,249.93,337.63,250.83Z"/>
              <path class="cls-2" d="M337.76,261.14h0c0,.89-.21,1.62-.49,1.62l-15.78.2c-.28,0-.52-.72-.53-1.62h0c0-.89.21-1.62.49-1.62l15.78-.2C337.51,259.52,337.75,260.24,337.76,261.14Z"/>
              <path class="cls-2" d="M314.57,257.06l-3.34,0a2,2,0,0,0-2,2.07l0,3.33a2,2,0,0,0,2.07,2l3.33,0a2.05,2.05,0,0,0,2-2.07l0-3.33A2,2,0,0,0,314.57,257.06Zm1.07,4.83a1.55,1.55,0,0,1-1.53,1.56l-2.26,0a1.56,1.56,0,0,1-1.57-1.53l0-2.26a1.54,1.54,0,0,1,1.52-1.56l2.27,0a1.54,1.54,0,0,1,1.56,1.52Z"/>
              <path class="cls-2" d="M314.31,236.69l-3.33,0a2,2,0,0,0-2,2.07l0,3.33a2,2,0,0,0,2.07,2l3.34,0a2,2,0,0,0,2-2.07l0-3.33A2,2,0,0,0,314.31,236.69Zm1.07,4.83a1.54,1.54,0,0,1-1.52,1.56l-2.27,0a1.54,1.54,0,0,1-1.56-1.52l0-2.27a1.54,1.54,0,0,1,1.53-1.56l2.26,0a1.54,1.54,0,0,1,1.56,1.52Z"/>
              <path class="cls-2" d="M314.19,226.62l-3.34,0a2,2,0,0,0-2,2.07l0,3.33a2,2,0,0,0,2.07,2l3.33,0a2.05,2.05,0,0,0,2-2.07l0-3.34A2,2,0,0,0,314.19,226.62Zm1.07,4.83a1.55,1.55,0,0,1-1.53,1.56l-2.26,0a1.55,1.55,0,0,1-1.56-1.53l0-2.26a1.54,1.54,0,0,1,1.52-1.56l2.27,0a1.54,1.54,0,0,1,1.56,1.52Z"/>
              <path class="cls-2" d="M314.07,217.41l-3.33,0a2,2,0,0,0-2,2.07l0,3.33a2,2,0,0,0,2.07,2l3.34,0a2,2,0,0,0,2-2.07l0-3.33A2,2,0,0,0,314.07,217.41Zm1.07,4.83a1.54,1.54,0,0,1-1.52,1.56l-2.27,0a1.54,1.54,0,0,1-1.56-1.52l0-2.27a1.54,1.54,0,0,1,1.53-1.56l2.26,0a1.54,1.54,0,0,1,1.56,1.52Z"/>
              <path class="cls-2" d="M314.44,247.07l-3.33,0a2,2,0,0,0-2,2.07l0,3.33a2.05,2.05,0,0,0,2.07,2l3.33,0a2,2,0,0,0,2-2.07l0-3.34A2,2,0,0,0,314.44,247.07Zm1.07,4.83a1.54,1.54,0,0,1-1.52,1.56l-2.27,0a1.55,1.55,0,0,1-1.56-1.53l0-2.26a1.56,1.56,0,0,1,1.53-1.57l2.26,0a1.54,1.54,0,0,1,1.56,1.52Z"/>
              <path class="cls-2" d="M337.39,231.62h0c0,.89-.21,1.62-.49,1.62l-15.78.2c-.28,0-.52-.72-.53-1.61h0c0-.9.21-1.63.49-1.63l15.78-.2C337.14,230,337.38,230.72,337.39,231.62Z"/>
            </g>
            <rect class="cls-2" x="345.64" y="217.54" width="29.93" height="46.84" rx="2"/>
          </g>
        </g>
      </g>
    </g>
  </g>
</svg>
