<svg id="Layer_1" data-name="Layer 1" xmlns="http://www.w3.org/2000/svg" viewBox="0 0 500 500">
  <defs>
    <style>
      .cls-1 {
        fill: #29abe2;
        opacity: 0.19;
      }

      .cls-2 {
        fill: #2d98d4;
      }
    </style>
  </defs>
  <title>Dashboards</title>
  <g>
    <g>
      <circle class="cls-1" cx="250" cy="243.13" r="167.19"/>
      <path class="cls-2" d="M250,43.13c-110.47,0-200,89.54-200,200s89.54,200,200,200,200-89.53,200-200S360.47,43.13,250,43.13Zm0,385.49c-102.45,0-185.49-83.05-185.49-185.49A185.48,185.48,0,0,1,250,57.64c102.44,0,185.49,83,185.49,185.49S352.44,428.62,250,428.62Z"/>
    </g>
    <g>
      <g>
        <path class="cls-2" d="M377.77,154.36H122.23a8.23,8.23,0,0,0-8.22,8.22v157a8.22,8.22,0,0,0,8.22,8.22H227.94l-8.27,10.3-.13.17-6.09,7.58a4.93,4.93,0,0,0-.65,5.27c1.09,2.27,3.83,3.67,7.18,3.67h58.49c3.21,0,5.93-1.33,7.07-3.47a4.9,4.9,0,0,0-.29-5.13L279.72,338l-.13-.18-6.77-10h105a8.23,8.23,0,0,0,8.22-8.22v-157A8.24,8.24,0,0,0,377.77,154.36ZM276.27,346.92H222.63l7.13-8.89,7.54-9.39a3.42,3.42,0,0,1,.68-.08h25.31a3.15,3.15,0,0,1,.62.06l6.18,9.13.06.1ZM353,321.81A4,4,0,1,1,350.2,315a3.92,3.92,0,0,1,2.83,1.19,4,4,0,0,1,0,5.65Zm15.29,0a4,4,0,1,1-5.66-5.65,4,4,0,0,1,5.66,0,4,4,0,0,1,0,5.65Zm9.26-14.49a4.77,4.77,0,0,1-4.78,4.75H127.17a4.78,4.78,0,0,1-4.77-4.75V167a4.78,4.78,0,0,1,4.77-4.76H372.8a4.77,4.77,0,0,1,4.78,4.76Z"/>
        <path class="cls-2" d="M363.56,203l0,0-1-2.34-.08-.16h0a35.32,35.32,0,0,0-5-7.68l.06,0-2-2.07-.1-.09h0a35.56,35.56,0,0,0-8.46-6.28l.19-.08-3.41-1.45-.08,0h0a35.11,35.11,0,0,0-13.3-2.58h-1.37v7.86a29,29,0,1,0,29.14,29v0h7.7v-1.37A35.31,35.31,0,0,0,363.56,203Zm-31.75-2.44v-9.79l11.9-5a32.34,32.34,0,0,1,9,6Zm23-6.69a32.63,32.63,0,0,1,5.14,7.64l-28.12,11.84v-9.8ZM361,204a32.35,32.35,0,0,1,2.1,10.25H336.66Zm-29.21-16.26V183a32.41,32.41,0,0,1,8.14,1.37ZM355.45,217v0a26.27,26.27,0,1,1-26.39-26.26V217Z"/>
        <path class="cls-2" d="M370.27,293H303V261.62l8.88,18.65,7.26-15,11.07,7.66,9-9.78,11.62,14,9.82-13.35h9.57Zm-65.91-1.93h64.57V265.69h-7.71l-10.29,14-11.71-14.11-8.83,9.56-10.77-7.46-7.71,16-7.55-15.83Z"/>
        <path class="cls-2" d="M281.08,301.24H129.59V277.61H281.08ZM132.74,298.1H277.93V280.76H132.74Z"/>
        <rect class="cls-2" x="290.48" y="170.93" width="3.42" height="128.74" rx="0.56"/>
        <path class="cls-2" d="M258.76,177.8H130V270H280.69V177.8Zm-2.47,15.76c-.4-2.15-1.06-5.58-.92-6.91,3.65,2.31,15.29,20.22,16.57,22.81a53,53,0,0,1,1.41,8.85,68.56,68.56,0,0,1-.12,11.16v.22A21.36,21.36,0,0,1,271,240.44c-1.86,4.08-7.12,16.55-7,20.23v.08a15.25,15.25,0,0,1,0,3.37c-1.61-.27-6.1-1.87-12.69-5.1-7.34-3.59-11.33-6.3-12-7.22.45-2.24,4.76-11.15,7.66-17.12,5.33-11,5.29-11.07,4.72-11.89l0,0c-.93-1.95-4-4-7.41-6.34-2.42-1.63-5.36-3.63-6.35-5a5.56,5.56,0,0,0,.24-1.46q0-.4,0-.81a9.94,9.94,0,0,1,1.86-3.38,8.86,8.86,0,0,1,3.15-2.47l12.4-.72.18,0C257.93,202.11,257.28,198.71,256.29,193.56Zm-94.05,66,0,.08a14.85,14.85,0,0,1,.31,3.35c-1.63-.1-6.25-1.23-13.15-3.75-7.67-2.82-11.92-5.1-12.7-5.94.21-2.28,3.58-11.58,5.85-17.82C146.73,224,146.68,224,146,223.19l0,0c-1.14-1.84-4.34-3.55-8-5.53-1.66-.89-3.54-1.9-5-2.83V207a8.69,8.69,0,0,1,2.49-2.27l12.27-2,.17,0c2.18-.69,1.19-4-.33-9-.63-2.09-1.64-5.43-1.64-6.77,3.88,1.93,17.3,18.54,18.85,21a52.35,52.35,0,0,1,2.31,8.67,66.42,66.42,0,0,1,1,11.11l0,.22a21.42,21.42,0,0,1-1.1,10.92C165.66,243,161.71,255.94,162.24,259.59Zm7.11-20.08a23.83,23.83,0,0,0,1.2-12,69.92,69.92,0,0,0-1.07-11.4,56,56,0,0,0-1.6-6.55,9.17,9.17,0,0,0,1.35.66l.21.09,11.9-.21.24-.87a5.16,5.16,0,0,1,3.3-3.76,4.85,4.85,0,0,1,.91-.17l-2.14,6.12,1.69,11.21L189,235.72l.88,12.55,0,.22c.1.39.2.84.28,1.32-.62.51-1.16,1-1.61,1.41l-8.72-.56a18.35,18.35,0,0,0-4.73.05,27,27,0,0,0-6.21,1.65l-.18.09a12.31,12.31,0,0,0-3.84,3.73A137.82,137.82,0,0,1,169.35,239.51Zm18.35-17.34-1.59-10.56,2.16-6.16a11.62,11.62,0,0,1,2,.67l9,2.14,9.79,4.51,8.41,2.77,1.48-.52a20.26,20.26,0,0,1,2.38,7.75l0,.23a86.3,86.3,0,0,1,2.84,14.24c.19,1.76.32,3.54.41,5.32-.71-.09-1.42-.18-2.14-.25a70.05,70.05,0,0,0-11.45-.15,24,24,0,0,0-11.91,2.17,36.37,36.37,0,0,0-6.8,3.86c0-.07,0-.13,0-.2l-.88-12.56Zm24.24-31.93a35.82,35.82,0,0,1,3.91,6.5l.22.48,9.35,3,.08,0a16,16,0,0,1,3.83,1.56,24.32,24.32,0,0,1,4.63,3.41,10.08,10.08,0,0,1,1.69,3.75,10.49,10.49,0,0,0-.37,2.3,1.25,1.25,0,0,1-.58.35l-6.56-2.39-8.2,2.88a23.37,23.37,0,0,0-2-2.58A22.67,22.67,0,0,0,207.14,203l-1.66-11.44a22.08,22.08,0,0,0-1.31-5.84,20.38,20.38,0,0,0-1.84-3.75,24.19,24.19,0,0,1,6.52,4.73,33.67,33.67,0,0,1,2.46,2.73A1.76,1.76,0,0,0,211.94,190.24Zm11.71,32.2a22.88,22.88,0,0,0-2.46-8.22l6.94-2.44,6.27,2.28h.26a3.6,3.6,0,0,0,1.75-.63,39,39,0,0,0,6.48,5c2.59,1.76,5.79,3.93,6.54,5.27-.45,1.33-2.66,5.89-4.63,9.95-3.24,6.68-5.8,12-7.06,15.31a15.21,15.21,0,0,0-5.77-4.83l-.21-.08c-1.53-.43-3.13-.79-4.77-1.09q-.13-3-.46-6A88.74,88.74,0,0,0,223.65,222.44Zm31.16-22.2-12.26.7-.18.08a11.19,11.19,0,0,0-4.26,3.24,13.38,13.38,0,0,0-1.05,1.47,13,13,0,0,0-1.25-2l-.13-.15a27.78,27.78,0,0,0-5.18-3.82,17.74,17.74,0,0,0-4.38-1.77l-8.32-2.69a38.14,38.14,0,0,0-3-5.15,8.47,8.47,0,0,0,1.39-.51c1.49-.48,8.78,1,14.39,2.59a17,17,0,0,0,4.7.71,10.8,10.8,0,0,0,4.3-.81,35.89,35.89,0,0,0,7.82-2.28,28.67,28.67,0,0,0,5.59-3.14,34.75,34.75,0,0,0,1,7.35A36.54,36.54,0,0,1,254.81,200.24Zm-.57-19.44c-1.11,1.84-2,3.22-2.38,3.72a27.22,27.22,0,0,1-5.41,3.08,33.89,33.89,0,0,1-7.44,2.14l-.15,0-.14.07c-1.1.5-3.54,1.18-7.48,0-.11,0-9.55-2.74-14.16-2.74a5.1,5.1,0,0,0-1.77.23l-.11,0a6.53,6.53,0,0,1-1.86.57,43.06,43.06,0,0,1-.3-7.17Zm-43.57,0c0,1.59,0,3.08.05,4.38-.06-.06-.11-.12-.18-.18a28.21,28.21,0,0,0-5.32-4.2Zm-12.48,0a5.47,5.47,0,0,1,.63.33,19.38,19.38,0,0,1,4.26,10.67L205,205l.81.18a20.29,20.29,0,0,1,10.34,6c.53.59,1,1.19,1.45,1.79l-.2.07L210,210.57,200.1,206l-9-2.15a13.47,13.47,0,0,0-2-.71l3.42-9.76-1.63-8.91a5.5,5.5,0,0,1,2.84-3.7Zm-8.18,0a8.31,8.31,0,0,0-1.56,3.51l0,.2,1.59,8.7-3.37,9.61a7.65,7.65,0,0,0-2.44.31,7.22,7.22,0,0,0-4.66,4.55l-9.67.17a9.69,9.69,0,0,1-4.26-4,9,9,0,0,1-1.25-3.8l3.62-11.9L168,188a18.47,18.47,0,0,1,2.54-7.19Zm-57,0H167.8a21.47,21.47,0,0,0-2.13,6.75L162,199.75v.2c0,.1,0,.22,0,.35-5-6.22-12.49-14.8-15.54-15.83a2,2,0,0,0-2.19.36c-1.35,1.3-.53,4.3,1,9.5a34.91,34.91,0,0,1,1.51,6.11l-12.11,2-.17.1a8.84,8.84,0,0,0-1.53,1ZM133,267V217.62c1.15.68,2.47,1.38,3.84,2.12,2.76,1.49,6.17,3.31,7.06,4.57-.32,1.37-2,6.13-3.58,10.38-3.55,9.78-6.05,16.86-6,18.94v.13c.09.69.35,2.51,13,7.28,5.85,2.21,12.84,4.39,15.56,4.39h.2c1.69-.08,1.88-1.17,1.9-1.51,0-.75,0-1.46,0-2.16a3.34,3.34,0,0,0,1,.76l.22.1,6.68.18,4.88,4.23Zm48.44,0-7.64-6.6-7-.19c-.34-.24-.75-.79-.33-2a8.83,8.83,0,0,1,3.37-3.72,24.47,24.47,0,0,1,5.55-1.47,16,16,0,0,1,4.13-.05l9.9.64.37-.37.55-.5a15.21,15.21,0,0,1-.7,4.15,15.44,15.44,0,0,1-5.7,7.79l-.43.31-.26,2Zm4.26,0,.08-.64a17.68,17.68,0,0,0,6.17-8.71,17.36,17.36,0,0,0,.76-6.83,34.65,34.65,0,0,1,7.31-4.31,21.41,21.41,0,0,1,10.79-2H211a68.8,68.8,0,0,1,11.16.13q1.24.13,2.46.3c0,1.73.05,3.44,0,5.15a37.38,37.38,0,0,1-5.89,14.47c-.56.83-1.17,1.64-1.8,2.42ZM220,267c.25-.36.51-.71.75-1.07A39.69,39.69,0,0,0,227,250.48l0-.16c.06-1.63.06-3.28,0-4.92,1.36.25,2.68.55,4,.91a12.09,12.09,0,0,1,5.88,6,1.94,1.94,0,0,0,.23.56,16.71,16.71,0,0,1,.39,9.87l-.34,4.32Zm57.73,0H239.57l.3-3.87a21.26,21.26,0,0,0,.43-7.5,82.55,82.55,0,0,0,8.72,4.9c5.73,2.87,12.65,5.84,15.21,6l.23,0a1.61,1.61,0,0,0,1.82-1.31,18.58,18.58,0,0,0,.16-4.73c-.07-2.63,3.86-12.75,6.75-19.09a24,24,0,0,0,2.44-11.86,69.82,69.82,0,0,0,.11-11.45,55,55,0,0,0-1.51-9.38l-.07-.21c-.73-1.57-13.6-22.17-18.06-24.23a2.53,2.53,0,0,0-1.08-.25c.55-.89,1.24-2,2-3.26h20.68Z"/>
      </g>
      <path class="cls-2" d="M259.91,234.69a.62.62,0,0,0,.55.35.46.46,0,0,0,.49-.35l8.32-16.21a9.84,9.84,0,1,0-18.1-7.54,9.83,9.83,0,0,0,.49,7.47Zm.55-26.27c4.47,0,7.67,5.09,4.18,9.84-4.75,3.49-9.83.29-9.83-4.18A5.68,5.68,0,0,1,260.46,208.42Z"/>
    </g>
  </g>
</svg>
