<svg id="Layer_1" data-name="Layer 1" xmlns="http://www.w3.org/2000/svg" viewBox="0 0 500 500">
  <defs>
    <style>
      .cls-1, .cls-2 {
        fill: #2d98d4;
      }

      .cls-1 {
        opacity: 0.19;
      }

      .cls-3 {
        fill: #fff;
      }
    </style>
  </defs>
  <title>EP-Disseminations</title>
  <g>
    <g>
      <circle class="cls-1" cx="249.71" cy="248.2" r="167.19"/>
      <path class="cls-2" d="M249.72,48.2c-110.46,0-200,89.54-200,200s89.55,200,200,200,200-89.53,200-200S360.18,48.2,249.72,48.2Zm0,385.49c-102.45,0-185.49-83.05-185.49-185.49A185.48,185.48,0,0,1,249.71,62.71c102.45,0,185.5,83,185.5,185.49S352.16,433.69,249.71,433.69Z"/>
    </g>
    <g>
      <g>
        <g>
          <path class="cls-2" d="M337.43,165.75H229.14a4.4,4.4,0,0,0-4.39,4.39V320.78a4.39,4.39,0,0,0,4.39,4.4H337.43a4.39,4.39,0,0,0,4.4-4.4V170.14A4.4,4.4,0,0,0,337.43,165.75Z"/>
          <path class="cls-3" d="M337.14,315.81a4.8,4.8,0,0,1-4.81,4.8H234.24a4.81,4.81,0,0,1-4.81-4.8V175.12a4.81,4.81,0,0,1,4.81-4.8h98.09a4.8,4.8,0,0,1,4.81,4.8Z"/>
          <path class="cls-2" d="M329.59,214.92h0a2.83,2.83,0,0,1-2.77,2.89H241.09a2.83,2.83,0,0,1-2.77-2.89h0a2.84,2.84,0,0,1,2.77-2.9h85.73A2.84,2.84,0,0,1,329.59,214.92Z"/>
          <path class="cls-2" d="M329.59,228.21h0a2.84,2.84,0,0,1-2.77,2.9H241.09a2.84,2.84,0,0,1-2.77-2.9h0a2.83,2.83,0,0,1,2.77-2.89h85.73A2.83,2.83,0,0,1,329.59,228.21Z"/>
          <path class="cls-2" d="M329.59,254.8h0a2.84,2.84,0,0,1-2.77,2.9H241.09a2.84,2.84,0,0,1-2.77-2.9h0a2.83,2.83,0,0,1,2.77-2.89h85.73A2.83,2.83,0,0,1,329.59,254.8Z"/>
          <path class="cls-2" d="M329.59,268.1h0a2.83,2.83,0,0,1-2.77,2.89H241.09a2.83,2.83,0,0,1-2.77-2.89h0a2.84,2.84,0,0,1,2.77-2.9h85.73A2.84,2.84,0,0,1,329.59,268.1Z"/>
          <path class="cls-2" d="M329.59,241.51h0a2.83,2.83,0,0,1-2.77,2.89H241.09a2.83,2.83,0,0,1-2.77-2.89h0a2.84,2.84,0,0,1,2.77-2.9h85.73A2.84,2.84,0,0,1,329.59,241.51Z"/>
          <path class="cls-2" d="M329.59,281.39h0a2.84,2.84,0,0,1-2.77,2.9H241.09a2.84,2.84,0,0,1-2.77-2.9h0a2.83,2.83,0,0,1,2.77-2.89h85.73A2.83,2.83,0,0,1,329.59,281.39Z"/>
          <path class="cls-2" d="M329.59,294.69h0a2.84,2.84,0,0,1-2.77,2.89H241.09a2.84,2.84,0,0,1-2.77-2.89h0a2.84,2.84,0,0,1,2.77-2.9h85.73A2.84,2.84,0,0,1,329.59,294.69Z"/>
          <rect class="cls-2" x="254.8" y="191.08" width="58.31" height="5.79" rx="2.89"/>
        </g>
        <g>
          <rect class="cls-2" x="215.83" y="195.19" width="159.44" height="117.08" rx="4.4" transform="translate(-5.65 500.72) rotate(-80)"/>
          <path class="cls-3" d="M336.37,332.35a4.82,4.82,0,0,1-5.58,3.9l-96.59-17a4.8,4.8,0,0,1-3.91-5.56L254.72,175.1a4.82,4.82,0,0,1,5.58-3.9l96.59,17a4.81,4.81,0,0,1,3.91,5.57Z"/>
          <path class="cls-2" d="M346.45,231.68h0a2.85,2.85,0,0,1-3.24,2.37l-84.42-14.89a2.83,2.83,0,0,1-2.23-3.33h0a2.85,2.85,0,0,1,3.23-2.37l84.43,14.89A2.84,2.84,0,0,1,346.45,231.68Z"/>
          <path class="cls-2" d="M344.14,244.77h0a2.83,2.83,0,0,1-3.23,2.37l-84.43-14.89a2.83,2.83,0,0,1-2.23-3.33h0a2.85,2.85,0,0,1,3.24-2.37l84.42,14.89A2.84,2.84,0,0,1,344.14,244.77Z"/>
          <path class="cls-2" d="M339.52,271h0a2.84,2.84,0,0,1-3.23,2.37l-84.43-14.89a2.84,2.84,0,0,1-2.22-3.33h0a2.82,2.82,0,0,1,3.23-2.37l84.42,14.89A2.83,2.83,0,0,1,339.52,271Z"/>
          <path class="cls-2" d="M337.21,284.05h0a2.83,2.83,0,0,1-3.23,2.37l-84.43-14.89a2.83,2.83,0,0,1-2.22-3.33h0a2.84,2.84,0,0,1,3.23-2.37L335,280.72A2.84,2.84,0,0,1,337.21,284.05Z"/>
          <path class="cls-2" d="M341.83,257.87h0a2.83,2.83,0,0,1-3.23,2.36l-84.43-14.88a2.84,2.84,0,0,1-2.23-3.33h0a2.84,2.84,0,0,1,3.24-2.37l84.42,14.88A2.84,2.84,0,0,1,341.83,257.87Z"/>
          <path class="cls-2" d="M334.9,297.14h0a2.82,2.82,0,0,1-3.23,2.37l-84.42-14.88a2.84,2.84,0,0,1-2.23-3.34h0a2.83,2.83,0,0,1,3.23-2.36l84.43,14.88A2.84,2.84,0,0,1,334.9,297.14Z"/>
          <path class="cls-2" d="M332.59,310.24h0a2.84,2.84,0,0,1-3.23,2.37l-84.42-14.89a2.84,2.84,0,0,1-2.23-3.33h0a2.83,2.83,0,0,1,3.23-2.37l84.43,14.89A2.83,2.83,0,0,1,332.59,310.24Z"/>
          <rect class="cls-2" x="302.25" y="173.97" width="5.79" height="58.31" rx="2.89" transform="translate(52.11 468.36) rotate(-80)"/>
        </g>
        <g>
          <path class="cls-2" d="M400.44,220.48l-93.78-54.14a4.38,4.38,0,0,0-6,1.61L225.34,298.4a4.39,4.39,0,0,0,1.61,6l93.77,54.15a4.4,4.4,0,0,0,6-1.62l75.32-130.46A4.4,4.4,0,0,0,400.44,220.48Z"/>
          <path class="cls-3" d="M325.16,350.29a4.81,4.81,0,0,1-6.57,1.76L233.65,303a4.81,4.81,0,0,1-1.77-6.56L302.22,174.6a4.83,4.83,0,0,1,6.58-1.76l84.94,49a4.81,4.81,0,0,1,1.76,6.57Z"/>
          <path class="cls-2" d="M369.07,259.14h0a2.83,2.83,0,0,1-3.85,1.12L291,217.4a2.84,2.84,0,0,1-1-3.9h0a2.85,2.85,0,0,1,3.85-1.12l74.24,42.87A2.83,2.83,0,0,1,369.07,259.14Z"/>
          <path class="cls-2" d="M362.42,270.65h0a2.84,2.84,0,0,1-3.85,1.13l-74.24-42.87a2.83,2.83,0,0,1-.95-3.89h0a2.82,2.82,0,0,1,3.84-1.12l74.25,42.86A2.84,2.84,0,0,1,362.42,270.65Z"/>
          <path class="cls-2" d="M349.12,293.68h0a2.82,2.82,0,0,1-3.84,1.12L271,251.94a2.84,2.84,0,0,1-.95-3.89h0a2.83,2.83,0,0,1,3.85-1.12l74.24,42.86A2.83,2.83,0,0,1,349.12,293.68Z"/>
          <path class="cls-2" d="M342.48,305.2h0a2.85,2.85,0,0,1-3.85,1.12l-74.24-42.87a2.83,2.83,0,0,1-1-3.89h0a2.84,2.84,0,0,1,3.85-1.12l74.24,42.86A2.84,2.84,0,0,1,342.48,305.2Z"/>
          <path class="cls-2" d="M355.77,282.17h0a2.85,2.85,0,0,1-3.85,1.12l-74.24-42.87a2.83,2.83,0,0,1-.95-3.89h0a2.85,2.85,0,0,1,3.85-1.12l74.24,42.87A2.83,2.83,0,0,1,355.77,282.17Z"/>
          <path class="cls-2" d="M335.83,316.71h0a2.84,2.84,0,0,1-3.85,1.12L257.74,275a2.84,2.84,0,0,1-.95-3.9h0a2.83,2.83,0,0,1,3.84-1.12l74.25,42.87A2.84,2.84,0,0,1,335.83,316.71Z"/>
          <path class="cls-2" d="M329.18,328.22h0a2.83,2.83,0,0,1-3.85,1.12l-74.24-42.86a2.84,2.84,0,0,1-1-3.89h0a2.83,2.83,0,0,1,3.85-1.12l74.24,42.86A2.84,2.84,0,0,1,329.18,328.22Z"/>
          <rect class="cls-2" x="337.12" y="189.03" width="5.79" height="58.31" rx="2.89" transform="translate(-18.94 403.55) rotate(-60)"/>
        </g>
      </g>
      <g>
        <rect class="cls-2" x="96.79" y="213.53" width="107.19" height="5.31" rx="1.56"/>
        <rect class="cls-2" x="126.05" y="256.06" width="77.93" height="5.31" rx="1.56"/>
        <rect class="cls-2" x="112.65" y="234.79" width="91.32" height="5.31" rx="1.56"/>
        <rect class="cls-2" x="142.66" y="277.32" width="61.32" height="5.31" rx="1.56"/>
      </g>
    </g>
  </g>
</svg>
