<svg id="Layer_1" data-name="Layer 1" xmlns="http://www.w3.org/2000/svg" viewBox="0 0 500 500">
  <defs>
    <style>
      .cls-1 {
        fill: #29abe2;
        opacity: 0.19;
      }

      .cls-2 {
        fill: #2d98d4;
      }
    </style>
  </defs>
  <title>GF-Facilities</title>
  <g>
    <circle class="cls-1" cx="251.74" cy="260.27" r="167.19"/>
    <g>
      <path class="cls-2" d="M302.77,266.43a15.3,15.3,0,0,1-15.31,15.31H267.05v20.41a15.31,15.31,0,1,1-30.61,0V281.74H216a15.31,15.31,0,0,1,0-30.61h20.42V230.72a15.31,15.31,0,1,1,30.61,0v20.41h20.41A15.3,15.3,0,0,1,302.77,266.43Z"/>
      <path class="cls-2" d="M302.77,266.43a15.3,15.3,0,0,1-15.31,15.31H267.05v20.41a15.31,15.31,0,1,1-30.61,0V281.74H216a15.31,15.31,0,0,1,0-30.61h20.42V230.72a15.31,15.31,0,1,1,30.61,0v20.41h20.41A15.3,15.3,0,0,1,302.77,266.43Z"/>
      <path class="cls-2" d="M352.26,210.21l-96.74-87.87a5.67,5.67,0,0,0-7.55,0l-96.73,87.87a5.63,5.63,0,0,0-1.88,4.21V369.65a1.51,1.51,0,0,0,1.5,1.5H352.62a1.5,1.5,0,0,0,1.5-1.5V214.42A5.69,5.69,0,0,0,352.26,210.21Zm-8.67,149.26a1.51,1.51,0,0,1-1.5,1.52H161.39a1.52,1.52,0,0,1-1.5-1.52V218.68a5.19,5.19,0,0,1,1.68-3.82l86.78-79.79a5.06,5.06,0,0,1,6.78,0l88,80.88a1.51,1.51,0,0,1,.49,1.12Z"/>
      <path class="cls-2" d="M302.77,266.43a15.3,15.3,0,0,1-15.31,15.31H267.05v20.41a15.31,15.31,0,1,1-30.61,0V281.74H216a15.31,15.31,0,0,1,0-30.61h20.42V230.72a15.31,15.31,0,1,1,30.61,0v20.41h20.41A15.3,15.3,0,0,1,302.77,266.43Z"/>
    </g>
    <path class="cls-2" d="M251.75,60.27c-110.47,0-200,89.54-200,200s89.54,200,200,200,200-89.53,200-200S362.21,60.27,251.75,60.27Zm0,385.49A185.49,185.49,0,1,1,437.23,260.27,185.48,185.48,0,0,1,251.74,445.76Z"/>
  </g>
</svg>
