<svg id="Layer_1" data-name="Layer 1" xmlns="http://www.w3.org/2000/svg" viewBox="0 0 500 500">
  <defs>
    <style>
      .cls-1 {
        fill: #29abe2;
        opacity: 0.19;
      }

      .cls-2 {
        fill: #2d98d4;
      }
    </style>
  </defs>
  <title>GF-Facilities</title>
  <g>
    <circle class="cls-1" cx="250" cy="257.7" r="167.19"/>
    <path class="cls-2" d="M250,57.7c-110.47,0-200,89.54-200,200s89.54,200,200,200,200-89.53,200-200S360.47,57.7,250,57.7Zm0,385.49a185.49,185.49,0,0,1,0-371c102.44,0,185.49,83,185.49,185.49S352.44,443.19,250,443.19Z"/>
    <g>
      <path class="cls-2" d="M350.51,211.92,253.78,124a5.7,5.7,0,0,0-7.56,0l-96.73,87.88a5.65,5.65,0,0,0-1.87,4.2V371.36a1.5,1.5,0,0,0,1.5,1.49H350.88a1.5,1.5,0,0,0,1.5-1.49V216.12A5.65,5.65,0,0,0,350.51,211.92Zm-8.66,149.26a1.52,1.52,0,0,1-1.5,1.52H159.65a1.52,1.52,0,0,1-1.5-1.52V220.39a5.17,5.17,0,0,1,1.68-3.82l86.78-79.79a5.06,5.06,0,0,1,6.78,0l88,80.87a1.52,1.52,0,0,1,.5,1.13Z"/>
      <path class="cls-2" d="M223.45,276.59h21V253.32a5.58,5.58,0,0,1,5.58-5.59h0a5.58,5.58,0,0,1,5.58,5.59v23.27h21a5.53,5.53,0,0,1,5.53,5.52v0a5.53,5.53,0,0,1-5.53,5.52h-21v23.42a5.58,5.58,0,0,1-5.58,5.58h0a5.58,5.58,0,0,1-5.58-5.58V287.65h-21a5.53,5.53,0,0,1-5.53-5.52v0A5.53,5.53,0,0,1,223.45,276.59Z"/>
    </g>
  </g>
</svg>
