<svg id="Layer_1" data-name="Layer 1" xmlns="http://www.w3.org/2000/svg" viewBox="0 0 500 500">
  <defs>
    <style>
      .cls-1 {
        fill: #29abe2;
        opacity: 0.19;
      }

      .cls-2 {
        fill: #2d98d4;
      }
    </style>
  </defs>
  <title>Geographical Features</title>
  <g>
    <circle class="cls-1" cx="249.76" cy="251.27" r="167.19"/>
    <g>
      <path class="cls-2" d="M249,237.52A16.78,16.78,0,0,0,233.15,254a16.6,16.6,0,0,0,14.36,16.45v63.81a2.28,2.28,0,0,0,1.51,2.22,2.24,2.24,0,0,0,3-2.12V270.48a16.56,16.56,0,0,0-3-33ZM260.85,256a11.25,11.25,0,1,1-13-13A11.26,11.26,0,0,1,260.85,256Z"/>
      <g>
        <g>
          <path class="cls-2" d="M167.93,250.49a70.46,70.46,0,0,1,20.85-50.26,2.25,2.25,0,0,0,0-3.18c-.87-.88-5.25-2.87-6.13-2-14.29,14.25-22.79,36.35-22.79,56.56s10,40.34,24.35,54.6c.44.44,2.53-.83,3.11-.83s1-1,1.46-1.46a2.25,2.25,0,0,0,0-3.18A70.53,70.53,0,0,1,167.93,250.49Z"/>
          <path class="cls-2" d="M217.44,225.7c-.88-.88-4.17-1.32-5.05-.44-6.63,6.58-10,16.65-10,26.05s4.36,18.35,11,25a2.91,2.91,0,0,0,2.69.13c.42-.39,1-.7,1.43-1.14a2.25,2.25,0,0,0,0-3.17,30.55,30.55,0,0,1,0-43.22A2.25,2.25,0,0,0,217.44,225.7Z"/>
          <path class="cls-2" d="M160.36,168.66c-.88-.87-5.5-3.44-6.38-2.56-21.86,21.86-34.84,53.48-34.84,84.39s13.52,64.22,35.38,86.09c.44.44,4.2-2.05,4.77-2.05s.86-1.55,1.3-2a2.5,2.5,0,0,0-.23-3.37,111.23,111.23,0,0,1,0-157.33A2.25,2.25,0,0,0,160.36,168.66Z"/>
        </g>
        <g>
          <path class="cls-2" d="M331.58,250.49a70.46,70.46,0,0,0-20.85-50.26,2.25,2.25,0,0,1,0-3.18c.87-.88,5.25-2.87,6.13-2,14.3,14.25,22.79,36.35,22.79,56.56s-10,40.34-24.34,54.6c-.44.44-2.54-.83-3.11-.83s-1-1-1.47-1.46a2.25,2.25,0,0,1,0-3.18A70.49,70.49,0,0,0,331.58,250.49Z"/>
          <path class="cls-2" d="M282.07,225.7c.88-.88,4.17-1.32,5.06-.44,6.62,6.58,10,16.65,10,26.05s-4.35,18.35-11,25a2.91,2.91,0,0,1-2.69.13c-.42-.39-1-.7-1.42-1.14a2.23,2.23,0,0,1,0-3.17,30.56,30.56,0,0,0,0-43.22A2.25,2.25,0,0,1,282.07,225.7Z"/>
          <path class="cls-2" d="M339.15,168.66c.88-.87,5.5-3.44,6.38-2.56,21.87,21.86,34.84,53.48,34.84,84.39S366.85,314.71,345,336.58c-.44.44-4.19-2.05-4.77-2.05s-.85-1.55-1.29-2a2.49,2.49,0,0,1,.22-3.37,111.23,111.23,0,0,0,0-157.33A2.25,2.25,0,0,1,339.15,168.66Z"/>
        </g>
      </g>
    </g>
    <path class="cls-2" d="M249.76,51.27c-110.46,0-200,89.55-200,200s89.54,200,200,200,200-89.53,200-200S360.22,51.27,249.76,51.27Zm0,385.5c-102.46,0-185.49-83-185.49-185.5A185.48,185.48,0,0,1,249.76,65.78c102.44,0,185.49,83,185.49,185.49S352.2,436.77,249.76,436.77Z"/>
  </g>
</svg>
