<svg id="Layer_1" data-name="Layer 1" xmlns="http://www.w3.org/2000/svg" viewBox="0 0 500 500">
  <defs>
    <style>
      .cls-1, .cls-2 {
        fill: #2d98d4;
      }

      .cls-1 {
        opacity: 0.19;
      }
    </style>
  </defs>
  <title>IN-Incident-Type</title>
  <g>
    <g>
      <circle class="cls-1" cx="280.92" cy="277.17" r="167.19"/>
      <path class="cls-2" d="M280.93,77.17c-110.47,0-200,89.54-200,200s89.54,200,200,200,200-89.54,200-200S391.38,77.17,280.93,77.17Zm0,385.49c-102.45,0-185.49-83.05-185.49-185.49A185.48,185.48,0,0,1,280.92,91.67c102.44,0,185.49,83,185.49,185.5S383.36,462.66,280.92,462.66Z"/>
    </g>
    <g>
      <path class="cls-2" d="M272.2,218.18c4.37-2.53,5.21-9.26,1.87-15.05h0l-20.18-34.94c-3.35-5.79-9.6-8.42-14-5.88s-5.18,9.24-1.86,15l20.17,34.94c3.35,5.79,9.6,8.43,14,5.91Z"/>
      <path class="cls-2" d="M250.62,253.25a9.61,9.61,0,0,0-6.57-11.39l-52.5-15.33a8.63,8.63,0,0,0-10.9,6.29,9.61,9.61,0,0,0,6.58,11.39l52.5,15.33A8.62,8.62,0,0,0,250.62,253.25Z"/>
      <path class="cls-2" d="M275.77,316.11l-10,43.62A10.76,10.76,0,0,0,273,372.24a9.05,9.05,0,0,0,11.64-6.73h0l10-43.61a10.76,10.76,0,0,0-7.22-12.51A9,9,0,0,0,275.77,316.11Z"/>
      <path class="cls-2" d="M321,151.89l-10,43.62A10.73,10.73,0,0,0,318.2,208a9,9,0,0,0,11.64-6.72h0l10-43.62a10.75,10.75,0,0,0-7.22-12.5A9.05,9.05,0,0,0,321,151.89Z"/>
      <path class="cls-2" d="M321.24,305.74c-4.11,2.37-5.58,7.53,1.33,19.5h0l41.69,72.21c6.91,12,12.29,13.58,16.4,11.2s5.41-7.84-1.5-19.8l-41.69-72.22C330.56,304.67,325.36,303.36,321.24,305.74Z"/>
      <path class="cls-2" d="M150.36,349.69c2.37,4.12,7.53,5.59,19.5-1.32h0l72.21-41.69c12-6.91,13.58-12.29,11.2-16.41s-7.84-5.41-19.8,1.5l-72.22,41.7C149.29,340.37,148,345.58,150.36,349.69Z"/>
      <path class="cls-2" d="M349.15,270.15a10.21,10.21,0,0,0-12.66,7.31,10.67,10.67,0,0,0,7.45,12.89l25.44,7.07A10.21,10.21,0,0,0,382,290.11a10.66,10.66,0,0,0-7.44-12.89Z"/>
      <path class="cls-2" d="M389.55,200.19l-52.37,30.24c-9.39,5.21-14.95,13.53-12.45,18.58h0c3.13,4.7,13.11,4,22.32-1.48l52.37-30.23c9.38-5.22,14.95-13.53,12.44-18.59h0C408.74,194,398.75,194.68,389.55,200.19Z"/>
      <g>
        <path class="cls-2" d="M286.42,234.82a19.28,19.28,0,0,1,5.33-.53,23.07,23.07,0,0,1,5.47.66l1,6.5.34,2.17,1.9,1.08,3,1.73,2,1.22,2.07-.83,5.79-2.25a26.67,26.67,0,0,1,5.6,9.68l-5,4-1.75,1.38.07,2.32v5.65l1.7,1.38,5.12,4.14a26.56,26.56,0,0,1-5.29,9.42l-5.93-2.4-2.18-.93-2,1.18L300.75,282l-2,1.18-.29,2.35-.89,6.33a16.27,16.27,0,0,1-5,.51,23.07,23.07,0,0,1-5.47-.66l-1-6.5-.35-2.17-1.9-1.08-3-1.73-2-1.22-2.07.83L271,282.11a26.79,26.79,0,0,1-5.59-9.68l5-4,1.75-1.38-.07-2.32v-5.65l-1.71-1.38-5.33-4.2a26.56,26.56,0,0,1,5.29-9.42l5.93,2.4,2.17.93,2.05-1.18,2.86-1.66,2.05-1.18.28-2.34.76-6.26m-4.26-3.91-1.4,9.54-2.87,1.66-8.83-3.64a33.75,33.75,0,0,0-9.44,16.73l7.57,6.18v3.46l-7.34,5.87a34.9,34.9,0,0,0,9.84,17.05l8.76-3.42,2.92,1.59,1.49,9.51a35.5,35.5,0,0,0,9.62,1.54,31.44,31.44,0,0,0,9.58-1.35l1.41-9.54,2.86-1.65,8.83,3.63a33.59,33.59,0,0,0,9.44-16.73l-7.49-6v-3.46l7.34-5.87a34.9,34.9,0,0,0-9.84-17.06l-8.76,3.42-2.92-1.59-1.48-9.5a35.56,35.56,0,0,0-9.62-1.54,28,28,0,0,0-9.67,1.21Z"/>
        <path class="cls-2" d="M288.21,256.52a7.88,7.88,0,1,1-2.88,10.76,7.79,7.79,0,0,1,2.88-10.76m-2.36-4.09A12.6,12.6,0,1,0,303.06,257a12.63,12.63,0,0,0-17.21-4.61Z"/>
      </g>
    </g>
  </g>
</svg>
