<svg id="Layer_1" data-name="Layer 1" xmlns="http://www.w3.org/2000/svg" viewBox="0 0 500 500">
  <defs>
    <style>
      .cls-1, .cls-3 {
        fill: #29abe2;
      }

      .cls-1 {
        opacity: 0.19;
      }

      .cls-2 {
        fill: #2d98d4;
      }
    </style>
  </defs>
  <title>Incidents</title>
  <g>
    <circle class="cls-1" cx="244.54" cy="251.27" r="161.76"/>
    <path class="cls-2" d="M244.55,57.77C137.67,57.77,51,144.41,51,251.28s86.63,193.49,193.51,193.49S438,358.15,438,251.28,351.42,57.77,244.55,57.77Zm0,373A179.47,179.47,0,1,1,424,251.27,179.46,179.46,0,0,1,244.54,430.74Z"/>
    <g>
      <path class="cls-3" d="M286.79,230.67a59.74,59.74,0,0,0-102.07,42.24v77.31H304.37V272.91A59.59,59.59,0,0,0,286.79,230.67Zm-77.41,16.48c-.26.31-.52.63-.76,1a30.28,30.28,0,0,0-5.44,11.55,3.12,3.12,0,0,1-6.11-1.27,33.3,33.3,0,0,1,6.26-14.33c.32-.43.65-.83,1-1.24a3.13,3.13,0,0,1,4.28-.44l.32.26A3.13,3.13,0,0,1,209.38,247.15Z"/>
      <path class="cls-3" d="M327.44,344.6a5.63,5.63,0,0,1-5.62,5.62H167.26a5.61,5.61,0,0,1-4-9.59,5.58,5.58,0,0,1,4-1.65H321.82A5.64,5.64,0,0,1,327.44,344.6Z"/>
      <g>
        <g>
          <rect class="cls-3" x="149.67" y="191.94" width="33.46" height="8.31" rx="4.16" transform="translate(120.34 -56.93) rotate(30)"/>
          <rect class="cls-3" x="130.32" y="251.91" width="33.46" height="8.31" rx="4.16"/>
        </g>
        <g>
          <rect class="cls-3" x="325.3" y="251.91" width="33.46" height="8.31" rx="4.16" transform="translate(684.07 512.13) rotate(-180)"/>
          <rect class="cls-3" x="307.91" y="191.94" width="33.46" height="8.31" rx="4.16" transform="translate(703.84 203.59) rotate(150)"/>
        </g>
        <rect class="cls-3" x="228.3" y="164.9" width="33.46" height="8.31" rx="4.16" transform="translate(414.09 -75.97) rotate(90)"/>
      </g>
    </g>
  </g>
</svg>
