<svg id="Layer_1" data-name="Layer 1" xmlns="http://www.w3.org/2000/svg" viewBox="0 0 500 500">
  <defs>
    <style>
      .cls-1, .cls-2 {
        fill: #2d98d4;
      }

      .cls-1 {
        opacity: 0.19;
      }
    </style>
  </defs>
  <title>AS-Indicators</title>
  <g>
    <circle class="cls-1" cx="250" cy="253.35" r="167.19"/>
    <path class="cls-2" d="M250,53.35c-110.47,0-200,89.54-200,200s89.54,200,200,200,200-89.53,200-200S360.47,53.35,250,53.35Zm0,385.49c-102.45,0-185.49-83-185.49-185.49A185.48,185.48,0,0,1,250,67.86c102.44,0,185.49,83,185.49,185.49S352.44,438.84,250,438.84Z"/>
    <path class="cls-2" d="M252.85,142.35a130.06,130.06,0,0,0-130,130,5.92,5.92,0,0,0,5.91,5.91h26.58a5.91,5.91,0,1,0,.17-11.82H135.24a118,118,0,0,1,30.19-73.2l9.41,9.41a5.91,5.91,0,0,0,8.48-8.24l-.17-.16-9.41-9.41a116.79,116.79,0,0,1,73.2-30.47v20.5a5.91,5.91,0,0,0,11.82.16V154.35A116.79,116.79,0,0,1,332,184.82l-9.41,9.41a5.91,5.91,0,0,0,8.14,8.57l.17-.17,9.41-9.41a118,118,0,0,1,30.19,73.2H350.33a5.91,5.91,0,1,0-.16,11.82h26.75a5.92,5.92,0,0,0,5.91-5.91A130.07,130.07,0,0,0,252.85,142.35Zm-48.47,76a5.9,5.9,0,0,0-5,8.4S205.64,240.29,213,255c3.66,7.34,7.64,15,11.26,21.41s6.45,11.34,9.79,14.68a26.6,26.6,0,0,0,37.66-37.57c-3.34-3.34-8.34-6.26-14.77-9.88s-14.07-7.51-21.42-11.17c-14.69-7.33-28.24-13.57-28.24-13.57A5.92,5.92,0,0,0,204.38,218.33Zm13,18.46c5,2.38,6.16,2.86,12.83,6.18,7.24,3.62,14.73,7.53,20.87,11s11.2,6.86,12.18,7.85a14.78,14.78,0,0,1-20.86,20.95c-1-1-4.49-6.05-7.94-12.18S227.2,257,223.59,249.71C220.25,243,219.78,241.81,217.4,236.79Z"/>
  </g>
</svg>
