<svg id="Layer_1" data-name="Layer 1" xmlns="http://www.w3.org/2000/svg" viewBox="0 0 500 500">
  <defs>
    <style>
      .cls-1, .cls-2 {
        fill: #2d98d4;
      }

      .cls-1 {
        opacity: 0.19;
      }
    </style>
  </defs>
  <title>GF-Infrastructure</title>
  <g>
    <circle class="cls-1" cx="252.11" cy="260.27" r="167.19"/>
    <path class="cls-2" d="M252.12,60.27c-110.47,0-200,89.54-200,200s89.54,200,200,200,200-89.53,200-200S362.58,60.27,252.12,60.27Zm0,385.49A185.49,185.49,0,1,1,437.6,260.27,185.48,185.48,0,0,1,252.11,445.76Z"/>
    <g>
      <path class="cls-2" d="M357.57,172.13H334.91V154.51a2.52,2.52,0,0,0-2.52-2.53H302.18a2.52,2.52,0,0,0-2.51,2.53v17.62H269.46V154.51a2.53,2.53,0,0,0-2.52-2.53H236.73a2.52,2.52,0,0,0-2.51,2.53v17.62H204V154.51a2.52,2.52,0,0,0-2.51-2.53H170.81a2.54,2.54,0,0,0-2.05,2.53v17.62H146.11a2.51,2.51,0,0,0-2.52,2.51v95.67a2.51,2.51,0,0,0,2.52,2.51h30.21a2.51,2.51,0,0,0,2.51-2.51c0-34.58,32.48-62.94,73-62.94s72.86,28.34,73,62.94a2.51,2.51,0,0,0,2.52,2.51h30.21a2.51,2.51,0,0,0,2.51-2.51V174.64A2.51,2.51,0,0,0,357.57,172.13Zm-4.21,91.67h-21c-1.61-33.9-38.8-65.15-79.74-65.15s-79,31.27-80.52,65.15H151.87V179.7H174a2.4,2.4,0,0,0,2.46-2.34V161h20l.45,17.25c0,1.29,1.73,1.94,3.09,1.94l37.87-.5c1.35,0,3.82-1.18,3.82-2.47L241.58,161h20.56l.22,15.78c0,1.29,1.73,2.58,3.09,2.58l39.23.35c1.36,0,3.07-1.26,3.07-2.55V161h19.11l.27,16.23c0,1.29,2.19,2.41,3.55,2.41l22.67,0Z"/>
      <path class="cls-2" d="M254.75,282.89v25.24a2.52,2.52,0,1,1-5-.07V282.89a2.53,2.53,0,0,1,2.21-2.6,2.75,2.75,0,0,1,.41,0A2.52,2.52,0,0,1,254.75,282.89Z"/>
      <path class="cls-2" d="M360.26,364.71l-78-130.91a2.53,2.53,0,0,0-2.12-1.17H224.71a1.85,1.85,0,0,0-.47,0,2.52,2.52,0,0,0-1.65,1.17l-78,130.91a2.52,2.52,0,0,0,2.12,3.86H358.14a2.52,2.52,0,0,0,2.5-2.54A2.45,2.45,0,0,0,360.26,364.71Zm-105.58-7.57V338.7a2.29,2.29,0,0,0-2.19-2.39,1.53,1.53,0,0,0-.37,0,2.29,2.29,0,0,0-2,2.37v18.44H160.92l67.69-115.29h21.52v13.84a2.28,2.28,0,1,0,4.55.06v-13.9H276.2l67.69,115.29Z"/>
    </g>
  </g>
</svg>
