<svg id="Layer_1" data-name="Layer 1" xmlns="http://www.w3.org/2000/svg" viewBox="0 0 500 500">
  <defs>
    <style>
      .cls-1, .cls-2 {
        fill: #2d98d4;
      }

      .cls-1 {
        opacity: 0.19;
      }
    </style>
  </defs>
  <title>AL-Alerts</title>
  <g>
    <circle class="cls-1" cx="250" cy="251.74" r="167.19"/>
    <path class="cls-2" d="M250,51.74c-110.47,0-200,89.54-200,200s89.54,200,200,200,200-89.54,200-200S360.47,51.74,250,51.74Zm0,385.49c-102.45,0-185.49-83.05-185.49-185.49A185.48,185.48,0,0,1,250,66.25c102.44,0,185.49,83,185.49,185.49S352.44,437.23,250,437.23Z"/>
    <g>
      <path class="cls-2" d="M357.42,328.12,253.54,154a4.12,4.12,0,0,0-7.07,0L142.58,328.12a4.11,4.11,0,0,0,3.54,6.22H353.89A4.11,4.11,0,0,0,357.42,328.12Zm-21.87-3.5H164.46a4.11,4.11,0,0,1-3.56-6.17l85.54-148.16a4.12,4.12,0,0,1,7.13,0l85.54,148.16A4.12,4.12,0,0,1,335.55,324.62Z"/>
      <g>
        <path class="cls-2" d="M251.13,219.61a5.87,5.87,0,0,0-5.87,5.87l2.15,44.06a3.81,3.81,0,0,0,7.61,0l2-44A5.87,5.87,0,0,0,251.13,219.61Z"/>
        <path class="cls-2" d="M251.13,278.1a5.54,5.54,0,1,0,5.54,5.55A5.54,5.54,0,0,0,251.13,278.1Z"/>
      </g>
    </g>
  </g>
</svg>
