<svg id="Layer_1" data-name="Layer 1" xmlns="http://www.w3.org/2000/svg" viewBox="0 0 500 500">
  <defs>
    <style>
      .cls-1, .cls-2 {
        fill: #2d98d4;
      }

      .cls-1 {
        opacity: 0.19;
      }

      .cls-3 {
        fill: #fff;
      }
    </style>
  </defs>
  <title>IN-Loss-Database</title>
  <g>
    <g>
      <circle class="cls-1" cx="267.2" cy="277.17" r="167.19"/>
      <path class="cls-2" d="M267.2,77.17c-110.46,0-200,89.54-200,200s89.54,200,200,200,200-89.54,200-200S377.66,77.17,267.2,77.17Zm0,385.49c-102.46,0-185.5-83.05-185.5-185.49A185.49,185.49,0,0,1,267.2,91.67c102.44,0,185.49,83,185.49,185.5S369.64,462.66,267.2,462.66Z"/>
    </g>
    <g>
      <path class="cls-2" d="M241.52,161c-42,0-84.56,9.42-84.56,27.43V325.57c0,18,42.53,27.42,84.56,27.42s84.55-9.42,84.55-27.42V188.45C326.07,170.44,283.55,161,241.52,161Zm75.42,164.55c0,6.37-25.9,18.28-75.42,18.28s-75.41-11.91-75.41-18.28V293c14.73,9.4,45.22,14.28,75.41,14.28s60.68-4.88,75.42-14.28Zm0-45.71c0,6.38-25.9,18.28-75.42,18.28s-75.41-11.9-75.41-18.28V247.29c14.73,9.42,45.22,14.29,75.41,14.29s60.68-4.87,75.42-14.29Zm0-45.71c0,6.38-25.9,18.28-75.42,18.28s-75.41-11.9-75.41-18.28V201.58c14.73,9.42,45.22,14.29,75.41,14.29s60.68-4.87,75.42-14.29Zm-75.42-27.42c-49.52,0-75.41-11.9-75.41-18.28s25.89-18.28,75.41-18.28,75.42,11.9,75.42,18.28S291,206.73,241.52,206.73Z"/>
      <g>
        <g>
          <path class="cls-2" d="M320.64,279.72a56.8,56.8,0,1,0,56.79,56.8A56.8,56.8,0,0,0,320.64,279.72Z"/>
          <circle class="cls-3" cx="320.64" cy="336.51" r="52.67"/>
        </g>
        <path class="cls-2" d="M323.69,296.74a40.27,40.27,0,0,0-37.36,24.93l-2.38-4.2a3.51,3.51,0,0,0-6.61,1.72,3.43,3.43,0,0,0,.47,1.68l6.43,11.51a3.51,3.51,0,0,0,4.68,1.39l11.44-5.85a3.51,3.51,0,0,0-2.92-6.38l-.26.13-4.2,2.16a33.33,33.33,0,0,1,30.71-20.07,32.76,32.76,0,1,1,.44,65.51,3.51,3.51,0,1,0,0,7h.07c21.93-.29,39.74-18,39.74-39.78,0-21.95-18.08-39.77-40.25-39.77ZM323,314.21a3.52,3.52,0,0,0-3.48,3.55v18.75a3.54,3.54,0,0,0,1.32,2.75l11.7,9.35a3.51,3.51,0,0,0,4.39-5.48h0l-10.38-8.3v-17a3.51,3.51,0,0,0-3.43-3.58Z"/>
      </g>
    </g>
  </g>
</svg>
