<svg id="Layer_1" data-name="Layer 1" xmlns="http://www.w3.org/2000/svg" viewBox="0 0 500 500">
  <defs>
    <style>
      .cls-1, .cls-3 {
        fill: #29abe2;
      }

      .cls-1 {
        opacity: 0.19;
      }

      .cls-2 {
        fill: #2d98d4;
      }

      .cls-4 {
        fill: #fff;
      }
    </style>
  </defs>
  <title>Emergency plans</title>
  <g>
    <circle class="cls-1" cx="249.91" cy="251.27" r="167.19"/>
    <path class="cls-2" d="M249.91,51.27c-110.46,0-200,89.55-200,200s89.54,200,200,200,200-89.53,200-200S360.37,51.27,249.91,51.27Zm0,385.5c-102.46,0-185.49-83-185.49-185.5A185.48,185.48,0,0,1,249.91,65.78c102.44,0,185.49,83,185.49,185.49S352.35,436.77,249.91,436.77Z"/>
    <g>
      <g>
        <g>
          <path class="cls-3" d="M282.47,141.34H172.25a4.48,4.48,0,0,0-4.48,4.47V299.15a4.49,4.49,0,0,0,4.48,4.48H282.47a4.48,4.48,0,0,0,4.47-4.48V145.81A4.47,4.47,0,0,0,282.47,141.34Z"/>
          <path class="cls-4" d="M282.18,294.08a4.9,4.9,0,0,1-4.9,4.89H177.44a4.89,4.89,0,0,1-4.9-4.89V150.88a4.89,4.89,0,0,1,4.9-4.89h99.84a4.9,4.9,0,0,1,4.9,4.89Z"/>
          <path class="cls-3" d="M274.49,191.39h0a2.89,2.89,0,0,1-2.82,2.94H184.4a2.89,2.89,0,0,1-2.82-2.94h0a2.89,2.89,0,0,1,2.82-2.95h87.27A2.89,2.89,0,0,1,274.49,191.39Z"/>
          <path class="cls-3" d="M274.49,204.92h0a2.88,2.88,0,0,1-2.82,2.94H184.4a2.88,2.88,0,0,1-2.82-2.94h0A2.89,2.89,0,0,1,184.4,202h87.27A2.89,2.89,0,0,1,274.49,204.92Z"/>
          <path class="cls-3" d="M274.49,232h0a2.89,2.89,0,0,1-2.82,3H184.4a2.89,2.89,0,0,1-2.82-3h0A2.89,2.89,0,0,1,184.4,229h87.27A2.89,2.89,0,0,1,274.49,232Z"/>
          <path class="cls-3" d="M274.49,245.52h0a2.89,2.89,0,0,1-2.82,2.94H184.4a2.89,2.89,0,0,1-2.82-2.94h0a2.89,2.89,0,0,1,2.82-3h87.27A2.89,2.89,0,0,1,274.49,245.52Z"/>
          <path class="cls-3" d="M274.49,218.45h0a2.89,2.89,0,0,1-2.82,3H184.4a2.89,2.89,0,0,1-2.82-3h0a2.88,2.88,0,0,1,2.82-2.94h87.27A2.88,2.88,0,0,1,274.49,218.45Z"/>
          <path class="cls-3" d="M274.49,259.05h0a2.89,2.89,0,0,1-2.82,2.95H184.4a2.89,2.89,0,0,1-2.82-2.95h0a2.89,2.89,0,0,1,2.82-2.95h87.27A2.89,2.89,0,0,1,274.49,259.05Z"/>
          <path class="cls-3" d="M274.49,272.58h0a2.89,2.89,0,0,1-2.82,2.95H184.4a2.89,2.89,0,0,1-2.82-2.95h0a2.89,2.89,0,0,1,2.82-2.94h87.27A2.89,2.89,0,0,1,274.49,272.58Z"/>
          <rect class="cls-3" x="198.36" y="167.12" width="59.36" height="5.89" rx="2.95"/>
        </g>
        <g>
          <path class="cls-3" d="M308.2,160.55,199.65,141.41a4.47,4.47,0,0,0-5.18,3.62L167.84,296a4.48,4.48,0,0,0,3.63,5.19L280,320.37a4.48,4.48,0,0,0,5.18-3.64l26.63-151A4.47,4.47,0,0,0,308.2,160.55Z"/>
          <path class="cls-4" d="M281.39,310.92a4.9,4.9,0,0,1-5.68,4l-98.32-17.34a4.9,4.9,0,0,1-4-5.67l24.86-141a4.9,4.9,0,0,1,5.68-4l98.32,17.34a4.88,4.88,0,0,1,4,5.66Z"/>
          <path class="cls-3" d="M291.65,208.45h0a2.89,2.89,0,0,1-3.29,2.41l-85.94-15.15a2.89,2.89,0,0,1-2.27-3.39h0a2.9,2.9,0,0,1,3.3-2.42l85.93,15.16A2.89,2.89,0,0,1,291.65,208.45Z"/>
          <path class="cls-3" d="M289.3,221.78h0a2.89,2.89,0,0,1-3.29,2.41L200.07,209a2.89,2.89,0,0,1-2.27-3.39h0a2.9,2.9,0,0,1,3.3-2.41L287,218.38A2.89,2.89,0,0,1,289.3,221.78Z"/>
          <path class="cls-3" d="M284.6,248.43h0a2.89,2.89,0,0,1-3.29,2.41l-85.94-15.15a2.89,2.89,0,0,1-2.27-3.39h0a2.88,2.88,0,0,1,3.3-2.41L282.33,245A2.89,2.89,0,0,1,284.6,248.43Z"/>
          <path class="cls-3" d="M282.25,261.76h0a2.89,2.89,0,0,1-3.29,2.41L193,249a2.89,2.89,0,0,1-2.26-3.4h0a2.88,2.88,0,0,1,3.29-2.41L280,258.37A2.88,2.88,0,0,1,282.25,261.76Z"/>
          <path class="cls-3" d="M287,235.1h0a2.89,2.89,0,0,1-3.29,2.41l-85.94-15.15a2.89,2.89,0,0,1-2.27-3.39h0a2.9,2.9,0,0,1,3.3-2.41l85.93,15.15A2.89,2.89,0,0,1,287,235.1Z"/>
          <path class="cls-3" d="M279.9,275.08h0a2.89,2.89,0,0,1-3.29,2.42l-85.94-15.16a2.88,2.88,0,0,1-2.26-3.39h0a2.88,2.88,0,0,1,3.29-2.41l85.93,15.15A2.89,2.89,0,0,1,279.9,275.08Z"/>
          <path class="cls-3" d="M277.55,288.41h0a2.89,2.89,0,0,1-3.29,2.41l-85.94-15.15a2.88,2.88,0,0,1-2.26-3.39h0a2.88,2.88,0,0,1,3.29-2.41L275.28,285A2.89,2.89,0,0,1,277.55,288.41Z"/>
          <rect class="cls-3" x="246.66" y="149.71" width="5.89" height="59.36" rx="2.95" transform="translate(29.6 394.05) rotate(-80)"/>
        </g>
        <g>
          <path class="cls-3" d="M346.61,197.05l-95.46-55.11a4.47,4.47,0,0,0-6.11,1.63l-76.67,132.8a4.48,4.48,0,0,0,1.64,6.11l95.46,55.11a4.46,4.46,0,0,0,6.11-1.64l76.67-132.79A4.48,4.48,0,0,0,346.61,197.05Z"/>
          <path class="cls-4" d="M270,329.18A4.89,4.89,0,0,1,263.3,331l-86.47-49.92a4.9,4.9,0,0,1-1.79-6.69l71.6-124a4.89,4.89,0,0,1,6.68-1.79l86.47,49.92a4.9,4.9,0,0,1,1.79,6.69Z"/>
          <path class="cls-3" d="M314.67,236.4h0a2.88,2.88,0,0,1-3.91,1.14l-75.57-43.63a2.89,2.89,0,0,1-1-4h0a2.89,2.89,0,0,1,3.92-1.14l75.57,43.63A2.88,2.88,0,0,1,314.67,236.4Z"/>
          <path class="cls-3" d="M307.91,248.12h0a2.89,2.89,0,0,1-3.92,1.14l-75.57-43.63a2.88,2.88,0,0,1-1-4h0a2.88,2.88,0,0,1,3.91-1.14l75.58,43.63A2.89,2.89,0,0,1,307.91,248.12Z"/>
          <path class="cls-3" d="M294.37,271.56h0a2.88,2.88,0,0,1-3.91,1.14l-75.57-43.63a2.88,2.88,0,0,1-1-4h0a2.88,2.88,0,0,1,3.91-1.14L293.4,267.6A2.88,2.88,0,0,1,294.37,271.56Z"/>
          <path class="cls-3" d="M287.61,283.28h0a2.89,2.89,0,0,1-3.92,1.14l-75.57-43.63a2.89,2.89,0,0,1-1-4h0a2.89,2.89,0,0,1,3.92-1.14l75.57,43.63A2.89,2.89,0,0,1,287.61,283.28Z"/>
          <path class="cls-3" d="M301.14,259.84h0a2.89,2.89,0,0,1-3.92,1.14l-75.57-43.63a2.89,2.89,0,0,1-1-4h0a2.89,2.89,0,0,1,3.92-1.14l75.57,43.63A2.89,2.89,0,0,1,301.14,259.84Z"/>
          <path class="cls-3" d="M280.84,295h0a2.89,2.89,0,0,1-3.92,1.14l-75.57-43.63a2.89,2.89,0,0,1-1-4h0a2.89,2.89,0,0,1,3.92-1.14L279.87,291A2.89,2.89,0,0,1,280.84,295Z"/>
          <path class="cls-3" d="M274.07,306.72h0a2.88,2.88,0,0,1-3.91,1.14l-75.57-43.63a2.88,2.88,0,0,1-1-4h0a2.88,2.88,0,0,1,3.91-1.14l75.57,43.63A2.88,2.88,0,0,1,274.07,306.72Z"/>
          <rect class="cls-3" x="282.16" y="165.03" width="5.89" height="59.36" rx="2.95" transform="matrix(0.5, -0.87, 0.87, 0.5, -26.07, 344.26)"/>
        </g>
      </g>
      <path class="cls-3" d="M346.08,248.4a5,5,0,0,0-5-5H262.16a4.93,4.93,0,0,1-2.32-.58l-32.33-17a4.92,4.92,0,0,0-2.32-.57H156a5,5,0,0,0-5,5V248.4a4.94,4.94,0,0,0,.12,1.1H151V355.16a6,6,0,0,0,6,6H340a6.05,6.05,0,0,0,6.05-6V249.5H346A4.94,4.94,0,0,0,346.08,248.4Z"/>
    </g>
  </g>
</svg>
