<svg id="Layer_1" data-name="Layer 1" xmlns="http://www.w3.org/2000/svg" viewBox="0 0 500 500">
  <defs>
    <style>
      .cls-1, .cls-2 {
        fill: #2d98d4;
      }

      .cls-1 {
        opacity: 0.19;
      }
    </style>
  </defs>
  <title>EP-Planner</title>
  <g>
    <g>
      <circle class="cls-1" cx="244.82" cy="248.2" r="167.19"/>
      <path class="cls-2" d="M244.83,48.2c-110.47,0-200,89.54-200,200s89.54,200,200,200,200-89.53,200-200S355.29,48.2,244.83,48.2Zm0,385.49c-102.45,0-185.49-83.05-185.49-185.49A185.48,185.48,0,0,1,244.82,62.71c102.44,0,185.49,83,185.49,185.49S347.26,433.69,244.82,433.69Z"/>
    </g>
    <g>
      <path class="cls-2" d="M327.85,154.83H304.5V139.27a5.2,5.2,0,0,0-5.11-5.27h-.17a5.19,5.19,0,0,0-5.1,5.27v15.56h-98.6V139.27a5.19,5.19,0,0,0-5.1-5.27h-.65a5.19,5.19,0,0,0-4.63,5.27v15.56H161.79a15.66,15.66,0,0,0-15.57,15.58V346.84a15.64,15.64,0,0,0,15.57,15.56h96a38.35,38.35,0,0,0,19.14-5.27H277a5.13,5.13,0,0,0,1.86-.8l62.26-41.53a5.11,5.11,0,0,0,2.27-4.29V170.41A15.66,15.66,0,0,0,327.85,154.83Zm-32.36,178a38.22,38.22,0,0,0,1.23-9.32v-7.78H321ZM333,305.33H291.52a5.2,5.2,0,0,0-5,3.74h-5.4a2.81,2.81,0,0,0-2.26,1.35,5.79,5.79,0,0,0-.94,3.27c0,2.57,1.44,4.64,3.2,4.64h5.2v5.16A28.37,28.37,0,0,1,257.79,352h-96a5.06,5.06,0,0,1-5.18-5.18V217.11H333Zm0-98.61H156.61V170.41a5.07,5.07,0,0,1,5.18-5.2h23.35V175.6a5.19,5.19,0,1,0,10.38.13V165.21h98.6V175.6a5.19,5.19,0,1,0,10.38.13V165.21h23.35a5.07,5.07,0,0,1,5.18,5.2Z"/>
      <path class="cls-2" d="M185.08,236H304.57a4.63,4.63,0,0,0,0-9.26H185.08a4.66,4.66,0,0,0-3.28,1.35,4.64,4.64,0,0,0,3.28,7.91Z"/>
      <path class="cls-2" d="M183.9,290.89h22.89a2.81,2.81,0,0,0,2.26-1.35,5.83,5.83,0,0,0,.94-3.28c0-2.55-1.44-4.62-3.2-4.62H183.65a2.76,2.76,0,0,0-2.26,1.35,5.53,5.53,0,0,0-.94,3C180.33,288.65,182,290.89,183.9,290.89Z"/>
      <path class="cls-2" d="M220.39,281.64a2.78,2.78,0,0,0-2.26,1.35,5.77,5.77,0,0,0-.94,3.27c0,2.56,1.44,4.63,3.2,4.63h47.84a2.8,2.8,0,0,0,2.25-1.35,5.75,5.75,0,0,0,.94-3.28c0-2.55-1.43-4.62-3.19-4.62Z"/>
      <path class="cls-2" d="M306,281.64H281.14a2.78,2.78,0,0,0-2.26,1.35,5.77,5.77,0,0,0-.94,3.27c0,2.56,1.44,4.63,3.2,4.63H306a2.83,2.83,0,0,0,2.28-1.35,6,6,0,0,0,.92-3.28C309.19,283.71,307.77,281.64,306,281.64Z"/>
      <path class="cls-2" d="M183.65,263.44h23.14a2.81,2.81,0,0,0,2.26-1.35,5.79,5.79,0,0,0,.94-3.27c0-2.55-1.44-4.62-3.2-4.62H183.65a2.77,2.77,0,0,0-2.26,1.36,5.78,5.78,0,0,0-.94,3.26C180.45,261.37,181.89,263.44,183.65,263.44Z"/>
      <path class="cls-2" d="M306,254.2h-85.6a2.8,2.8,0,0,0-2.26,1.36,5.73,5.73,0,0,0-.94,3.26c0,2.55,1.44,4.62,3.2,4.62H306a2.83,2.83,0,0,0,2.28-1.35,6,6,0,0,0,.92-3.27C309.19,256.27,307.77,254.2,306,254.2Z"/>
      <path class="cls-2" d="M183.65,318.33h84.58a2.81,2.81,0,0,0,2.25-1.36,5.73,5.73,0,0,0,.94-3.28c0-2.55-1.43-4.62-3.19-4.62H183.65a2.78,2.78,0,0,0-2.26,1.35,5.86,5.86,0,0,0-.94,3.29C180.45,316.26,181.89,318.33,183.65,318.33Z"/>
    </g>
  </g>
</svg>
