<svg id="Layer_1" data-name="Layer 1" xmlns="http://www.w3.org/2000/svg" viewBox="0 0 500 500">
  <defs>
    <style>
      .cls-1, .cls-2 {
        fill: #2d98d4;
      }

      .cls-1 {
        opacity: 0.19;
      }
    </style>
  </defs>
  <title>Emergency plans</title>
  <g>
    <circle class="cls-1" cx="250.57" cy="253.96" r="167.19"/>
    <path class="cls-2" d="M250.58,54c-110.47,0-200,89.54-200,200s89.54,200,200,200,200-89.53,200-200S361,54,250.58,54Zm0,385.49a185.49,185.49,0,0,1,0-371c102.44,0,185.49,83,185.49,185.49S353,439.45,250.57,439.45Z"/>
    <g>
      <g>
        <g>
          <path class="cls-2" d="M226.59,159.37,241.23,162h0l5,.88h0l2-3.46Zm-48,0a4.48,4.48,0,0,0-4.47,4.47v73.65h4.77V168.91a4.9,4.9,0,0,1,4.9-4.88H204l.63-3.57a5.5,5.5,0,0,1,.32-1.09Zm114.67,3.93a4.47,4.47,0,0,0-4.43-3.93h-11.7l10.47,6,5.7,3.29v-4.86A4.56,4.56,0,0,0,293.29,163.3Z"/>
          <g>
            <path class="cls-2" d="M196.35,207.63l-1,5.88h-5.2a2.87,2.87,0,0,1-2.82-2.95,3,3,0,0,1,.82-2.08,2.76,2.76,0,0,1,2-.85Z"/>
            <path class="cls-2" d="M207.48,212.84l3.79.67h-6.11a2.84,2.84,0,0,1,1.85-.71A2.56,2.56,0,0,1,207.48,212.84Z"/>
            <path class="cls-2" d="M190.13,221.16H194l-1,5.88h-2.8a2.73,2.73,0,0,1-1.9-.75,3.07,3.07,0,0,1-.1-4.28,2.8,2.8,0,0,1,2-.85Z"/>
            <path class="cls-2" d="M191.09,237.49l.48-2.79h-1.45a2.74,2.74,0,0,0-2,.85,3,3,0,0,0-.83,1.94h3.79Z"/>
          </g>
        </g>
        <g>
          <path class="cls-2" d="M243.73,157.67h0L206,151a4.48,4.48,0,0,0-5.18,3.63l-.83,4.72L199.2,164l-7.7,43.6-1,5.88-1.38,7.85v0l-.87,4.9h0l-2,11.2h4.83l.48-2.79,1.35-7.65,1-5.89,1.36-7.65,1-5.88L204,164l.63-3.57a5.52,5.52,0,0,1,.33-1.09,4.92,4.92,0,0,1,5.36-2.87l16.24,2.87h0L241.23,162h0l5,.88,2-3.46.47-.83Zm70.84,12.5L301,167.77h0l-7.69-1.35h0l-5.68-1,5.7,3.29,6.07,3.5,9.26,1.64a4.9,4.9,0,0,1,4,5.67l-.06.3h0l4.37,2.54.87-4.89h0l.37-2.12A4.45,4.45,0,0,0,314.57,170.17Z"/>
          <path class="cls-2" d="M223.63,202l-3.12,5.43-5-.88-6.71-1.18a3,3,0,0,1,.54-5.84,2.42,2.42,0,0,1,.47,0l8.84,1.55Z"/>
          <path class="cls-2" d="M216.44,214.43l-3.14,5.43-5-.89-1.87-.32a2.87,2.87,0,0,1-2.26-3.39,3,3,0,0,1,.95-1.74,2.89,2.89,0,0,1,1.85-.72,2.42,2.42,0,0,1,.47,0l3.79.67.2,0Z"/>
          <path class="cls-2" d="M210.06,227.05h-.9l-3,5.29-2-.36a2.94,2.94,0,0,1-2.26-3.39,2.83,2.83,0,0,1,.77-1.54,2.72,2.72,0,0,1,1.53-.87h0a2.52,2.52,0,0,1,.48,0,2.63,2.63,0,0,1,.49,0l4.1.73Z"/>
        </g>
        <g>
          <path class="cls-2" d="M308.66,173.84l-9.26-1.64,13.17,7.61.06-.3A4.9,4.9,0,0,0,308.66,173.84Zm-62.44-11-5-.88L240,164l-10,17.42-2.69,4.66-.13.2-3.39,5.89-5.13,8.88-3.14,5.43-.64,1.12-3.4,5.88,0,0L208.33,219l-1.27,2.19-2.89,5h0l-.51.87-1.71,3-2.69,4.68-1.61,2.79h5.5l1.61-2.79,1.36-2.37,3.07-5.28.07-.15,3.3-5.74.77-1.31,3.12-5.42.54-.92,3.41-5.88.13-.24,3.13-5.43,5.64-9.76,2.57-4.46.84-1.43,2.29-4L245.55,164l.68-1.2,2-3.46ZM353,197.77l-35.14-20.3h0L301,167.77h0l-7.73-4.47-6.83-3.93-28.93-16.7a4.47,4.47,0,0,0-6.11,1.64l-7.69,13.36-1,1.7L241.25,162,240,164l-10,17.42-2.69,4.66-.13.2-3.39,5.89-5.13,8.88-3.14,5.43-.64,1.12-3.4,5.88,0,0L208.33,219l-1.27,2.19-2.89,5h0l-.51.87-1.71,3-2.69,4.68-1.61,2.79h5.5l1.61-2.79,1.36-2.37,3.07-5.28.07-.15,3.3-5.74.77-1.31,3.12-5.42.54-.92,3.41-5.88.13-.24,3.13-5.43,5.64-9.76,2.57-4.46.84-1.43,2.29-4L245.55,164l.68-1.2,2-3.46.48-.83,4.32-7.46a4.88,4.88,0,0,1,6.68-1.78l17.45,10.07,10.47,6,5.7,3.29,6.07,3.5,13.17,7.61h0l4.37,2.54,29.21,16.85a4.89,4.89,0,0,1,1.79,6.68l-28.75,49.79h5.5l29.9-51.8A4.45,4.45,0,0,0,353,197.77ZM246.22,162.83l-5-.88L240,164l-10,17.42-2.69,4.66-.13.2-3.39,5.89-5.13,8.88-3.14,5.43-.64,1.12-3.4,5.88,0,0L208.33,219l-1.27,2.19-2.89,5h0l-.51.87-1.71,3-2.69,4.68-1.61,2.79h5.5l1.61-2.79,1.36-2.37,3.07-5.28.07-.15,3.3-5.74.77-1.31,3.12-5.42.54-.92,3.41-5.88.13-.24,3.13-5.43,5.64-9.76,2.57-4.46.84-1.43,2.29-4L245.55,164l.68-1.2,2-3.46Zm62.44,11-9.26-1.64,13.17,7.61.06-.3A4.9,4.9,0,0,0,308.66,173.84Z"/>
          <g>
            <path class="cls-2" d="M280,204.09l-26.73-15.42-3.54-2.06h0l-1.05-.61a2.71,2.71,0,0,0-1.34-.35,2.61,2.61,0,0,0-1.3.32h0a2.91,2.91,0,0,0-1.25,1.19,2.88,2.88,0,0,0-.42,1.51,2.84,2.84,0,0,0,1.38,2.45l22.48,13,3.61,2.08v0l6.58,3.79,8.37,4.83,5.94,3.43,4.77,2.75,10.33,5.95,4.38,2.54,9.11,5.26a2.94,2.94,0,0,0,2.93-5.1l-10.95-6.33-4.39-2.54-7.74-4.45-3.67-2.13-4.77-2.76-3.91-2.25v0l-4.47-2.57Z"/>
            <path class="cls-2" d="M318.44,245.32a2.87,2.87,0,0,1-3.9,1.14l-4.83-2.79-4.4-2.54-7.82-4.51-4.77-2.77-10.66-6.14h0l-7.26-4.19-7.62-4.4v0l-2.55-1.46L251.35,210l-3.54-2h0l-6.64-3.84L239,202.83a2.76,2.76,0,0,1-1.37-2.68,3,3,0,0,1,3-2.8,2.71,2.71,0,0,1,1.35.38l7.92,4.57h0l3.09,1.79L263.11,210l1.64.94,11.63,6.71L284,222l.12.06,8.62,5,4.77,2.75.5.3h0l8.41,4.84,4.38,2.54,6.68,3.86A2.86,2.86,0,0,1,318.44,245.32Z"/>
            <path class="cls-2" d="M288.16,255.68H276.38l-3.71-2.14h0l-5.1-2.95-9.81-5.65-.39-.23-13.25-7.65-5.7-3.29-4.5-2.6-8.46-4.88a2.56,2.56,0,0,1-1-1,2.77,2.77,0,0,1-.39-1.81,2.66,2.66,0,0,1,.39-1.19,3,3,0,0,1,2.55-1.51,2.75,2.75,0,0,1,1.36.37l4.05,2.33,8,4.62,5.24,3,9.67,5.59.53.3,13.25,7.65,5.57,3.22,4.61,2.66Z"/>
            <path class="cls-2" d="M228.83,237.05l.76.44H218.06a2.94,2.94,0,0,1-.35-.44,2.9,2.9,0,0,1,0-3,3,3,0,0,1,2.55-1.5,2.81,2.81,0,0,1,1.37.36Z"/>
            <path class="cls-2" d="M312.08,255.68h-8.65l-.61-.36-5.33-3.07-4.77-2.75-15.35-8.86h0v0l-6.19-3.57-8.7-5v0h0l-1.47-.84-13.24-7.65-4.63-2.67-5.56-3.21-5.33-3.08a2.74,2.74,0,0,1-1.32-1.85,3,3,0,0,1,.35-2.11,2.83,2.83,0,0,1,.47-.61,2.93,2.93,0,0,1,2.08-.9,2.82,2.82,0,0,1,1.37.37l.91.53,9.08,5.24,4.17,2.41,10.19,5.88.54.32,12.7,7.33,6.64,3.84,3.19,1.85,10.15,5.85,1.55.9h0l3.19,1.84,6.41,3.71,4.39,2.53,2.42,1.4A2.74,2.74,0,0,1,312.08,255.68Z"/>
            <path class="cls-2" d="M321.35,206.74a3,3,0,0,1-4,1.09l-1.18-.69-4.4-2.53-14.26-8.24-4.77-2.75L289,191.5l-9.83-5.67L271,181.1a3,3,0,1,1,3-5.11l18.75,10.82,4.77,2.77,15.35,8.86,4.39,2.53,3,1.76A2.93,2.93,0,0,1,321.35,206.74Z"/>
          </g>
        </g>
      </g>
      <path class="cls-2" d="M346.55,261.5a7.12,7.12,0,0,0-.1-1.23l0-.43h-.07a7.42,7.42,0,0,0-7.24-5.78H264.34a2.05,2.05,0,0,1-.95-.23l-30.64-16.15a7.38,7.38,0,0,0-3.45-.86H163.69a7.43,7.43,0,0,0-7.42,7.44v118.4a8.44,8.44,0,0,0,8.42,8.43H338.12a8.44,8.44,0,0,0,8.43-8.43V262.54l0-.49A5.24,5.24,0,0,0,346.55,261.5Zm-5.4,3.73v97.43a3,3,0,0,1-3,3H164.69a3,3,0,0,1-3-3V265.23h.79l-.74-3.29a1.75,1.75,0,0,1-.05-.44V244.26a2,2,0,0,1,2-2H229.3a2,2,0,0,1,.94.24l30.63,16.15a7.63,7.63,0,0,0,3.47.85h74.78a2,2,0,0,1,2,2,1.78,1.78,0,0,1-.06.44l-.62,3.29Z"/>
    </g>
  </g>
</svg>
