<svg id="Layer_1" data-name="Layer 1" xmlns="http://www.w3.org/2000/svg" viewBox="0 0 500 500">
  <defs>
    <style>
      .cls-1, .cls-2 {
        fill: #2d98d4;
      }

      .cls-1 {
        opacity: 0.19;
      }

      .cls-3 {
        fill: #fff;
      }
    </style>
  </defs>
  <title>AS-Questions</title>
  <g>
    <g>
      <circle class="cls-1" cx="251.26" cy="253.35" r="167.19"/>
      <path class="cls-2" d="M251.27,53.35c-110.46,0-200,89.54-200,200s89.55,200,200,200,200-89.53,200-200S361.73,53.35,251.27,53.35Zm0,385.49c-102.45,0-185.49-83-185.49-185.49A185.48,185.48,0,0,1,251.26,67.86c102.45,0,185.5,83,185.5,185.49S353.71,438.84,251.26,438.84Z"/>
    </g>
    <g>
      <g>
        <path class="cls-2" d="M311.35,127.15H156a6.3,6.3,0,0,0-6.3,6.3v216.1a6.31,6.31,0,0,0,6.3,6.31H311.35a6.31,6.31,0,0,0,6.3-6.31V133.45A6.3,6.3,0,0,0,311.35,127.15Z"/>
        <path class="cls-3" d="M310.94,342.41A6.9,6.9,0,0,1,304,349.3H163.33a6.9,6.9,0,0,1-6.9-6.89V140.6a6.89,6.89,0,0,1,6.9-6.89H304a6.89,6.89,0,0,1,6.91,6.89Z"/>
        <rect class="cls-2" x="174.24" y="160.43" width="116.94" height="8.77" rx="3.08"/>
        <rect class="cls-2" x="190.56" y="176.04" width="84.28" height="8.77" rx="3.08"/>
        <path class="cls-2" d="M235.16,235.31a29.52,29.52,0,0,0-8,1.06,46.47,46.47,0,0,0-8.39,3.43l-5-13.36a37.12,37.12,0,0,1,10.88-4.55,49.78,49.78,0,0,1,12.29-1.59,33.17,33.17,0,0,1,12.47,2,21.37,21.37,0,0,1,7.75,5.08,17.47,17.47,0,0,1,4,6.74,24.08,24.08,0,0,1,1.12,7,17.77,17.77,0,0,1-1,6.09,24.6,24.6,0,0,1-2.54,5.14,30.63,30.63,0,0,1-3.54,4.49q-2,2.13-3.9,4c-1,1-1.94,2-3,3a28.58,28.58,0,0,0-2.78,3.37,20,20,0,0,0-2.07,3.72,10.07,10.07,0,0,0-.82,4v1.42a10,10,0,0,0,.11,1.65h-15.6a16.71,16.71,0,0,1-.3-2.66c0-1,0-1.83,0-2.54a20.18,20.18,0,0,1,.82-6,23.29,23.29,0,0,1,2.19-5,28.11,28.11,0,0,1,3.13-4.32c1.18-1.34,2.41-2.64,3.67-3.9q2.71-2.72,5-5.38a9.14,9.14,0,0,0,2.25-6.08,6.34,6.34,0,0,0-2.19-4.85C240.14,236,238,235.31,235.16,235.31Zm11,59.46q0,5.21-3.37,8a11.66,11.66,0,0,1-15.25,0,11.28,11.28,0,0,1,0-16.08,11.69,11.69,0,0,1,15.25,0Q246.16,289.57,246.15,294.77Z"/>
      </g>
      <g>
        <path class="cls-2" d="M347.61,154.22l-153-27a6.3,6.3,0,0,0-7.3,5.11L149.81,345.17a6.3,6.3,0,0,0,5.11,7.31l153,27a6.31,6.31,0,0,0,7.31-5.12l37.52-212.81A6.3,6.3,0,0,0,347.61,154.22Z"/>
        <path class="cls-3" d="M309.82,366.14a6.9,6.9,0,0,1-8,5.59L163.26,347.29a6.9,6.9,0,0,1-5.6-8l35.05-198.75a6.9,6.9,0,0,1,8-5.59l138.57,24.44a6.9,6.9,0,0,1,5.6,8Z"/>
        <rect class="cls-2" x="205.15" y="173.27" width="116.94" height="8.77" rx="3.08" transform="translate(34.85 -43.08) rotate(10)"/>
        <rect class="cls-2" x="218.77" y="188.64" width="84.28" height="8.77" rx="3.08" transform="translate(37.48 -42.37) rotate(10)"/>
        <path class="cls-2" d="M253.79,247.51a29.29,29.29,0,0,0-8.1-.35,46,46,0,0,0-8.86,1.92l-2.57-14a36.71,36.71,0,0,1,11.5-2.59,49.28,49.28,0,0,1,12.39.56,33.25,33.25,0,0,1,11.93,4.14,21.36,21.36,0,0,1,6.74,6.35,17.34,17.34,0,0,1,2.73,7.33,23.67,23.67,0,0,1-.1,7.06,17.62,17.62,0,0,1-2.05,5.82,25.2,25.2,0,0,1-3.39,4.63,31.9,31.9,0,0,1-4.28,3.8c-1.56,1.17-3.08,2.26-4.54,3.28-1.09.77-2.24,1.59-3.43,2.46a27.46,27.46,0,0,0-3.32,2.84,20.55,20.55,0,0,0-2.69,3.3,10.21,10.21,0,0,0-1.5,3.76l-.24,1.4a10.87,10.87,0,0,0-.18,1.65l-15.36-2.71a17.16,17.16,0,0,1,.17-2.67c.13-1,.26-1.82.38-2.52a20,20,0,0,1,1.85-5.73,23.21,23.21,0,0,1,3-4.51,28.57,28.57,0,0,1,3.83-3.71q2.1-1.67,4.29-3.2,3.15-2.21,5.82-4.44a9.12,9.12,0,0,0,3.27-5.6,6.37,6.37,0,0,0-1.31-5.16Q258,248.25,253.79,247.51ZM254.3,308q-.92,5.13-4.72,7.33a11.65,11.65,0,0,1-15-2.64,11.28,11.28,0,0,1,2.8-15.84,11.65,11.65,0,0,1,15,2.65A9.91,9.91,0,0,1,254.3,308Z"/>
      </g>
    </g>
  </g>
</svg>
