<svg id="Layer_1" data-name="Layer 1" xmlns="http://www.w3.org/2000/svg" viewBox="0 0 500 500">
  <defs>
    <style>
      .cls-1, .cls-2 {
        fill: #2d98d4;
      }

      .cls-1 {
        opacity: 0.19;
      }

      .cls-3 {
        fill: #29abe2;
      }

      .cls-4 {
        fill: #fff;
      }
    </style>
  </defs>
  <title>AS-Questionnaires</title>
  <g>
    <g>
      <circle class="cls-1" cx="251.89" cy="253.35" r="167.19"/>
      <path class="cls-2" d="M251.89,53.35c-110.46,0-200,89.54-200,200s89.54,200,200,200,200-89.53,200-200S362.35,53.35,251.89,53.35Zm0,385.49c-102.46,0-185.5-83-185.5-185.49A185.48,185.48,0,0,1,251.89,67.86c102.44,0,185.49,83,185.49,185.49S354.33,438.84,251.89,438.84Z"/>
    </g>
    <g>
      <g>
        <path class="cls-3" d="M305.68,127.15H150.35a6.31,6.31,0,0,0-6.31,6.3v216.1a6.32,6.32,0,0,0,6.31,6.31H305.68a6.32,6.32,0,0,0,6.31-6.31V133.45A6.31,6.31,0,0,0,305.68,127.15Z"/>
        <path class="cls-4" d="M305.27,342.41a6.9,6.9,0,0,1-6.9,6.89H157.66a6.9,6.9,0,0,1-6.9-6.89V140.6a6.89,6.89,0,0,1,6.9-6.89H298.37a6.89,6.89,0,0,1,6.9,6.89Z"/>
        <g>
          <g>
            <g>
              <path class="cls-3" d="M238.54,215.87h0c0,2-1.06,3.6-2.35,3.6h-72.7c-1.3,0-2.35-1.61-2.35-3.6h0c0-2,1.05-3.59,2.35-3.59h72.7C237.48,212.28,238.54,213.89,238.54,215.87Z"/>
              <path class="cls-3" d="M238.54,254.75h0c0,2-1.06,3.59-2.35,3.59h-72.7c-1.3,0-2.35-1.61-2.35-3.59h0c0-2,1.05-3.59,2.35-3.59h72.7C237.48,251.16,238.54,252.76,238.54,254.75Z"/>
              <path class="cls-3" d="M238.54,275.33h0c0,2-1.06,3.59-2.35,3.59h-72.7c-1.3,0-2.35-1.61-2.35-3.59h0c0-2,1.05-3.6,2.35-3.6h72.7C237.48,271.73,238.54,273.34,238.54,275.33Z"/>
              <path class="cls-3" d="M238.54,295.14h0c0,2-1.06,3.6-2.35,3.6h-72.7c-1.3,0-2.35-1.61-2.35-3.6h0c0-2,1.05-3.59,2.35-3.59h72.7C237.48,291.55,238.54,293.16,238.54,295.14Z"/>
              <path class="cls-3" d="M238.54,235.75h0c0,2-1.06,3.59-2.35,3.59h-72.7c-1.3,0-2.35-1.61-2.35-3.59h0c0-2,1.05-3.6,2.35-3.6h72.7C237.48,232.15,238.54,233.76,238.54,235.75Z"/>
            </g>
            <path class="cls-3" d="M288.88,287h-6.61a4.05,4.05,0,0,0-4,4.06v6.61a4,4,0,0,0,4,4.05h6.61a4.05,4.05,0,0,0,4.06-4.05v-6.61A4.06,4.06,0,0,0,288.88,287Zm2,9.61a3.06,3.06,0,0,1-3.06,3.06h-4.49a3.06,3.06,0,0,1-3.06-3.06v-4.49a3.06,3.06,0,0,1,3.06-3.06h4.49a3.06,3.06,0,0,1,3.06,3.06Z"/>
            <path class="cls-3" d="M288.88,267.21h-6.61a4,4,0,0,0-4,4.05v6.61a4,4,0,0,0,4,4.05h6.61a4.05,4.05,0,0,0,4.06-4.05v-6.61A4.05,4.05,0,0,0,288.88,267.21Zm2,9.6a3.06,3.06,0,0,1-3.06,3.06h-4.49a3.06,3.06,0,0,1-3.06-3.06v-4.49a3.06,3.06,0,0,1,3.06-3.06h4.49a3.06,3.06,0,0,1,3.06,3.06Z"/>
            <path class="cls-3" d="M288.88,227.57h-6.61a4.05,4.05,0,0,0-4,4.05v6.62a4.05,4.05,0,0,0,4,4h6.61a4.06,4.06,0,0,0,4.06-4v-6.62A4.06,4.06,0,0,0,288.88,227.57Zm2,9.61a3.06,3.06,0,0,1-3.06,3.06h-4.49a3.06,3.06,0,0,1-3.06-3.06v-4.49a3.06,3.06,0,0,1,3.06-3.07h4.49a3,3,0,0,1,2.17.91,26.5,26.5,0,0,0-5.13,6.15l-1.64-2.77c-.41-.68-1.46.42-1.16.89l2.14,3.84c.33.38,1,.18,1.61-.24a24.3,24.3,0,0,1,4.57-7.39,3,3,0,0,1,.5,1.68Z"/>
            <path class="cls-3" d="M288.88,247.39h-6.61a4,4,0,0,0-4,4.05v6.61a4.05,4.05,0,0,0,4,4.06h6.61a4.06,4.06,0,0,0,4.06-4.06v-6.61A4.05,4.05,0,0,0,288.88,247.39Zm2,9.6a3.06,3.06,0,0,1-3.06,3.06h-4.49a3.06,3.06,0,0,1-3.06-3.06V252.5a3.06,3.06,0,0,1,3.06-3.06h4.49a3,3,0,0,1,2.17.91,26.63,26.63,0,0,0-5.13,6.14l-1.64-2.76c-.41-.69-1.46.41-1.16.89l2.14,3.83c.33.39,1,.18,1.61-.23a24.48,24.48,0,0,1,4.57-7.4,3,3,0,0,1,.5,1.68Z"/>
            <path class="cls-3" d="M288.88,207.75h-6.61a4.05,4.05,0,0,0-4,4.06v6.61a4,4,0,0,0,4,4.05h6.61a4.05,4.05,0,0,0,4.06-4.05v-6.61A4.06,4.06,0,0,0,288.88,207.75Zm2,9.61a3.06,3.06,0,0,1-3.06,3.06h-4.49a3.06,3.06,0,0,1-3.06-3.06v-4.49a3.06,3.06,0,0,1,3.06-3.06h4.49a3.06,3.06,0,0,1,3.06,3.06Z"/>
            <g>
              <path class="cls-3" d="M261.48,287h-6.61a4.06,4.06,0,0,0-4.06,4.06v6.61a4.05,4.05,0,0,0,4.06,4.05h6.61a4,4,0,0,0,4-4.05v-6.61A4.05,4.05,0,0,0,261.48,287Zm2,9.61a3.06,3.06,0,0,1-3.06,3.06h-4.49a3.06,3.06,0,0,1-3.06-3.06v-4.49a3.06,3.06,0,0,1,3.06-3.06h4.49a3.06,3.06,0,0,1,3.06,3.06Z"/>
              <path class="cls-3" d="M261.48,227.57h-6.61a4.06,4.06,0,0,0-4.06,4.05v6.62a4.06,4.06,0,0,0,4.06,4h6.61a4.05,4.05,0,0,0,4-4v-6.62A4.05,4.05,0,0,0,261.48,227.57Zm2,9.61a3.06,3.06,0,0,1-3.06,3.06h-4.49a3.06,3.06,0,0,1-3.06-3.06v-4.49a3.06,3.06,0,0,1,3.06-3.07h4.49a3.06,3.06,0,0,1,3.06,3.07Z"/>
              <path class="cls-3" d="M261.48,247.39h-6.61a4.05,4.05,0,0,0-4.06,4.05v6.61a4.06,4.06,0,0,0,4.06,4.06h6.61a4.05,4.05,0,0,0,4-4.06v-6.61A4,4,0,0,0,261.48,247.39Zm2,9.6a3.06,3.06,0,0,1-3.06,3.06h-4.49a3.06,3.06,0,0,1-3.06-3.06V252.5a3.06,3.06,0,0,1,3.06-3.06h4.49a3.06,3.06,0,0,1,3.06,3.06Z"/>
              <path class="cls-3" d="M261.48,207.75h-6.61a4.06,4.06,0,0,0-4.06,4.06v6.61a4.05,4.05,0,0,0,4.06,4.05h6.61a4,4,0,0,0,4-4.05v-6.61A4.05,4.05,0,0,0,261.48,207.75Zm2,9.61a3.06,3.06,0,0,1-3.06,3.06h-4.49a3.06,3.06,0,0,1-3.06-3.06v-4.49a3.06,3.06,0,0,1,3.06-3.06h4.49a3,3,0,0,1,2.17.9,26.94,26.94,0,0,0-5.14,6.15l-1.63-2.77c-.42-.68-1.46.42-1.16.9l2.14,3.83c.32.39,1,.18,1.6-.24a24.62,24.62,0,0,1,4.57-7.39,3,3,0,0,1,.51,1.68Z"/>
              <path class="cls-3" d="M261.48,267.21h-6.61a4.05,4.05,0,0,0-4.06,4.05v6.61a4.05,4.05,0,0,0,4.06,4.05h6.61a4,4,0,0,0,4-4.05v-6.61A4,4,0,0,0,261.48,267.21Zm2,9.6a3.06,3.06,0,0,1-3.06,3.06h-4.49a3.06,3.06,0,0,1-3.06-3.06v-4.49a3.06,3.06,0,0,1,3.06-3.06h4.49a3,3,0,0,1,2.17.9,26.94,26.94,0,0,0-5.14,6.15l-1.63-2.76c-.42-.69-1.46.41-1.16.89l2.14,3.83c.32.39,1,.18,1.6-.24a24.75,24.75,0,0,1,4.57-7.39,3,3,0,0,1,.51,1.68Z"/>
            </g>
          </g>
          <rect class="cls-3" x="168.57" y="160.43" width="116.94" height="8.77" rx="3.08"/>
          <rect class="cls-3" x="184.9" y="176.04" width="84.28" height="8.77" rx="3.08"/>
        </g>
      </g>
      <g>
        <path class="cls-3" d="M354.52,154.22l-153-27a6.29,6.29,0,0,0-7.3,5.11L156.71,345.17a6.31,6.31,0,0,0,5.12,7.31l153,27a6.31,6.31,0,0,0,7.31-5.12l37.52-212.81A6.3,6.3,0,0,0,354.52,154.22Z"/>
        <path class="cls-4" d="M316.73,366.14a6.9,6.9,0,0,1-8,5.59L170.17,347.29a6.9,6.9,0,0,1-5.6-8l35-198.75a6.91,6.91,0,0,1,8-5.59l138.56,24.44a6.89,6.89,0,0,1,5.6,8Z"/>
        <g>
          <g>
            <g>
              <path class="cls-3" d="M273,229.94h0c-.34,1.95-1.66,3.35-2.94,3.13l-71.58-12.63c-1.28-.22-2-2-1.7-3.94h0c.35-2,1.66-3.36,2.94-3.13L271.29,226C272.57,226.22,273.33,228,273,229.94Z"/>
              <path class="cls-3" d="M266.23,268.22h0c-.34,1.95-1.66,3.35-2.94,3.13L191.7,258.73c-1.27-.23-2-2-1.69-4h0c.35-1.95,1.66-3.35,2.94-3.13l71.59,12.62C265.82,264.5,266.58,266.27,266.23,268.22Z"/>
              <path class="cls-3" d="M262.66,288.49h0c-.34,1.95-1.66,3.35-2.94,3.13L188.13,279c-1.28-.22-2-2-1.69-3.94h0c.34-2,1.66-3.36,2.94-3.13L261,284.54C262.25,284.77,263,286.53,262.66,288.49Z"/>
              <path class="cls-3" d="M259.22,308h0c-.35,2-1.66,3.36-2.94,3.13l-71.59-12.62c-1.28-.23-2-2-1.69-3.95h0c.34-1.95,1.66-3.35,2.94-3.13l71.59,12.63C258.81,304.28,259.56,306.05,259.22,308Z"/>
              <path class="cls-3" d="M269.53,249.51h0c-.34,2-1.66,3.35-2.94,3.13L195,240c-1.27-.22-2-2-1.69-3.94h0c.35-2,1.66-3.36,2.94-3.13l71.59,12.62C269.12,245.79,269.88,247.55,269.53,249.51Z"/>
            </g>
            <path class="cls-3" d="M310.21,308.75l-6.51-1.15a4.05,4.05,0,0,0-4.7,3.29l-1.14,6.51a4,4,0,0,0,3.28,4.69l6.51,1.15a4.05,4.05,0,0,0,4.7-3.29l1.15-6.51A4.05,4.05,0,0,0,310.21,308.75Zm.3,9.8A3.06,3.06,0,0,1,307,321l-4.43-.78a3.07,3.07,0,0,1-2.48-3.55l.78-4.42a3,3,0,0,1,3.55-2.48l4.42.77a3.07,3.07,0,0,1,2.48,3.55Z"/>
            <path class="cls-3" d="M313.65,289.23l-6.51-1.15a4.06,4.06,0,0,0-4.7,3.29l-1.14,6.51a4.05,4.05,0,0,0,3.28,4.7l6.52,1.15a4.06,4.06,0,0,0,4.69-3.29l1.15-6.51A4.05,4.05,0,0,0,313.65,289.23ZM314,299a3.06,3.06,0,0,1-3.54,2.48l-4.42-.78a3.06,3.06,0,0,1-2.49-3.55l.78-4.42a3.07,3.07,0,0,1,3.55-2.48l4.42.78a3.06,3.06,0,0,1,2.48,3.55Z"/>
            <path class="cls-3" d="M320.53,250.2,314,249.05a4,4,0,0,0-4.69,3.29l-1.15,6.51a4,4,0,0,0,3.29,4.69l6.51,1.15a4,4,0,0,0,4.69-3.29l1.15-6.51A4,4,0,0,0,320.53,250.2Zm.31,9.8a3.07,3.07,0,0,1-3.55,2.49l-4.42-.78a3.07,3.07,0,0,1-2.49-3.55l.78-4.42a3.06,3.06,0,0,1,3.55-2.48l4.42.78a3,3,0,0,1,2,1.26,27,27,0,0,0-6.12,5.17l-1.13-3c-.29-.75-1.51.16-1.3.68l1.44,4.14c.26.44,1,.35,1.62.05a24.76,24.76,0,0,1,5.79-6.49,3.1,3.1,0,0,1,.21,1.74Z"/>
            <path class="cls-3" d="M317.09,269.72l-6.51-1.15a4,4,0,0,0-4.69,3.29l-1.15,6.51a4,4,0,0,0,3.29,4.69l6.51,1.15a4,4,0,0,0,4.69-3.29l1.15-6.51A4,4,0,0,0,317.09,269.72Zm.3,9.8a3,3,0,0,1-3.54,2.48l-4.42-.78a3.06,3.06,0,0,1-2.49-3.54l.78-4.42a3.07,3.07,0,0,1,3.55-2.49l4.42.78a3,3,0,0,1,2,1.27,26.66,26.66,0,0,0-6.12,5.16l-1.13-3c-.29-.75-1.51.15-1.3.67l1.44,4.15c.26.44,1,.35,1.62,0a24.37,24.37,0,0,1,5.79-6.48,3,3,0,0,1,.2,1.74Z"/>
            <path class="cls-3" d="M324,230.68l-6.51-1.15a4.06,4.06,0,0,0-4.69,3.29l-1.15,6.51a4.05,4.05,0,0,0,3.29,4.7l6.51,1.15a4,4,0,0,0,4.69-3.29l1.15-6.51A4.05,4.05,0,0,0,324,230.68Zm.31,9.81a3.07,3.07,0,0,1-3.55,2.48l-4.42-.78a3,3,0,0,1-2.48-3.54l.78-4.43a3.06,3.06,0,0,1,3.54-2.48l4.42.78a3.06,3.06,0,0,1,2.49,3.55Z"/>
            <g>
              <path class="cls-3" d="M283.22,304l-6.51-1.15a4.06,4.06,0,0,0-4.7,3.29l-1.14,6.51a4,4,0,0,0,3.28,4.69l6.51,1.15a4.05,4.05,0,0,0,4.7-3.29l1.15-6.51A4.05,4.05,0,0,0,283.22,304Zm.3,9.8a3.06,3.06,0,0,1-3.54,2.49l-4.42-.78a3.07,3.07,0,0,1-2.49-3.55l.78-4.42a3.05,3.05,0,0,1,3.55-2.48l4.42.78a3.05,3.05,0,0,1,2.48,3.54Z"/>
              <path class="cls-3" d="M293.54,245.44,287,244.29a4.05,4.05,0,0,0-4.69,3.29l-1.15,6.51a4.06,4.06,0,0,0,3.29,4.7l6.51,1.14a4,4,0,0,0,4.69-3.28l1.15-6.51A4.05,4.05,0,0,0,293.54,245.44Zm.31,9.81a3.07,3.07,0,0,1-3.55,2.48l-4.42-.78a3,3,0,0,1-2.48-3.55l.78-4.42a3.05,3.05,0,0,1,3.54-2.48l4.42.78a3.06,3.06,0,0,1,2.49,3.54Z"/>
              <path class="cls-3" d="M290.1,265l-6.51-1.15a4,4,0,0,0-4.69,3.29l-1.15,6.51A4,4,0,0,0,281,278.3l6.51,1.15a4,4,0,0,0,4.69-3.29l1.15-6.51A4,4,0,0,0,290.1,265Zm.31,9.8a3.06,3.06,0,0,1-3.55,2.48l-4.42-.77a3.07,3.07,0,0,1-2.49-3.55l.78-4.42a3.07,3.07,0,0,1,3.55-2.49l4.42.78a3.07,3.07,0,0,1,2.49,3.55Z"/>
              <path class="cls-3" d="M297,225.92l-6.52-1.14a4,4,0,0,0-4.69,3.28l-1.15,6.51a4.05,4.05,0,0,0,3.29,4.7l6.51,1.15a4.06,4.06,0,0,0,4.7-3.29l1.14-6.51A4.05,4.05,0,0,0,297,225.92Zm.3,9.81a3.06,3.06,0,0,1-3.55,2.48l-4.42-.78a3.05,3.05,0,0,1-2.48-3.54l.78-4.43a3.06,3.06,0,0,1,3.54-2.48l4.42.78a3.06,3.06,0,0,1,2,1.27,26.48,26.48,0,0,0-6.13,5.16l-1.13-3c-.29-.74-1.51.16-1.3.68l1.44,4.15c.26.44,1,.35,1.63,0a24.57,24.57,0,0,1,5.78-6.49,3.06,3.06,0,0,1,.21,1.75Z"/>
              <path class="cls-3" d="M286.66,284.47l-6.51-1.15a4.06,4.06,0,0,0-4.69,3.29l-1.15,6.51a4.05,4.05,0,0,0,3.29,4.7l6.51,1.15a4.05,4.05,0,0,0,4.69-3.29l1.15-6.51A4.05,4.05,0,0,0,286.66,284.47Zm.3,9.81a3.06,3.06,0,0,1-3.54,2.48L279,296a3.06,3.06,0,0,1-2.49-3.55l.78-4.42a3.07,3.07,0,0,1,3.55-2.48l4.42.78a3,3,0,0,1,2,1.27,26.66,26.66,0,0,0-6.12,5.16l-1.13-3c-.3-.74-1.51.16-1.3.68l1.44,4.15c.26.43,1,.35,1.62,0a24.59,24.59,0,0,1,5.79-6.49,3,3,0,0,1,.2,1.75Z"/>
            </g>
          </g>
          <rect class="cls-3" x="212.06" y="173.27" width="116.94" height="8.77" rx="3.08" transform="translate(34.96 -44.28) rotate(10)"/>
          <rect class="cls-3" x="225.68" y="188.64" width="84.28" height="8.77" rx="3.08" transform="translate(37.59 -43.57) rotate(10)"/>
        </g>
      </g>
    </g>
  </g>
</svg>
