<svg id="Layer_1" data-name="Layer 1" xmlns="http://www.w3.org/2000/svg" viewBox="0 0 500 500">
  <defs>
    <style>
      .cls-1, .cls-3 {
        fill: #29abe2;
      }

      .cls-1 {
        opacity: 0.19;
      }

      .cls-2 {
        fill: #2d98d4;
      }

      .cls-4 {
        fill: #fff;
      }
    </style>
  </defs>
  <title>Resources</title>
  <g>
    <circle class="cls-1" cx="250.51" cy="253.96" r="167.19"/>
    <path class="cls-2" d="M250.52,54c-110.47,0-200,89.54-200,200s89.54,200,200,200,200-89.53,200-200S361,54,250.52,54Zm0,385.49A185.49,185.49,0,1,1,436,254,185.48,185.48,0,0,1,250.51,439.45Z"/>
    <g>
      <path class="cls-3" d="M303.67,245H289.24V138.7a2.46,2.46,0,0,0-2.46-2.46H171.17a2.46,2.46,0,0,0-2.46,2.46V245H154.28a2.46,2.46,0,0,0-2.46,2.46v109a2.46,2.46,0,0,0,2.46,2.46H303.67a2.46,2.46,0,0,0,2.46-2.46v-109A2.46,2.46,0,0,0,303.67,245ZM247.45,141.39h37v18.48h-37Zm-31.36,0h25.76v33l-10.92-11.48a3.07,3.07,0,0,0-2-.84,2.6,2.6,0,0,0-2,.84l-10.92,11.48Zm-42.55,0h37v18.48h-37Zm0,24.07h37v16a2.85,2.85,0,0,0,1.69,2.53,2.57,2.57,0,0,0,3.08-.57L229,168.82l13.71,14.56a2.57,2.57,0,0,0,3.08.57,2.71,2.71,0,0,0,1.68-2.53v-16h37V245H173.54Zm71.92,84.69v33l-14-11.48a4.46,4.46,0,0,0-2.5-.84,3.71,3.71,0,0,0-2.51.84l-14,11.48v-33Zm-87.45,0h47.31v18.47H158ZM299.94,353.74H158V274.22h47.31v16a3,3,0,0,0,2.15,2.52,3.94,3.94,0,0,0,3.94-.56L229,277.58l17.56,14.56a3.94,3.94,0,0,0,3.94.56c1.43-.56,2.15-1.4,2.15-2.52v-16h47.31Zm0-85.12H252.63V250.15h47.31Z"/>
      <g>
        <path class="cls-3" d="M346.43,197.09H328.65v-2.78a2.62,2.62,0,0,0-2.78-2.78H315.6v-2.22a9.36,9.36,0,0,0-9.45-9.45,9.6,9.6,0,0,0-9.71,9.45v2.22H286.17a2.62,2.62,0,0,0-2.78,2.78v2.49H265.61a2.6,2.6,0,0,0-2.56,1.61v110.7a2.86,2.86,0,0,0,.43,1h58v0h25a2.62,2.62,0,0,0,2.77-2.78V199.85A2.62,2.62,0,0,0,346.43,197.09Z"/>
        <path class="cls-4" d="M288.93,197.09h10.29a2.63,2.63,0,0,0,2.78-2.78v-5a4,4,0,0,1,4.15-3.89,3.8,3.8,0,0,1,3.89,3.89v5a2.62,2.62,0,0,0,2.78,2.78h10.27v7.76H288.93Z"/>
        <path class="cls-4" d="M343.65,304.54H268.39V202.63h15v5.28a2.62,2.62,0,0,0,2.78,2.78h39.7a2.62,2.62,0,0,0,2.78-2.78v-5.28h15Z"/>
        <path class="cls-3" d="M330.59,284.55H281.72a2.78,2.78,0,0,0,0,5.56h48.87a2.62,2.62,0,0,0,2.78-2.78A3,3,0,0,0,330.59,284.55Z"/>
        <path class="cls-3" d="M330.59,264.84H281.72a2.78,2.78,0,1,0,0,5.55h48.87a2.62,2.62,0,0,0,2.78-2.78A2.78,2.78,0,0,0,330.59,264.84Z"/>
        <path class="cls-3" d="M330.59,244.84H281.72a2.78,2.78,0,1,0,0,5.55h48.87a2.62,2.62,0,0,0,2.78-2.77A2.78,2.78,0,0,0,330.59,244.84Z"/>
        <path class="cls-3" d="M278.94,227.9a2.62,2.62,0,0,0,2.78,2.78h48.87a2.78,2.78,0,1,0,0-5.55H281.72A2.62,2.62,0,0,0,278.94,227.9Z"/>
      </g>
    </g>
  </g>
</svg>
