<svg id="Layer_1" data-name="Layer 1" xmlns="http://www.w3.org/2000/svg" viewBox="0 0 500 500">
  <defs>
    <style>
      .cls-1, .cls-3 {
        fill: #29abe2;
      }

      .cls-1 {
        opacity: 0.19;
      }

      .cls-2 {
        fill: #2d98d4;
      }

      .cls-4 {
        fill: #fff;
      }
    </style>
  </defs>
  <title>Resources</title>
  <g>
    <circle class="cls-1" cx="250.51" cy="251.27" r="167.19"/>
    <path class="cls-2" d="M250.52,51.27c-110.47,0-200,89.55-200,200s89.54,200,200,200,200-89.53,200-200S361,51.27,250.52,51.27Zm0,385.5c-102.45,0-185.49-83-185.49-185.5a185.49,185.49,0,0,1,371,0C436,353.72,353,436.77,250.51,436.77Z"/>
    <g>
      <path class="cls-3" d="M303.67,242.31H289.24V136a2.46,2.46,0,0,0-2.46-2.46H171.17a2.46,2.46,0,0,0-2.46,2.46v106.3H154.28a2.46,2.46,0,0,0-2.46,2.46v109a2.47,2.47,0,0,0,2.46,2.47H303.67a2.47,2.47,0,0,0,2.46-2.47v-109A2.46,2.46,0,0,0,303.67,242.31ZM247.45,138.7h37v18.48h-37Zm-31.36,0h25.76v33l-10.92-11.49a3.06,3.06,0,0,0-2-.83,2.59,2.59,0,0,0-2,.83l-10.92,11.49Zm-42.55,0h37v18.48h-37Zm0,24.08h37v16a2.83,2.83,0,0,0,1.69,2.52,2.57,2.57,0,0,0,3.08-.57L229,166.14l13.71,14.55a2.57,2.57,0,0,0,3.08.57,2.7,2.7,0,0,0,1.68-2.52v-16h37v79.51H173.54Zm71.92,84.68v33l-14-11.48a4.53,4.53,0,0,0-2.5-.84,3.77,3.77,0,0,0-2.51.84l-14,11.48v-33Zm-87.45,0h47.31v18.47H158ZM299.94,351.05H158V271.53h47.31v16a3,3,0,0,0,2.15,2.53,4,4,0,0,0,3.94-.57L229,274.89l17.56,14.56a4,4,0,0,0,3.94.57c1.43-.57,2.15-1.41,2.15-2.53v-16h47.31Zm0-85.12H252.63V247.46h47.31Z"/>
      <g>
        <path class="cls-3" d="M346.43,194.4H328.65v-2.78a2.62,2.62,0,0,0-2.78-2.78H315.6v-2.22a9.36,9.36,0,0,0-9.45-9.45,9.6,9.6,0,0,0-9.71,9.45v2.22H286.17a2.62,2.62,0,0,0-2.78,2.78v2.49H265.61a2.61,2.61,0,0,0-2.56,1.61v110.7a2.78,2.78,0,0,0,.43,1h58v0h25a2.62,2.62,0,0,0,2.77-2.78V197.16A2.62,2.62,0,0,0,346.43,194.4Z"/>
        <path class="cls-4" d="M288.93,194.4h10.29a2.63,2.63,0,0,0,2.78-2.78v-5a4,4,0,0,1,4.15-3.89,3.8,3.8,0,0,1,3.89,3.89v5a2.62,2.62,0,0,0,2.78,2.78h10.27v7.76H288.93Z"/>
        <path class="cls-4" d="M343.65,301.85H268.39V199.94h15v5.28a2.62,2.62,0,0,0,2.78,2.78h39.7a2.62,2.62,0,0,0,2.78-2.78v-5.28h15Z"/>
        <path class="cls-3" d="M330.59,281.87H281.72a2.78,2.78,0,1,0,0,5.55h48.87a2.62,2.62,0,0,0,2.78-2.78A3,3,0,0,0,330.59,281.87Z"/>
        <path class="cls-3" d="M330.59,262.15H281.72a2.78,2.78,0,1,0,0,5.55h48.87a2.62,2.62,0,0,0,2.78-2.78A2.78,2.78,0,0,0,330.59,262.15Z"/>
        <path class="cls-3" d="M330.59,242.15H281.72a2.78,2.78,0,0,0,0,5.56h48.87a2.62,2.62,0,0,0,2.78-2.78A2.78,2.78,0,0,0,330.59,242.15Z"/>
        <path class="cls-3" d="M278.94,225.22a2.62,2.62,0,0,0,2.78,2.77h48.87a2.78,2.78,0,1,0,0-5.55H281.72A2.62,2.62,0,0,0,278.94,225.22Z"/>
      </g>
    </g>
  </g>
</svg>
