<svg id="Layer_1" data-name="Layer 1" xmlns="http://www.w3.org/2000/svg" viewBox="0 0 500 500">
  <defs>
    <style>
      .cls-1, .cls-2 {
        fill: #2d98d4;
      }

      .cls-1 {
        opacity: 0.19;
      }
    </style>
  </defs>
  <title>RE-Stock</title>
  <g>
    <circle class="cls-1" cx="262.48" cy="251.37" r="167.19"/>
    <path class="cls-2" d="M262.48,51.37c-110.46,0-200,89.54-200,200s89.54,200,200,200,200-89.53,200-200S372.94,51.37,262.48,51.37Zm0,385.49C160,436.86,77,353.81,77,251.37A185.48,185.48,0,0,1,262.48,65.88c102.44,0,185.49,83,185.49,185.49S364.92,436.86,262.48,436.86Z"/>
    <g>
      <path class="cls-2" d="M369.15,159.82H347.83v-3.33a3.15,3.15,0,0,0-3.33-3.33H332.17V150.5a11.22,11.22,0,0,0-11.32-11.33,11.51,11.51,0,0,0-11.66,11.33v2.66H296.86a3.15,3.15,0,0,0-3.33,3.33v3H272.21a3.15,3.15,0,0,0-3.33,3.33v57.3H187.26a10.47,10.47,0,0,0-6.33,2.34l-16.66,14.66c-3,3-5,5.66-5,9.32v95.95a9.75,9.75,0,0,0,9.67,10H303.86a9.67,9.67,0,0,0,9.66-9.66V295.41h55.63a3.15,3.15,0,0,0,3.34-3.33V163.16A3.16,3.16,0,0,0,369.15,159.82Zm-69,0h12.33a3.14,3.14,0,0,0,3.33-3.33v-6a4.84,4.84,0,0,1,5-4.67,4.56,4.56,0,0,1,4.66,4.67v6a3.14,3.14,0,0,0,3.33,3.33h12.33v9.33h-41Zm-116.32,67.1c.69-.91,1.15-1.31,1.84-1.31h83.17v13.06H172.29ZM307,342.38a4.59,4.59,0,0,1-3.89,4.53,4,4,0,0,1-.7,0H170.67a4,4,0,0,1-.7,0,4.59,4.59,0,0,1-3.89-4.53V249.55a4.59,4.59,0,0,1,4.59-4.58H226v20.89h21V245h21.82a.23.23,0,0,1,.23.23v48.18a3.57,3.57,0,0,0,3.56,3.56h34.19a.23.23,0,0,1,.23.23Zm58.82-53.63H275.54V166.49h18v6.33a3.15,3.15,0,0,0,3.33,3.33H344.5a3.15,3.15,0,0,0,3.33-3.33v-6.33h18Z"/>
      <path class="cls-2" d="M350.16,264.77H291.53a3.33,3.33,0,0,0,0,6.66h58.63a3.14,3.14,0,0,0,3.33-3.33A3.57,3.57,0,0,0,350.16,264.77Z"/>
      <path class="cls-2" d="M350.16,241.11H291.53a3.33,3.33,0,1,0,0,6.66h58.63a3.14,3.14,0,0,0,3.33-3.33A3.34,3.34,0,0,0,350.16,241.11Z"/>
      <path class="cls-2" d="M350.16,217.12H291.53a3.34,3.34,0,0,0,0,6.67h58.63a3.15,3.15,0,0,0,3.33-3.34A3.34,3.34,0,0,0,350.16,217.12Z"/>
      <path class="cls-2" d="M288.2,196.8a3.15,3.15,0,0,0,3.33,3.34h58.63a3.34,3.34,0,0,0,0-6.67H291.53A3.15,3.15,0,0,0,288.2,196.8Z"/>
    </g>
  </g>
</svg>
