<svg id="Layer_1" data-name="Layer 1" xmlns="http://www.w3.org/2000/svg" viewBox="0 0 500 500">
  <defs>
    <style>
      .cls-1, .cls-2 {
        fill: #2d98d4;
      }

      .cls-1 {
        opacity: 0.19;
      }
    </style>
  </defs>
  <title>RE-Utilization</title>
  <g>
    <circle class="cls-1" cx="254.14" cy="251.37" r="167.19"/>
    <path class="cls-2" d="M254.15,51.37c-110.46,0-200,89.54-200,200s89.55,200,200,200,200-89.53,200-200S364.61,51.37,254.15,51.37Zm0,385.49c-102.45,0-185.49-83.05-185.49-185.49A185.48,185.48,0,0,1,254.14,65.88c102.45,0,185.5,83,185.5,185.49S356.59,436.86,254.14,436.86Z"/>
    <path class="cls-2" d="M257,140.37a130.07,130.07,0,0,0-130,130,5.92,5.92,0,0,0,5.91,5.91h26.59a5.91,5.91,0,0,0,.17-11.82h-20.3a118,118,0,0,1,30.19-73.2l9.42,9.41a5.91,5.91,0,1,0,8.47-8.24c-.05,0-.11-.1-.16-.16l-9.42-9.41a116.79,116.79,0,0,1,73.21-30.47v20.5a5.91,5.91,0,1,0,11.81.16V152.37a116.84,116.84,0,0,1,73.21,30.47l-9.42,9.41a5.91,5.91,0,0,0,8.15,8.57l.16-.17,9.42-9.41a118,118,0,0,1,30.18,73.2H354.48a5.91,5.91,0,0,0-.17,11.82h26.75a5.91,5.91,0,0,0,5.91-5.91A130.06,130.06,0,0,0,257,140.37Zm-48.46,76a5.92,5.92,0,0,0-5,8.4s6.25,13.56,13.57,28.25c3.67,7.34,7.64,15,11.27,21.41s6.44,11.34,9.78,14.68a26.6,26.6,0,1,0,37.67-37.57c-3.34-3.34-8.35-6.26-14.77-9.88s-14.08-7.51-21.42-11.17c-14.69-7.33-28.25-13.57-28.25-13.57A5.88,5.88,0,0,0,208.53,216.35Zm13,18.46c5,2.38,6.17,2.86,12.84,6.18,7.24,3.62,14.73,7.53,20.86,11s11.2,6.86,12.19,7.85a14.79,14.79,0,0,1-20.87,20.95c-1-1-4.48-6-7.94-12.18s-7.28-13.63-10.89-20.87C224.39,241,223.93,239.83,221.54,234.81Z"/>
  </g>
</svg>
