<svg id="Layer_1" data-name="Layer 1" xmlns="http://www.w3.org/2000/svg" viewBox="0 0 500 500">
  <defs>
    <style>
      .cls-1 {
        fill: #29abe2;
        opacity: 0.19;
      }

      .cls-2 {
        fill: #2d98d4;
      }
    </style>
  </defs>
  <title>GF-Warehouse</title>
  <g>
    <circle class="cls-1" cx="252.48" cy="260.27" r="167.19"/>
    <path class="cls-2" d="M252.49,60.27c-110.46,0-200,89.54-200,200s89.55,200,200,200,200-89.53,200-200S363,60.27,252.49,60.27Zm0,385.49a185.49,185.49,0,0,1,0-371c102.45,0,185.5,83,185.5,185.49S354.93,445.76,252.48,445.76Z"/>
    <path class="cls-2" d="M252.15,160.23l-.51.08a5.62,5.62,0,0,0-1.94.76L133.48,231.35a5.41,5.41,0,1,0,4.69,9.74,4.94,4.94,0,0,0,.88-.54l21.54-13V354.91a5.41,5.41,0,0,0,5.41,5.41H339a5.41,5.41,0,0,0,5.41-5.41V227.54l21.54,13a5.41,5.41,0,0,0,6.46-8.67,6.14,6.14,0,0,0-.89-.53L255.27,161.07a5.46,5.46,0,0,0-3.12-.84Zm.33,11.74,81.09,49V349.51H314.65V273.83a5.41,5.41,0,0,0-5.41-5.41H195.73a5.41,5.41,0,0,0-5.41,5.41v75.68H171.4V221l81.08-49ZM230.86,241.4a5.41,5.41,0,0,0,0,10.81h43.25a5.41,5.41,0,0,0,0-10.81Zm-29.73,37.83H303.84v16.22H201.13Zm0,27H303.84v16.22H201.13V306.26Zm0,27H303.84v16.22H201.13Z"/>
  </g>
</svg>
