<svg id="Layer_1" data-name="Layer 1" xmlns="http://www.w3.org/2000/svg" viewBox="0 0 500 500">
  <defs>
    <style>
      .cls-1, .cls-2 {
        fill: #2d98d4;
      }

      .cls-1 {
        opacity: 0.19;
      }
    </style>
  </defs>
  <title>IN-Assessments</title>
  <g>
    <circle class="cls-1" cx="262.48" cy="254.28" r="167.19"/>
    <path class="cls-2" d="M262.48,54.28c-110.46,0-200,89.54-200,200s89.54,200,200,200,200-89.54,200-200S372.94,54.28,262.48,54.28Zm0,385.49C160,439.77,77,356.72,77,254.28A185.48,185.48,0,0,1,262.48,68.78c102.44,0,185.49,83,185.49,185.5S364.92,439.77,262.48,439.77Z"/>
    <g>
      <path class="cls-2" d="M343.63,134.79H181.33a6.6,6.6,0,0,0-6.59,6.59V367.16a6.59,6.59,0,0,0,6.59,6.6h162.3a6.59,6.59,0,0,0,6.58-6.6V141.38A6.59,6.59,0,0,0,343.63,134.79Zm-.44,224.91a7.21,7.21,0,0,1-7.21,7.21H189a7.21,7.21,0,0,1-7.21-7.21V148.85a7.21,7.21,0,0,1,7.21-7.21H336a7.21,7.21,0,0,1,7.21,7.21Z"/>
      <path class="cls-2" d="M295.38,179.27h0c0,2.1-1.27,3.72-3.08,3.72H232.67c-1.81,0-3.09-1.68-3.09-3.78h0c0-2.09,1.28-3.81,3.09-3.81H292.3C294.11,175.4,295.38,177.18,295.38,179.27Z"/>
      <path class="cls-2" d="M321.46,166.23h0c0,2.09-2.26,3.72-5.52,3.72H209c-3.25,0-5.55-1.68-5.55-3.78h0c0-2.1,2.3-3.81,5.55-3.81h106.9C319.2,162.36,321.46,164.13,321.46,166.23Z"/>
      <g>
        <path class="cls-2" d="M325.75,215.79h0c0,2.4-1.27,4.34-2.84,4.34H235.13c-1.57,0-2.84-1.94-2.84-4.34h0c0-2.39,1.27-4.34,2.84-4.34h87.78C324.48,211.45,325.75,213.4,325.75,215.79Z"/>
        <path class="cls-2" d="M325.75,262.73h0c0,2.4-1.27,4.34-2.84,4.34H235.13c-1.57,0-2.84-1.94-2.84-4.34h0c0-2.39,1.27-4.33,2.84-4.33h87.78C324.48,258.4,325.75,260.34,325.75,262.73Z"/>
        <path class="cls-2" d="M325.75,287.58h0c0,2.4-1.27,4.34-2.84,4.34H235.13c-1.57,0-2.84-1.94-2.84-4.34h0c0-2.39,1.27-4.33,2.84-4.33h87.78C324.48,283.25,325.75,285.19,325.75,287.58Z"/>
        <path class="cls-2" d="M325.75,311.52h0c0,2.39-1.27,4.33-2.84,4.33H235.13c-1.57,0-2.84-1.94-2.84-4.33h0c0-2.4,1.27-4.34,2.84-4.34h87.78C324.48,307.18,325.75,309.12,325.75,311.52Z"/>
        <path class="cls-2" d="M212.08,302.63h-8a4.9,4.9,0,0,0-4.9,4.89v8a4.9,4.9,0,0,0,4.9,4.89h8a4.89,4.89,0,0,0,4.9-4.89v-8A4.89,4.89,0,0,0,212.08,302.63Zm2.42,11.6a3.7,3.7,0,0,1-3.7,3.69h-5.42a3.7,3.7,0,0,1-3.7-3.69V308.8a3.7,3.7,0,0,1,3.7-3.69h5.42a3.7,3.7,0,0,1,3.7,3.69Z"/>
        <path class="cls-2" d="M325.75,239.79h0c0,2.39-1.27,4.34-2.84,4.34H235.13c-1.57,0-2.84-1.95-2.84-4.34h0c0-2.4,1.27-4.34,2.84-4.34h87.78C324.48,235.45,325.75,237.39,325.75,239.79Z"/>
        <g>
          <path class="cls-2" d="M212.08,254.77h-8a4.9,4.9,0,0,0-4.9,4.89v8a4.9,4.9,0,0,0,4.9,4.89h8a4.89,4.89,0,0,0,4.9-4.89v-8A4.89,4.89,0,0,0,212.08,254.77Zm2.42,11.59a3.7,3.7,0,0,1-3.7,3.7h-5.42a3.7,3.7,0,0,1-3.7-3.7v-5.42a3.7,3.7,0,0,1,3.7-3.69h5.42a3.7,3.7,0,0,1,3.7,3.69Z"/>
          <path class="cls-2" d="M209.47,263.53l3.26-4.57H210l-1.86,2.63L206.27,259H203.4l1.6,2.27,1.68,2.39c-.33.36-.66.74-1,1.15s-.66.83-1,1.26-.56.86-.81,1.26-.44.76-.59,1H206c.13-.23.27-.49.43-.76l.49-.83a4.12,4.12,0,0,1,.53-.7l.55-.51c.19.17.38.35.57.55a4.18,4.18,0,0,1,.56.75c.18.29.34.57.48.83l.36.67h2.85a24.21,24.21,0,0,0-1.39-2.26A26,26,0,0,0,209.47,263.53Z"/>
        </g>
        <path class="cls-2" d="M212.08,206.91h-8a4.9,4.9,0,0,0-4.9,4.89v8a4.9,4.9,0,0,0,4.9,4.9h8a4.9,4.9,0,0,0,4.9-4.9v-8A4.89,4.89,0,0,0,212.08,206.91Zm2.42,11.59a3.7,3.7,0,0,1-3.7,3.7h-5.42a3.7,3.7,0,0,1-3.7-3.7v-5.42a3.7,3.7,0,0,1,3.7-3.69h5.42a3.65,3.65,0,0,1,2.62,1.09,32.15,32.15,0,0,0-6.2,7.42l-2-3.34c-.51-.82-1.76.5-1.4,1.08l2.58,4.63c.4.47,1.22.21,1.94-.29a29.7,29.7,0,0,1,5.52-8.93,3.73,3.73,0,0,1,.61,2Z"/>
        <path class="cls-2" d="M212.08,230.84h-8a4.9,4.9,0,0,0-4.9,4.89v8a4.9,4.9,0,0,0,4.9,4.9h8a4.9,4.9,0,0,0,4.9-4.9v-8A4.89,4.89,0,0,0,212.08,230.84Zm2.42,11.59a3.7,3.7,0,0,1-3.7,3.7h-5.42a3.7,3.7,0,0,1-3.7-3.7V237a3.7,3.7,0,0,1,3.7-3.69h5.42a3.65,3.65,0,0,1,2.62,1.09,32.15,32.15,0,0,0-6.2,7.42l-2-3.34c-.51-.82-1.76.5-1.4,1.08l2.58,4.63c.4.47,1.22.21,1.94-.29a29.7,29.7,0,0,1,5.52-8.93,3.73,3.73,0,0,1,.61,2Z"/>
        <path class="cls-2" d="M212.08,278.7h-8a4.9,4.9,0,0,0-4.9,4.89v8a4.9,4.9,0,0,0,4.9,4.89h8a4.89,4.89,0,0,0,4.9-4.89v-8A4.89,4.89,0,0,0,212.08,278.7Zm2.42,11.6a3.7,3.7,0,0,1-3.7,3.69h-5.42a3.7,3.7,0,0,1-3.7-3.69v-5.43a3.7,3.7,0,0,1,3.7-3.69h5.42a3.65,3.65,0,0,1,2.62,1.09,32.37,32.37,0,0,0-6.2,7.42l-2-3.34c-.51-.82-1.76.51-1.4,1.08l2.58,4.63c.4.47,1.22.22,1.94-.29a29.7,29.7,0,0,1,5.52-8.93,3.73,3.73,0,0,1,.61,2Z"/>
      </g>
    </g>
  </g>
</svg>
