<svg id="Layer_1" data-name="Layer 1" xmlns="http://www.w3.org/2000/svg" viewBox="0 0 500 500">
  <defs>
    <style>
      .cls-1, .cls-2 {
        fill: #2d98d4;
      }

      .cls-1 {
        opacity: 0.19;
      }
    </style>
  </defs>
  <title>IN-Feed</title>
  <g>
    <g>
      <circle class="cls-1" cx="258.09" cy="277.17" r="167.19"/>
      <path class="cls-2" d="M258.1,77.17c-110.46,0-200,89.54-200,200s89.55,200,200,200,200-89.54,200-200S368.56,77.17,258.1,77.17Zm0,385.49c-102.45,0-185.49-83.05-185.49-185.49a185.49,185.49,0,1,1,371,0C443.58,379.61,360.54,462.66,258.09,462.66Z"/>
    </g>
    <g>
      <path class="cls-2" d="M295.71,192.51l.42,0a5,5,0,0,0,4.33-5.71h0a5,5,0,0,0-5.65-4.28l-.51.07c-1.82.26-3.64.56-5.44.88A139,139,0,0,0,175.67,334.26c.19,1.83.41,3.65.67,5.48,0,.17,0,.34.07.51a5,5,0,0,0,5.7,4.22h0a5,5,0,0,0,4.26-5.75l-.06-.41c-.26-1.83-.48-3.66-.66-5.47A128.89,128.89,0,0,1,290.28,193.41C292.07,193.07,293.89,192.77,295.71,192.51Z"/>
      <path class="cls-2" d="M302.28,211.88c-1.76.26-3.52.55-5.25.88a113.16,113.16,0,0,0-91.42,121.82c.16,1.76.37,3.53.63,5.3l.09.62a4.75,4.75,0,0,0,5.37,4h0a4.76,4.76,0,0,0,4-5.43c0-.17-.05-.34-.07-.51-.25-1.77-.46-3.54-.62-5.3a103.66,103.66,0,0,1,83.36-111.07c1.73-.33,3.47-.63,5.25-.88l.51-.08a4.74,4.74,0,0,0,4.09-5.37h0a4.72,4.72,0,0,0-5.31-4Z"/>
      <path class="cls-2" d="M313.62,243.81c-1.63.23-3.25.5-4.85.84a85.21,85.21,0,0,0-68.06,90.69c.12,1.62.31,3.26.54,4.89,0,.22.07.44.1.66a4.28,4.28,0,0,0,4.84,3.59h0a4.28,4.28,0,0,0,3.62-4.89c0-.19-.06-.38-.08-.57-.24-1.63-.42-3.27-.54-4.89a76.66,76.66,0,0,1,60.78-81c1.6-.33,3.21-.62,4.84-.85l.58-.08a4.28,4.28,0,0,0,3.68-4.84h0a4.28,4.28,0,0,0-4.8-3.65Z"/>
      <path class="cls-2" d="M321.15,275c-1.48.21-2.95.48-4.39.79a58,58,0,0,0-45.3,60.37c.1,1.48.25,3,.46,4.44.06.39.11.77.18,1.15a3.34,3.34,0,0,0,3.77,2.79h0a3.33,3.33,0,0,0,2.83-3.83c-.06-.35-.11-.7-.16-1.05-.21-1.49-.36-3-.43-4.45a51.27,51.27,0,0,1,39.59-52.77c1.44-.34,2.9-.61,4.39-.82l1.06-.14a3.34,3.34,0,0,0,2.89-3.79h0a3.34,3.34,0,0,0-3.74-2.84Z"/>
      <circle class="cls-2" cx="323.51" cy="322.28" r="22.24"/>
    </g>
  </g>
</svg>
