<svg id="Layer_1" data-name="Layer 1" xmlns="http://www.w3.org/2000/svg" viewBox="0 0 500 500">
  <defs>
    <style>
      .cls-1, .cls-2 {
        fill: #2d98d4;
      }

      .cls-1 {
        opacity: 0.19;
      }
    </style>
  </defs>
  <title>IN-Incident-Command-Centre</title>
  <g>
    <g>
      <circle class="cls-1" cx="259.51" cy="252.21" r="167.19"/>
      <path class="cls-2" d="M259.51,52.21c-110.46,0-200,89.54-200,200s89.54,200,200,200,200-89.53,200-200S370,52.21,259.51,52.21Zm0,385.49a185.49,185.49,0,1,1,0-371C362,66.72,445,149.76,445,252.21S362,437.7,259.51,437.7Z"/>
    </g>
    <g>
      <g>
        <path class="cls-2" d="M274.92,254.19a15.85,15.85,0,0,0-30.82-.06,15.55,15.55,0,0,0-.44,3.7,14.65,14.65,0,0,0,.15,2.21,15.57,15.57,0,0,0,3.06,7.34,15.83,15.83,0,0,0,25.94-1,15.47,15.47,0,0,0,2.52-8.17,2.82,2.82,0,0,0,0-.42A15.63,15.63,0,0,0,274.92,254.19Zm-15.41,13.15a9.51,9.51,0,1,1,9.5-9.51A9.53,9.53,0,0,1,259.51,267.34Z"/>
        <path class="cls-2" d="M340.12,250.53a14.79,14.79,0,0,0-2.29-3.29,15.79,15.79,0,0,0-23.7.19,15.83,15.83,0,0,0-3.91,10.4,15.84,15.84,0,0,0,28.43,9.62,15.75,15.75,0,0,0,3.26-9.62A15.79,15.79,0,0,0,340.12,250.53Zm-14.06,16.81a9.51,9.51,0,0,1,0-19,8.65,8.65,0,0,1,1.44.11,9.33,9.33,0,0,1,4.72,2.16h0a9.57,9.57,0,0,1,3.33,7.23,9.3,9.3,0,0,1-1.06,4.33A9.5,9.5,0,0,1,326.06,267.34Z"/>
        <path class="cls-2" d="M208.61,255.43a14.86,14.86,0,0,0-.94-3.46,15.89,15.89,0,0,0-4.13-5.9,15.87,15.87,0,0,0-24.65,4.46,1.57,1.57,0,0,0-.12.26,15.4,15.4,0,0,0-1.65,6.51c0,.17,0,.36,0,.53a15.85,15.85,0,0,0,3.26,9.62,15.83,15.83,0,0,0,25.16,0,16,16,0,0,0,3.27-9.62A15.66,15.66,0,0,0,208.61,255.43Zm-25.17,2.4a9.51,9.51,0,0,1,19,0,9.32,9.32,0,0,1-.85,3.92,9.49,9.49,0,0,1-17.12.39A9.34,9.34,0,0,1,183.44,257.83Z"/>
        <path class="cls-2" d="M259.51,280A28.56,28.56,0,0,0,231,308.54v6.34h6.34v-6.34a22.19,22.19,0,0,1,44.37,0v6.34H288v-6.34A28.55,28.55,0,0,0,259.51,280Z"/>
        <path class="cls-2" d="M326.06,280a28.29,28.29,0,0,0-14.31,3.89.86.86,0,0,1-.84.51,28.48,28.48,0,0,0-13.37,24.12v6.34h6.34v-6.34a22.19,22.19,0,0,1,44.37,0v6.34h6.34v-6.34A28.56,28.56,0,0,0,326.06,280Z"/>
        <path class="cls-2" d="M193,280a28.55,28.55,0,0,0-28.52,28.52v6.34h6.33v-6.34a22.19,22.19,0,0,1,44.37,0v6.34h6.34v-6.34A28.55,28.55,0,0,0,193,280Z"/>
      </g>
      <g>
        <path class="cls-2" d="M236.25,263h-16.6q.63,2.63,1.13,5.3H236C236.06,266.48,236.14,264.71,236.25,263Z"/>
        <path class="cls-2" d="M134.27,256.8V201a6.15,6.15,0,0,1,6.15-6.15H244a6.15,6.15,0,0,1,6.15,6.15v39.63c1.76-1.25,3.68-2.26,5.52-3.41V196.58a7,7,0,0,0-7-7H135.79a7,7,0,0,0-7,7v64.63a7.05,7.05,0,0,0,7,7H160.9c.19-1.78.47-3.55.82-5.3h-21.3A6.15,6.15,0,0,1,134.27,256.8Z"/>
        <g>
          <path class="cls-2" d="M306,263.34H281.89c.09,1.77.18,3.53.3,5.3h24.59C306.47,266.88,306.2,265.11,306,263.34Z"/>
          <path class="cls-2" d="M383.22,189.93H270.41a7,7,0,0,0-7,7V236.1a21.32,21.32,0,0,1,5.52,2.18v-36.9a6.14,6.14,0,0,1,6.14-6.15H378.59a6.15,6.15,0,0,1,6.15,6.15v55.81a6.15,6.15,0,0,1-6.15,6.15H350c.17,1.77.31,3.53.35,5.3h32.9a7.05,7.05,0,0,0,7-7V197A7,7,0,0,0,383.22,189.93Z"/>
        </g>
      </g>
    </g>
  </g>
</svg>
