<svg id="Layer_1" data-name="Layer 1" xmlns="http://www.w3.org/2000/svg" viewBox="0 0 500 500">
  <defs>
    <style>
      .cls-1, .cls-2 {
        fill: #a2b1ba;
      }

      .cls-1 {
        opacity: 0.19;
      }
    </style>
  </defs>
  <title>in-incidenttypes-disabled</title>
  <g>
    <g>
      <circle class="cls-1" cx="245.2" cy="243.67" r="167.19"/>
      <path class="cls-2" d="M245.2,43.67c-110.46,0-200,89.55-200,200s89.54,200,200,200,200-89.53,200-200S355.66,43.67,245.2,43.67Zm0,385.5c-102.46,0-185.49-83.05-185.49-185.5A185.48,185.48,0,0,1,245.2,58.18c102.44,0,185.49,83,185.49,185.49S347.64,429.17,245.2,429.17Z"/>
    </g>
    <g>
      <path class="cls-2" d="M236.48,184.69c4.37-2.53,5.21-9.27,1.86-15.05h0L218.17,134.7c-3.35-5.79-9.6-8.42-14-5.88s-5.19,9.24-1.86,15l20.17,34.94c3.34,5.79,9.6,8.43,14,5.91Z"/>
      <path class="cls-2" d="M214.9,219.76a9.6,9.6,0,0,0-6.58-11.39L155.83,193a8.63,8.63,0,0,0-10.9,6.29,9.6,9.6,0,0,0,6.58,11.39L204,226.05A8.62,8.62,0,0,0,214.9,219.76Z"/>
      <path class="cls-2" d="M240.05,282.62l-10,43.62a10.74,10.74,0,0,0,7.22,12.5A9,9,0,0,0,248.87,332h0l10-43.62a10.75,10.75,0,0,0-7.22-12.5A9,9,0,0,0,240.05,282.62Z"/>
      <path class="cls-2" d="M285.29,118.4l-10,43.62a10.74,10.74,0,0,0,7.22,12.5,9.05,9.05,0,0,0,11.65-6.72h0l10-43.62a10.74,10.74,0,0,0-7.22-12.5A9,9,0,0,0,285.29,118.4Z"/>
      <path class="cls-2" d="M285.52,272.25c-4.11,2.37-5.58,7.53,1.33,19.5h0L328.54,364c6.91,12,12.29,13.58,16.4,11.2s5.41-7.84-1.5-19.8l-41.69-72.22C294.84,271.18,289.64,269.87,285.52,272.25Z"/>
      <path class="cls-2" d="M114.63,316.2c2.38,4.12,7.54,5.59,19.5-1.32h0l72.22-41.69c12-6.91,13.58-12.29,11.2-16.41s-7.84-5.41-19.81,1.5L125.53,300C113.56,306.88,112.26,312.09,114.63,316.2Z"/>
      <path class="cls-2" d="M313.43,236.66A10.21,10.21,0,0,0,300.77,244a10.66,10.66,0,0,0,7.44,12.89l25.45,7.07a10.21,10.21,0,0,0,12.66-7.31,10.66,10.66,0,0,0-7.45-12.89Z"/>
      <path class="cls-2" d="M353.82,166.7l-52.36,30.24c-9.39,5.21-15,13.53-12.45,18.58h0c3.13,4.7,13.11,4,22.32-1.48l52.37-30.23c9.38-5.22,14.95-13.53,12.44-18.59h0C373,160.52,363,161.18,353.82,166.7Z"/>
      <g>
        <path class="cls-2" d="M250.69,201.33a19.39,19.39,0,0,1,5.34-.53,23.07,23.07,0,0,1,5.47.66l1,6.5.34,2.17,1.9,1.08,3,1.73,2,1.22,2.07-.83,5.79-2.25a26.5,26.5,0,0,1,5.59,9.68l-5,4-1.75,1.38.07,2.32v5.65l1.71,1.38,5.12,4.14a26.56,26.56,0,0,1-5.29,9.42l-5.94-2.4-2.17-.93-2,1.18L265,248.53l-2,1.18-.28,2.34-.89,6.34a16.59,16.59,0,0,1-5,.51,23.07,23.07,0,0,1-5.47-.66l-1-6.5-.34-2.17-1.9-1.08-3-1.73-2-1.22-2.07.83-5.79,2.25a26.67,26.67,0,0,1-5.6-9.68l5-4,1.75-1.38-.07-2.32v-5.65l-1.71-1.38-5.33-4.2a26.56,26.56,0,0,1,5.29-9.42l5.93,2.4,2.17.93,2.05-1.18,2.86-1.66,2-1.18.28-2.35.75-6.25m-4.25-3.91L245,207l-2.86,1.66L233.34,205a33.75,33.75,0,0,0-9.44,16.73l7.57,6.18v3.46l-7.34,5.87A34.83,34.83,0,0,0,234,254.27l8.76-3.42,2.92,1.59,1.49,9.51a35.43,35.43,0,0,0,9.61,1.54,31.77,31.77,0,0,0,9.59-1.35l1.41-9.54,2.86-1.66,8.83,3.64a33.75,33.75,0,0,0,9.44-16.73l-7.49-6v-3.46l7.34-5.87a35,35,0,0,0-9.84-17.06l-8.76,3.42-2.92-1.59-1.49-9.5a35.44,35.44,0,0,0-9.62-1.54,28,28,0,0,0-9.66,1.21Z"/>
        <path class="cls-2" d="M252.49,223a7.88,7.88,0,1,1-2.88,10.76A7.8,7.8,0,0,1,252.49,223m-2.36-4.09a12.6,12.6,0,1,0,17.21,4.61,12.63,12.63,0,0,0-17.21-4.61Z"/>
      </g>
    </g>
  </g>
</svg>
