<svg id="Layer_1" data-name="Layer 1" xmlns="http://www.w3.org/2000/svg" viewBox="0 0 500 500">
  <defs>
    <style>
      .cls-1, .cls-2 {
        fill: #2d98d4;
      }

      .cls-1 {
        opacity: 0.19;
      }

      .cls-3 {
        fill: #fff;
      }
    </style>
  </defs>
  <title>IN-Loss-Database</title>
  <g>
    <g>
      <circle class="cls-1" cx="251.65" cy="245.08" r="167.19"/>
      <path class="cls-2" d="M251.65,45.08c-110.46,0-200,89.54-200,200s89.54,200,200,200,200-89.54,200-200S362.11,45.08,251.65,45.08Zm0,385.49c-102.46,0-185.5-83.05-185.5-185.49A185.48,185.48,0,0,1,251.65,59.59c102.44,0,185.49,83,185.49,185.49S354.09,430.57,251.65,430.57Z"/>
    </g>
    <g>
      <path class="cls-2" d="M307.52,282.13h-.11a3.52,3.52,0,0,0-3.48,3.55v18.75a1.58,1.58,0,0,0,0,.37c4.18-3.29,6.55-7.06,6.55-11.32v-9.54A3.5,3.5,0,0,0,307.52,282.13Zm.62-17.48a40.75,40.75,0,0,0-6.76.56v7.13a34.06,34.06,0,0,1,6.76-.66c.79,0,1.59,0,2.37.09v-7C309.73,264.68,308.93,264.65,308.14,264.65ZM226,128.94c-42,0-84.56,9.41-84.56,27.42V293.48c0,18,42.53,27.43,84.56,27.43,8.23,0,16.48-.36,24.43-1.07,1.41-.13,2.8-.27,4.19-.43a50.84,50.84,0,0,1-1.81-8.93c-1.34.13-2.72.26-4.12.37-6.91.58-14.47.91-22.69.91-49.52,0-75.42-11.91-75.42-18.28V260.92c14.75,9.4,45.23,14.27,75.42,14.27a268.08,268.08,0,0,0,31.57-1.82c1.89-.23,3.74-.47,5.58-.74A52.37,52.37,0,0,1,275,261.2c-2.7.63-5.59,1.22-8.69,1.74A240.38,240.38,0,0,1,226,266.05c-49.52,0-75.42-11.9-75.42-18.28V215.21c14.75,9.41,45.23,14.28,75.42,14.28s60.68-4.87,75.41-14.28v32.56c0,1.3-1.07,2.82-3.2,4.45a52.53,52.53,0,0,1,6.91-.46c1.83,0,3.64.1,5.42.27V156.36C310.51,138.35,268,128.94,226,128.94Zm0,9.14c49.51,0,75.41,11.91,75.41,18.28s-25.9,18.29-75.41,18.29-75.42-11.91-75.42-18.29S176.45,138.08,226,138.08Zm0,82.27c-49.52,0-75.42-11.91-75.42-18.28V169.49c14.75,9.42,45.23,14.29,75.42,14.29s60.68-4.87,75.41-14.29v32.58C301.38,208.44,275.48,220.35,226,220.35Zm82.17,44.3a40.75,40.75,0,0,0-6.76.56v7.13a34.06,34.06,0,0,1,6.76-.66c.79,0,1.59,0,2.37.09v-7C309.73,264.68,308.93,264.65,308.14,264.65Z"/>
      <g>
        <g>
          <path class="cls-2" d="M321.34,311.05,311,302.74v-17a3.46,3.46,0,0,0-.45-1.77,3.5,3.5,0,0,0-3-1.81h-.11a3.52,3.52,0,0,0-3.48,3.55v18.75a1.58,1.58,0,0,0,0,.37,3.58,3.58,0,0,0,1.28,2.38L317,316.53a3.51,3.51,0,0,0,4.39-5.48Zm-10.83-46.31c-.78-.06-1.58-.09-2.37-.09a40.75,40.75,0,0,0-6.76.56,40.28,40.28,0,0,0-30.6,24.37l-2.38-4.2a3.5,3.5,0,0,0-6.6,1.72,3.43,3.43,0,0,0,.47,1.68l6.42,11.51a3.52,3.52,0,0,0,4.69,1.4l11.44-5.85a3.51,3.51,0,0,0-2.92-6.39l-.26.13-4.2,2.17a33.23,33.23,0,0,1,23.94-19.41,34.06,34.06,0,0,1,6.76-.66c.79,0,1.59,0,2.37.09a32.74,32.74,0,0,1-1.93,65.42,3.51,3.51,0,1,0,0,7h.07c21.92-.29,39.74-18,39.74-39.77C348.39,283.27,331.58,266,310.51,264.74Zm0,0c-.78-.06-1.58-.09-2.37-.09a40.75,40.75,0,0,0-6.76.56,40.28,40.28,0,0,0-30.6,24.37l-2.38-4.2a3.5,3.5,0,0,0-6.6,1.72,3.43,3.43,0,0,0,.47,1.68l6.42,11.51a3.52,3.52,0,0,0,4.69,1.4l11.44-5.85a3.51,3.51,0,0,0-2.92-6.39l-.26.13-4.2,2.17a33.23,33.23,0,0,1,23.94-19.41,34.06,34.06,0,0,1,6.76-.66c.79,0,1.59,0,2.37.09a32.74,32.74,0,0,1-1.93,65.42,3.51,3.51,0,1,0,0,7h.07c21.92-.29,39.74-18,39.74-39.77C348.39,283.27,331.58,266,310.51,264.74ZM317,316.53a3.51,3.51,0,0,0,4.39-5.48L311,302.74v-17a3.46,3.46,0,0,0-.45-1.77,3.5,3.5,0,0,0-3-1.81h-.11a3.52,3.52,0,0,0-3.48,3.55v18.75a1.58,1.58,0,0,0,0,.37,3.58,3.58,0,0,0,1.28,2.38Zm-6.44-68.63a51.36,51.36,0,0,0-5.42-.27c-1.24,0-2.48,0-3.71.13a56.74,56.74,0,0,0-52.72,63.09,55.6,55.6,0,0,0,1.74,9,56.8,56.8,0,1,0,60.11-71.94Zm-5.42,109.21a52.68,52.68,0,0,1-50.5-37.7,50.84,50.84,0,0,1-1.81-8.93,50.28,50.28,0,0,1-.36-6.05,52.71,52.71,0,0,1,52.67-52.67c1.83,0,3.64.1,5.42.27a52.68,52.68,0,0,1-5.42,105.08Zm5.42-92.37c-.78-.06-1.58-.09-2.37-.09a40.75,40.75,0,0,0-6.76.56,40.28,40.28,0,0,0-30.6,24.37l-2.38-4.2a3.5,3.5,0,0,0-6.6,1.72,3.43,3.43,0,0,0,.47,1.68l6.42,11.51a3.52,3.52,0,0,0,4.69,1.4l11.44-5.85a3.51,3.51,0,0,0-2.92-6.39l-.26.13-4.2,2.17a33.23,33.23,0,0,1,23.94-19.41,34.06,34.06,0,0,1,6.76-.66c.79,0,1.59,0,2.37.09a32.74,32.74,0,0,1-1.93,65.42,3.51,3.51,0,1,0,0,7h.07c21.92-.29,39.74-18,39.74-39.77C348.39,283.27,331.58,266,310.51,264.74ZM317,316.53a3.51,3.51,0,0,0,4.39-5.48L311,302.74v-17a3.46,3.46,0,0,0-.45-1.77,3.5,3.5,0,0,0-3-1.81h-.11a3.52,3.52,0,0,0-3.48,3.55v18.75a1.58,1.58,0,0,0,0,.37,3.58,3.58,0,0,0,1.28,2.38Zm4.39-5.48L311,302.74v-17a3.46,3.46,0,0,0-.45-1.77,3.5,3.5,0,0,0-3-1.81h-.11a3.52,3.52,0,0,0-3.48,3.55v18.75a1.58,1.58,0,0,0,0,.37,3.58,3.58,0,0,0,1.28,2.38L317,316.53a3.51,3.51,0,0,0,4.39-5.48Zm-10.83-46.31v7a32.74,32.74,0,0,1-1.93,65.42,3.51,3.51,0,1,0,0,7h.07c21.92-.29,39.74-18,39.74-39.77C348.39,283.27,331.58,266,310.51,264.74Zm10.83,46.31L311,302.74v-17a3.46,3.46,0,0,0-.45-1.77,3.5,3.5,0,0,0-3-1.81h-.11a3.52,3.52,0,0,0-3.48,3.55v18.75a1.58,1.58,0,0,0,0,.37,3.58,3.58,0,0,0,1.28,2.38L317,316.53a3.51,3.51,0,0,0,4.39-5.48Z"/>
          <path class="cls-3" d="M305.24,307.18A3.58,3.58,0,0,1,304,304.8a1.58,1.58,0,0,1,0-.37V285.68a3.52,3.52,0,0,1,3.48-3.55h.11a3.5,3.5,0,0,1,3,1.81,3.46,3.46,0,0,1,.45,1.77v17l10.38,8.31a3.51,3.51,0,0,1-4.39,5.48Z"/>
          <path class="cls-3" d="M348.39,304.43c0,21.78-17.82,39.48-39.74,39.77h-.07a3.51,3.51,0,1,1,0-7,32.74,32.74,0,0,0,1.93-65.42c-.78-.07-1.58-.09-2.37-.09a34.06,34.06,0,0,0-6.76.66,33.23,33.23,0,0,0-23.94,19.41l4.2-2.17.26-.13a3.51,3.51,0,0,1,2.92,6.39l-11.44,5.85a3.52,3.52,0,0,1-4.69-1.4l-6.42-11.51a3.43,3.43,0,0,1-.47-1.68,3.5,3.5,0,0,1,6.6-1.72l2.38,4.2a40.28,40.28,0,0,1,30.6-24.37,40.75,40.75,0,0,1,6.76-.56c.79,0,1.59,0,2.37.09C331.58,266,348.39,283.27,348.39,304.43Z"/>
        </g>
        <path class="cls-2" d="M321.34,311.05,311,302.74v-17a3.46,3.46,0,0,0-.45-1.77,3.5,3.5,0,0,0-3-1.81h-.11a3.52,3.52,0,0,0-3.48,3.55v18.75a1.58,1.58,0,0,0,0,.37,3.58,3.58,0,0,0,1.28,2.38L317,316.53a3.51,3.51,0,0,0,4.39-5.48Zm-10.83-46.31c-.78-.06-1.58-.09-2.37-.09a40.75,40.75,0,0,0-6.76.56,40.28,40.28,0,0,0-30.6,24.37l-2.38-4.2a3.5,3.5,0,0,0-6.6,1.72,3.43,3.43,0,0,0,.47,1.68l6.42,11.51a3.52,3.52,0,0,0,4.69,1.4l11.44-5.85a3.51,3.51,0,0,0-2.92-6.39l-.26.13-4.2,2.17a33.23,33.23,0,0,1,23.94-19.41,34.06,34.06,0,0,1,6.76-.66c.79,0,1.59,0,2.37.09a32.74,32.74,0,0,1-1.93,65.42,3.51,3.51,0,1,0,0,7h.07c21.92-.29,39.74-18,39.74-39.77C348.39,283.27,331.58,266,310.51,264.74Z"/>
      </g>
    </g>
  </g>
</svg>
