<svg id="Layer_1" data-name="Layer 1" xmlns="http://www.w3.org/2000/svg" viewBox="0 0 500 500"><defs><style>.cls-1,.cls-2{fill:#2d98d4;}.cls-1{opacity:0.19;}</style></defs><title>re-unitofmeasure</title><circle class="cls-1" cx="250.03" cy="249.47" r="167.19"/><path class="cls-2" d="M250,49.47c-110.46,0-200,89.54-200,200s89.54,200,200,200,200-89.53,200-200S360.49,49.47,250,49.47ZM250,435a185.49,185.49,0,1,1,0-371c102.44,0,185.49,83,185.49,185.49S352.47,435,250,435Z"/><path class="cls-2" d="M169.2,161.55a2.22,2.22,0,0,0-2.22-2.21H130.21a2.21,2.21,0,0,0-2.22,2.22v98.36h0v77.47a2.27,2.27,0,0,0,2.21,2.22H167a2.21,2.21,0,0,0,2.21-2.21V261.48h0ZM157.48,269.38h7.29v7.27H148.15a2.22,2.22,0,0,0,0,4.43h16.62v7.27h-6.05a2.21,2.21,0,0,0,0,4.42h6.05v7.27h-6a2.22,2.22,0,0,0,0,4.43h6v7.27h-6.05a2.21,2.21,0,0,0,0,4.42h6.05v7.27h-6.05a2.21,2.21,0,0,0,0,4.42h6.05v7.3H132.42v-81.7h0V163.77h32.35v7.36l-.23,0h-8.25a2.21,2.21,0,1,0,0,4.42h8.25a1.57,1.57,0,0,0,.23,0v7.35a1.89,1.89,0,0,0-.23,0h-8.25a2.22,2.22,0,0,0,0,4.43h8.25a1.55,1.55,0,0,0,.23,0v7.37a1.89,1.89,0,0,0-.23-.05h-8.25a2.21,2.21,0,0,0,0,4.42h8.25a1.55,1.55,0,0,0,.23-.05v7.36c-.08,0-.15,0-.23,0h-8.25a2.21,2.21,0,1,0,0,4.42h8.25a1.85,1.85,0,0,0,.23,0v7.31H146.9a2.22,2.22,0,1,0,0,4.43h17.87v7.27h-7.29a2.22,2.22,0,0,0,0,4.43h7.29v7.27h-7.29a2.21,2.21,0,1,0,0,4.42h7.29v5.14h0V253h-7.3a2.22,2.22,0,0,0-2.21,2.22c0,.05,0,.1,0,.15s0,.09,0,.15a2.22,2.22,0,0,0,2.22,2.21h7.29v3.7h0V265h-7.29a2.22,2.22,0,1,0,0,4.43Z"/><path class="cls-2" d="M371.86,336.11a2.5,2.5,0,0,0-.54-.81h0L194.68,160.94h0a1,1,0,0,0-.17-.11,2.13,2.13,0,0,0-1.41-.58c-.07,0-.12,0-.19,0h0a2.46,2.46,0,0,0-1,.2,2.42,2.42,0,0,0-.82.55h0c0,.05-.06.11-.1.16a2.53,2.53,0,0,0-.43.65,2.38,2.38,0,0,0-.15.74c0,.08,0,.14,0,.22V337.08a2.52,2.52,0,0,0,2.52,2.53H369.53a2.51,2.51,0,0,0,1-.2,2.72,2.72,0,0,0,.82-.54h0s0-.08.07-.11a2.44,2.44,0,0,0,.47-.71,2.79,2.79,0,0,0,.14-.71,2.21,2.21,0,0,0,.05-.25h0A2.46,2.46,0,0,0,371.86,336.11ZM310,326.22a2.52,2.52,0,0,0-2.52,2.52v5.82H294.35v-5.82a2.53,2.53,0,0,0-5.05,0v5.82H276.16v-5.82a2.53,2.53,0,0,0-5.05,0v5.82H258v-5.82a2.53,2.53,0,0,0-5,0v5.82H239.77v-5.82a2.53,2.53,0,0,0-5.05,0v5.82H221.57v-5.82a2.53,2.53,0,0,0-5,0v5.82h-21.1V315h5.82a2.52,2.52,0,1,0,0-5h-5.82V296.77h5.82a2.53,2.53,0,0,0,0-5h-5.82V278.57h5.82a2.53,2.53,0,1,0,0-5.05h-5.82V260.37h5.82a2.53,2.53,0,0,0,0-5.05h-5.82V242.19h5.82a2.53,2.53,0,0,0,0-5.05h-5.82V224h5.81a2.53,2.53,0,1,0,0-5.05h-5.81V168.76l168,165.8H312.55v-5.82A2.52,2.52,0,0,0,310,326.22Z"/><path class="cls-2" d="M297.93,304.09a1.85,1.85,0,0,0,.61-.4h0s0-.06.05-.08a2.26,2.26,0,0,0,.35-.52,1.91,1.91,0,0,0,.1-.53,1,1,0,0,0,0-.18h0a2,2,0,0,0-.15-.71,1.75,1.75,0,0,0-.4-.6h0l-72.85-71.9h0s-.08,0-.11-.08a1.73,1.73,0,0,0-.49-.32,2.07,2.07,0,0,0-.55-.11c-.05,0-.1,0-.16,0h0a1.91,1.91,0,0,0-.71.14,2,2,0,0,0-.61.41h0s-.05.08-.08.12a1.68,1.68,0,0,0-.32.48,2.07,2.07,0,0,0-.11.55c0,.05,0,.1,0,.16v71.91a1.87,1.87,0,0,0,1.86,1.87h72.86A1.75,1.75,0,0,0,297.93,304.09Zm-71.69-69.17,66.43,65.58H226.24Z"/></svg>