<svg id="Layer_1" data-name="Layer 1" xmlns="http://www.w3.org/2000/svg" viewBox="0 0 500 500">
  <defs>
    <style>
      .cls-1, .cls-2, .cls-3 {
        fill: #2d98d4;
      }

      .cls-1 {
        fill-rule: evenodd;
      }

      .cls-2 {
        opacity: 0.19;
      }
    </style>
  </defs>
  <title>RE-Item</title>
  <g>
    <path class="cls-1" d="M186.4,339.2a36.35,36.35,0,1,1,36.34-36.34A36.34,36.34,0,0,1,186.4,339.2Zm0-6.06a30.29,30.29,0,1,0-30.28-30.28A30.29,30.29,0,0,0,186.4,333.14Zm0-96.91a36.35,36.35,0,1,1,36.34-36.35A36.34,36.34,0,0,1,186.4,236.23Zm0-6.06a30.29,30.29,0,1,0-30.28-30.29A30.29,30.29,0,0,0,186.4,230.17Zm0,77-6.94,6.94a3,3,0,0,1-4.29-4.28l7-6.94-7-6.95c-2.85-2.85,1.43-7.14,4.29-4.28l6.94,6.94,6.94-6.94a3,3,0,1,1,4.29,4.28l-6.95,6.95,6.95,6.94c2.85,2.85-1.43,7.14-4.29,4.28Zm-10-109.4,6.94,6.95,13-13a3,3,0,1,1,4.29,4.28l-15.15,15.14a3,3,0,0,1-4.28,0L172.14,202a3,3,0,1,1,4.29-4.29Zm73.57-10a3,3,0,0,1,0-6.06h96.91a3,3,0,0,1,0,6.06Zm0,30.29a3,3,0,0,1,0-6.06h54.51a3,3,0,1,1,0,6.06Zm0,72.68a3,3,0,1,1,0-6.06h96.91a3,3,0,1,1,0,6.06ZM250,321a3,3,0,0,1,0-6.06h54.51a3,3,0,1,1,0,6.06Z"/>
    <circle class="cls-2" cx="250" cy="251.37" r="167.19"/>
    <path class="cls-3" d="M250,51.37c-110.47,0-200,89.54-200,200s89.54,200,200,200,200-89.53,200-200S360.47,51.37,250,51.37Zm0,385.49c-102.45,0-185.49-83.05-185.49-185.49A185.48,185.48,0,0,1,250,65.88c102.44,0,185.49,83,185.49,185.49S352.44,436.86,250,436.86Z"/>
  </g>
</svg>
