<svg id="Layer_1" data-name="Layer 1" xmlns="http://www.w3.org/2000/svg" viewBox="0 0 500 500"><defs><style>.cls-1,.cls-2{fill:#2d98d4;}.cls-1{opacity:0.19;}</style></defs><title>re-itemcategory</title><circle class="cls-1" cx="249.58" cy="250.04" r="167.19"/><path class="cls-2" d="M249.59,50c-110.47,0-200,89.55-200,200s89.54,200,200,200,200-89.53,200-200S360.05,50,249.59,50Zm0,385.5c-102.45,0-185.49-83.05-185.49-185.5A185.48,185.48,0,0,1,249.58,64.55c102.44,0,185.49,83,185.49,185.49S352,435.54,249.58,435.54Z"/><path class="cls-2" d="M230.65,241.59H160.19a11,11,0,0,1-10.94-10.94V164.24a11,11,0,0,1,10.94-10.94h70.46a11,11,0,0,1,10.94,10.94v66.41A11,11,0,0,1,230.65,241.59Zm-70.46-82a4.7,4.7,0,0,0-4.69,4.69v66.41a4.7,4.7,0,0,0,4.69,4.69h70.46a4.7,4.7,0,0,0,4.69-4.69V164.24a4.7,4.7,0,0,0-4.69-4.69Z"/><path class="cls-2" d="M230.65,346.79H160.19a11,11,0,0,1-10.94-10.94V269.44a11,11,0,0,1,10.94-10.94h70.46a11,11,0,0,1,10.94,10.94v66.41A11,11,0,0,1,230.65,346.79Zm-70.46-82a4.7,4.7,0,0,0-4.69,4.69v66.41a4.7,4.7,0,0,0,4.69,4.69h70.46a4.7,4.7,0,0,0,4.69-4.69V269.44a4.7,4.7,0,0,0-4.69-4.69Z"/><path class="cls-2" d="M339,241.59H268.51a11,11,0,0,1-10.94-10.94V164.24a11,11,0,0,1,10.94-10.94H339a11,11,0,0,1,10.94,10.94v66.41A11,11,0,0,1,339,241.59Zm-70.46-82a4.7,4.7,0,0,0-4.69,4.69v66.41a4.7,4.7,0,0,0,4.69,4.69H339a4.7,4.7,0,0,0,4.69-4.69V164.24a4.7,4.7,0,0,0-4.69-4.69Z"/><path class="cls-2" d="M339,346.79H268.51a11,11,0,0,1-10.94-10.94V269.44a11,11,0,0,1,10.94-10.94H339a11,11,0,0,1,10.94,10.94v66.41A11,11,0,0,1,339,346.79Zm-70.46-82a4.7,4.7,0,0,0-4.69,4.69v66.41a4.7,4.7,0,0,0,4.69,4.69H339a4.7,4.7,0,0,0,4.69-4.69V269.44a4.7,4.7,0,0,0-4.69-4.69Z"/></svg>