<svg id="Layer_1" data-name="Layer 1" xmlns="http://www.w3.org/2000/svg" viewBox="0 0 500 500">
  <defs>
    <style>
      .cls-1, .cls-2 {
        fill: #2d98d4;
      }

      .cls-1 {
        opacity: 0.19;
      }
    </style>
  </defs>
  <title>re-stock</title>
  <g>
    <circle class="cls-1" cx="249.73" cy="251.27" r="167.19"/>
    <path class="cls-2" d="M249.74,51.27c-110.47,0-200,89.54-200,200s89.54,200,200,200,200-89.53,200-200S360.2,51.27,249.74,51.27Zm0,385.49A185.49,185.49,0,1,1,435.22,251.27,185.48,185.48,0,0,1,249.73,436.76Z"/>
    <g>
      <path class="cls-2" d="M341.67,279.18h-4.61a1.28,1.28,0,0,0,0,2.55h4.61a1.28,1.28,0,0,0,0-2.55Z"/>
      <path class="cls-2" d="M341.67,269h-1.16v-1.27a1.15,1.15,0,1,0-2.29,0V269h-1.16a1.28,1.28,0,0,0,0,2.54h1.16v1.26a1.15,1.15,0,1,0,2.29,0v-1.26h1.16a1.28,1.28,0,0,0,0-2.54Z"/>
      <path class="cls-2" d="M341.67,254.51h-4.61a1.27,1.27,0,0,0,0,2.53h4.61a1.27,1.27,0,0,0,0-2.53Z"/>
      <path class="cls-2" d="M341.67,244.33h-1.16v-1.26a1.15,1.15,0,1,0-2.29,0v1.26h-1.16a1.28,1.28,0,0,0,0,2.55h1.16v1.27a1.15,1.15,0,1,0,2.29,0v-1.27h1.16a1.28,1.28,0,0,0,0-2.55Z"/>
      <path class="cls-2" d="M341.67,231.27h-4.61a1.28,1.28,0,0,0,0,2.55h4.61a1.28,1.28,0,0,0,0-2.55Z"/>
      <path class="cls-2" d="M341.67,221.11h-1.16v-1.28a1.15,1.15,0,1,0-2.29,0v1.28h-1.16a1.28,1.28,0,0,0,0,2.54h1.16v1.27a1.15,1.15,0,1,0,2.29,0v-1.27h1.16a1.28,1.28,0,0,0,0-2.54Z"/>
      <path class="cls-2" d="M352.59,277.91H348c-.51,0-.73.36-.47.81l2.31,3.95c.26.44.67.44.92,0l2.3-3.95C353.32,278.27,353.11,277.91,352.59,277.91Z"/>
      <path class="cls-2" d="M349.83,258c.26.44.67.44.92,0l2.3-4c.27-.44.06-.79-.46-.79H348c-.51,0-.73.35-.47.79Z"/>
      <path class="cls-2" d="M349.83,234.76c.26.44.67.44.92,0l2.3-4c.27-.44.06-.8-.46-.8H348c-.51,0-.73.36-.47.8Z"/>
      <path class="cls-2" d="M350.75,268.08c-.25-.44-.66-.44-.92,0L347.52,272c-.26.44,0,.79.47.79h4.6c.52,0,.73-.35.47-.79Z"/>
      <path class="cls-2" d="M350.75,243.39c-.25-.44-.66-.44-.92,0l-2.31,4c-.26.45,0,.8.47.8h4.6c.52,0,.73-.35.47-.8Z"/>
      <path class="cls-2" d="M350.75,220.17c-.25-.44-.66-.44-.92,0l-2.31,4c-.26.44,0,.8.47.8h4.6c.52,0,.73-.36.47-.8Z"/>
      <path class="cls-2" d="M330.17,272.78H280.71c-.63,0-1.15,1-1.15,2.14s.52,2.14,1.15,2.14h49.46c.63,0,1.14-1,1.14-2.14S330.8,272.78,330.17,272.78Z"/>
      <path class="cls-2" d="M330.17,226.18H280.71c-.63,0-1.15,1-1.15,2.16s.52,2.13,1.15,2.13h49.46c.63,0,1.14-.95,1.14-2.13S330.8,226.18,330.17,226.18Z"/>
      <path class="cls-2" d="M345.18,190.7H287.55a1.87,1.87,0,0,0-1.84,1.59.86.86,0,0,0,0,.28v1.08a1.86,1.86,0,0,0,1.87,1.86h57.63a1.86,1.86,0,0,0,1.87-1.86v-1.08A1.87,1.87,0,0,0,345.18,190.7Z"/>
      <path class="cls-2" d="M354,170.49H278.73a14.27,14.27,0,0,0-14.25,13.94h-131a2.42,2.42,0,0,0-2.31,2.54V329.51a2.44,2.44,0,0,0,2.31,2.55H305.18a2.44,2.44,0,0,0,2.31-2.55V303.85H354a14.25,14.25,0,0,0,14.25-14.24V184.73A14.25,14.25,0,0,0,354,170.49Zm-107.38,21.8h17.86v23.52H246.62Zm-47.44,0h40.25v42.07l-17.06-14.61a5.29,5.29,0,0,0-3.06-1.07,4.38,4.38,0,0,0-3.06,1.07l-17.07,14.61Zm-61.61,0h54.52v23.52H137.57ZM301.11,324.18H137.57V223h54.52v20.32a3.66,3.66,0,0,0,2.48,3.2,4.2,4.2,0,0,0,4.54-.71l20.24-18.54,20.23,18.54a4.22,4.22,0,0,0,4.55.71c1.65-.71,2.49-1.78,2.49-3.2V223h17.86v66.66a14.25,14.25,0,0,0,14.25,14.24h22.38ZM364,290.57a8.36,8.36,0,0,1-8.35,8.35H277.13a8.34,8.34,0,0,1-8.34-8.35V183.31a8.34,8.34,0,0,1,8.34-8.35H355.6a8.35,8.35,0,0,1,8.35,8.35Z"/>
      <path class="cls-2" d="M330.17,249.65H280.71c-.63,0-1.15.95-1.15,2.13s.52,2.14,1.15,2.14h49.46c.63,0,1.14-.95,1.14-2.14S330.8,249.65,330.17,249.65Z"/>
      <path class="cls-2" d="M301.11,203.83h36.95a1.86,1.86,0,0,0,1.87-1.85v-1.1a1.86,1.86,0,0,0-1.87-1.85H294.67a1.86,1.86,0,0,0-1.87,1.85V202a1.85,1.85,0,0,0,1.87,1.85Z"/>
    </g>
  </g>
</svg>
