<svg id="Layer_1" data-name="Layer 1" xmlns="http://www.w3.org/2000/svg" viewBox="0 0 500 500">
  <defs>
    <style>
      .cls-1, .cls-2 {
        fill: #a2b1ba;
      }

      .cls-1 {
        opacity: 0.19;
      }
    </style>
  </defs>
  <title>re-utilization-disabled</title>
  <g>
    <circle class="cls-1" cx="250.08" cy="250.43" r="167.19"/>
    <path class="cls-2" d="M250.09,50.43c-110.47,0-200,89.54-200,200s89.54,200,200,200,200-89.53,200-200S360.54,50.43,250.09,50.43Zm0,385.49a185.49,185.49,0,0,1,0-371c102.44,0,185.49,83,185.49,185.49S352.52,435.92,250.08,435.92Z"/>
    <path class="cls-2" d="M371.53,209.3l.11-.05-3.76-8.67-.07,0a140.6,140.6,0,0,0-20.9-32.14l.21-.08L340,160.92h0a141.39,141.39,0,0,0-35.49-26.16l.57-.26-12-5.09h0A140.7,140.7,0,0,0,239.63,119h-4.74v31.53h-.26A115.65,115.65,0,1,0,350.27,266.2v-.89h30.91v-4.75A140.13,140.13,0,0,0,371.53,209.3ZM244.38,128.6a131,131,0,0,1,35.67,6.22l-35.67,15Zm0,31.54,48.53-20.43a130.71,130.71,0,0,1,37.55,25.18l-86.08,36.23Zm0,51.29,93.2-39.24a132,132,0,0,1,21.44,32L244.39,252.42v-41Zm96.39,54.77A106.15,106.15,0,1,1,234.63,160.05h.26V265.31H340.77v.89Zm-80-10.39,102-42.93a131,131,0,0,1,8.83,42.93Z"/>
  </g>
</svg>
