<svg id="Layer_1" data-name="Layer 1" xmlns="http://www.w3.org/2000/svg" viewBox="0 0 500 500">
  <defs>
    <style>
      .cls-1, .cls-3 {
        fill: #29abe2;
      }

      .cls-1 {
        opacity: 0.19;
      }

      .cls-2 {
        fill: #2d98d4;
      }
    </style>
  </defs>
  <title>Assessment</title>
  <g>
    <circle class="cls-1" cx="250.63" cy="251.27" r="167.19"/>
    <path class="cls-2" d="M250.63,51.27c-110.46,0-200,89.55-200,200s89.54,200,200,200,200-89.53,200-200S361.09,51.27,250.63,51.27Zm0,385.5c-102.45,0-185.49-83-185.49-185.5A185.48,185.48,0,0,1,250.63,65.78c102.44,0,185.49,83,185.49,185.49S353.07,436.77,250.63,436.77Z"/>
    <g>
      <path class="cls-3" d="M331.78,131.79H169.48a6.59,6.59,0,0,0-6.59,6.59V364.16a6.59,6.59,0,0,0,6.59,6.6h162.3a6.59,6.59,0,0,0,6.58-6.6V138.38A6.59,6.59,0,0,0,331.78,131.79Zm-.44,224.91a7.21,7.21,0,0,1-7.21,7.21h-147a7.21,7.21,0,0,1-7.21-7.21V145.85a7.21,7.21,0,0,1,7.21-7.21h147a7.21,7.21,0,0,1,7.21,7.21Z"/>
      <path class="cls-3" d="M283.53,176.27h0c0,2.1-1.27,3.72-3.08,3.72H220.82c-1.81,0-3.09-1.68-3.09-3.78h0c0-2.1,1.28-3.81,3.09-3.81h59.63C282.26,172.4,283.53,174.17,283.53,176.27Z"/>
      <path class="cls-3" d="M309.61,163.23h0c0,2.09-2.26,3.72-5.52,3.72H197.19c-3.25,0-5.55-1.69-5.55-3.78h0c0-2.1,2.3-3.81,5.55-3.81h106.9C307.35,159.36,309.61,161.13,309.61,163.23Z"/>
      <g>
        <path class="cls-3" d="M313.9,212.79h0c0,2.4-1.27,4.34-2.84,4.34H223.28c-1.57,0-2.84-1.94-2.84-4.34h0c0-2.39,1.27-4.34,2.84-4.34h87.78C312.63,208.45,313.9,210.4,313.9,212.79Z"/>
        <path class="cls-3" d="M313.9,259.73h0c0,2.4-1.27,4.34-2.84,4.34H223.28c-1.57,0-2.84-1.94-2.84-4.34h0c0-2.39,1.27-4.33,2.84-4.33h87.78C312.63,255.4,313.9,257.34,313.9,259.73Z"/>
        <path class="cls-3" d="M313.9,284.58h0c0,2.4-1.27,4.34-2.84,4.34H223.28c-1.57,0-2.84-1.94-2.84-4.34h0c0-2.39,1.27-4.34,2.84-4.34h87.78C312.63,280.24,313.9,282.19,313.9,284.58Z"/>
        <path class="cls-3" d="M313.9,308.51h0c0,2.4-1.27,4.34-2.84,4.34H223.28c-1.57,0-2.84-1.94-2.84-4.34h0c0-2.39,1.27-4.33,2.84-4.33h87.78C312.63,304.18,313.9,306.12,313.9,308.51Z"/>
        <path class="cls-3" d="M200.23,299.63h-8a4.9,4.9,0,0,0-4.9,4.89v8a4.9,4.9,0,0,0,4.9,4.89h8a4.89,4.89,0,0,0,4.9-4.89v-8A4.89,4.89,0,0,0,200.23,299.63Zm2.42,11.59a3.7,3.7,0,0,1-3.7,3.7h-5.42a3.7,3.7,0,0,1-3.7-3.7V305.8a3.7,3.7,0,0,1,3.7-3.69H199a3.7,3.7,0,0,1,3.7,3.69Z"/>
        <path class="cls-3" d="M313.9,236.79h0c0,2.39-1.27,4.34-2.84,4.34H223.28c-1.57,0-2.84-1.95-2.84-4.34h0c0-2.4,1.27-4.34,2.84-4.34h87.78C312.63,232.45,313.9,234.39,313.9,236.79Z"/>
        <g>
          <path class="cls-3" d="M200.23,251.77h-8a4.9,4.9,0,0,0-4.9,4.89v8a4.9,4.9,0,0,0,4.9,4.9h8a4.9,4.9,0,0,0,4.9-4.9v-8A4.9,4.9,0,0,0,200.23,251.77Zm2.42,11.59a3.7,3.7,0,0,1-3.7,3.7h-5.42a3.7,3.7,0,0,1-3.7-3.7v-5.42a3.7,3.7,0,0,1,3.7-3.7H199a3.7,3.7,0,0,1,3.7,3.7Z"/>
          <path class="cls-3" d="M197.62,260.52l3.26-4.56h-2.75l-1.86,2.63L194.42,256h-2.87l1.6,2.27,1.68,2.39c-.33.36-.66.74-1,1.15s-.66.83-1,1.26-.56.85-.81,1.26-.44.76-.59,1h2.7c.13-.23.27-.49.43-.76l.49-.83a4.12,4.12,0,0,1,.53-.7c.19-.18.37-.36.55-.51.19.17.38.35.57.55a4.47,4.47,0,0,1,.56.74c.18.3.34.57.48.84l.36.67H201a23,23,0,0,0-1.39-2.26A27.37,27.37,0,0,0,197.62,260.52Z"/>
        </g>
        <path class="cls-3" d="M200.23,203.91h-8a4.9,4.9,0,0,0-4.9,4.89v8a4.9,4.9,0,0,0,4.9,4.9h8a4.9,4.9,0,0,0,4.9-4.9v-8A4.9,4.9,0,0,0,200.23,203.91Zm2.42,11.59a3.7,3.7,0,0,1-3.7,3.7h-5.42a3.7,3.7,0,0,1-3.7-3.7v-5.42a3.7,3.7,0,0,1,3.7-3.7H199a3.69,3.69,0,0,1,2.62,1.09,32.44,32.44,0,0,0-6.2,7.43l-2-3.34c-.51-.83-1.76.5-1.4,1.08l2.58,4.63c.39.46,1.22.21,1.94-.29a29.45,29.45,0,0,1,5.52-8.93,3.7,3.7,0,0,1,.61,2Z"/>
        <path class="cls-3" d="M200.23,227.84h-8a4.9,4.9,0,0,0-4.9,4.89v8a4.9,4.9,0,0,0,4.9,4.9h8a4.9,4.9,0,0,0,4.9-4.9v-8A4.9,4.9,0,0,0,200.23,227.84Zm2.42,11.59a3.7,3.7,0,0,1-3.7,3.7h-5.42a3.7,3.7,0,0,1-3.7-3.7V234a3.7,3.7,0,0,1,3.7-3.7H199a3.65,3.65,0,0,1,2.62,1.1,32.15,32.15,0,0,0-6.2,7.42l-2-3.34c-.51-.82-1.76.5-1.4,1.08l2.58,4.63c.39.46,1.22.21,1.94-.29A29.7,29.7,0,0,1,202,232a3.7,3.7,0,0,1,.61,2Z"/>
        <path class="cls-3" d="M200.23,275.7h-8a4.9,4.9,0,0,0-4.9,4.89v8a4.9,4.9,0,0,0,4.9,4.9h8a4.9,4.9,0,0,0,4.9-4.9v-8A4.9,4.9,0,0,0,200.23,275.7Zm2.42,11.59A3.7,3.7,0,0,1,199,291h-5.42a3.7,3.7,0,0,1-3.7-3.7v-5.42a3.7,3.7,0,0,1,3.7-3.69H199a3.65,3.65,0,0,1,2.62,1.09,32.15,32.15,0,0,0-6.2,7.42l-2-3.34c-.51-.82-1.76.5-1.4,1.08l2.58,4.63c.39.47,1.22.21,1.94-.29a29.7,29.7,0,0,1,5.52-8.93,3.73,3.73,0,0,1,.61,2Z"/>
      </g>
    </g>
  </g>
</svg>
