<svg id="Layer_1" data-name="Layer 1" xmlns="http://www.w3.org/2000/svg" viewBox="0 0 500 500"><defs><style>.cls-1,.cls-2{fill:#a2b1ba;}.cls-1{opacity:0.19;}</style></defs><title>assessments-disabled</title><circle class="cls-1" cx="250.72" cy="251.41" r="167.19"/><path class="cls-2" d="M250.73,51.41c-110.46,0-200,89.54-200,200s89.55,200,200,200,200-89.53,200-200S361.19,51.41,250.73,51.41Zm0,385.49a185.49,185.49,0,0,1,0-371c102.45,0,185.5,83,185.5,185.49S353.17,436.9,250.72,436.9Z"/><path class="cls-2" d="M331.87,131.93H169.57a6.59,6.59,0,0,0-6.59,6.59V364.3a6.6,6.6,0,0,0,6.59,6.6h162.3a6.6,6.6,0,0,0,6.59-6.6V138.52A6.59,6.59,0,0,0,331.87,131.93ZM332,357.61a7.27,7.27,0,0,1-7.27,7.26H176.68a7.27,7.27,0,0,1-7.26-7.26V145.22a7.26,7.26,0,0,1,7.26-7.26H324.76a7.27,7.27,0,0,1,7.27,7.26Z"/><path class="cls-2" d="M283.63,184h0a3.09,3.09,0,0,1-3.08,3.27H220.93a3.15,3.15,0,0,1-3.1-3.33h0a3.16,3.16,0,0,1,3.1-3.34h59.62A3.2,3.2,0,0,1,283.63,184Z"/><path class="cls-2" d="M309.72,171.13h0c0,2-2.27,3.46-5.52,3.46H197.29c-3.25,0-5.55-1.57-5.55-3.52h0c0-1.95,2.3-3.54,5.55-3.54H304.2C307.45,167.53,309.72,169.18,309.72,171.13Z"/><path class="cls-2" d="M314,220.58h0c0,1.93-1.27,3.49-2.84,3.49H223.38c-1.57,0-2.84-1.56-2.84-3.49h0c0-1.93,1.27-3.5,2.84-3.5h87.78C312.73,217.08,314,218.65,314,220.58Z"/><path class="cls-2" d="M314,268.83h0c0,1.93-1.27,3.49-2.84,3.49H223.38c-1.57,0-2.84-1.56-2.84-3.49h0c0-1.93,1.27-3.5,2.84-3.5h87.78C312.73,265.33,314,266.9,314,268.83Z"/><path class="cls-2" d="M314,292.76h0c0,1.93-1.27,3.49-2.84,3.49H223.38c-1.57,0-2.84-1.56-2.84-3.49h0c0-1.93,1.27-3.5,2.84-3.5h87.78C312.73,289.26,314,290.83,314,292.76Z"/><path class="cls-2" d="M314,317.53h0c0,1.93-1.27,3.49-2.84,3.49H223.38c-1.57,0-2.84-1.56-2.84-3.49h0c0-1.93,1.27-3.5,2.84-3.5h87.78C312.73,314,314,315.6,314,317.53Z"/><path class="cls-2" d="M200.33,307.8h-8a4.89,4.89,0,0,0-4.89,4.9v8a4.89,4.89,0,0,0,4.89,4.89h8a4.89,4.89,0,0,0,4.9-4.89v-8A4.9,4.9,0,0,0,200.33,307.8Zm2.42,11.6a3.69,3.69,0,0,1-3.7,3.69h-5.42a3.69,3.69,0,0,1-3.69-3.69V314a3.69,3.69,0,0,1,3.69-3.7h5.42a3.69,3.69,0,0,1,3.7,3.7Z"/><path class="cls-2" d="M314,244.9h0c0,1.93-1.27,3.49-2.84,3.49H223.38c-1.57,0-2.84-1.56-2.84-3.49h0c0-1.93,1.27-3.5,2.84-3.5h87.78C312.73,241.4,314,243,314,244.9Z"/><path class="cls-2" d="M200.33,259.94h-8a4.89,4.89,0,0,0-4.89,4.89v8a4.89,4.89,0,0,0,4.89,4.89h8a4.89,4.89,0,0,0,4.9-4.89v-8A4.89,4.89,0,0,0,200.33,259.94Zm2.42,11.6a3.69,3.69,0,0,1-3.7,3.69h-5.42a3.69,3.69,0,0,1-3.69-3.69v-5.42a3.69,3.69,0,0,1,3.69-3.7h5.42a3.69,3.69,0,0,1,3.7,3.7Z"/><path class="cls-2" d="M197.72,268.7l3.26-4.56h-2.75l-1.86,2.62-1.85-2.62h-2.87l1.6,2.26,1.68,2.39c-.33.36-.66.74-1,1.15a14.47,14.47,0,0,0-1,1.27q-.43.65-.81,1.26c-.24.4-.44.75-.59,1h2.7c.13-.24.27-.5.43-.77l.5-.83a3,3,0,0,1,.53-.69c.18-.19.36-.36.54-.52.19.17.38.35.58.56a4.07,4.07,0,0,1,.55.74c.18.29.34.57.49.84l.35.67h2.85a23,23,0,0,0-1.39-2.27A27.28,27.28,0,0,0,197.72,268.7Z"/><path class="cls-2" d="M200.33,212.08h-8a4.89,4.89,0,0,0-4.89,4.89v8a4.89,4.89,0,0,0,4.89,4.89h8a4.89,4.89,0,0,0,4.9-4.89v-8A4.89,4.89,0,0,0,200.33,212.08Zm2.42,11.6a3.69,3.69,0,0,1-3.7,3.69h-5.42a3.69,3.69,0,0,1-3.69-3.69v-5.43a3.69,3.69,0,0,1,3.69-3.69h5.42a3.63,3.63,0,0,1,2.62,1.09,32.62,32.62,0,0,0-6.2,7.42l-2-3.34c-.5-.82-1.76.51-1.4,1.08l2.58,4.63c.4.47,1.22.22,1.94-.29a29.7,29.7,0,0,1,5.52-8.93,3.73,3.73,0,0,1,.61,2Z"/><path class="cls-2" d="M200.33,236h-8a4.89,4.89,0,0,0-4.89,4.89v8a4.89,4.89,0,0,0,4.89,4.89h8a4.89,4.89,0,0,0,4.9-4.89v-8A4.89,4.89,0,0,0,200.33,236Zm2.42,11.6a3.69,3.69,0,0,1-3.7,3.69h-5.42a3.69,3.69,0,0,1-3.69-3.69v-5.43a3.69,3.69,0,0,1,3.69-3.69h5.42a3.67,3.67,0,0,1,2.62,1.09,32.62,32.62,0,0,0-6.2,7.42l-2-3.34c-.5-.82-1.76.51-1.4,1.08l2.58,4.63c.4.47,1.22.22,1.94-.29a29.51,29.51,0,0,1,5.52-8.92,3.67,3.67,0,0,1,.61,2Z"/><path class="cls-2" d="M200.33,283.87h-8a4.89,4.89,0,0,0-4.89,4.89v8a4.89,4.89,0,0,0,4.89,4.89h8a4.89,4.89,0,0,0,4.9-4.89v-8A4.89,4.89,0,0,0,200.33,283.87Zm2.42,11.6a3.69,3.69,0,0,1-3.7,3.69h-5.42a3.69,3.69,0,0,1-3.69-3.69v-5.42a3.69,3.69,0,0,1,3.69-3.7h5.42a3.67,3.67,0,0,1,2.62,1.09,32.62,32.62,0,0,0-6.2,7.42l-2-3.33c-.5-.83-1.76.5-1.4,1.07l2.58,4.63c.4.47,1.22.22,1.94-.28a29.45,29.45,0,0,1,5.52-8.93,3.7,3.7,0,0,1,.61,2Z"/></svg>