<svg id="Layer_1" data-name="Layer 1" xmlns="http://www.w3.org/2000/svg" viewBox="0 0 500 500">
  <defs>
    <style>
      .cls-1 {
        fill: #29abe2;
        opacity: 0.19;
      }

      .cls-2, .cls-3 {
        fill: #2d98d4;
      }

      .cls-3 {
        opacity: 0.14;
      }
    </style>
  </defs>
  <title>District</title>
  <g>
    <circle class="cls-1" cx="250" cy="244.96" r="167.19"/>
    <path class="cls-2" d="M250,45C139.54,45,50,134.5,50,245s89.54,200,200,200,200-89.53,200-200S360.47,45,250,45Zm0,385.49C147.55,430.45,64.51,347.4,64.51,245A185.48,185.48,0,0,1,250,59.47c102.44,0,185.49,83,185.49,185.49S352.44,430.45,250,430.45Z"/>
    <g>
      <path class="cls-2" d="M183.23,266.44c-4.31,0-7.33,3.56-7.33,8.67V296c0,5.1,3,8.68,7.33,8.68s7.31-3.58,7.31-8.68V275.11C190.54,270.65,187,266.44,183.23,266.44Zm4,29.51c0,2.95-1.53,4.79-4,4.79s-4-1.84-4-4.79V275.11c0-2.95,1.55-4.79,4-4.79,1.92,0,4,2.51,4,4.79Zm-4-29.51c-4.31,0-7.33,3.56-7.33,8.67V296c0,5.1,3,8.68,7.33,8.68s7.31-3.58,7.31-8.68V275.11C190.54,270.65,187,266.44,183.23,266.44Zm4,29.51c0,2.95-1.53,4.79-4,4.79s-4-1.84-4-4.79V275.11c0-2.95,1.55-4.79,4-4.79,1.92,0,4,2.51,4,4.79Zm18-56.72L155.2,251v98.52h52.74l.6-111.07Zm-.54,104.09H160.29v-86l44.94-10.22Zm-21.47-38.69c4.3,0,7.31-3.58,7.31-8.68V275.11c0-4.46-3.55-8.67-7.31-8.67-4.31,0-7.33,3.56-7.33,8.67V296C175.9,301.05,178.92,304.63,183.23,304.63Zm-4-29.52c0-2.95,1.55-4.79,4-4.79,1.92,0,4,2.51,4,4.79V296c0,2.95-1.53,4.79-4,4.79s-4-1.84-4-4.79Zm4-8.67c-4.31,0-7.33,3.56-7.33,8.67V296c0,5.1,3,8.68,7.33,8.68s7.31-3.58,7.31-8.68V275.11C190.54,270.65,187,266.44,183.23,266.44Zm4,29.51c0,2.95-1.53,4.79-4,4.79s-4-1.84-4-4.79V275.11c0-2.95,1.55-4.79,4-4.79,1.92,0,4,2.51,4,4.79Zm-4-29.51c-4.31,0-7.33,3.56-7.33,8.67V296c0,5.1,3,8.68,7.33,8.68s7.31-3.58,7.31-8.68V275.11C190.54,270.65,187,266.44,183.23,266.44Zm4,29.51c0,2.95-1.53,4.79-4,4.79s-4-1.84-4-4.79V275.11c0-2.95,1.55-4.79,4-4.79,1.92,0,4,2.51,4,4.79Z"/>
      <path class="cls-2" d="M251.64,185.34l-.73-.55-2.23,1.67-43.44,32.41V349.53H296.6V218.87Zm40.47,158.21h-82V222.15l41-30.57,41,30.57Z"/>
      <path class="cls-2" d="M296.6,239.1l-2.66-.66V349.53H344.8V251Zm43.55,104.45H297.22V245.92l42.93,10.34Zm-20.31-38.92c4.32,0,7.32-3.58,7.32-8.68V275.11c0-4.46-3.56-8.67-7.32-8.67-4.31,0-7.31,3.56-7.31,8.67V296C312.53,301.05,315.53,304.63,319.84,304.63Zm-4-29.52c0-2.95,1.54-4.79,4-4.79,1.92,0,4,2.51,4,4.79V296c0,2.95-1.54,4.79-4,4.79s-4-1.84-4-4.79Z"/>
      <g>
        <path class="cls-2" d="M250.18,140.39h-.05a1.61,1.61,0,0,0-1.45,1.73v.39c-12.5,3.61-25,7.21-37.44,10.94a3.35,3.35,0,0,0-1.84,2.41c-.13,7.84-.09,15.69-.09,24a1.42,1.42,0,0,0,1.67,1.53c13-3.89,25.38-7.62,37.7-11.31v20h3V142.12A1.61,1.61,0,0,0,250.18,140.39Zm-36.81,37.17a1.14,1.14,0,0,1-1.32-.64,1.33,1.33,0,0,1-.13-.57c0-6.57,0-12.8.07-19a2.71,2.71,0,0,1,1.61-1.91c10.73-2.92,32.05-9,35-9.53l.12,0v21.2C237.12,170.22,225.57,174.24,213.37,177.56Z"/>
        <path class="cls-3" d="M248.67,145.86l-35.22,9.72a1.87,1.87,0,0,0-1.25,1.74l-.15,19.59Z"/>
      </g>
      <g>
        <path class="cls-2" d="M225.94,227c-4.3,0-7.31,3.39-7.31,8.24V255c0,4.85,3,8.24,7.31,8.24s7.32-3.39,7.32-8.24v-19.8C233.26,231,229.71,227,225.94,227Zm4,28c0,2.81-1.55,4.55-4,4.55s-4-1.74-4-4.55v-19.8c0-2.8,1.54-4.54,4-4.54,1.93,0,4,2.38,4,4.54Z"/>
        <path class="cls-2" d="M250.92,227c-4.31,0-7.31,3.39-7.31,8.24V255c0,4.85,3,8.24,7.31,8.24s7.32-3.39,7.32-8.24v-19.8C258.24,231,254.68,227,250.92,227Zm4,28c0,2.81-1.55,4.55-4,4.55s-4-1.74-4-4.55v-19.8c0-2.8,1.54-4.54,4-4.54,1.92,0,4,2.38,4,4.54Z"/>
        <path class="cls-2" d="M275.89,227c-4.3,0-7.31,3.39-7.31,8.24V255c0,4.85,3,8.24,7.31,8.24s7.33-3.39,7.33-8.24v-19.8C283.22,231,279.66,227,275.89,227Zm4,28c0,2.81-1.55,4.55-4,4.55s-4-1.74-4-4.55v-19.8c0-2.8,1.54-4.54,4-4.54,1.93,0,4,2.38,4,4.54Z"/>
      </g>
      <g>
        <path class="cls-2" d="M225.94,270.32c-4.3,0-7.31,3.39-7.31,8.25v19.8c0,4.85,3,8.24,7.31,8.24s7.32-3.39,7.32-8.24v-19.8C233.26,274.33,229.71,270.32,225.94,270.32Zm4,28.05c0,2.81-1.55,4.55-4,4.55s-4-1.74-4-4.55v-19.8c0-2.8,1.54-4.54,4-4.54,1.93,0,4,2.38,4,4.54Z"/>
        <path class="cls-2" d="M250.92,270.32c-4.31,0-7.31,3.39-7.31,8.25v19.8c0,4.85,3,8.24,7.31,8.24s7.32-3.39,7.32-8.24v-19.8C258.24,274.33,254.68,270.32,250.92,270.32Zm4,28.05c0,2.81-1.55,4.55-4,4.55s-4-1.74-4-4.55v-19.8c0-2.8,1.54-4.54,4-4.54,1.92,0,4,2.38,4,4.54Z"/>
        <path class="cls-2" d="M275.89,270.32c-4.3,0-7.31,3.39-7.31,8.25v19.8c0,4.85,3,8.24,7.31,8.24s7.33-3.39,7.33-8.24v-19.8C283.22,274.33,279.66,270.32,275.89,270.32Zm4,28.05c0,2.81-1.55,4.55-4,4.55s-4-1.74-4-4.55v-19.8c0-2.8,1.54-4.54,4-4.54,1.93,0,4,2.38,4,4.54Z"/>
      </g>
    </g>
  </g>
</svg>
