<svg id="Layer_1" data-name="Layer 1" xmlns="http://www.w3.org/2000/svg" viewBox="0 0 500 500">
  <defs>
    <style>
      .cls-1 {
        fill: #29abe2;
        opacity: 0.19;
      }

      .cls-2 {
        fill: #2d98d4;
      }
    </style>
  </defs>
  <title>Alerts</title>
  <g>
    <circle class="cls-1" cx="250.4" cy="253.96" r="167.19"/>
    <g>
      <g>
        <path class="cls-2" d="M318.18,174.42v2.44a32.6,32.6,0,0,1-.14,3.67.63.63,0,0,0,.44.69l27.34,8.54a.66.66,0,0,1,.46.62V207.8a.67.67,0,0,1-.16.43l-41,47.37a4,4,0,0,0-.88,2v50.12a.65.65,0,0,1-.75.64,162,162,0,0,0-19.2-1.85.65.65,0,0,1-.62-.65V249.68a.67.67,0,0,0-.83-.65,8.6,8.6,0,0,1-2.49.38h0a6.88,6.88,0,0,1-2.27-.37.65.65,0,0,0-.83.63v55.89a.66.66,0,0,1-.7.65c-8.06-.54-14.23-3-18.32-7.48a19.63,19.63,0,0,1-1.77-2.21l-.22-.22a25.53,25.53,0,0,1-3.76-13.93V234.28a3.74,3.74,0,0,0-1.78-3.31,2.6,2.6,0,0,0-2.42-.14l-33,9.28a.65.65,0,0,1-.82-.63V189.94a.65.65,0,0,1,.45-.62L242,180.77a.64.64,0,0,0,.45-.67c-.15-1.74-.17-3.49-.17-5.24a.66.66,0,0,0-.85-.62l-30.15,9.41a.65.65,0,0,1-.39,0l-71.07-22a.65.65,0,0,0-.84.63V338.07a.63.63,0,0,0,.46.62l71.45,22.14a.65.65,0,0,0,.39,0l68.41-21.34a.62.62,0,0,1,.38,0l71.08,22a.65.65,0,0,0,.84-.62V185.08a.65.65,0,0,0-.47-.62Zm-171-3.71,16.17,5.12a.64.64,0,0,1,.45.63l-1.07,49.08a.66.66,0,0,1-.85.61l-15.09-4.69a.65.65,0,0,1-.45-.62V171.33A.65.65,0,0,1,147.16,170.71Zm0,57.5,31.41,9.7a.65.65,0,0,1,.4.89l-14.24,31.45a.65.65,0,0,1-.88.32l-17.17-8.38a.63.63,0,0,1-.36-.58V228.83A.65.65,0,0,1,147.16,228.21Zm-.84,105.66V270.36a.65.65,0,0,1,.93-.59L181,286.31a.65.65,0,0,1,.32.81L161.8,338.64a.66.66,0,0,1-.81.39l-14.22-4.54A.65.65,0,0,1,146.32,333.87Zm62.37,19.94-40.25-12.4a.65.65,0,0,1-.42-.85l20.55-54.21a3,3,0,0,0-1.55-4l-16.24-7.91a.64.64,0,0,1-.31-.85l14.76-32.53a.65.65,0,0,1,.79-.35l22.44,7a.65.65,0,0,1,.46.62V353.81Zm0-114.13a.65.65,0,0,1-.84.62L184.58,233h-.22l-14.8-4.72a.66.66,0,0,1-.45-.63l1.08-49.09a.65.65,0,0,1,.84-.6l37.21,11.54a.65.65,0,0,1,.45.62Zm6.42,113.25v-105a.65.65,0,0,1,.47-.63l30.11-8.48a.66.66,0,0,1,.83.63v42.94A31.5,31.5,0,0,0,248.91,296a.63.63,0,0,1-.3.83,16.5,16.5,0,0,0-4.52,3.28c-7.69,7.69-10.8,23.66-9.33,47.05a.65.65,0,0,1-.45.66L216,353.55A.65.65,0,0,1,215.11,352.93ZM277,334.49l-35.24,10.89a.66.66,0,0,1-.84-.61c-1.18-26.12,3.84-36.12,7.34-40.06a7.63,7.63,0,0,1,4.2-2.66c.44.44.66.89,1.11,1.33,5.42,5.85,13.17,9.16,23.27,9.7a.65.65,0,0,1,.62.64v20.15A.66.66,0,0,1,277,334.49Zm69.25,19.32-61.92-19.32a.65.65,0,0,1-.46-.62V314a.66.66,0,0,1,.67-.66,171.3,171.3,0,0,1,22.56,2.42,311.83,311.83,0,0,1,38.92,9.37.64.64,0,0,1,.45.62v28.05Zm-.81-35.62a314,314,0,0,0-34.05-8.3.64.64,0,0,1-.53-.64V259.38A.66.66,0,0,1,311,259l34.09-39.63a.65.65,0,0,1,1.15.42v97.82A.64.64,0,0,1,345.47,318.19Z"/>
        <path class="cls-2" d="M278.81,242.11a2,2,0,0,0,1.77,1.1,1.45,1.45,0,0,0,1.55-1.1c.22-.44,21.46-41.81,26.32-51.32a31.11,31.11,0,1,0-55.74-.22Zm1.77-83.17c14.16,0,24.28,16.1,13.22,31.13-15,11.07-31.13.94-31.13-13.21A18,18,0,0,1,280.58,158.94Z"/>
      </g>
      <path class="cls-2" d="M279.51,344.67l24.35,7.92a2.74,2.74,0,0,1,1.57,3.26h0a2.24,2.24,0,0,1-2.77,1.85l-22.55-7.34a2,2,0,0,0-1.2,0l-37,12a2.23,2.23,0,0,1-2.77-1.85h0a2.72,2.72,0,0,1,1.57-3.25l38.75-12.61Z"/>
      <path class="cls-2" d="M211.25,178.55l24.35-7.92a2.74,2.74,0,0,0,1.56-3.26h0a2.23,2.23,0,0,0-2.76-1.85l-22.55,7.34a1.89,1.89,0,0,1-1.2,0l-37-12a2.23,2.23,0,0,0-2.76,1.85h0A2.73,2.73,0,0,0,172.5,166l38.75,12.6Z"/>
      <rect class="cls-2" x="356.63" y="211.74" width="5.15" height="95.49" rx="0.87"/>
      <rect class="cls-2" x="356.63" y="312.39" width="5.15" height="21.19" rx="0.87"/>
      <rect class="cls-2" x="356.63" y="338.19" width="5.15" height="10.63" rx="0.87"/>
    </g>
    <path class="cls-2" d="M250.41,54c-110.47,0-200,89.54-200,200s89.54,200,200,200,200-89.53,200-200S360.87,54,250.41,54Zm0,385.49a185.49,185.49,0,0,1,0-371c102.44,0,185.49,83,185.49,185.49S352.84,439.45,250.4,439.45Z"/>
  </g>
</svg>
