<svg id="Layer_1" data-name="Layer 1" xmlns="http://www.w3.org/2000/svg" viewBox="0 0 500 500"><defs><style>.cls-1,.cls-2{fill:#2d98d4;}.cls-1{opacity:0.19;}</style></defs><title>incidents</title><circle class="cls-1" cx="253.04" cy="253.79" r="167.19"/><path class="cls-2" d="M253.05,53.79c-110.47,0-200,89.54-200,200s89.54,200,200,200,200-89.54,200-200S363.51,53.79,253.05,53.79Zm0,385.49c-102.45,0-185.49-83-185.49-185.49a185.49,185.49,0,1,1,371,0C438.53,356.23,355.49,439.28,253,439.28Z"/><path class="cls-2" d="M228.47,258.54c-.28.34-.56.68-.85,1a33.65,33.65,0,0,0-6,12.77,2.41,2.41,0,0,1-1.53,1.72,2.29,2.29,0,0,1-2.19-.34,2.4,2.4,0,0,1-.88-2.32,34.81,34.81,0,0,1,6.52-15c.31-.4.63-.79.94-1.17l.09-.11a2.35,2.35,0,0,1,3.21-.34l.36.28a2.31,2.31,0,0,1,.9,1.59A2.45,2.45,0,0,1,228.47,258.54Z"/><path class="cls-2" d="M335.4,346.83H317.28V277.19a60.83,60.83,0,1,0-121.66,0v69.64h-20a4.81,4.81,0,0,0-4.8,4.81,4.81,4.81,0,0,0,4.8,4.81H335.4a4.83,4.83,0,0,0,4.81-4.81A4.82,4.82,0,0,0,335.4,346.83Zm-131.49,0-.11-68.15a52.64,52.64,0,0,1,105.28,0l.14,68.15Z"/><path class="cls-2" d="M186.3,199.65l-24.74-14.29a2,2,0,0,0-2.75.74l-1.29,2.22a2,2,0,0,0-.19,1.53,2,2,0,0,0,.93,1.22L183,205.35a2,2,0,0,0,1.53.2,2,2,0,0,0,1.22-.93l1.28-2.23a2,2,0,0,0-.73-2.74Z"/><path class="cls-2" d="M166.55,254.05H138a2,2,0,0,0-2,2v2.56a2,2,0,0,0,2,2h28.56a2,2,0,0,0,2-2v-2.56A2,2,0,0,0,166.55,254.05Z"/><path class="cls-2" d="M368.1,254.05H339.53a2,2,0,0,0-2,2v2.57a2,2,0,0,0,2,2H368.1a2,2,0,0,0,2-2v-2.57A2,2,0,0,0,368.1,254.05Z"/><path class="cls-2" d="M350.58,188.32l-1.27-2.22a2,2,0,0,0-1.23-.93,1.88,1.88,0,0,0-.53-.07,2.07,2.07,0,0,0-1,.26l-24.73,14.28a2,2,0,0,0-.74,2.76l1.28,2.21a2,2,0,0,0,2.75.74l24.74-14.28A2,2,0,0,0,350.58,188.32Z"/><path class="cls-2" d="M254.83,151.12h-2.57a2,2,0,0,0-2,2V181.7a2,2,0,0,0,2,2h2.57a2,2,0,0,0,2-2V153.13A2,2,0,0,0,254.83,151.12Z"/></svg>