<svg id="Layer_1" data-name="Layer 1" xmlns="http://www.w3.org/2000/svg" viewBox="0 0 500 500">
  <defs>
    <style>
      .cls-1, .cls-2 {
        fill: #2d98d4;
      }

      .cls-1 {
        opacity: 0.19;
      }
    </style>
  </defs>
  <title>Incidents</title>
  <g>
    <circle class="cls-1" cx="253.04" cy="253.79" r="167.19"/>
    <path class="cls-2" d="M253.05,53.79c-110.47,0-200,89.54-200,200s89.54,200,200,200,200-89.54,200-200S363.51,53.79,253.05,53.79Zm0,385.49c-102.45,0-185.49-83-185.49-185.49a185.49,185.49,0,1,1,371,0C438.53,356.23,355.49,439.28,253,439.28Z"/>
    <g>
      <g>
        <path class="cls-2" d="M229.24,259.18c-.28.33-.55.66-.83,1a32.65,32.65,0,0,0-5.82,12.41,3.35,3.35,0,0,1-6.56-1.36,35.76,35.76,0,0,1,6.7-15.38c.35-.46.72-.9,1.07-1.33a3.34,3.34,0,0,1,4.59-.47l.35.27A3.37,3.37,0,0,1,229.24,259.18Z"/>
        <g>
          <path class="cls-2" d="M300.12,233.52a61.76,61.76,0,0,0-105.5,43.67v79.9H318.28v-79.9A61.62,61.62,0,0,0,300.12,233.52ZM204.8,278.68a51.64,51.64,0,0,1,103.28,0v66.73H204.8Z"/>
          <path class="cls-2" d="M341.21,351.64a5.82,5.82,0,0,1-5.81,5.81H175.64a5.81,5.81,0,0,1,0-11.62H335.4A5.83,5.83,0,0,1,341.21,351.64Z"/>
        </g>
      </g>
      <g>
        <g>
          <rect class="cls-2" x="154.98" y="191.06" width="34.59" height="8.59" rx="3.01" transform="translate(120.76 -59.97) rotate(30)"/>
          <rect class="cls-2" x="134.98" y="253.05" width="34.59" height="8.59" rx="3.02"/>
        </g>
        <g>
          <rect class="cls-2" x="336.52" y="253.05" width="34.59" height="8.59" rx="3.01" transform="translate(707.62 514.69) rotate(-180)"/>
          <rect class="cls-2" x="318.54" y="191.06" width="34.59" height="8.59" rx="3.02" transform="translate(724.35 196.62) rotate(150)"/>
        </g>
        <rect class="cls-2" x="236.25" y="163.12" width="34.59" height="8.59" rx="3.01" transform="translate(420.96 -86.13) rotate(90)"/>
      </g>
    </g>
  </g>
</svg>
