<svg id="Layer_1" data-name="Layer 1" xmlns="http://www.w3.org/2000/svg" viewBox="0 0 500 500">
  <defs>
    <style>
      .cls-1 {
        fill: #29abe2;
        opacity: 0.19;
      }

      .cls-2 {
        fill: #2d98d4;
      }
    </style>
  </defs>
  <title>Region</title>
  <g>
    <circle class="cls-1" cx="249.24" cy="249.8" r="167.19"/>
    <path class="cls-2" d="M249.25,49.8c-110.46,0-200,89.54-200,200s89.55,200,200,200,200-89.54,200-200S359.71,49.8,249.25,49.8Zm0,385.49c-102.45,0-185.49-83.05-185.49-185.49A185.48,185.48,0,0,1,249.24,64.31c102.45,0,185.5,83,185.5,185.49S351.69,435.29,249.24,435.29Z"/>
    <g>
      <path class="cls-2" d="M345.1,360.93h-6.87V176.84a3.28,3.28,0,0,0-3.27-3.27H276.43a3.27,3.27,0,0,0-3.27,3.27V228.1h-3.1c-.65-5.57-3.6-10.15-7.2-12.45-.34-6.87-4.26-13.1-8.85-13.1h-2.29V184.3a3.38,3.38,0,0,0-1.79-3V156.15h0V113.23a1.55,1.55,0,0,0-1.55-1.55h0a1.54,1.54,0,0,0-1.54,1.55v.37c-13.26,3.22-26.5,6.44-39.72,9.78a3.11,3.11,0,0,0-1.95,2.16c-.14,7-.09,14-.09,21.45a1.43,1.43,0,0,0,1.76,1.37l40-10.12v17.14h0v26a3.09,3.09,0,0,0-1.61,2.88v18.34h-2.29c-4.59,0-8.52,6.23-8.85,13.1-3.61,2.3-6.55,6.88-7.21,12.45h-2.94V176.67a3.28,3.28,0,0,0-3.27-3.27H162a3.27,3.27,0,0,0-3.27,3.27V361.08h-6.06v3.49A3.4,3.4,0,0,0,156,368H342.45a3.4,3.4,0,0,0,3.4-3.4V361A3.59,3.59,0,0,0,345.1,360.93Zm-128.1.15H165.25V180H217ZM209.33,145a1.21,1.21,0,0,1-1.54-1.08c0-5.89,0-11.45.08-17,0-.6,1-1.55,1.71-1.72,11.54-2.65,34.72-8.21,37.21-8.56v19C234.53,138.4,222.27,142,209.33,145Zm33.55,64.14h10.81c.65.33,2,2.3,2.29,4.59h-15.4C241.24,211.06,242.22,209.43,242.88,209.1ZM239,220.23h18.66c1.64,0,4.91,3.29,5.9,7.87H233.05C234,223.18,237.63,220.23,239,220.23ZM273,361.41H224.2l-.32-126.76H273Zm45.76-1H293.52V342.2h25.25Zm13.09.7h-9.77a3.34,3.34,0,0,0,.08-.7V342.2a3.4,3.4,0,0,0-3.4-3.4H293.52a3.4,3.4,0,0,0-3.4,3.4v18.19a2.71,2.71,0,0,0,.08.69h-10V180.27h51.67Z"/>
      <path class="cls-2" d="M287.82,247.57h36.65a3.4,3.4,0,0,0,3.4-3.4v-10a3.4,3.4,0,0,0-3.4-3.4H287.82a3.41,3.41,0,0,0-3.4,3.4v10A3.4,3.4,0,0,0,287.82,247.57Zm0-13.36h36.65v10H287.82Z"/>
      <path class="cls-2" d="M287.82,292.26h36.65a3.4,3.4,0,0,0,3.4-3.4v-10a3.4,3.4,0,0,0-3.4-3.4H287.82a3.4,3.4,0,0,0-3.4,3.4v10A3.41,3.41,0,0,0,287.82,292.26Zm0-13.36h36.65v10H287.82Z"/>
      <path class="cls-2" d="M287.82,269.91h36.65a3.4,3.4,0,0,0,3.4-3.4v-10a3.4,3.4,0,0,0-3.4-3.4H287.82a3.41,3.41,0,0,0-3.4,3.4v10A3.4,3.4,0,0,0,287.82,269.91Zm0-13.36h36.65v10H287.82Z"/>
      <path class="cls-2" d="M287.82,202.87h36.65a3.4,3.4,0,0,0,3.4-3.4v-10a3.4,3.4,0,0,0-3.4-3.4H287.82a3.41,3.41,0,0,0-3.4,3.4v10A3.4,3.4,0,0,0,287.82,202.87Zm0-13.36h36.65v10H287.82Z"/>
      <path class="cls-2" d="M287.82,225.22h36.65a3.4,3.4,0,0,0,3.4-3.4v-10a3.4,3.4,0,0,0-3.4-3.4H287.82a3.41,3.41,0,0,0-3.4,3.4v10A3.41,3.41,0,0,0,287.82,225.22Zm0-13.36h36.65v10H287.82Z"/>
      <path class="cls-2" d="M287.82,314.6h36.65a3.4,3.4,0,0,0,3.4-3.4v-10a3.4,3.4,0,0,0-3.4-3.4H287.82a3.41,3.41,0,0,0-3.4,3.4v10A3.4,3.4,0,0,0,287.82,314.6Zm0-13.36h36.65v10H287.82Z"/>
      <path class="cls-2" d="M175.56,213.61a3.27,3.27,0,0,0,3.57-3.35V199.89a3.73,3.73,0,0,0-3.57-3.35,3.28,3.28,0,0,0-3.58,3.35v10.37A3.28,3.28,0,0,0,175.56,213.61Z"/>
      <path class="cls-2" d="M191.27,213.61a3.27,3.27,0,0,0,3.57-3.35V199.89a3.73,3.73,0,0,0-3.57-3.35,3.27,3.27,0,0,0-3.57,3.35v10.37A3.27,3.27,0,0,0,191.27,213.61Z"/>
      <path class="cls-2" d="M207,213.61a3.27,3.27,0,0,0,3.57-3.35V199.89a3.72,3.72,0,0,0-3.57-3.35,3.27,3.27,0,0,0-3.57,3.35v10.37A3.27,3.27,0,0,0,207,213.61Z"/>
      <path class="cls-2" d="M175.56,240.73a3.27,3.27,0,0,0,3.57-3.34V227a3.73,3.73,0,0,0-3.57-3.35A3.28,3.28,0,0,0,172,227v10.38A3.28,3.28,0,0,0,175.56,240.73Z"/>
      <path class="cls-2" d="M191.27,240.73a3.27,3.27,0,0,0,3.57-3.34V227a3.73,3.73,0,0,0-3.57-3.35A3.27,3.27,0,0,0,187.7,227v10.38A3.27,3.27,0,0,0,191.27,240.73Z"/>
      <path class="cls-2" d="M207,240.73a3.27,3.27,0,0,0,3.57-3.34V227a3.72,3.72,0,0,0-3.57-3.35,3.27,3.27,0,0,0-3.57,3.35v10.38A3.27,3.27,0,0,0,207,240.73Z"/>
      <path class="cls-2" d="M175.56,268.19a3.27,3.27,0,0,0,3.57-3.35V254.46a3.48,3.48,0,0,0-3.57-3.35,3.28,3.28,0,0,0-3.58,3.35v10.38A3.28,3.28,0,0,0,175.56,268.19Z"/>
      <path class="cls-2" d="M191.27,268.19a3.27,3.27,0,0,0,3.57-3.35V254.46a3.48,3.48,0,0,0-3.57-3.35,3.27,3.27,0,0,0-3.57,3.35v10.38A3.27,3.27,0,0,0,191.27,268.19Z"/>
      <path class="cls-2" d="M207,268.19a3.27,3.27,0,0,0,3.57-3.35V254.46a3.47,3.47,0,0,0-3.57-3.35,3.27,3.27,0,0,0-3.57,3.35v10.38A3.27,3.27,0,0,0,207,268.19Z"/>
      <path class="cls-2" d="M175.56,295.31a3.27,3.27,0,0,0,3.57-3.35V281.58a3.74,3.74,0,0,0-3.57-3.35,3.28,3.28,0,0,0-3.58,3.35V292A3.28,3.28,0,0,0,175.56,295.31Z"/>
      <path class="cls-2" d="M191.27,295.31a3.27,3.27,0,0,0,3.57-3.35V281.58a3.74,3.74,0,0,0-3.57-3.35,3.27,3.27,0,0,0-3.57,3.35V292A3.27,3.27,0,0,0,191.27,295.31Z"/>
      <path class="cls-2" d="M207,295.31a3.27,3.27,0,0,0,3.57-3.35V281.58a3.73,3.73,0,0,0-3.57-3.35,3.27,3.27,0,0,0-3.57,3.35V292A3.27,3.27,0,0,0,207,295.31Z"/>
      <path class="cls-2" d="M175.56,322.77a3.27,3.27,0,0,0,3.57-3.35V309a3.48,3.48,0,0,0-3.57-3.35A3.28,3.28,0,0,0,172,309v10.38A3.28,3.28,0,0,0,175.56,322.77Z"/>
      <path class="cls-2" d="M191.27,322.77a3.27,3.27,0,0,0,3.57-3.35V309a3.48,3.48,0,0,0-3.57-3.35A3.27,3.27,0,0,0,187.7,309v10.38A3.27,3.27,0,0,0,191.27,322.77Z"/>
      <path class="cls-2" d="M207,322.77a3.27,3.27,0,0,0,3.57-3.35V309a3.47,3.47,0,0,0-3.57-3.35,3.27,3.27,0,0,0-3.57,3.35v10.38A3.27,3.27,0,0,0,207,322.77Z"/>
      <path class="cls-2" d="M232.64,258.31a3.09,3.09,0,0,0,3.27-3.27V244.9a3.27,3.27,0,1,0-6.54,0V255A3.52,3.52,0,0,0,232.64,258.31Z"/>
      <path class="cls-2" d="M247,258.31a3.09,3.09,0,0,0,3.27-3.27V244.9a3.27,3.27,0,1,0-6.54,0V255A3.52,3.52,0,0,0,247,258.31Z"/>
      <path class="cls-2" d="M261.41,258.31a3.09,3.09,0,0,0,3.27-3.27V244.9a3.27,3.27,0,1,0-6.54,0V255A3.52,3.52,0,0,0,261.41,258.31Z"/>
      <path class="cls-2" d="M232.64,284.79a3.09,3.09,0,0,0,3.27-3.27V271.39a3.27,3.27,0,0,0-6.54,0v10.13A3.27,3.27,0,0,0,232.64,284.79Z"/>
      <path class="cls-2" d="M247,284.79a3.08,3.08,0,0,0,3.27-3.27V271.39a3.27,3.27,0,1,0-6.54,0v10.13A3.27,3.27,0,0,0,247,284.79Z"/>
      <path class="cls-2" d="M261.41,284.79a3.09,3.09,0,0,0,3.27-3.27V271.39a3.27,3.27,0,0,0-6.54,0v10.13A3.27,3.27,0,0,0,261.41,284.79Z"/>
      <path class="cls-2" d="M232.64,311.61a3.09,3.09,0,0,0,3.27-3.27V298.2a3.27,3.27,0,0,0-6.54,0v10.14A3.52,3.52,0,0,0,232.64,311.61Z"/>
      <path class="cls-2" d="M247,311.61a3.09,3.09,0,0,0,3.27-3.27V298.2a3.27,3.27,0,1,0-6.54,0v10.14A3.52,3.52,0,0,0,247,311.61Z"/>
      <path class="cls-2" d="M261.41,311.61a3.09,3.09,0,0,0,3.27-3.27V298.2a3.27,3.27,0,1,0-6.54,0v10.14A3.52,3.52,0,0,0,261.41,311.61Z"/>
      <path class="cls-2" d="M232.64,338.09a3.09,3.09,0,0,0,3.27-3.27V324.69a3.27,3.27,0,0,0-6.54,0v10.13A3.27,3.27,0,0,0,232.64,338.09Z"/>
      <path class="cls-2" d="M247,338.09a3.08,3.08,0,0,0,3.27-3.27V324.69a3.27,3.27,0,0,0-6.54,0v10.13A3.27,3.27,0,0,0,247,338.09Z"/>
      <path class="cls-2" d="M261.41,338.09a3.09,3.09,0,0,0,3.27-3.27V324.69a3.27,3.27,0,1,0-6.54,0v10.13A3.27,3.27,0,0,0,261.41,338.09Z"/>
    </g>
  </g>
</svg>
