<svg id="Layer_1" data-name="Layer 1" xmlns="http://www.w3.org/2000/svg" viewBox="0 0 500 500">
  <defs>
    <style>
      .cls-1, .cls-2 {
        fill: #2d98d4;
      }

      .cls-1 {
        opacity: 0.19;
      }
    </style>
  </defs>
  <title>Resources</title>
  <g>
    <circle class="cls-1" cx="252.33" cy="251.13" r="167.19"/>
    <path class="cls-2" d="M252.34,51.13c-110.47,0-200,89.54-200,200s89.54,200,200,200,200-89.53,200-200S362.8,51.13,252.34,51.13Zm0,385.49c-102.45,0-185.49-83.05-185.49-185.49a185.49,185.49,0,1,1,371,0C437.82,353.57,354.78,436.62,252.33,436.62Z"/>
    <g>
      <path class="cls-2" d="M332.42,248.41H283.54a2.77,2.77,0,0,0-.92.14,2.57,2.57,0,0,0-1.85,2.64,2.61,2.61,0,0,0,1.52,2.52,2.91,2.91,0,0,0,1.25.25h48.88a2.62,2.62,0,0,0,2.76-2.77A2.77,2.77,0,0,0,332.42,248.41Z"/>
      <path class="cls-2" d="M348.25,200.66H330.47v-2.78a2.62,2.62,0,0,0-2.78-2.78H317.42v-2.22a9.36,9.36,0,0,0-9.45-9.45,9.6,9.6,0,0,0-9.71,9.45v2.22h-7.2V142.27a2.44,2.44,0,0,0-2.46-2.45H173a2.45,2.45,0,0,0-2.45,2.45v106.3H156.1a2.46,2.46,0,0,0-2.46,2.46V360a2.46,2.46,0,0,0,2.46,2.45H305.5A2.45,2.45,0,0,0,308,360V313.64h15.32v0h25a2.62,2.62,0,0,0,2.77-2.78V203.42A2.62,2.62,0,0,0,348.25,200.66Zm-47.21,0a2.62,2.62,0,0,0,2.77-2.78v-5A4,4,0,0,1,308,189a3.8,3.8,0,0,1,3.89,3.89v5a2.62,2.62,0,0,0,2.78,2.78h10.27v7.76H290.75v-7.76H301ZM249.27,145h37v18.47h-37Zm-31.36,0h25.76v33l-10.91-11.48a3.12,3.12,0,0,0-2-.84,2.55,2.55,0,0,0-1.95.84L217.91,178Zm-42.55,0h37v18.47h-37Zm0,24.07h37v16a2.85,2.85,0,0,0,1.68,2.52,2.56,2.56,0,0,0,3.07-.56l13.72-14.56L244.51,187a2.57,2.57,0,0,0,3.08.56,2.69,2.69,0,0,0,1.68-2.52V169h37v26.63a2.64,2.64,0,0,0-1,2.22v2.49H267.43a2.61,2.61,0,0,0-2.56,1.61v46.57H175.36Zm89.51,103.15H254.45V253.71h10.42Zm-17.58-18.47v33l-14-11.48a4.55,4.55,0,0,0-2.51-.83,3.82,3.82,0,0,0-2.51.83l-14,11.48v-33Zm-87.45,0h47.3v18.47h-47.3ZM301.76,357.3H159.84V277.78h47.3v16a2.94,2.94,0,0,0,2.16,2.52,3.93,3.93,0,0,0,3.93-.57l17.56-14.56,17.57,14.56a3.94,3.94,0,0,0,3.94.57c1.43-.57,2.15-1.41,2.15-2.52v-16h10.42v34.9a3,3,0,0,0,.42,1h36.47Zm43.71-49.19H270.21V206.2h15v5.28a2.66,2.66,0,0,0,1,2.23,2.81,2.81,0,0,0,1.75.55h39.7a2.62,2.62,0,0,0,2.78-2.78V206.2h15Z"/>
      <path class="cls-2" d="M332.42,268.41H283.54a2.62,2.62,0,0,0-2.77,2.76,2.68,2.68,0,0,0,.17,1,2.55,2.55,0,0,0,2.6,1.77h48.88a2.62,2.62,0,0,0,2.76-2.78A2.77,2.77,0,0,0,332.42,268.41Z"/>
      <path class="cls-2" d="M332.42,288.12H283.54a2.78,2.78,0,0,0,0,5.56h48.88a2.62,2.62,0,0,0,2.76-2.78A3,3,0,0,0,332.42,288.12Z"/>
      <path class="cls-2" d="M286.24,228.69h-2.7a2.78,2.78,0,0,0,0,5.56h48.88a2.78,2.78,0,0,0,0-5.56H286.24Z"/>
    </g>
  </g>
</svg>
