<svg id="Layer_1" data-name="Layer 1" xmlns="http://www.w3.org/2000/svg" viewBox="0 0 500 500">
  <defs>
    <style>
      .cls-1 {
        fill: #2d98d4;
      }

      .cls-2 {
        fill: #29abe2;
        opacity: 0.19;
      }
    </style>
  </defs>
  <title>Stakeholders</title>
  <g>
    <path class="cls-1" d="M249.28,54c-110.47,0-200,89.54-200,200s89.54,200,200,200,200-89.53,200-200S359.74,54,249.28,54Zm0,385.49A185.49,185.49,0,1,1,434.76,254,185.48,185.48,0,0,1,249.27,439.45Z"/>
    <circle class="cls-2" cx="249.27" cy="253.96" r="167.19"/>
    <path class="cls-1" d="M250.39,148.78a32.5,32.5,0,0,1,16.26,60.66,54.1,54.1,0,0,1,30.5,25.42,31.76,31.76,0,0,1,27.79-15.59,32.5,32.5,0,0,1,16.27,60.66,51.46,51.46,0,0,1,35.92,44.73c.68,5.76-9.49,5.76-10.17,1a42.2,42.2,0,0,0-84,0c-.68,4.74-10.84,4.74-10.17-1a52.38,52.38,0,0,1,35.93-44.73c-8.48-5.08-15.25-14.57-16.27-24.74a42.24,42.24,0,0,0-84,0,33.15,33.15,0,0,1-16.27,24.74,51.81,51.81,0,0,1,36.26,44.73c.34,5.76-9.83,5.76-10.17,1a42.61,42.61,0,0,0-42.36-38.29c-21.69,0-39.65,16.6-42,38.29-.34,4.74-10.84,4.74-10.17-1a52.23,52.23,0,0,1,36.26-44.73,33.07,33.07,0,0,1-16.6-28.47c0-17.62,14.91-32.19,32.53-32.19A32.73,32.73,0,0,1,204,234.86a54.51,54.51,0,0,1,30.16-25.42c-9.49-5.76-16.27-16.27-16.27-28.13A32.55,32.55,0,0,1,250.39,148.78Zm74.55,80.66a22.2,22.2,0,1,0,22.37,22A22.26,22.26,0,0,0,324.94,229.44Zm-149.11,0a22.2,22.2,0,1,0,22.37,22A22,22,0,0,0,175.83,229.44ZM250.39,159a22.37,22.37,0,1,0,22.36,22.36A22.27,22.27,0,0,0,250.39,159Z"/>
  </g>
</svg>
