<svg id="Layer_1" data-name="Layer 1" xmlns="http://www.w3.org/2000/svg" viewBox="0 0 500 500"><defs><style>.cls-1,.cls-2{fill:#a2b1ba;}.cls-2{opacity:0.19;}</style></defs><title>stakeholders-disabled</title><path class="cls-1" d="M250,54C139.54,54,50,143.5,50,254s89.54,200,200,200,200-89.53,200-200S360.47,54,250,54Zm0,385.49a185.49,185.49,0,0,1,0-371c102.44,0,185.49,83,185.49,185.49S352.44,439.45,250,439.45Z"/><circle class="cls-2" cx="250" cy="253.96" r="167.19"/><path class="cls-1" d="M374.76,324.9a49.78,49.78,0,0,0-34.53-43.06l-4.3-1.36,3.89-2.28a30.5,30.5,0,0,0-15.26-56.93c-10.93,0-20.91,5.59-26.05,14.58L296.73,239,295,235.81a51.91,51.91,0,0,0-29.38-24.47l-4.18-1.4,3.8-2.22a30.52,30.52,0,1,0-45.79-26.41,31.32,31.32,0,0,0,15.31,26.42l3.65,2.22-4,1.38a52.85,52.85,0,0,0-29,24.48l-1.66,3.06-1.81-3a30.57,30.57,0,0,0-26.42-14.63c-16.55,0-30.53,13.83-30.53,30.19a30.85,30.85,0,0,0,15.62,26.74l3.91,2.3-4.33,1.34a50.57,50.57,0,0,0-34.87,43,1.54,1.54,0,0,0,.65,1.6,5,5,0,0,0,4.5.24c.65-.3,1-.69,1-1.16,2.51-22.93,21.43-40.15,44-40.15a44.7,44.7,0,0,1,44.35,40.07c.08,1.14,1.79,1.75,3.33,1.65.7-.05,3-.35,2.85-2.33a49.81,49.81,0,0,0-34.85-42.94l-4.37-1.36,4-2.28A31.38,31.38,0,0,0,206,255a44.24,44.24,0,0,1,88,0c.91,9.07,6.91,18.18,15.3,23.21l3.81,2.29-4.23,1.34c-18.74,5.91-32.62,23.2-34.54,43-.18,1.57,1.14,2.07,2.28,2.22,1.7.22,3.74-.45,3.92-1.68a44.21,44.21,0,0,1,88,.09c.16,1.14,2.2,1.81,3.91,1.59C373.63,326.93,374.94,326.43,374.76,324.9ZM175.45,275.83a24.2,24.2,0,0,1,0-48.39c13.67,0,24.37,10.55,24.37,24A24.11,24.11,0,0,1,175.45,275.83ZM226,181.31a24.2,24.2,0,1,1,24,24.37A24.23,24.23,0,0,1,226,181.31Zm74.22,70.15a24.37,24.37,0,1,1,24.36,24.37A24.22,24.22,0,0,1,300.2,251.46Z"/><path class="cls-1" d="M371.81,327.62c-1.75,0-3.55-.75-3.73-2.06a43.71,43.71,0,0,0-87-.11c-.23,1.57-2.54,2.38-4.48,2.13-2.6-.35-2.81-1.89-2.71-2.78,1.94-20,16-37.47,34.89-43.44l3.17-1-2.86-1.72c-8.52-5.11-14.62-14.37-15.54-23.59a43.74,43.74,0,0,0-87,0c-.94,9.43-7,18.69-15.52,23.59l-3,1.71,3.27,1a50.27,50.27,0,0,1,35.2,43.37c.1,1.66-1.14,2.72-3.31,2.88-1.82.12-3.76-.64-3.86-2.12a44.21,44.21,0,0,0-43.85-39.6c-22.34,0-41,17.07-43.53,39.7,0,.44-.28,1.08-1.31,1.56a5.52,5.52,0,0,1-5-.28,2,2,0,0,1-.85-2.06A51.09,51.09,0,0,1,160,281.36l3.25-1-2.94-1.73a31.35,31.35,0,0,1-15.86-27.17c0-16.64,14.21-30.69,31-30.69a31.06,31.06,0,0,1,26.84,14.87l1.36,2.23,1.25-2.3a53.33,53.33,0,0,1,29.32-24.71l3-1-2.73-1.66A31.82,31.82,0,0,1,219,181.31a31,31,0,1,1,46.54,26.84l-2.85,1.67,3.13,1.05a52.36,52.36,0,0,1,29.66,24.7l1.29,2.37,1.33-2.34c5.23-9.15,15.38-14.83,26.49-14.83a31,31,0,0,1,15.51,57.86l-2.92,1.71,3.23,1a50.32,50.32,0,0,1,34.87,43.49c.17,1.48-.81,2.48-2.7,2.73A6,6,0,0,1,371.81,327.62ZM250,214.74A44.35,44.35,0,0,1,294.51,255c.9,8.92,6.81,17.88,15.06,22.83l4.76,2.86-5.28,1.68c-18.55,5.85-32.3,23-34.2,42.59,0,.39-.16,1.41,1.85,1.67,1.57.21,3.24-.41,3.36-1.25a44.7,44.7,0,0,1,89,.11c.11.74,1.83,1.34,3.35,1.14,2-.26,1.88-1.28,1.84-1.62v0a49.31,49.31,0,0,0-34.19-42.62l-5.37-1.7,4.86-2.85a30,30,0,0,0-15-56c-10.75,0-20.57,5.49-25.62,14.33l-2.23,3.9-2.13-3.95a51.45,51.45,0,0,0-29.1-24.24l-5.23-1.75,4.75-2.77a30,30,0,1,0-45-26,30.8,30.8,0,0,0,15.07,26l4.56,2.78-5,1.72a52.29,52.29,0,0,0-28.77,24.25l-2.08,3.82-2.26-3.71a30.07,30.07,0,0,0-26-14.39c-16.28,0-30,13.6-30,29.69a30.36,30.36,0,0,0,15.37,26.31l4.88,2.87-5.41,1.68a50.08,50.08,0,0,0-34.52,42.59,1,1,0,0,0,.45,1.14,4.51,4.51,0,0,0,4,.2c.48-.22.73-.47.75-.74,2.53-23.17,21.67-40.62,44.52-40.62a45.2,45.2,0,0,1,44.84,40.52c.05.73,1.39,1.3,2.8,1.2.75-.05,2.48-.33,2.39-1.8A49.29,49.29,0,0,0,191,282.32l-5.47-1.7,5-2.85a30.92,30.92,0,0,0,15-22.83A44.34,44.34,0,0,1,250,214.74Zm74.55,61.59a24.7,24.7,0,1,1,24.87-24.87A24.89,24.89,0,0,1,324.56,276.33Zm0-48.39a23.7,23.7,0,1,0,23.87,23.52A23.72,23.72,0,0,0,324.56,227.94ZM175.45,276.33a24.7,24.7,0,1,1,24.87-24.87A24.43,24.43,0,0,1,175.45,276.33Zm0-48.39a23.7,23.7,0,1,0,23.87,23.52A23.55,23.55,0,0,0,175.45,227.94ZM250,206.18a24.87,24.87,0,1,1,24.86-24.87A24.73,24.73,0,0,1,250,206.18Zm0-48.73a23.87,23.87,0,1,0,23.86,23.86A23.72,23.72,0,0,0,250,157.45Z"/></svg>