<svg id="Layer_1" data-name="Layer 1" xmlns="http://www.w3.org/2000/svg" viewBox="0 0 500 500">
  <defs>
    <style>
      .cls-1 {
        fill: #29abe2;
        opacity: 0.19;
      }

      .cls-2, .cls-3 {
        fill: #2d98d4;
      }

      .cls-3 {
        opacity: 0.14;
      }
    </style>
  </defs>
  <title>Ward</title>
  <g>
    <g>
      <circle class="cls-1" cx="249.57" cy="249.63" r="167.19"/>
      <path class="cls-2" d="M249.58,49.63c-110.47,0-200,89.54-200,200s89.54,200,200,200,200-89.53,200-200S360,49.63,249.58,49.63Zm0,385.49A185.49,185.49,0,1,1,435.06,249.63,185.48,185.48,0,0,1,249.57,435.12Z"/>
    </g>
    <g>
      <g>
        <path class="cls-2" d="M234.47,254.56H198.15c-3.15,0-5.42,3.67-5.42,8.71V292.9c0,5.05,2.27,8.71,5.42,8.71h36.32c3.14,0,5.41-3.66,5.41-8.71V263.27C239.88,258.23,237.61,254.56,234.47,254.56ZM235,292.9a7.09,7.09,0,0,1-.89,3.85H198.49a6.88,6.88,0,0,1-.9-3.85V263.27a6.78,6.78,0,0,1,.9-3.84h35.64a7,7,0,0,1,.89,3.84Z"/>
        <path class="cls-2" d="M303.75,254.56H267.41c-3.13,0-5.41,3.67-5.41,8.71V292.9c0,5.05,2.28,8.71,5.41,8.71h36.34c3.12,0,5.39-3.66,5.39-8.71V263.27C309.14,258.23,306.87,254.56,303.75,254.56Zm.53,38.34a7,7,0,0,1-.89,3.85H267.76a7,7,0,0,1-.9-3.85V263.27a6.87,6.87,0,0,1,.9-3.84h35.63a6.9,6.9,0,0,1,.89,3.84Z"/>
      </g>
      <path class="cls-2" d="M347.91,241.46l-17.45-6.29-78.09-28.12-.94-.34-.31-.12-3.06,1.12-.82.29L214.3,219.86,151,242.43a3.73,3.73,0,0,0-1.76,5.67l.48.71v-.11l22.1-7.95v104H330.46v-104l19.38,7h0A4.1,4.1,0,0,0,347.91,241.46Zm-25,97H179V239.71L251,214.84l36.21,12.52,35.72,12.35Z"/>
      <g>
        <path class="cls-2" d="M249.76,154.55h0a1.83,1.83,0,0,0-1.65,2V157c-14.21,4.1-28.4,8.2-42.58,12.44a3.8,3.8,0,0,0-2.09,2.74c-.14,8.91-.11,17.84-.11,27.25a1.62,1.62,0,0,0,1.91,1.73c14.79-4.42,28.87-8.66,42.87-12.86V211h3.37V156.51A1.83,1.83,0,0,0,249.76,154.55Zm-41.85,42.27a1.28,1.28,0,0,1-1.5-.73,1.34,1.34,0,0,1-.15-.64c0-7.47,0-14.55.08-21.63a3,3,0,0,1,1.83-2.17c12.2-3.32,36.44-10.21,39.76-10.84l.13,0v24.1C234.92,188.48,221.78,193.05,207.91,196.82Z"/>
        <path class="cls-3" d="M248.06,160.77l-40.06,11a2.13,2.13,0,0,0-1.43,2l-.17,22.29Z"/>
      </g>
    </g>
  </g>
</svg>
