<svg id="Layer_1" data-name="Layer 1" xmlns="http://www.w3.org/2000/svg" viewBox="0 0 500 500">
  <defs>
    <style>
      .cls-1 {
        fill: #29abe2;
        opacity: 0.19;
      }

      .cls-2, .cls-3 {
        fill: #2d98d4;
      }

      .cls-3 {
        fill-rule: evenodd;
      }
    </style>
  </defs>
  <title>GF-Admin-Boundaries</title>
  <g>
    <circle class="cls-1" cx="247.6" cy="250" r="167.19"/>
    <path class="cls-2" d="M247.61,50c-110.46,0-200,89.54-200,200s89.55,200,200,200,200-89.53,200-200S358.07,50,247.61,50Zm0,385.49C145.15,435.49,62.11,352.44,62.11,250A185.48,185.48,0,0,1,247.6,64.51c102.45,0,185.5,83,185.5,185.49S350.05,435.49,247.6,435.49Z"/>
    <g>
      <path class="cls-3" d="M153.56,205.74v14.8H341.65v-14.8Zm185,11.12H156.65v-7.45H338.56Z"/>
      <path class="cls-3" d="M247.14,138,144.45,198.79v4.3H350.76v-3.76Zm-94.23,60.51,94.84-56,94.55,56Z"/>
      <g>
        <path class="cls-3" d="M328.58,239V224.49H298.31V239h4.21v71.26h-4.21v14.53h30.27V310.26h-3.91V239ZM324,321.37H302.23v-8.18H324Zm-17.79-12.78V239.94h14.4v68.65ZM324,235.9H302.23V228H324Z"/>
        <path class="cls-3" d="M262.74,239V224.49H232.47V239h4.2v71.26h-4.2v14.53h30.27V310.26h-3.92V239Zm-4.54,82.37H236.39v-8.18H258.2Zm-17.8-12.78V239.94h14.41v68.65Zm17.8-72.69H236.39V228H258.2Z"/>
        <path class="cls-3" d="M196.9,239V224.49H166.62V239h4.21v71.26h-4.21v14.53H196.9V310.26H193V239Zm-4.55,82.37H170.54v-8.18h21.81Zm-17.79-12.78V239.94H189v68.65Zm17.79-72.69H170.54V228h21.81Z"/>
      </g>
      <path class="cls-3" d="M153.56,329.32v15.06H341.65V329.32Zm185,11.18H156.65v-7.31H338.56Z"/>
      <path class="cls-3" d="M142.91,346.93V362H352.3V346.93Zm205.92,11.45H146.38v-7.85H348.83Z"/>
    </g>
  </g>
</svg>
