<svg id="Layer_1" data-name="Layer 1" xmlns="http://www.w3.org/2000/svg" viewBox="0 0 500 500">
  <defs>
    <style>
      .cls-1 {
        fill: #29abe2;
        opacity: 0.19;
      }

      .cls-2 {
        fill: #2d98d4;
      }
    </style>
  </defs>
  <title>Evacuation Center</title>
  <g>
    <g>
      <circle class="cls-1" cx="249.99" cy="249.69" r="167.19"/>
      <path class="cls-2" d="M250,49.69c-110.47,0-200,89.54-200,200s89.54,200,200,200,200-89.53,200-200S360.45,49.69,250,49.69Zm0,385.49a185.49,185.49,0,0,1,0-371c102.44,0,185.49,83,185.49,185.49S352.43,435.18,250,435.18Z"/>
    </g>
    <path class="cls-2" d="M388.21,278.33a3.23,3.23,0,0,0,.25-4.41c-36.13-40.65-63.55-72.91-86-113.18-1.5-2.38-2.42-2.35-4.35-2-35.72,8.86-67.37,8.85-103.13-.09a3.1,3.1,0,0,0-3.29,1.17L111.27,268a3.25,3.25,0,0,0,1.55,4.73l10.25,3.57v24.45A3.19,3.19,0,0,0,125,303.7s81.4,37.25,81.89,37.19L377,322.45l.05,0,.1,0c1.59,0,3.18-.28,4.78-.25a2.17,2.17,0,0,0,.36,0,15.91,15.91,0,0,1,2.08-.14,1.87,1.87,0,0,1,.42,0l.53-.12c1.19-.37,1.33-.93,1.72-1.67a1.09,1.09,0,0,1,0-.36l-6.94-46.14c1.26,1.44,2.47,2.8,3.76,4.25A3.24,3.24,0,0,0,388.21,278.33ZM121.1,266.53l74.65-99.67a261.05,261.05,0,0,0,39.42,5,260,260,0,0,0,56.59-3.29,344.8,344.8,0,0,1-46,71.25,325.87,325.87,0,0,1-53.89,51.83Zm88.57,67.33-80.41-35.19V278.48l64,22.12a3.15,3.15,0,0,0,3.1-.58c4.64-4.21,9-8.28,13.34-12.37Zm86.59-10.05-82.57,10.05,2.16-52c35.54-34,61.18-64.94,80.41-105.65Zm84.83-8-78.64,7.37v-150C322,206.12,345.26,234.37,374,267Z"/>
  </g>
</svg>
