<svg id="Layer_1" data-name="Layer 1" xmlns="http://www.w3.org/2000/svg" viewBox="0 0 500 500">
  <defs>
    <style>
      .cls-1, .cls-2 {
        fill: #a2b1ba;
      }

      .cls-1 {
        opacity: 0.19;
      }
    </style>
  </defs>
  <title>gf-infrastructure-disabled</title>
  <g>
    <circle class="cls-1" cx="252.11" cy="257.7" r="167.19"/>
    <path class="cls-2" d="M252.12,57.7c-110.47,0-200,89.54-200,200s89.54,200,200,200,200-89.53,200-200S362.58,57.7,252.12,57.7Zm0,385.49A185.49,185.49,0,1,1,437.6,257.7,185.48,185.48,0,0,1,252.11,443.19Z"/>
    <g>
      <path class="cls-2" d="M357.57,169.56H334.91V151.94a2.52,2.52,0,0,0-2.52-2.52H302.18a2.51,2.51,0,0,0-2.51,2.52v17.62H269.46V151.94a2.52,2.52,0,0,0-2.52-2.52H236.73a2.51,2.51,0,0,0-2.51,2.52v17.62H204V151.94a2.51,2.51,0,0,0-2.51-2.52H170.81a2.53,2.53,0,0,0-2.05,2.52v17.62H146.11a2.51,2.51,0,0,0-2.52,2.51v95.67a2.51,2.51,0,0,0,2.52,2.51h30.21a2.51,2.51,0,0,0,2.51-2.51c0-34.58,32.48-62.94,73-62.94s72.86,28.34,73,62.94a2.51,2.51,0,0,0,2.52,2.51h30.21a2.51,2.51,0,0,0,2.51-2.51V172.07A2.51,2.51,0,0,0,357.57,169.56Zm-4.21,91.68h-21c-1.61-33.91-38.8-65.16-79.74-65.16s-79,31.27-80.52,65.16H151.87V177.13H174a2.4,2.4,0,0,0,2.46-2.34V158.44h20l.45,17.25c0,1.29,1.73,1.95,3.09,1.95l37.87-.51c1.35,0,3.82-1.17,3.82-2.47l-.12-16.22h20.56l.22,15.78c0,1.3,1.73,2.59,3.09,2.59l39.23.34c1.36,0,3.07-1.25,3.07-2.54V158.44h19.11l.27,16.23c0,1.29,2.19,2.41,3.55,2.41l22.67,0Z"/>
      <path class="cls-2" d="M254.75,280.33v25.23a2.52,2.52,0,1,1-5-.06V280.33a2.54,2.54,0,0,1,2.21-2.61,2.75,2.75,0,0,1,.41,0A2.52,2.52,0,0,1,254.75,280.33Z"/>
      <path class="cls-2" d="M360.26,362.15l-78-130.91a2.51,2.51,0,0,0-2.12-1.18H224.71a1.85,1.85,0,0,0-.47,0,2.5,2.5,0,0,0-1.65,1.18l-78,130.91a2.52,2.52,0,0,0,2.12,3.85H358.14a2.52,2.52,0,0,0,2.5-2.53A2.45,2.45,0,0,0,360.26,362.15Zm-105.58-7.57V336.13a2.3,2.3,0,0,0-2.19-2.39,1.53,1.53,0,0,0-.37,0,2.29,2.29,0,0,0-2,2.37v18.45H160.92l67.69-115.3h21.52v13.84a2.28,2.28,0,1,0,4.55.06v-13.9H276.2l67.69,115.3Z"/>
    </g>
  </g>
</svg>
