<svg id="Layer_1" data-name="Layer 1" xmlns="http://www.w3.org/2000/svg" viewBox="0 0 500 500">
  <defs>
    <style>
      .cls-1, .cls-2 {
        fill: #2d98d4;
      }

      .cls-1 {
        opacity: 0.19;
      }
    </style>
  </defs>
  <title>Subward</title>
  <g>
    <g>
      <circle class="cls-1" cx="249.27" cy="249.9" r="167.19"/>
      <path class="cls-2" d="M249.27,49.9c-110.46,0-200,89.54-200,200s89.54,200,200,200,200-89.54,200-200S359.73,49.9,249.27,49.9Zm0,385.49c-102.46,0-185.5-83.05-185.5-185.49A185.49,185.49,0,0,1,249.27,64.4c102.44,0,185.49,83,185.49,185.5S351.71,435.39,249.27,435.39Z"/>
    </g>
    <g>
      <path class="cls-2" d="M300.51,188.93l-85.43,26.26-32.86-21-44.14,85.18,85.54,97.3L360.45,256.36Zm-1.73,9.84,26.09,29.68-28,13.74-18.77-36.95ZM269.3,208l19.42,38.22-35.33,17.33-8.48-48Zm-47.25,96.83-35.43-24.15,10.58-23.23L243.76,272Zm14.13-86.62,6.24,35.26L216.7,224.17Zm-1,41.63L201,249.11l8.45-18.56ZM184,209.56s3.13-4.35,7.64.78L202.77,223l-10.65,23.37L169,239.09C176.78,223.75,184,209.56,184,209.56ZM157.82,261c2.19-4.33,4.68-9.22,7.23-14.22l-.16.51,23.44,7.34-9.45,20.73Zm-5.63,23.17s-4.12-4-2.05-7.91c.45-.95,1.74-3.5,3.55-7.12l21.39,14.58-8,17.42Zm21.55,24.52,9.07-19.7,34.24,23.35-17.22,26Zm50.71,57.67-18.3-20.81,18.52-28,31.15,21.24Zm38.4-33.75L229.67,310,251,277.78l32.37,36.82Zm27.74-24.39-32.37-36.81,34.67-17,18.19,35.79ZM318.1,284,301,250.43l30.16-14.79,18.29,20.81Z"/>
      <path class="cls-2" d="M219.78,204.17a1.59,1.59,0,0,0,1.38.86,1.13,1.13,0,0,0,1.21-.86c.17-.34,16.72-32.58,20.51-40a24.25,24.25,0,1,0-43.44-.18Zm1.38-64.82c11,0,18.92,12.55,10.3,24.26-11.72,8.63-24.26.74-24.26-10.29A14,14,0,0,1,221.16,139.35Z"/>
    </g>
  </g>
</svg>
