<svg id="Layer_1" data-name="Layer 1" xmlns="http://www.w3.org/2000/svg" viewBox="0 0 500 500">
  <defs>
    <style>
      .cls-1 {
        fill: #29abe2;
        opacity: 0.19;
      }

      .cls-2 {
        fill: #2d98d4;
      }
    </style>
  </defs>
  <title>GF-Warehouse</title>
  <g>
    <circle class="cls-1" cx="252.48" cy="257.7" r="167.19"/>
    <path class="cls-2" d="M252.49,57.7c-110.46,0-200,89.54-200,200s89.55,200,200,200,200-89.53,200-200S363,57.7,252.49,57.7Zm0,385.49a185.49,185.49,0,0,1,0-371c102.45,0,185.5,83,185.5,185.49S354.93,443.19,252.48,443.19Z"/>
    <path class="cls-2" d="M252.15,157.66l-.51.09a5.25,5.25,0,0,0-1.94.76L133.48,228.78a5.41,5.41,0,1,0,4.69,9.74,4.94,4.94,0,0,0,.88-.54l21.54-13V352.34a5.41,5.41,0,0,0,5.41,5.41H339a5.41,5.41,0,0,0,5.41-5.41V225l21.54,13a5.41,5.41,0,0,0,6.46-8.67,6.14,6.14,0,0,0-.89-.53L255.27,158.51a5.39,5.39,0,0,0-3.12-.85Zm.33,11.74,81.09,49V346.94H314.65V271.26a5.41,5.41,0,0,0-5.41-5.4H195.73a5.41,5.41,0,0,0-5.41,5.4v75.68H171.4V218.39l81.08-49Zm-21.62,69.43a5.41,5.41,0,0,0,0,10.81h43.25a5.41,5.41,0,0,0,0-10.81Zm-29.73,37.84H303.84v16.21H201.13Zm0,27H303.84v16.22H201.13V303.69Zm0,27H303.84v16.22H201.13Z"/>
  </g>
</svg>
