<svg id="Layer_1" data-name="Layer 1" xmlns="http://www.w3.org/2000/svg" viewBox="0 0 500 500">
  <defs>
    <style>
      .cls-1, .cls-2 {
        fill: #2d98d4;
      }

      .cls-1 {
        opacity: 0.19;
      }
    </style>
  </defs>
  <title>AS-Questions</title>
  <g>
    <circle class="cls-1" cx="252.66" cy="246.45" r="167.19"/>
    <path class="cls-2" d="M252.66,46.45c-110.46,0-200,89.54-200,200s89.54,200,200,200,200-89.53,200-200S363.12,46.45,252.66,46.45Zm0,385.49c-102.46,0-185.5-83.05-185.5-185.49A185.48,185.48,0,0,1,252.66,61c102.44,0,185.49,83,185.49,185.49S355.1,431.94,252.66,431.94Z"/>
  </g>
  <g>
    <path class="cls-2" d="M361.34,147.32,331.39,142V126.55a6.31,6.31,0,0,0-6.32-6.3H169.74a6.31,6.31,0,0,0-6.31,6.3v216.1a6.32,6.32,0,0,0,6.31,6.31h18.07l133.82,23.59a6.29,6.29,0,0,0,7.29-5.11l37.54-212.81A6.32,6.32,0,0,0,361.34,147.32ZM317.77,126.8a6.91,6.91,0,0,1,6.89,6.9v7.15L245,126.8Zm-147.62,6.9a6.92,6.92,0,0,1,6.91-6.9h23.75l-4.7,26.73h-3.76a4.38,4.38,0,1,0,0,8.76h2.21L170.15,300.7Zm188.44,26.8-27.2,154.3-6,34.15-1.81,10.28a6.9,6.9,0,0,1-8,5.6l-90-15.87-37.17-6.55-11.4-2a6.89,6.89,0,0,1-5.6-8l30-170.12,1.53-8.76,3.51-19.86a6.89,6.89,0,0,1,8-5.6L324.66,147.5l6.73,1.2L353,152.5A6.92,6.92,0,0,1,358.59,160.5Z"/>
    <path class="cls-2" d="M331.39,175.82h0l-6.71-1.18-70.07-12.35-29.75-5.24a4.9,4.9,0,0,0-.77-.07,4.37,4.37,0,0,0-4.3,3.62,4.56,4.56,0,0,0,0,1.69,4.39,4.39,0,0,0,3.52,3.39L243,169.14l44,7.77,37.68,6.65,5.19.91a4.87,4.87,0,0,0,.75.07,5.16,5.16,0,0,0,.79-.07,4.4,4.4,0,0,0,0-8.65Z"/>
    <path class="cls-2" d="M312.58,188.36,253.25,177.9l-15-2.65a5.26,5.26,0,0,0-.78-.07,4.38,4.38,0,0,0-4,2.72,4.67,4.67,0,0,0-.27.9,4.4,4.4,0,0,0,3.57,5.09L311.06,197a4.87,4.87,0,0,0,.75.07,4.39,4.39,0,0,0,.77-8.72Z"/>
    <path class="cls-2" d="M259.86,288.62a7.08,7.08,0,0,0-.77-.17,11.53,11.53,0,0,0-8,1.48,10,10,0,0,0-4.71,7.32c-.07.4-.13.8-.16,1.18a9.61,9.61,0,0,0,2.08,7.33,11.7,11.7,0,0,0,15,2.65c2.55-1.47,4.11-3.92,4.71-7.34s0-6.24-1.92-8.49A11.53,11.53,0,0,0,259.86,288.62Z"/>
    <path class="cls-2" d="M290.56,236.62a21.39,21.39,0,0,0-6.75-6.35,29.82,29.82,0,0,0-9.15-3.56c-.88-.23-1.81-.41-2.78-.59a49.76,49.76,0,0,0-12.39-.55,36.37,36.37,0,0,0-11.5,2.59l0,.26,2.53,13.76a52.71,52.71,0,0,1,5.11-1.34,35.09,35.09,0,0,1,3.75-.58,29.3,29.3,0,0,1,8.1.35,9.28,9.28,0,0,1,5.94,3s.05,0,.06.07a6.37,6.37,0,0,1,1.31,5.16,9.15,9.15,0,0,1-3.26,5.6c-1.8,1.49-3.73,3-5.83,4.44q-2.19,1.52-4.29,3.21a28.5,28.5,0,0,0-3.83,3.7c-.44.52-.87,1.06-1.25,1.61a22.09,22.09,0,0,0-1.77,2.89c-.13.26-.25.52-.35.77a19.83,19.83,0,0,0-1.5,5c-.09.46-.17,1-.24,1.53-.06.31-.1.64-.14,1a18.82,18.82,0,0,0-.18,2.68l6.41,1.13,9,1.58a8.81,8.81,0,0,1,.17-1.66c.11-.61.18-1.08.24-1.39a10.13,10.13,0,0,1,1.51-3.76,20.45,20.45,0,0,1,2.68-3.31,28.45,28.45,0,0,1,3.32-2.83c1.19-.87,2.33-1.68,3.43-2.45,1.47-1,3-2.13,4.54-3.28a30.77,30.77,0,0,0,4.28-3.82,24.83,24.83,0,0,0,3.39-4.61,18,18,0,0,0,2.05-5.83,24,24,0,0,0,.1-7.06A17.59,17.59,0,0,0,290.56,236.62Z"/>
  </g>
</svg>
