<svg id="Layer_1" data-name="Layer 1" xmlns="http://www.w3.org/2000/svg" viewBox="0 0 500 500">
  <defs>
    <style>
      .cls-1, .cls-2 {
        fill: #2d98d4;
      }

      .cls-1 {
        opacity: 0.19;
      }
    </style>
  </defs>
  <title>AS-Questionnaires</title>
  <g>
    <g>
      <circle class="cls-1" cx="251.68" cy="247.35" r="167.19"/>
      <path class="cls-2" d="M251.69,47.35c-110.46,0-200,89.54-200,200s89.55,200,200,200,200-89.53,200-200S362.15,47.35,251.69,47.35Zm0,385.49c-102.45,0-185.49-83-185.49-185.49A185.48,185.48,0,0,1,251.68,61.86c102.45,0,185.5,83,185.5,185.49S354.13,432.84,251.68,432.84Z"/>
    </g>
    <g>
      <path class="cls-2" d="M311.66,350.65l-1,3.45a14.67,14.67,0,0,1-9.05,6.3H169.87a6.46,6.46,0,0,1-6.46-6.46V165a6.46,6.46,0,0,1,6.46-6.46h43.46l1.78-6.14H163a5.91,5.91,0,0,0-5.9,5.91V360.62a5.91,5.91,0,0,0,5.9,5.91h145.7a5.91,5.91,0,0,0,5.65-5.9V341.34Z"/>
      <g>
        <path class="cls-2" d="M176.52,213.58h19.06l-2.51,7.78H176.52c-1.52,0-2.77-1.74-2.77-3.89a4.79,4.79,0,0,1,.82-2.75A2.45,2.45,0,0,1,176.52,213.58Z"/>
        <path class="cls-2" d="M182,255.65l-2.51,7.78h-3c-1.52,0-2.77-1.74-2.77-3.89a4.81,4.81,0,0,1,.82-2.75,2.45,2.45,0,0,1,2-1.14Z"/>
        <path class="cls-2" d="M188.66,235.09l-2.5,7.77h-9.64c-1.52,0-2.77-1.74-2.77-3.88a4.79,4.79,0,0,1,.82-2.75,2.45,2.45,0,0,1,2-1.14Z"/>
      </g>
      <g>
        <path class="cls-2" d="M367.36,160.68,227.72,120a5.91,5.91,0,0,0-7.32,4l-8.26,28.33-1.78,6.14L167,307.48l-3.15,10.83a5.91,5.91,0,0,0,3.15,7,5.37,5.37,0,0,0,.87.33l119.4,34.76,20.25,5.89a5.74,5.74,0,0,0,1.21.23H309a3.38,3.38,0,0,0,.45,0,5.89,5.89,0,0,0,5.42-4.26L318,351.55,371.38,168A5.91,5.91,0,0,0,367.36,160.68Zm-3.89,12L318,329l-3.58,12.31-2.71,9.31-1,3.45a6.48,6.48,0,0,1-8,4.39L176.15,321.67a6.48,6.48,0,0,1-4.4-8l45.16-155.14,1.78-6.14,5.87-20.15a6.46,6.46,0,0,1,8-4.39l126.5,36.82A6.45,6.45,0,0,1,363.47,172.66Z"/>
        <path class="cls-2" d="M314.71,186.87a3.14,3.14,0,0,1-3,2.52,2.13,2.13,0,0,1-.54-.1l-51.3-14.93c-1.56-.45-2.24-2.23-1.71-4a3.28,3.28,0,0,1,2.93-2.6,2.45,2.45,0,0,1,.69.1l49.93,14.55,1.36.39C314.59,183.22,315.23,185.07,314.71,186.87Z"/>
        <path class="cls-2" d="M340.42,182.18c-.52,1.8-2.89,2.63-5.68,1.82L318,179.11l-6.29-1.83-64.44-18.76-4.46-1.3c-2.8-.81-4.36-2.84-3.83-4.64l.06-.2c.47-1.23,1.86-2,3.64-2a7,7,0,0,1,2,.31l5.82,1.69,21.09,6.14,40.1,11.68L318,172l18.69,5.44C339.44,178.28,341,180.38,340.42,182.18Z"/>
        <g>
          <g>
            <path class="cls-2" d="M300.81,230.31h0c-.6,2.06-2.27,3.39-3.74,3l-82-23.88c-1.47-.43-2.17-2.44-1.57-4.5h0c.6-2.07,2.27-3.39,3.74-3l82,23.87C300.71,226.23,301.41,228.25,300.81,230.31Z"/>
            <path class="cls-2" d="M289.06,270.7h0c-.61,2.06-2.28,3.39-3.74,3l-82-23.88c-1.47-.43-2.17-2.44-1.57-4.5h0c.6-2.06,2.28-3.39,3.74-3l82,23.87C289,266.62,289.66,268.64,289.06,270.7Z"/>
            <path class="cls-2" d="M282.83,292.08h0c-.6,2.06-2.27,3.39-3.74,3l-82-23.88c-1.46-.42-2.16-2.44-1.56-4.5h0c.6-2.06,2.27-3.39,3.74-3l82,23.88C282.73,288,283.43,290,282.83,292.08Z"/>
            <path class="cls-2" d="M276.84,312.67h0c-.6,2.06-2.28,3.39-3.74,3l-82-23.88c-1.46-.42-2.17-2.44-1.57-4.5h0c.6-2.06,2.28-3.39,3.74-3l82,23.88C276.74,308.59,277.44,310.61,276.84,312.67Z"/>
            <path class="cls-2" d="M294.8,251h0c-.6,2.06-2.27,3.38-3.74,3L209,230c-1.47-.43-2.17-2.44-1.57-4.51h0c.6-2.06,2.27-3.38,3.74-3l82,23.88C294.7,246.88,295.4,248.89,294.8,251Z"/>
          </g>
          <g>
            <path class="cls-2" d="M303.6,312.17l-6.86-2a4.39,4.39,0,0,0-5.44,3l-2,6.88a4.38,4.38,0,0,0,3,5.43l6.86,2a4.38,4.38,0,0,0,5.44-3l2-6.87A4.39,4.39,0,0,0,303.6,312.17Zm.54,5.92-1.36,4.66a3.32,3.32,0,0,1-4.11,2.26L294,323.65a3.31,3.31,0,0,1-2.25-4.11l1.35-4.66a3.31,3.31,0,0,1,4.1-2.26l4.67,1.37A3.31,3.31,0,0,1,304.14,318.09Z"/>
            <path class="cls-2" d="M327.58,229.81l-6.87-2a4.26,4.26,0,0,0-2.76.11,4.39,4.39,0,0,0-2.68,2.88l-2,6.86a4.4,4.4,0,0,0,3,5.44l1.69.49,5.18,1.51a4.39,4.39,0,0,0,5.44-3l2-6.87A4.38,4.38,0,0,0,327.58,229.81Zm.53,5.91-1.36,4.67a3.3,3.3,0,0,1-4.1,2.25L318,241.29h0a3.3,3.3,0,0,1-2.22-4.09l1.36-4.67a3.3,3.3,0,0,1,4.11-2.26l4.65,1.36A3.31,3.31,0,0,1,328.11,235.72Z"/>
            <path class="cls-2" d="M318,272.68a4.33,4.33,0,0,0-2.36-1.69l-3.93-1.15-2.94-.85a4.38,4.38,0,0,0-5.43,3l-2,6.88a4.38,4.38,0,0,0,3,5.43l6.86,2a4.82,4.82,0,0,0,.52.11,4.38,4.38,0,0,0,4.92-3.1l1.37-4.71.63-2.15A4.4,4.4,0,0,0,318,272.68Zm-1.83,4.23-1.35,4.66a3.3,3.3,0,0,1-3.11,2.39,3.44,3.44,0,0,1-1-.13L306,282.47a3.32,3.32,0,0,1-2.26-4.11l1.36-4.67a3.31,3.31,0,0,1,4.1-2.25l2.46.71,2.21.65A3.31,3.31,0,0,1,316.12,276.91Z"/>
            <path class="cls-2" d="M311.66,292.89a4.36,4.36,0,0,0-2.06-1.31l-6.87-2a4.39,4.39,0,0,0-5.44,3l-2,6.86a4.38,4.38,0,0,0,3,5.44l6.86,2a4.38,4.38,0,0,0,5.44-3l1.08-3.7.92-3.17A4.34,4.34,0,0,0,311.66,292.89Zm-1.53,4.61-1.36,4.66a3.29,3.29,0,0,1-4.1,2.25L300,303.06a3.31,3.31,0,0,1-2.26-4.1l1.36-4.67a3.32,3.32,0,0,1,4.11-2.26l4.67,1.36A3.32,3.32,0,0,1,310.13,297.5Z"/>
            <path class="cls-2" d="M321.59,250.39l-3.64-1-3.23-.94a4.41,4.41,0,0,0-5.43,3l-2,6.87a4.4,4.4,0,0,0,3,5.44l1.39.41,5.48,1.59a3.84,3.84,0,0,0,.81.15,4.4,4.4,0,0,0,4.63-3.13l2-6.88A4.4,4.4,0,0,0,321.59,250.39Zm.53,5.93L320.76,261a3.29,3.29,0,0,1-2.81,2.36,3.22,3.22,0,0,1-1.3-.1L312,261.87l-.33-.11a3.32,3.32,0,0,1-1.93-4l1.37-4.66a3.1,3.1,0,0,1,.56-1.1,3.3,3.3,0,0,1,3.54-1.16l2.75.81,1.92.55A3.31,3.31,0,0,1,322.12,256.32Z"/>
          </g>
        </g>
      </g>
    </g>
  </g>
</svg>
