<svg id="Layer_1" data-name="Layer 1" xmlns="http://www.w3.org/2000/svg" viewBox="0 0 500 500">
  <defs>
    <style>
      .cls-1, .cls-2 {
        fill: #a2b1ba;
      }

      .cls-1 {
        opacity: 0.19;
      }
    </style>
  </defs>
  <title>as-responses-disabled</title>
  <g>
    <g>
      <circle class="cls-1" cx="249.42" cy="249.78" r="167.19"/>
      <path class="cls-2" d="M249.42,49.78c-110.46,0-200,89.54-200,200s89.54,200,200,200,200-89.53,200-200S359.88,49.78,249.42,49.78Zm0,385.49c-102.46,0-185.5-83-185.5-185.49A185.48,185.48,0,0,1,249.42,64.29c102.44,0,185.49,83,185.49,185.49S351.86,435.27,249.42,435.27Z"/>
    </g>
    <path class="cls-2" d="M315,154.41H283a44.29,44.29,0,0,0-67.09,0h-32a18.79,18.79,0,0,0-18.77,18.77V341.76a18.78,18.78,0,0,0,18.77,18.76H315a18.78,18.78,0,0,0,18.77-18.76V173.18A18.79,18.79,0,0,0,315,154.41Zm-65.55-7.52a36.59,36.59,0,1,1-36.59,36.58A36.63,36.63,0,0,1,249.41,146.89Zm76.46,194.87A10.92,10.92,0,0,1,315,352.67H183.87A10.92,10.92,0,0,1,173,341.76V173.18a10.93,10.93,0,0,1,10.91-10.92h26.5a44.45,44.45,0,1,0,78.09,0H315a10.93,10.93,0,0,1,10.92,10.92V341.76ZM214.1,277.63l-10.3,10.31L198,282.18a3.93,3.93,0,1,0-5.56,5.55l8.54,8.54a3.94,3.94,0,0,0,5.56,0l13.08-13.09a3.93,3.93,0,1,0-5.56-5.55Zm2.31,31.66a3.91,3.91,0,0,0-5.55,0l-4.78,4.79-4.79-4.79a3.93,3.93,0,0,0-5.56,5.55l4.8,4.79-4.8,4.8a3.93,3.93,0,0,0,5.56,5.55l4.79-4.79,4.78,4.79a3.93,3.93,0,0,0,5.56-5.55l-4.79-4.8,4.79-4.79A3.92,3.92,0,0,0,216.41,309.29ZM300.33,285h-61a3.93,3.93,0,0,0,0,7.85h61a3.93,3.93,0,1,0,0-7.85Zm0-30.71h-61a3.93,3.93,0,0,0,0,7.85h61a3.93,3.93,0,1,0,0-7.85Zm0,61.43h-61a3.93,3.93,0,0,0,0,7.85h61a3.93,3.93,0,1,0,0-7.85ZM214.1,246.92l-10.3,10.31L198,251.47a3.93,3.93,0,1,0-5.56,5.55l8.54,8.54a3.94,3.94,0,0,0,5.56,0l13.08-13.09a3.93,3.93,0,0,0-5.56-5.55Zm15.26-59.55h16.12v16.17a3.93,3.93,0,0,0,7.86,0V187.37H269.5a3.93,3.93,0,1,0,0-7.85H253.34V163.41a3.93,3.93,0,0,0-7.86,0v16.11H229.36a3.93,3.93,0,1,0,0,7.85Z"/>
  </g>
</svg>
