<svg id="Layer_1" data-name="Layer 1" xmlns="http://www.w3.org/2000/svg" viewBox="0 0 500 500"><defs><style>.cls-1,.cls-2{fill:#a2b1ba;}.cls-1{opacity:0.19;}</style></defs><title>agency-disabled</title><circle class="cls-1" cx="250" cy="250" r="167.19"/><path class="cls-2" d="M250,50C139.54,50,50,139.54,50,250s89.54,200,200,200,200-89.53,200-200S360.47,50,250,50Zm0,385.49C147.55,435.49,64.51,352.44,64.51,250A185.48,185.48,0,0,1,250,64.51c102.44,0,185.49,83,185.49,185.49S352.44,435.49,250,435.49Z"/><path class="cls-2" d="M372,274.46H347.51V250a3.68,3.68,0,0,0-3.69-3.69H253.68V225.54h24.47a3.69,3.69,0,0,0,3.68-3.69v-56.3a3.69,3.69,0,0,0-3.68-3.69h-56.3a3.7,3.7,0,0,0-3.7,3.69v56.3a3.7,3.7,0,0,0,3.7,3.69H246.3v20.78H156.17a3.68,3.68,0,0,0-3.69,3.69v24.45H128a3.69,3.69,0,0,0-3.69,3.69v56.3a3.69,3.69,0,0,0,3.69,3.69h56.29a3.7,3.7,0,0,0,3.7-3.69v-56.3a3.7,3.7,0,0,0-3.7-3.69H159.86V253.7H246.3v20.76H221.85a3.7,3.7,0,0,0-3.7,3.69v56.3a3.7,3.7,0,0,0,3.7,3.69h56.3a3.69,3.69,0,0,0,3.68-3.69v-56.3a3.69,3.69,0,0,0-3.68-3.69H253.68V253.7h86.45v20.76H315.67a3.7,3.7,0,0,0-3.69,3.69v56.3a3.71,3.71,0,0,0,3.69,3.69H372a3.71,3.71,0,0,0,3.7-3.69v-56.3A3.7,3.7,0,0,0,372,274.46Zm-191.34,7.38v48.92H131.71V281.84Zm93.82,0v48.92H225.54V281.84Zm-48.91-63.68V169.24h48.91v48.92Zm142.74,112.6H319.36V281.84h48.92Z"/></svg>