<svg id="Layer_1" data-name="Layer 1" xmlns="http://www.w3.org/2000/svg" viewBox="0 0 500 500"><defs><style>.cls-1,.cls-2{fill:#2d98d4;}.cls-1{opacity:0.19;}</style></defs><title>agency</title><circle class="cls-1" cx="252.49" cy="247.78" r="167.19"/><path class="cls-2" d="M252.5,47.78c-110.47,0-200,89.54-200,200s89.54,200,200,200,200-89.53,200-200S363,47.78,252.5,47.78Zm0,385.49A185.49,185.49,0,1,1,438,247.78,185.48,185.48,0,0,1,252.49,433.27Z"/><path class="cls-2" d="M374.47,259.76H350V235.31a3.69,3.69,0,0,0-3.69-3.69H256.18V210.85h24.46a3.69,3.69,0,0,0,3.69-3.69v-56.3a3.69,3.69,0,0,0-3.69-3.69H224.35a3.7,3.7,0,0,0-3.7,3.69v56.3a3.7,3.7,0,0,0,3.7,3.69H248.8v20.77H158.67a3.69,3.69,0,0,0-3.69,3.69v24.45H130.52a3.69,3.69,0,0,0-3.69,3.69v56.3a3.69,3.69,0,0,0,3.69,3.69h56.29a3.7,3.7,0,0,0,3.7-3.69v-56.3a3.7,3.7,0,0,0-3.7-3.69H162.36V239H248.8v20.76H224.35a3.7,3.7,0,0,0-3.7,3.69v56.3a3.7,3.7,0,0,0,3.7,3.69h56.29a3.69,3.69,0,0,0,3.69-3.69v-56.3a3.69,3.69,0,0,0-3.69-3.69H256.18V239h86.45v20.76H318.17a3.7,3.7,0,0,0-3.69,3.69v56.3a3.69,3.69,0,0,0,3.69,3.69h56.3a3.69,3.69,0,0,0,3.69-3.69v-56.3A3.7,3.7,0,0,0,374.47,259.76Zm-191.35,7.39v48.91H134.21V267.15Zm93.83,0v48.91H228V267.15ZM228,203.47V154.55H277v48.92ZM370.78,316.06H321.86V267.15h48.92Z"/></svg>