<svg id="Layer_1" data-name="Layer 1" xmlns="http://www.w3.org/2000/svg" viewBox="0 0 500 500"><defs><style>.cls-1,.cls-2{fill:#2d98d4;}.cls-1{opacity:0.19;}</style></defs><title>st-agency</title><circle class="cls-1" cx="252.49" cy="247.78" r="167.19"/><path class="cls-2" d="M252.5,47.78c-110.47,0-200,89.54-200,200s89.54,200,200,200,200-89.53,200-200S363,47.78,252.5,47.78Zm0,385.49A185.49,185.49,0,1,1,438,247.78,185.48,185.48,0,0,1,252.49,433.27Z"/><path class="cls-2" d="M374.47,258.76H351V235.31a4.69,4.69,0,0,0-4.69-4.69H257.18V211.85h23.46a4.68,4.68,0,0,0,4.69-4.69v-56.3a4.68,4.68,0,0,0-4.69-4.69H224.35a4.7,4.7,0,0,0-4.7,4.69v56.3a4.7,4.7,0,0,0,4.7,4.69H247.8v18.77H158.67a4.7,4.7,0,0,0-4.7,4.69v23.45H130.52a4.69,4.69,0,0,0-4.69,4.69v56.3a4.68,4.68,0,0,0,4.69,4.69h56.29a4.69,4.69,0,0,0,4.7-4.69v-56.3a4.7,4.7,0,0,0-4.7-4.69H163.36V240H247.8v18.76H224.35a4.7,4.7,0,0,0-4.7,4.69v56.3a4.69,4.69,0,0,0,4.7,4.69h56.29a4.68,4.68,0,0,0,4.69-4.69v-56.3a4.68,4.68,0,0,0-4.69-4.69H257.18V240h84.45v18.76H318.17a4.69,4.69,0,0,0-4.69,4.69v56.3a4.68,4.68,0,0,0,4.69,4.69h56.3a4.68,4.68,0,0,0,4.69-4.69v-56.3A4.69,4.69,0,0,0,374.47,258.76ZM229,155.55H276v46.92H229ZM182.12,315.06H135.21V268.15h46.91Zm93.83,0H229V268.15H276Zm93.83,0H322.86V268.15h46.92Z"/></svg>