<svg id="Layer_1" data-name="Layer 1" xmlns="http://www.w3.org/2000/svg" viewBox="0 0 500 500">
  <defs>
    <style>
      .cls-1, .cls-2 {
        fill: #2d98d4;
      }

      .cls-1 {
        opacity: 0.19;
      }
    </style>
  </defs>
  <title>ST-Contacts</title>
  <g>
    <circle class="cls-1" cx="253.23" cy="260.27" r="167.19"/>
    <path class="cls-2" d="M253.23,60.27c-110.46,0-200,89.54-200,200s89.54,200,200,200,200-89.53,200-200S363.69,60.27,253.23,60.27Zm0,385.49a185.49,185.49,0,1,1,0-371c102.44,0,185.49,83,185.49,185.49S355.67,445.76,253.23,445.76Z"/>
    <g>
      <path class="cls-2" d="M347,187.19H159.42a4.35,4.35,0,0,0-4.36,4.37V329a4.36,4.36,0,0,0,4.36,4.36H347a4.37,4.37,0,0,0,4.36-4.36V191.56A4.36,4.36,0,0,0,347,187.19Zm-3.14,133.9a4.4,4.4,0,0,1-4.41,4.41H167a4.4,4.4,0,0,1-4.41-4.41V199.43A4.4,4.4,0,0,1,167,195H339.48a4.4,4.4,0,0,1,4.41,4.41Z"/>
      <g>
        <path class="cls-2" d="M237.22,224H191.41a4.36,4.36,0,1,0,0,8.72h45.81a4.36,4.36,0,1,0,0-8.72Z"/>
        <path class="cls-2" d="M230.67,254.49H191.41a4.36,4.36,0,1,0,0,8.72h39.26a4.36,4.36,0,1,0,0-8.72Z"/>
        <path class="cls-2" d="M219.77,285H191.41a4.36,4.36,0,1,0,0,8.72h28.36a4.36,4.36,0,0,0,0-8.72Z"/>
        <path class="cls-2" d="M299.92,262.43a24.77,24.77,0,1,0-36.25,0,37.81,37.81,0,0,0-19.49,32.85,4.37,4.37,0,0,0,8.73,0,29,29,0,0,1,18.92-27,24.63,24.63,0,0,0,19.95,0,28.94,28.94,0,0,1,18.88,27,4.36,4.36,0,0,0,8.72,0A37.78,37.78,0,0,0,299.92,262.43ZM274.79,260a4.39,4.39,0,0,0-1.11-.59,16,16,0,1,1,15.76.27h0a15.91,15.91,0,0,1-14.63.31Z"/>
      </g>
    </g>
  </g>
</svg>
