<svg id="Layer_1" data-name="Layer 1" xmlns="http://www.w3.org/2000/svg" viewBox="0 0 500 500">
  <defs>
    <style>
      .cls-1, .cls-2 {
        fill: #a2b1ba;
      }

      .cls-1 {
        opacity: 0.19;
      }
    </style>
  </defs>
  <title>st-notifications-disabled</title>
  <g>
    <circle class="cls-1" cx="253.97" cy="260.27" r="167.19"/>
    <path class="cls-2" d="M254,60.27c-110.46,0-200,89.54-200,200s89.54,200,200,200,200-89.53,200-200S364.43,60.27,254,60.27Zm0,385.49a185.49,185.49,0,0,1,0-371c102.44,0,185.49,83,185.49,185.49S356.41,445.76,254,445.76Z"/>
    <g>
      <path class="cls-2" d="M361.08,214.34a45.59,45.59,0,0,0-28.84-10.56,5.76,5.76,0,0,0-.06,11.52c.95,0,1.88,0,2.83.11.52,0,1.06.09,1.57.14l.11,0h0l.35,0a39.17,39.17,0,0,1,5.7,1.39c.46.15,2.34.52,2.54.93,0,0-1.1-.49-.49-.2l.7.31c.46.21.92.44,1.38.67a39.67,39.67,0,0,1,4.89,2.95c.29.2.93.49,1.07.78,0,0-.92-.75-.43-.32.2.18.41.32.58.5.72.6,1.45,1.24,2.11,1.88s1.24,1.24,1.85,1.91c.35.37.67.75,1,1.12a4.8,4.8,0,0,0,.37.44c.42.49.4.34.23.14a15,15,0,0,1,1.22,1.91c.55.84,1.07,1.71,1.56,2.6s.84,1.6,1.22,2.41c.11.25.48,1.44.33.79l.33.86a39.92,39.92,0,0,1,1.59,5.61c.09.46.18.89.26,1.36l0,.15v.08c.09,1,.2,2,.23,3a47.36,47.36,0,0,1-.2,6.07v.09s0,.07,0,.14c-.08.47-.14.9-.23,1.36-.2,1-.43,2.06-.72,3s-.52,1.74-.84,2.58c-.14.42-.34.82-.49,1.25-.05.13-.11.26-.18.4a39.13,39.13,0,0,1-2.75,5c-.47.73-1,1.41-1.49,2.11l-.18.23c-.35.44-.73.87-1.1,1.31a40.49,40.49,0,0,1-3.94,3.81c-.2.18-.4.32-.58.5-.49.4-.11.18.14,0a11.1,11.1,0,0,1-1.24.85c-.89.6-1.79,1.18-2.71,1.73s-1.8,1-2.72,1.42c-.22.1-.5.28-.78.42a.89.89,0,0,0-.29.07l-.9.35a43,43,0,0,1-6.19,1.71c-.35,0-1.28.4-1.56.26.05,0,1.47-.18.34-.06l-.81.08c-1.21.12-2.43.18-3.64.18a5.79,5.79,0,1,0,0,11.57,44.65,44.65,0,0,0,25.57-8,46.21,46.21,0,0,0,16.58-21.64C380.72,246.48,375.2,225.94,361.08,214.34Z"/>
      <path class="cls-2" d="M315.46,177.05s0-.06,0-.1a5.17,5.17,0,0,0-.77-2.79c-.06-.09-.13-.16-.19-.24a5.61,5.61,0,0,0-4.45-2.63H310c-.11,0-.21,0-.32,0l-.19,0a5,5,0,0,0-2.73.78c-6.92,4.46-13.8,8.94-20.72,13.4l-33,21.35-6.31,4.08H222.59a4.87,4.87,0,0,0-.55.06H178c-8.27,0-16.46,2-23.23,6.94a37.77,37.77,0,0,0,21.93,68.56c.67,0,1.35,0,2,0q-1.94,11.44-3.87,22.86c-2,11.6-4,23.17-5.91,34.77a12.93,12.93,0,0,0-.29,2.49,9.33,9.33,0,0,0,9.18,8.77c2.34,0,4.71,0,7,0h10.85c.81,0,1.62,0,2.4,0,4.2-.12,8.22-2.93,9-7.21,0-.24.15-.92.21-1.31s.16-1,.25-1.44c.38-2.17.76-4.36,1.1-6.53,1.19-6.95,2.35-13.89,3.53-20.83q2.7-15.78,5.36-31.57h5c.19,0,.37,0,.55,0h24L266.56,299q16.37,10.59,32.7,21.15c2.48,1.62,5,3.24,7.49,4.86,3.73,2.43,8.71-.75,8.71-5V194.67c0-5.79.14-11.57,0-17.36ZM177.92,343.72c-.1,0-.46-.11,0,0Zm2.12,4a.25.25,0,0,1,0-.12c.08-.33.13-.68.2-1A4,4,0,0,1,180,347.68ZM202.22,308l-6,35.35c0,.12-.05.24-.07.36l-.34,0H180.77c.37-2.21.69-4.44,1.06-6.63,1.16-6.86,2.31-13.71,3.5-20.57q2.55-15,5.11-30.06h15.45Q204.06,297.23,202.22,308Zm14.56-69.72v36.56H178.85c-1,0-2.08,0-3.13,0a22.16,22.16,0,0,1-2.53-.06s-.1-.09-.33-.14-.52-.09-.78-.14c-.64-.12-1.27-.26-1.91-.44-1.07-.29-2.11-.6-3.15-1-.2-.07-.42-.17-.62-.25-.45-.22-.9-.42-1.35-.65-1-.49-1.91-1-2.84-1.62-.49-.32-1-.63-1.41-1l-.23-.16-.27-.25c-.81-.69-1.62-1.41-2.4-2.2-.34-.37-.69-.72-1-1.09s-1.21-1.1-1.24-1.45c0,.06.84,1.13.2.26l-.43-.61c-.29-.4-.58-.84-.84-1.27-.61-1-1.19-2-1.71-3-.23-.46-.4-1-.64-1.39.76,1.33,0,0-.14-.4a27,27,0,0,1-1-3.36l-.35-1.53c-.06-.26-.09-.52-.14-.78l0-.07c-.1-1.06-.19-2.14-.22-3.2a37.71,37.71,0,0,1,.21-4v0c.06-.32.1-.64.17-1,.14-.67.29-1.36.46-2s.32-1.19.52-1.77a7.46,7.46,0,0,1,.64-1.82c-.14.27-.42.95,0,.06l.38-.81c.31-.67.66-1.34,1-2,.61-1,1.27-2,2-3a.81.81,0,0,0,.1-.18c.13-.15.29-.3.39-.4.49-.58,1-1.13,1.5-1.65.84-.86,1.74-1.65,2.63-2.43l.22-.19.39-.24c.61-.43,1.25-.84,1.88-1.24A29.33,29.33,0,0,1,166,224.7s.43-.19.66-.29l.27-.09c.64-.23,1.3-.46,1.94-.66a32.17,32.17,0,0,1,3.82-.9h.08c-.09,0,.54-.05.7-.08.78-.08,1.56-.11,2.37-.14h40.94Zm87.08-46.93v111c0,2.29,0,4.6-.07,6.92l-1.93-1.25q-11.42-7.38-22.86-14.79l-21-13.62c-1.82-1.19-3.64-2.38-5.47-3.53a7.36,7.36,0,0,0-2.11-1.07,14.06,14.06,0,0,0-3.67-.21H228.44V222.47h15.79c2.43,0,5.18.35,7.38-.95,1.53-.9,3-1.94,4.48-2.9l20-12.93q11.69-7.55,23.32-15.1,2.22-1.44,4.46-2.85Z"/>
      <path class="cls-2" d="M333.65,257a5.79,5.79,0,0,0,0,11.57,20.11,20.11,0,1,0,0-40.21,5.77,5.77,0,1,0,0,11.54c.43,0,.88.05,1.32.06l.33.06a8,8,0,0,1,1.13.32l.55.17c.41.15.26.09-.49-.23.49-.12,1.91,1,2.34,1.3h0l0,0a10.34,10.34,0,0,1,.84.78c.26.26.52.55.78.84h0a1.44,1.44,0,0,0,.11.19c.23.38,1.3,1.71,1.18,2.17-.32-.78-.37-.89-.17-.31,0,.11.09.23.12.37a10,10,0,0,1,.34,1.33c0,.11,0,.19.06.26,0,.4.06.79.06,1.19s0,.81-.06,1.21v0c-.12.44-.2.9-.32,1.33-.06.18-.11.38-.17.55-.23.58-.18.49.17-.32.12.44-.87,1.68-1.1,2l-.2.29c-.28.28-.52.61-.81.9s-.55.52-.84.78l0,0c-.43.26-1.85,1.44-2.34,1.3.23-.09.43-.2.66-.29l-.72.26c-.37.11-.75.23-1.13.32a7.09,7.09,0,0,1-.78.14l.75-.08C335.13,257.13,333.89,257,333.65,257Z"/>
    </g>
  </g>
</svg>
