<svg id="Layer_1" data-name="Layer 1" xmlns="http://www.w3.org/2000/svg" viewBox="0 0 500 500"><defs><style>.cls-1,.cls-2{fill:#a2b1ba;}.cls-1{opacity:0.19;}</style></defs><title>notifications-disabled</title><circle class="cls-1" cx="250" cy="250" r="167.19"/><path class="cls-2" d="M250,50C139.54,50,50,139.54,50,250s89.54,200,200,200,200-89.53,200-200S360.47,50,250,50Zm0,385.49C147.55,435.49,64.51,352.44,64.51,250A185.48,185.48,0,0,1,250,64.51c102.44,0,185.49,83,185.49,185.49S352.44,435.49,250,435.49Z"/><path class="cls-2" d="M338,203.44l.08,0,.26.11Z"/><path class="cls-2" d="M353.42,201.25a44.69,44.69,0,0,0-13.15-7.57A43.45,43.45,0,0,0,325.52,191a4.42,4.42,0,0,0-3.13,1.39,3.8,3.8,0,0,0-1.15,2.83,4.29,4.29,0,0,0,4.24,4.3c1.1,0,2,0,3,.12.49,0,1.06.08,1.6.14l.51.07a39.76,39.76,0,0,1,5.95,1.45l.37.09.26.07,0-.09.51.24a4.58,4.58,0,0,1,1.84.84c.4.18.86.41,1.32.64a41.75,41.75,0,0,1,5.08,3.06l.21.13a3.52,3.52,0,0,1,1.21,1c.78.65,1.48,1.28,2.08,1.85s1.21,1.21,1.92,2c.36.39.69.78,1,1.17.11.14.19.24.29.35l.09.09.11.13.06,0a8.84,8.84,0,0,1,1.11,1.65,5.17,5.17,0,0,0,.27.46c.57.88,1.12,1.79,1.63,2.71.42.76.84,1.6,1.26,2.5.06.13.15.39.24.64,0,.08.06.17.08.24l0,0,.33.86a42.56,42.56,0,0,1,1.67,5.86l.32,1.76.07.78c.07.75.14,1.53.16,2.32a50.53,50.53,0,0,1-.2,6.25l-.05.38c0,.22-.08.43-.11.64s-.08.48-.13.72c-.25,1.3-.49,2.3-.75,3.18s-.54,1.79-.88,2.69c-.06.19-.16.43-.26.68s-.15.34-.21.52l0,.12c-.07.16-.14.31-.22.47a39.29,39.29,0,0,1-2.83,5.15c-.29.44-.6.87-.9,1.29s-.41.56-.61.85l-.25.31c-.36.45-.74.9-1.13,1.34a41,41,0,0,1-4.1,4l-.25.21-.18.14.05.05a7.06,7.06,0,0,1-1.17.84l-.25.15c-1,.7-1.93,1.28-2.81,1.8s-1.84,1-2.85,1.49l-.29.16-.43.23-.31.16h-.2l-.82.31a43,43,0,0,1-6.46,1.79l-.31.08a3.91,3.91,0,0,1-1.7.21l-.15,0c-1.26.12-2.53.18-3.79.18a4.57,4.57,0,0,0-3.19,1.45,3.78,3.78,0,0,0-1.1,2.76,4.41,4.41,0,0,0,4.23,4.36h0a43.13,43.13,0,0,0,24.72-7.76,44.88,44.88,0,0,0,16-20.94C372.35,232.4,367,212.38,353.42,201.25Z"/><path class="cls-2" d="M304.87,163.66a3.67,3.67,0,0,0-.54-2,.8.8,0,0,1-.13-.16,4.15,4.15,0,0,0-3.29-2h-.27l-.23,0a3.48,3.48,0,0,0-1.92.54c-3.47,2.23-6.91,4.47-10.36,6.7l-10.36,6.7-33,21.35L241,197.21l-2.9,1.87H213.51l-.15,0-.4,0H169c-8.79,0-16.3,2.24-22.35,6.65a36.27,36.27,0,0,0,21,65.85h3.8l-4.18,24.6-2.07,12.21q-1.94,11.28-3.83,22.56l0,.28a9.58,9.58,0,0,0-.22,1.91,7.81,7.81,0,0,0,7.72,7.32c.18,0,.88,0,1.44,0v0c1.07,0,2.16,0,3.21,0h14c.52,0,1,0,1.52,0,3.25-.09,6.88-2.17,7.58-6,0-.21.14-.88.2-1.26l.08-.47c.06-.36.12-.7.18-1,.37-2.13.75-4.32,1.09-6.48.6-3.49,1.18-7,1.77-10.43s1.17-6.94,1.76-10.42q1.53-8.91,3-17.83l2.34-13.73.21-1.25h6.44l.4,0h24.39l29.15,18.86L291,305.53l7.5,4.86a3.79,3.79,0,0,0,4,.07,4.44,4.44,0,0,0,2.4-3.82V181.35c0-1.93,0-3.87,0-5.8,0-3.78.06-7.69,0-11.52ZM197.31,279.16Q196,287,194.62,294.92l-6.24,36.88-1.19.08-.44,0H170c.14-1,.58-4.29.69-5,.18-1.12.35-2.24.54-3.36,1.16-6.86,2.31-13.72,3.5-20.57l5.32-31.31h18.49ZM209.2,263H167.69l-1.09,0h-.7a12.35,12.35,0,0,1-2-.08l-.88-.12,0-.12-.31-.06c-.61-.11-1.3-.27-2-.45-1.18-.32-2.25-.65-3.26-1A4.08,4.08,0,0,1,157,261l-.87-.39-.84-.41c-1-.49-2-1.06-3-1.68-.54-.36-1-.69-1.52-1.06l-.25-.17-.2-.18a.52.52,0,0,0-.13-.12c-1-.85-1.77-1.57-2.48-2.27l-.54-.58-.54-.57-.23-.23a5,5,0,0,1-1.29-1.6l-.07-.11a16.27,16.27,0,0,1-.91-1.37c-.5-.81-1.16-1.92-1.76-3.11-.12-.24-.23-.48-.33-.73s-.18-.42-.29-.62l0,0c-.09-.2-.19-.4-.24-.53a29.18,29.18,0,0,1-1.08-3.58l-.35-1.55a3.55,3.55,0,0,1-.09-.47l-.06-.31,0-.24c-.13-1.3-.2-2.35-.23-3.31a35.87,35.87,0,0,1,.21-4.07l.08-.58c0-.22.08-.45.13-.68l.06-.26c.12-.6.26-1.21.41-1.8s.36-1.31.56-1.88l.07-.29a6.06,6.06,0,0,1,.74-1.89l.08-.15.17-.36c.34-.73.71-1.43,1.1-2.13.69-1.19,1.42-2.25,2.05-3.13l.2-.3c.13-.16.29-.32.41-.44.54-.63,1.05-1.19,1.55-1.69.87-.89,1.8-1.71,2.71-2.5l.36-.3.35-.22.09-.06c.53-.38,1.17-.79,1.82-1.2a32.78,32.78,0,0,1,3.37-1.82l.51-.22.22-.1.38-.13c.64-.23,1.32-.47,2-.67a35.26,35.26,0,0,1,4-.95h.12s.81,0,.18,0l.53-.06c.89-.1,1.73-.13,2.54-.16H209.2Zm87.08,26.05c0,1.95,0,3.91-.06,5.88l0,3.78L292,296l-8.62-5.58c-4.73-3.06-9.48-6.14-14.23-9.2l-10.52-6.81-10.51-6.81c-1.86-1.21-3.66-2.39-5.46-3.53l-.24-.15a5.49,5.49,0,0,0-1.47-.74,9.8,9.8,0,0,0-2.48-.16H217.86V207.65h17.29l1.31,0c1.89.05,3.85.09,5.3-.77.92-.53,1.79-1.11,2.71-1.72.58-.39,1.15-.77,1.74-1.14l10-6.46,10-6.47L289.5,176l3.74-2.39,3-1.94Z"/><path class="cls-2" d="M336.92,235.64l-.05.22c-.05.2-.1.4-.14.6l-.12.51a4.53,4.53,0,0,1-1.22,2.72l-.14.2-.2.29-.19.24c-.12.11-.22.24-.33.36s-.31.36-.48.53-.56.53-.85.79l-.31.24-.36.26a5.17,5.17,0,0,1-2.72,1.27l-.5.14a4,4,0,0,1-2.21.29h-.16a4.6,4.6,0,0,0-3.18,1.45,3.75,3.75,0,0,0-1.1,2.77,4.36,4.36,0,0,0,4.26,4.35,18.61,18.61,0,1,0,0-37.21,4.48,4.48,0,0,0-3.11,1.39,3.83,3.83,0,0,0-1.15,2.83,4.38,4.38,0,0,0,4.3,4.32l.79,0,.53,0,.22,0,.41.07c.28.07.56.13.86.22.83-.06,1.66.49,2.76,1.27l.06,0h.17l.6.6a8.31,8.31,0,0,1,.75.71c.2.2.46.48.72.77l.2.24.15.28a3,3,0,0,1,.19.26,4.65,4.65,0,0,1,1.21,2.7c.1.36.19.71.26,1.08l.08.52a4.15,4.15,0,0,0,0,.49c0,.23,0,.47,0,.71,0,.42,0,.84-.06,1.26Z"/></svg>