<svg id="Layer_1" data-name="Layer 1" xmlns="http://www.w3.org/2000/svg" viewBox="0 0 500 500"><defs><style>.cls-1,.cls-2{fill:#2d98d4;}.cls-1{opacity:0.19;}</style></defs><title>roles</title><circle class="cls-1" cx="243.9" cy="250.44" r="167.19"/><path class="cls-2" d="M243.9,50.44c-110.46,0-200,89.54-200,200s89.54,200,200,200,200-89.54,200-200S354.36,50.44,243.9,50.44Zm0,385.49c-102.45,0-185.49-83.05-185.49-185.49A185.48,185.48,0,0,1,243.9,65c102.44,0,185.49,83,185.49,185.49S346.34,435.93,243.9,435.93Z"/><path class="cls-2" d="M248.58,244.82l3.47-3.75a44.42,44.42,0,1,0-65,.05l3.49,3.75-4.48,2.48a70.08,70.08,0,0,0-35.33,51,68.75,68.75,0,0,0-.69,9.66,4.53,4.53,0,0,0,4.52,4.51,4.42,4.42,0,0,0,4.09-2.63,4.2,4.2,0,0,0,.43-1.88,60.56,60.56,0,0,1,39.58-56.56l1.51-.55,1.47.63a44.24,44.24,0,0,0,17.86,3.76,43.54,43.54,0,0,0,17.91-3.8l1.48-.65,1.52.55a59.37,59.37,0,0,1,11.84,5.94c1.85-2.28,3.82-4.62,6-6.87-1.72-1.17-3.46-2.24-5.2-3.19Zm-11.69-3.09-.77.76h-.67a35.1,35.1,0,0,1-31.33.22l-.35-.16-.31-.24a4.77,4.77,0,0,0-1.11-.6l-.36-.13-.33-.19a35.33,35.33,0,1,1,35.23.34Z"/><path class="cls-2" d="M288.35,276.49h0A14.87,14.87,0,1,0,307.56,285,14.9,14.9,0,0,0,288.34,276.49Zm9.12,23.43a10.27,10.27,0,1,1,5.81-13.29A10.31,10.31,0,0,1,297.47,299.92Z"/><path class="cls-2" d="M327,280.19a34.63,34.63,0,0,0-1.77-4.78c6.32-7.67,6-8.16,5.53-8.9a43.79,43.79,0,0,0-10.8-11.5,1,1,0,0,0-.39-.19l0,0-.59-.44a1.32,1.32,0,0,0-1.2-.11c-.25.1-1,.4-7.15,5.37a36,36,0,0,0-5.46-2.46c-.45-9.4-.66-9.45-1.64-9.67a43.45,43.45,0,0,0-16.58-.54.59.59,0,0,0-.2.05h0l-.34.06a.71.71,0,0,0-.23.06c-.7.28-1.1.43-2.21,9.59-.89.27-1.76.57-2.59.89l-.48.19c-.83.32-1.68.69-2.51,1.09-7-6-7.4-5.85-8.12-5.57a1.13,1.13,0,0,0-.22.11l-.28.19,0,0a.77.77,0,0,0-.18.1,43.43,43.43,0,0,0-11.87,11.61c-.58.83-.69,1,5.34,8.22a34,34,0,0,0-2.37,5.51c-7.87.48-8.64.78-8.9.88a1.22,1.22,0,0,0-.8.89c-.05.24-.1.48-.14.73v.07a.73.73,0,0,0-.14.33,43.71,43.71,0,0,0-.2,15.8c.16.86.26,1.45,10.1,2.83a35.38,35.38,0,0,0,1.92,4.72c-6.45,7.45-6.25,7.77-5.74,8.6l.1.15a1.05,1.05,0,0,0,.15.32,43.46,43.46,0,0,0,11,11.57,1.4,1.4,0,0,0,1.41.11c1.47-.57,6.2-4,8.1-5.45a32.73,32.73,0,0,0,5.07,2.13c.58,10.18.82,10.31,1.78,10.52a1,1,0,0,0,.27.09,43.37,43.37,0,0,0,16.49.36,1,1,0,0,0,.48-.2,1.28,1.28,0,0,0,.41-.46.51.51,0,0,0,.09-.18,2,2,0,0,0,.08-.22,91.13,91.13,0,0,0,1.5-9.74q1.14-.35,2.25-.78l.45-.18c.75-.29,1.49-.6,2.19-.93a94.55,94.55,0,0,0,7.7,6.16l.23.12s.08,0,.13.05a1.29,1.29,0,0,0,.64.07l.28-.07.21-.11a43.28,43.28,0,0,0,11.89-11.39.89.89,0,0,0,.15-.27c.58-.82.66-1.08-5.79-8.95a35.48,35.48,0,0,0,2.31-5c2.34-.24,8.16-.88,9.63-1.45a1.38,1.38,0,0,0,1-1,43.49,43.49,0,0,0,.3-16,1.26,1.26,0,0,0-.1-.33l0-.2C336.82,281.7,336.76,281.32,327,280.19Zm4.46,17.31c-1.47.36-6,.9-8.66,1.17a1,1,0,0,0-.91.71,29.3,29.3,0,0,1-2.54,5.52,1.05,1.05,0,0,0,.09,1.22c2.56,3.11,4.63,5.77,5.34,6.8a38.14,38.14,0,0,1-9.62,9.26c-1.31-.89-4.83-3.85-6.94-5.67a1,1,0,0,0-1.08-.2l-.09,0c-.8.4-1.63.76-2.49,1.09l-.11.05-.09.05-.11,0-.1,0a25.08,25.08,0,0,1-2.57.87,1.1,1.1,0,0,0-.76.92c-.32,2.72-.9,7.2-1.28,8.86a37.88,37.88,0,0,1-13.34-.32c-.18-1.22-.44-4.54-.67-8.62a1,1,0,0,0-.75-1,29.71,29.71,0,0,1-5.61-2.35,1.07,1.07,0,0,0-1.14.08c-2.19,1.63-5.83,4.27-7.18,5a38.47,38.47,0,0,1-9-9.54.66.66,0,0,0,0-.15c.59-.87,2.32-3,5.26-6.42a1.06,1.06,0,0,0,.13-1.19A30.37,30.37,0,0,1,265,298.5a1.08,1.08,0,0,0-.87-.75,83,83,0,0,1-8.23-1.45,38,38,0,0,1,.19-13,1.28,1.28,0,0,0,.14-.34l.06-.3c1-.15,3.66-.39,7.81-.63a1.08,1.08,0,0,0,1-.75,29.88,29.88,0,0,1,2.57-6,1.05,1.05,0,0,0-.1-1.21c-2-2.36-4.11-5-4.88-6.1a37.91,37.91,0,0,1,9.8-9.48l.09,0c1,.67,3.43,2.65,6.16,5a1.05,1.05,0,0,0,1.18.15,26.89,26.89,0,0,1,2.76-1.24l.43-.17a27,27,0,0,1,2.88-.95,1.09,1.09,0,0,0,.77-.91c.37-3,.88-6.58,1.17-7.83l.09,0a38.08,38.08,0,0,1,13.63.36c.17,1.32.38,4.73.52,7.8a1.09,1.09,0,0,0,.75,1,29.6,29.6,0,0,1,6,2.68,1,1,0,0,0,1.21-.1c3.25-2.63,5.33-4.24,6.19-4.81l.25.18a1.11,1.11,0,0,0,.31.15,37.45,37.45,0,0,1,8.93,9.44,83,83,0,0,1-5.08,6.63,1.05,1.05,0,0,0-.13,1.14,30,30,0,0,1,2,5.36,1.08,1.08,0,0,0,.91.78c4.45.5,7.19.94,8.21,1.17a1,1,0,0,0,.07.15A38.16,38.16,0,0,1,331.41,297.5Z"/><path class="cls-2" d="M288.35,276.49h0A14.87,14.87,0,1,0,307.56,285,14.9,14.9,0,0,0,288.34,276.49Zm9.12,23.43a10.27,10.27,0,1,1,5.81-13.29A10.31,10.31,0,0,1,297.47,299.92Z"/><path class="cls-2" d="M288.35,276.49h0A14.87,14.87,0,1,0,307.56,285,14.9,14.9,0,0,0,288.34,276.49Zm9.12,23.43a10.27,10.27,0,1,1,5.81-13.29A10.31,10.31,0,0,1,297.47,299.92Z"/></svg>