<svg id="Layer_1" data-name="Layer 1" xmlns="http://www.w3.org/2000/svg" viewBox="0 0 500 500"><defs><style>.cls-1,.cls-2{fill:#2d98d4;}.cls-1{opacity:0.19;}</style></defs><title>st-roles</title><circle class="cls-1" cx="251.71" cy="247.52" r="167.19"/><path class="cls-2" d="M251.72,47.52c-110.47,0-200,89.54-200,200s89.54,200,200,200,200-89.53,200-200S362.18,47.52,251.72,47.52Zm0,385.49A185.49,185.49,0,1,1,437.2,247.52,185.48,185.48,0,0,1,251.71,433Z"/><path class="cls-2" d="M248.88,254.26a55.58,55.58,0,0,1,14,7.6,100.86,100.86,0,0,1,11.37-12.72,71.28,71.28,0,0,0-9.45-6.26,48.43,48.43,0,1,0-70.84.05,74.1,74.1,0,0,0-37.35,54,72.32,72.32,0,0,0-.73,10.22,8.51,8.51,0,0,0,16.26,3.53,8.23,8.23,0,0,0,.78-3.53,56.69,56.69,0,0,1,37-52.8,48.59,48.59,0,0,0,19.46,4.09A47.8,47.8,0,0,0,248.88,254.26ZM213.5,237a31.34,31.34,0,1,1,30.81.53s0,0-.05,0a31,31,0,0,1-14.92,3.78,31.39,31.39,0,0,1-13.67-3.17A8.29,8.29,0,0,0,213.5,237Z"/><path class="cls-2" d="M298.16,275.57h0a14.87,14.87,0,1,0,19.23,8.47A14.9,14.9,0,0,0,298.15,275.58ZM307.28,299a10.27,10.27,0,1,1,5.81-13.28A10.28,10.28,0,0,1,307.28,299Z"/><path class="cls-2" d="M336.76,279.28A33.7,33.7,0,0,0,335,274.5c6.32-7.68,6-8.17,5.53-8.91a43.59,43.59,0,0,0-10.8-11.49.93.93,0,0,0-.38-.2l0,0-.59-.43a1.29,1.29,0,0,0-1.2-.11c-.25.1-1,.4-7.15,5.37a34.61,34.61,0,0,0-5.46-2.46c-.44-9.4-.65-9.45-1.64-9.67a43.25,43.25,0,0,0-16.58-.54.46.46,0,0,0-.2.05h0l-.34,0a1.19,1.19,0,0,0-.23.07c-.7.27-1.1.43-2.21,9.59-.89.26-1.75.56-2.59.89l-.48.18c-.83.33-1.68.69-2.51,1.09-7-6-7.4-5.84-8.12-5.56a.84.84,0,0,0-.21.11l-.29.19,0,0a.76.76,0,0,0-.18.09,43.46,43.46,0,0,0-11.87,11.62c-.57.82-.69,1,5.34,8.22a34.53,34.53,0,0,0-2.37,5.51c-7.87.47-8.64.77-8.89.87a1.27,1.27,0,0,0-.81.89c-.05.25-.09.49-.14.73v.07a.82.82,0,0,0-.14.34,43.94,43.94,0,0,0-.2,15.8c.16.86.26,1.45,10.1,2.82a34.33,34.33,0,0,0,1.92,4.72c-6.45,7.46-6.25,7.78-5.73,8.6l.09.16a1.48,1.48,0,0,0,.15.31,43.53,43.53,0,0,0,11,11.58,1.4,1.4,0,0,0,1.41.1c1.47-.57,6.19-4,8.09-5.45a33.78,33.78,0,0,0,5.07,2.14c.58,10.18.82,10.3,1.79,10.52a1.34,1.34,0,0,0,.26.09,43.57,43.57,0,0,0,16.49.36,1.16,1.16,0,0,0,.49-.2,1.35,1.35,0,0,0,.4-.47.47.47,0,0,0,.09-.17c0-.07.06-.17.08-.23a93.36,93.36,0,0,0,1.51-9.73c.75-.23,1.51-.5,2.24-.78l.46-.18c.74-.29,1.48-.6,2.19-.93a94.7,94.7,0,0,0,7.69,6.15,1.71,1.71,0,0,0,.23.12l.13.05a1.34,1.34,0,0,0,.65.07,1.43,1.43,0,0,0,.28-.07l.2-.1a43.32,43.32,0,0,0,11.89-11.4,1,1,0,0,0,.15-.26c.58-.83.66-1.09-5.79-9a35,35,0,0,0,2.31-5c2.34-.23,8.17-.87,9.63-1.44a1.39,1.39,0,0,0,1-1,43.32,43.32,0,0,0,.3-16,1,1,0,0,0-.1-.33l0-.19C346.64,280.78,346.57,280.41,336.76,279.28Zm4.46,17.3c-1.47.37-6,.91-8.66,1.17a1.09,1.09,0,0,0-.91.71,28.73,28.73,0,0,1-2.54,5.52,1.07,1.07,0,0,0,.09,1.22c2.56,3.11,4.63,5.78,5.34,6.81a37.94,37.94,0,0,1-9.62,9.25c-1.31-.89-4.83-3.85-6.93-5.67a1.06,1.06,0,0,0-1.09-.19l-.09,0c-.79.4-1.63.76-2.48,1.1l-.12,0-.09.05-.11,0-.1,0c-.85.33-1.71.63-2.57.87a1.1,1.1,0,0,0-.76.91c-.32,2.73-.9,7.21-1.28,8.87A38.36,38.36,0,0,1,296,327c-.18-1.23-.44-4.55-.66-8.62a1.05,1.05,0,0,0-.76-1,29.1,29.1,0,0,1-5.61-2.36,1.07,1.07,0,0,0-1.14.09c-2.19,1.63-5.83,4.26-7.18,5a38.13,38.13,0,0,1-9-9.54.88.88,0,0,0-.05-.15c.59-.87,2.32-3,5.26-6.41a1.1,1.1,0,0,0,.14-1.2,29.65,29.65,0,0,1-2.17-5.28,1.07,1.07,0,0,0-.87-.75,80.07,80.07,0,0,1-8.23-1.45,38.24,38.24,0,0,1,.19-13,1.06,1.06,0,0,0,.14-.33l.06-.31c1.05-.15,3.66-.38,7.82-.63a1.05,1.05,0,0,0,1-.74,29.12,29.12,0,0,1,2.58-6,1.09,1.09,0,0,0-.11-1.22c-2-2.36-4.11-5-4.88-6.1a38.08,38.08,0,0,1,9.81-9.47l.08,0c1,.67,3.43,2.65,6.16,5a1.07,1.07,0,0,0,1.18.14,29.24,29.24,0,0,1,2.76-1.24l.44-.17a28.37,28.37,0,0,1,2.87-.95,1,1,0,0,0,.77-.9c.37-3,.88-6.58,1.17-7.84l.09,0a37.86,37.86,0,0,1,13.63.36c.17,1.32.38,4.72.52,7.79a1.11,1.11,0,0,0,.75,1,29.6,29.6,0,0,1,6,2.68,1.09,1.09,0,0,0,1.22-.1c3.24-2.64,5.32-4.24,6.18-4.82l.25.18a.86.86,0,0,0,.32.15,37.92,37.92,0,0,1,8.92,9.44,81.17,81.17,0,0,1-5.08,6.63,1.05,1.05,0,0,0-.13,1.14,31.16,31.16,0,0,1,2,5.36,1.08,1.08,0,0,0,.91.79c4.44.5,7.19.93,8.2,1.16a.69.69,0,0,0,.07.15A38.16,38.16,0,0,1,341.22,296.58Z"/><path class="cls-2" d="M298.16,275.57h0a14.87,14.87,0,1,0,19.23,8.47A14.9,14.9,0,0,0,298.15,275.58ZM307.28,299a10.27,10.27,0,1,1,5.81-13.28A10.28,10.28,0,0,1,307.28,299Z"/><path class="cls-2" d="M298.16,275.57h0a14.87,14.87,0,1,0,19.23,8.47A14.9,14.9,0,0,0,298.15,275.58ZM307.28,299a10.27,10.27,0,1,1,5.81-13.28A10.28,10.28,0,0,1,307.28,299Z"/></svg>