<svg id="Layer_1" data-name="Layer 1" xmlns="http://www.w3.org/2000/svg" viewBox="0 0 500 500">
  <defs>
    <style>
      .cls-1, .cls-2 {
        fill: #a2b1ba;
      }

      .cls-1 {
        opacity: 0.19;
      }
    </style>
  </defs>
  <title>st-roles-disabled</title>
  <g>
    <circle class="cls-1" cx="253.6" cy="260.27" r="167.19"/>
    <path class="cls-2" d="M253.6,60.27c-110.46,0-200,89.54-200,200s89.54,200,200,200,200-89.53,200-200S364.06,60.27,253.6,60.27Zm0,385.49a185.49,185.49,0,0,1,0-371c102.44,0,185.49,83,185.49,185.49S356,445.76,253.6,445.76Z"/>
    <path class="cls-2" d="M375.57,271.25H352.11V247.79a4.68,4.68,0,0,0-4.69-4.69H258.29V224.34h23.45a4.69,4.69,0,0,0,4.7-4.69v-56.3a4.69,4.69,0,0,0-4.7-4.69H225.45a4.69,4.69,0,0,0-4.69,4.69v56.3a4.69,4.69,0,0,0,4.69,4.69H248.9V243.1H159.77a4.69,4.69,0,0,0-4.69,4.69v23.46H131.62a4.69,4.69,0,0,0-4.69,4.69v56.3a4.69,4.69,0,0,0,4.69,4.69h56.3a4.69,4.69,0,0,0,4.69-4.69v-56.3a4.69,4.69,0,0,0-4.69-4.69H164.46V252.49H248.9v18.76H225.45a4.69,4.69,0,0,0-4.69,4.69v56.3a4.69,4.69,0,0,0,4.69,4.69h56.29a4.69,4.69,0,0,0,4.7-4.69v-56.3a4.69,4.69,0,0,0-4.7-4.69H258.29V252.49h84.44v18.76H319.28a4.69,4.69,0,0,0-4.7,4.69v56.3a4.69,4.69,0,0,0,4.7,4.69h56.29a4.68,4.68,0,0,0,4.69-4.69v-56.3A4.68,4.68,0,0,0,375.57,271.25ZM230.14,168h46.91V215H230.14ZM183.23,327.55H136.31V280.63h46.92Zm93.82,0H230.14V280.63h46.91Zm93.83,0H324V280.63h46.91Z"/>
  </g>
</svg>
