<svg id="Layer_1" data-name="Layer 1" xmlns="http://www.w3.org/2000/svg" viewBox="0 0 500 500">
  <defs>
    <style>
      .cls-1, .cls-2 {
        fill: #a2b1ba;
      }

      .cls-1 {
        opacity: 0.19;
      }
    </style>
  </defs>
  <title>al-actions-disabled</title>
  <g>
    <g>
      <circle class="cls-1" cx="248.73" cy="251.74" r="167.19"/>
      <path class="cls-2" d="M248.73,51.74c-110.46,0-200,89.54-200,200s89.54,200,200,200,200-89.54,200-200S359.19,51.74,248.73,51.74Zm0,385.49c-102.45,0-185.49-83.05-185.49-185.49A185.48,185.48,0,0,1,248.73,66.25c102.44,0,185.49,83,185.49,185.49S351.17,437.23,248.73,437.23Z"/>
    </g>
    <path class="cls-2" d="M149.3,168.26a19.64,19.64,0,0,0,19.64,19.64H209.2v19.15a12.28,12.28,0,0,0,12.28,12.28h46.64a2.46,2.46,0,0,1,2.46,2.46v12.76H230.31a19.64,19.64,0,0,0-19.64,19.64V264a19.64,19.64,0,0,0,19.64,19.64h36.58v31.92H230.31a19.64,19.64,0,0,0-19.64,19.64V345a19.64,19.64,0,0,0,19.64,19.64h98.21A19.64,19.64,0,0,0,348.16,345v-9.82a19.64,19.64,0,0,0-19.64-19.64h-51.8V283.65h51.8A19.64,19.64,0,0,0,348.16,264v-9.82a19.64,19.64,0,0,0-19.64-19.64H280.4V221.79a12.28,12.28,0,0,0-12.28-12.28H221.48a2.46,2.46,0,0,1-2.46-2.46V187.9h45.67a19.64,19.64,0,0,0,19.64-19.64v-9.82a19.65,19.65,0,0,0-19.64-19.64H168.94a19.64,19.64,0,0,0-19.64,19.64Zm189,167V345a9.82,9.82,0,0,1-9.82,9.82H230.31a9.82,9.82,0,0,1-9.82-9.82v-9.82a9.82,9.82,0,0,1,9.82-9.82h98.21A9.82,9.82,0,0,1,338.34,335.21Zm0-81V264a9.82,9.82,0,0,1-9.82,9.82H230.31a9.82,9.82,0,0,1-9.82-9.82v-9.82a9.82,9.82,0,0,1,9.82-9.82h98.21A9.82,9.82,0,0,1,338.34,254.19ZM159.12,158.44a9.82,9.82,0,0,1,9.82-9.82h95.75a9.82,9.82,0,0,1,9.82,9.82v9.82a9.82,9.82,0,0,1-9.82,9.82H168.94a9.81,9.81,0,0,1-9.82-9.82Z"/>
  </g>
</svg>
