<svg id="Layer_1" data-name="Layer 1" xmlns="http://www.w3.org/2000/svg" viewBox="0 0 500 500"><defs><style>.cls-1,.cls-2{fill:#a2b1ba;}.cls-1{opacity:0.19;}</style></defs><title>actions-disabled</title><circle class="cls-1" cx="250" cy="250" r="167.19"/><path class="cls-2" d="M250,50C139.54,50,50,139.54,50,250s89.54,200,200,200,200-89.53,200-200S360.47,50,250,50Zm0,385.49C147.55,435.49,64.51,352.44,64.51,250A185.48,185.48,0,0,1,250,64.51c102.44,0,185.49,83,185.49,185.49S352.44,435.49,250,435.49Z"/><path class="cls-2" d="M329.79,280.42a18.16,18.16,0,0,0,18.14-18.14v-9.82a18.17,18.17,0,0,0-18.14-18.15H280.17V220.05a10.79,10.79,0,0,0-10.77-10.78H222.75a4,4,0,0,1-4-4V184.67H266a18.16,18.16,0,0,0,18.14-18.14v-9.82A18.16,18.16,0,0,0,266,138.57H170.21a18.16,18.16,0,0,0-18.14,18.14v9.82a18.16,18.16,0,0,0,18.14,18.14H212v20.65a10.79,10.79,0,0,0,10.78,10.77H269.4a4,4,0,0,1,4,4v14.26H231.59a18.16,18.16,0,0,0-18.14,18.15v9.82a18.16,18.16,0,0,0,18.14,18.14h38.08v34.91H231.59a18.16,18.16,0,0,0-18.14,18.14v9.82a18.15,18.15,0,0,0,18.14,18.14h98.2a18.16,18.16,0,0,0,18.14-18.14v-9.82a18.16,18.16,0,0,0-18.14-18.14h-53.3V280.42ZM170.21,177.85a11.34,11.34,0,0,1-11.32-11.32v-9.82a11.33,11.33,0,0,1,11.32-11.32H266a11.33,11.33,0,0,1,11.32,11.32v9.82A11.34,11.34,0,0,1,266,177.85Zm159.58,144.3a11.34,11.34,0,0,1,11.32,11.32v9.82a11.33,11.33,0,0,1-11.32,11.32h-98.2a11.32,11.32,0,0,1-11.32-11.32v-9.82a11.33,11.33,0,0,1,11.32-11.32Zm-98.2-48.55a11.33,11.33,0,0,1-11.32-11.32v-9.82a11.33,11.33,0,0,1,11.32-11.33h98.2a11.34,11.34,0,0,1,11.32,11.33v9.82a11.34,11.34,0,0,1-11.32,11.32Z"/><path class="cls-2" d="M329.79,280.42a18.16,18.16,0,0,0,18.14-18.14v-9.82a18.17,18.17,0,0,0-18.14-18.15H280.17V220.05a10.79,10.79,0,0,0-10.77-10.78H222.75a4,4,0,0,1-4-4V184.67H266a18.16,18.16,0,0,0,18.14-18.14v-9.82A18.16,18.16,0,0,0,266,138.57H170.21a18.16,18.16,0,0,0-18.14,18.14v9.82a18.16,18.16,0,0,0,18.14,18.14H212v20.65a10.79,10.79,0,0,0,10.78,10.77H269.4a4,4,0,0,1,4,4v14.26H231.59a18.16,18.16,0,0,0-18.14,18.15v9.82a18.16,18.16,0,0,0,18.14,18.14h38.08v34.91H231.59a18.16,18.16,0,0,0-18.14,18.14v9.82a18.15,18.15,0,0,0,18.14,18.14h98.2a18.16,18.16,0,0,0,18.14-18.14v-9.82a18.16,18.16,0,0,0-18.14-18.14h-53.3V280.42ZM170.21,177.85a11.34,11.34,0,0,1-11.32-11.32v-9.82a11.33,11.33,0,0,1,11.32-11.32H266a11.33,11.33,0,0,1,11.32,11.32v9.82A11.34,11.34,0,0,1,266,177.85Zm159.58,144.3a11.34,11.34,0,0,1,11.32,11.32v9.82a11.33,11.33,0,0,1-11.32,11.32h-98.2a11.32,11.32,0,0,1-11.32-11.32v-9.82a11.33,11.33,0,0,1,11.32-11.32Zm-98.2-48.55a11.33,11.33,0,0,1-11.32-11.32v-9.82a11.33,11.33,0,0,1,11.32-11.33h98.2a11.34,11.34,0,0,1,11.32,11.33v9.82a11.34,11.34,0,0,1-11.32,11.32Z"/><path class="cls-2" d="M329.79,280.42a18.16,18.16,0,0,0,18.14-18.14v-9.82a18.17,18.17,0,0,0-18.14-18.15H280.17V220.05a10.79,10.79,0,0,0-10.77-10.78H222.75a4,4,0,0,1-4-4V184.67H266a18.16,18.16,0,0,0,18.14-18.14v-9.82A18.16,18.16,0,0,0,266,138.57H170.21a18.16,18.16,0,0,0-18.14,18.14v9.82a18.16,18.16,0,0,0,18.14,18.14H212v20.65a10.79,10.79,0,0,0,10.78,10.77H269.4a4,4,0,0,1,4,4v14.26H231.59a18.16,18.16,0,0,0-18.14,18.15v9.82a18.16,18.16,0,0,0,18.14,18.14h38.08v34.91H231.59a18.16,18.16,0,0,0-18.14,18.14v9.82a18.15,18.15,0,0,0,18.14,18.14h98.2a18.16,18.16,0,0,0,18.14-18.14v-9.82a18.16,18.16,0,0,0-18.14-18.14h-53.3V280.42ZM170.21,177.85a11.34,11.34,0,0,1-11.32-11.32v-9.82a11.33,11.33,0,0,1,11.32-11.32H266a11.33,11.33,0,0,1,11.32,11.32v9.82A11.34,11.34,0,0,1,266,177.85Zm159.58,144.3a11.34,11.34,0,0,1,11.32,11.32v9.82a11.33,11.33,0,0,1-11.32,11.32h-98.2a11.32,11.32,0,0,1-11.32-11.32v-9.82a11.33,11.33,0,0,1,11.32-11.32Zm-98.2-48.55a11.33,11.33,0,0,1-11.32-11.32v-9.82a11.33,11.33,0,0,1,11.32-11.33h98.2a11.34,11.34,0,0,1,11.32,11.33v9.82a11.34,11.34,0,0,1-11.32,11.32Z"/></svg>