<svg id="Layer_1" data-name="Layer 1" xmlns="http://www.w3.org/2000/svg" viewBox="0 0 500 500">
  <defs>
    <style>
      .cls-1, .cls-2 {
        fill: #a2b1ba;
      }

      .cls-1 {
        opacity: 0.19;
      }
    </style>
  </defs>
  <title>al-feeds-disabled</title>
  <g>
    <g>
      <circle class="cls-1" cx="263.61" cy="251.74" r="167.19"/>
      <path class="cls-2" d="M263.62,51.74c-110.47,0-200,89.54-200,200s89.54,200,200,200,200-89.54,200-200S374.08,51.74,263.62,51.74Zm0,385.49c-102.45,0-185.49-83.05-185.49-185.49a185.49,185.49,0,0,1,371,0C449.1,354.18,366.06,437.23,263.61,437.23Z"/>
    </g>
    <g>
      <path class="cls-2" d="M301.23,167.09l.42-.06a5,5,0,0,0,4.33-5.7h0a5,5,0,0,0-5.65-4.29l-.51.07c-1.82.26-3.64.56-5.44.89A139,139,0,0,0,181.19,308.83q.28,2.75.67,5.48c0,.17,0,.34.07.51a5,5,0,0,0,5.7,4.22h0a5,5,0,0,0,4.26-5.75l-.06-.4c-.26-1.84-.48-3.66-.66-5.48A128.89,128.89,0,0,1,295.8,168C297.59,167.65,299.41,167.35,301.23,167.09Z"/>
      <path class="cls-2" d="M307.8,186.46c-1.76.25-3.52.54-5.25.87a113.16,113.16,0,0,0-91.42,121.82c.16,1.76.37,3.53.63,5.3l.09.62a4.74,4.74,0,0,0,5.37,4h0a4.75,4.75,0,0,0,4-5.43c0-.17,0-.34-.07-.51-.25-1.77-.46-3.54-.62-5.3a103.67,103.67,0,0,1,83.35-111.07c1.74-.33,3.48-.63,5.26-.88l.51-.07a4.75,4.75,0,0,0,4.09-5.38h0a4.73,4.73,0,0,0-5.31-4Z"/>
      <path class="cls-2" d="M319.14,218.38c-1.63.23-3.25.51-4.85.84a85.2,85.2,0,0,0-68.06,90.69c.12,1.63.31,3.26.54,4.89,0,.22.07.44.1.66a4.28,4.28,0,0,0,4.84,3.59h0a4.27,4.27,0,0,0,3.62-4.88c0-.2-.06-.39-.08-.58-.24-1.63-.42-3.27-.54-4.89a76.66,76.66,0,0,1,60.78-81c1.6-.33,3.21-.62,4.84-.85l.58-.08a4.28,4.28,0,0,0,3.68-4.84h0a4.27,4.27,0,0,0-4.8-3.64Z"/>
      <path class="cls-2" d="M326.67,249.52c-1.48.21-2.95.48-4.39.8A58,58,0,0,0,277,310.68c.1,1.48.25,3,.46,4.44.06.39.11.77.18,1.15a3.34,3.34,0,0,0,3.77,2.79h0a3.32,3.32,0,0,0,2.83-3.82c-.06-.35-.11-.71-.16-1.06-.21-1.49-.36-3-.43-4.45A51.28,51.28,0,0,1,323.22,257c1.44-.34,2.9-.61,4.39-.82l1.06-.14a3.35,3.35,0,0,0,2.89-3.79h0a3.35,3.35,0,0,0-3.74-2.84Z"/>
      <circle class="cls-2" cx="329.03" cy="296.85" r="22.24"/>
    </g>
  </g>
</svg>
