<svg id="Layer_1" data-name="Layer 1" xmlns="http://www.w3.org/2000/svg" viewBox="0 0 500 500"><defs><style>.cls-1,.cls-2{fill:#a2b1ba;}.cls-1{opacity:0.19;}</style></defs><title>issuedalerts-disabled</title><circle class="cls-1" cx="250" cy="250" r="167.19"/><path class="cls-2" d="M250,50C139.54,50,50,139.54,50,250s89.54,200,200,200,200-89.53,200-200S360.47,50,250,50Zm0,385.49C147.55,435.49,64.51,352.44,64.51,250A185.48,185.48,0,0,1,250,64.51c102.44,0,185.49,83,185.49,185.49S352.44,435.49,250,435.49Z"/><path class="cls-2" d="M270.16,152.48l-76.77,99.15a4,4,0,0,0,2.13,6.31L244.36,271l-19.79,73.88a3,3,0,0,0,5.27,2.61l76.77-99.15a4,4,0,0,0-2.13-6.31L255.64,229l19.79-73.88A3,3,0,0,0,270.16,152.48ZM299.46,247l-65.29,83.89L250,272.05l1.57-5.88-5.88-1.58-45.4-12.15,65.28-83.89-15.76,58.84-1.58,5.89,5.88,1.57"/></svg>