<svg id="Layer_1" data-name="Layer 1" xmlns="http://www.w3.org/2000/svg" viewBox="0 0 500 500">
  <defs>
    <style>
      .cls-1, .cls-2 {
        fill: #2d98d4;
      }

      .cls-1 {
        opacity: 0.19;
      }
    </style>
  </defs>
  <title>al-issuedalerts-disabled</title>
  <g>
    <circle class="cls-1" cx="244.36" cy="256.95" r="167.19"/>
    <path class="cls-2" d="M244.36,57c-110.46,0-200,89.54-200,200s89.54,200,200,200,200-89.54,200-200S354.82,57,244.36,57Zm0,385.49C141.91,442.44,58.87,359.39,58.87,257A185.48,185.48,0,0,1,244.36,71.46c102.44,0,185.49,83,185.49,185.49S346.8,442.44,244.36,442.44Z"/>
    <path class="cls-2" d="M273.65,147.64,184.07,263.33,238.72,278l-23.65,88.28,89.58-115.7L250,235.92ZM293.81,254l-65.28,83.89L244.31,279l1.57-5.89L240,271.54l-45.4-12.15,65.28-83.89-15.77,58.84-1.57,5.88,5.88,1.58"/>
  </g>
</svg>
