<svg id="Layer_1" data-name="Layer 1" xmlns="http://www.w3.org/2000/svg" viewBox="0 0 500 500"><defs><style>.cls-1,.cls-2{fill:#2d98d4;}.cls-1{opacity:0.19;}</style></defs><title>servicerequest</title><circle class="cls-1" cx="250" cy="250" r="167.19"/><path class="cls-2" d="M250,50C139.54,50,50,139.54,50,250s89.54,200,200,200,200-89.53,200-200S360.47,50,250,50Zm0,385.49C147.55,435.49,64.51,352.44,64.51,250A185.48,185.48,0,0,1,250,64.51c102.44,0,185.49,83,185.49,185.49S352.44,435.49,250,435.49Z"/><path class="cls-2" d="M345.66,166.49a32.91,32.91,0,0,0-22.4-11.86c-1-.09-2.05-.13-3.09-.13H179.85a33.14,33.14,0,0,0-33.1,33.11c0,.52,0,1.06,0,1.58l4.66,97.56A33,33,0,0,0,182,318.19l1.18.1-.29,1.15a49.56,49.56,0,0,1-4.79,12.19,9.06,9.06,0,0,0,.61,10.2,8.88,8.88,0,0,0,7.2,3.67H186a10.59,10.59,0,0,0,2.32-.29,61.46,61.46,0,0,0,38.81-26.84l.3-.47h57.94l25.45.35H311a32.79,32.79,0,0,0,32.82-30l9.3-97.57A32.86,32.86,0,0,0,345.66,166.49Zm.1,23.33-9.32,97.57a25.84,25.84,0,0,1-25.84,23.5H225.54l-.18-.12h-.56a5.47,5.47,0,0,0-.81,0,8.79,8.79,0,0,0-1.29.77,4.9,4.9,0,0,0-.54.65,5.2,5.2,0,0,0-.35.44c-8.39,15.76-23.9,22.49-35.45,25.36a1.89,1.89,0,0,1-2.1-.69,2.08,2.08,0,0,1,0-2.38,59.75,59.75,0,0,0,6.64-19.54v-.64a3.08,3.08,0,0,0,0-.43,1.81,1.81,0,0,0-.32-1.51,4.94,4.94,0,0,0-.44-.65l-.73-.46-.66-.34-.76-.29H184.5a26,26,0,0,1-26-24.76l-4.65-97.86a26,26,0,0,1,24.75-27.19H319.91a25.58,25.58,0,0,1,19.36,8.33A26.11,26.11,0,0,1,345.76,189.82Z"/><path class="cls-2" d="M214.77,195.46a8.37,8.37,0,0,1,.34-2.55l.35-1.22L198.34,177a3,3,0,0,0-4.07.15l-5.37,5.36a3,3,0,0,0-.15,4.08l14.73,17,1.17-.26a10.44,10.44,0,0,1,2.75-.3l26.06,26.06,7.48-7.49ZM210,199.91a4.26,4.26,0,0,0-3-.92,12.35,12.35,0,0,0-2,.18l-12-13.84a1,1,0,0,1,0-1.36l2.74-2.73a1,1,0,0,1,1.36-.05L211,193.09c-.33,1.67-.4,3.8.81,5l23.5,23.47-1.81,1.83Z"/><path class="cls-2" d="M306.17,275.3l-36.94-37.16L250,257.38l37.08,37a9.39,9.39,0,0,0,13.3,0l5.81-5.8a9.37,9.37,0,0,0,0-13.3Zm-2.83,10.47-5.82,5.83a5.4,5.4,0,0,1-7.62,0l-34.25-34.2,13.56-13.57,34.15,34.34a5.36,5.36,0,0,1,0,7.62Z"/><path class="cls-2" d="M309.56,190.22h0a2,2,0,0,0-3.21-.55L290.69,205.3A8,8,0,0,1,279.38,194l15.8-15.48a2,2,0,0,0-.55-3.24h0a29.36,29.36,0,0,0-11.94-2.72A30.1,30.1,0,0,0,253,202.35a29,29,0,0,0,2.17,10.59l-64,63.9a12,12,0,1,0,17,17l1.4-1.41,0,0L272,229.74a29.42,29.42,0,0,0,10.65,2.16,30.13,30.13,0,0,0,29.73-29.8A29.8,29.8,0,0,0,309.56,190.22ZM282.71,227.9a25.25,25.25,0,0,1-10.27-2.35l-1.27-.59-66,66-.48.51a8,8,0,0,1-10.79-.47,8,8,0,0,1,0-11.3l66-65.85-.59-1.26A25.32,25.32,0,0,1,257,202.33a26.07,26.07,0,0,1,25.71-25.75,25.17,25.17,0,0,1,7.52,1.26l-13.63,13.34a12,12,0,0,0,17,16.95L307,194.62a25.11,25.11,0,0,1,1.39,7.52A26.08,26.08,0,0,1,282.71,227.9Z"/></svg>