<svg id="Layer_1" data-name="Layer 1" xmlns="http://www.w3.org/2000/svg" viewBox="0 0 500 500">
  <defs>
    <style>
      .cls-1, .cls-2 {
        fill: #a2b1ba;
      }

      .cls-1 {
        opacity: 0.19;
      }
    </style>
  </defs>
  <title>al-servicerequest-disabled</title>
  <g>
    <g>
      <circle class="cls-1" cx="249.3" cy="249.32" r="167.19"/>
      <path class="cls-2" d="M249.31,49.32c-110.47,0-200,89.54-200,200s89.54,200,200,200,200-89.53,200-200S359.77,49.32,249.31,49.32Zm0,385.49A185.49,185.49,0,1,1,434.79,249.32,185.48,185.48,0,0,1,249.3,434.81Z"/>
    </g>
    <g>
      <path class="cls-2" d="M322.65,153c-1.07-.1-2.12-.14-3.18-.14H179.15a34.11,34.11,0,0,0-34.1,34.11c0,.53,0,1.08,0,1.61l4.66,97.58a34,34,0,0,0,31.52,32.4,49.2,49.2,0,0,1-4.7,12,10.07,10.07,0,0,0,.7,11.29,9.85,9.85,0,0,0,8.09,4.06,11.56,11.56,0,0,0,2.55-.32,62.07,62.07,0,0,0,39.41-27.28h57.4l25.43.34a34,34,0,0,0,33.95-30.88l9.31-97.56A34.1,34.1,0,0,0,322.65,153Zm22.41,36.18-9.32,97.58a25.85,25.85,0,0,1-25.84,23.5H224.84l-.18-.12h-.56a3.66,3.66,0,0,0-.81,0,7.94,7.94,0,0,0-1.29.76,5.64,5.64,0,0,0-.54.65,5.37,5.37,0,0,0-.35.45c-8.39,15.76-23.9,22.48-35.45,25.35a1.88,1.88,0,0,1-2.1-.69,2.08,2.08,0,0,1,0-2.38,59.77,59.77,0,0,0,6.64-19.53v-.65a3.09,3.09,0,0,0,0-.43,3.84,3.84,0,0,0,0-.83,4.22,4.22,0,0,0-.32-.68,4.83,4.83,0,0,0-.44-.64l-.73-.46-.66-.35-.76-.29H183.8a26,26,0,0,1-26-24.76l-4.65-97.85a26,26,0,0,1,24.75-27.2H319.21a25.62,25.62,0,0,1,19.36,8.33A26.12,26.12,0,0,1,345.06,189.14Z"/>
      <g>
        <path class="cls-2" d="M207.87,201.62l24.88,24.89,4.66-4.66L212.49,197c-1-1,0-4.34,0-4.34l-16.85-14.51L189,184.8l14.54,16.82S207,200.82,207.87,201.62Z"/>
        <path class="cls-2" d="M268.52,241.25l-16.41,16.4,35.68,35.61a7.38,7.38,0,0,0,10.44,0l0,0,5.81-5.81a7.4,7.4,0,0,0,0-10.45l0,0Z"/>
        <path class="cls-2" d="M205.91,292.62l65-65A27.52,27.52,0,0,0,282,230.17a28,28,0,0,0,27.74-27.74,27.46,27.46,0,0,0-2.66-11.08L291.41,207a10,10,0,0,1-14.12-14.13l15.79-15.48A27.51,27.51,0,0,0,282,174.85a28,28,0,0,0-27.74,27.74,27.39,27.39,0,0,0,2.53,11.08l-65,64.85a10,10,0,0,0,14.12,14.13Z"/>
      </g>
    </g>
  </g>
</svg>
