<svg id="Layer_1" data-name="Layer 1" xmlns="http://www.w3.org/2000/svg" viewBox="0 0 500 500"><defs><style>.cls-1,.cls-2{fill:#2d98d4;}.cls-1{opacity:0.19;}</style></defs><title>sources</title><circle class="cls-1" cx="250" cy="250" r="167.19"/><path class="cls-2" d="M250,50C139.54,50,50,139.54,50,250s89.54,200,200,200,200-89.53,200-200S360.47,50,250,50Zm0,385.49C147.55,435.49,64.51,352.44,64.51,250A185.48,185.48,0,0,1,250,64.51c102.44,0,185.49,83,185.49,185.49S352.44,435.49,250,435.49Z"/><path class="cls-2" d="M346.3,323.54a3.31,3.31,0,0,0-3.65.73L326,340.91l-37.1-37.12,1.14-1.4a51.71,51.71,0,0,0-34.87-84.22l-1.79-.18V165.54h23.5a3.38,3.38,0,0,0,2.38-5.77L252.39,132.9a3.47,3.47,0,0,0-4.78,0l-26.88,26.88a3.35,3.35,0,0,0-.73,3.68,3.39,3.39,0,0,0,3.13,2.09h23.5V218l-1.81.18a51.71,51.71,0,0,0-34.88,84.22l1.15,1.4L174,340.91l-16.62-16.63a3.37,3.37,0,0,0-5.76,2.39v38a3.36,3.36,0,0,0,3.38,3.37h38a3.37,3.37,0,0,0,2.4-5.76l-16.63-16.61,37.13-37.12,1.39,1.15a51.77,51.77,0,0,0,65.45,0l1.41-1.15,37.1,37.12-16.6,16.61a3.37,3.37,0,0,0,2.37,5.76h38a3.4,3.4,0,0,0,3.39-3.37v-38A3.4,3.4,0,0,0,346.3,323.54ZM184.83,361.3H158.35V334.81Zm46.43-202.52L250,140.06l18.74,18.72ZM215.9,299l-1.4-1.78A45,45,0,0,1,205,269.66h0a45.15,45.15,0,0,1,39.39-44.6l2.25-.29v43.5Zm61.65,6.17a44.71,44.71,0,0,1-55.11,0l-1.77-1.39L250,274.43l29.34,29.34ZM284.1,299l-30.72-30.73v-43.5l2.25.29a44.89,44.89,0,0,1,29.86,72.16Zm57.55,62.31H315.17l26.48-26.49Z"/></svg>