<svg id="Layer_1" data-name="Layer 1" xmlns="http://www.w3.org/2000/svg" viewBox="0 0 500 500">
  <defs>
    <style>
      .cls-1, .cls-2 {
        fill: #2d98d4;
      }

      .cls-1 {
        opacity: 0.19;
      }
    </style>
  </defs>
  <title>AL-Sources</title>
  <g>
    <g>
      <circle class="cls-1" cx="247.45" cy="251.74" r="167.19"/>
      <path class="cls-2" d="M247.46,51.74c-110.46,0-200,89.54-200,200s89.55,200,200,200,200-89.54,200-200S357.92,51.74,247.46,51.74Zm0,385.49C145,437.23,62,354.18,62,251.74A185.48,185.48,0,0,1,247.45,66.25c102.45,0,185.5,83,185.5,185.49S349.9,437.23,247.45,437.23Z"/>
    </g>
    <path class="cls-2" d="M344.53,323.46a5.34,5.34,0,0,0-5.86,1.17l-15.21,15.21L289,305.42a53.71,53.71,0,0,0-36.21-87.48V169.3h21.5a5.38,5.38,0,0,0,3.8-9.19l-26.88-26.86a5.34,5.34,0,0,0-7.6,0l-26.87,26.86a5.38,5.38,0,0,0,3.8,9.19h21.5v48.64a53.71,53.71,0,0,0-36.22,87.48l-34.42,34.42-15.2-15.21a5.37,5.37,0,0,0-9.18,3.8v38a5.36,5.36,0,0,0,5.38,5.37h38a5.37,5.37,0,0,0,3.8-9.17L179,347.44,213.47,313a53.61,53.61,0,0,0,68,0l34.42,34.42-15.2,15.2a5.37,5.37,0,0,0,3.8,9.17h38a5.38,5.38,0,0,0,5.38-5.37v-38A5.39,5.39,0,0,0,344.53,323.46Zm-186.72,37.6V341.4l9.83,9.84,9.82,9.82Zm75.74-202.52,13.9-13.89,13.91,13.89Zm-29.1,112.88a43,43,0,0,1,37.63-42.63v40.4l-28.55,28.55A42.77,42.77,0,0,1,204.45,271.42Zm43,43a42.72,42.72,0,0,1-26.32-9.07L247.45,279l26.33,26.32A42.72,42.72,0,0,1,247.45,314.41Zm33.93-16.67-28.55-28.55v-40.4a42.9,42.9,0,0,1,28.55,69Zm55.72,63.32H317.45l9.82-9.82,9.83-9.84Z"/>
  </g>
</svg>
