<svg id="Layer_1" data-name="Layer 1" xmlns="http://www.w3.org/2000/svg" viewBox="0 0 500 500">
  <defs>
    <style>
      .cls-1, .cls-2 {
        fill: #a2b1ba;
      }

      .cls-1 {
        opacity: 0.19;
      }
    </style>
  </defs>
  <title>al-surveyandfeedback-disabled</title>
  <g>
    <g>
      <circle class="cls-1" cx="250" cy="251.74" r="167.19"/>
      <path class="cls-2" d="M250,51.74c-110.47,0-200,89.54-200,200s89.54,200,200,200,200-89.54,200-200S360.47,51.74,250,51.74Zm0,385.49c-102.45,0-185.49-83.05-185.49-185.49A185.48,185.48,0,0,1,250,66.25c102.44,0,185.49,83,185.49,185.49S352.44,437.23,250,437.23Z"/>
    </g>
    <path class="cls-2" d="M370.47,212.31a26,26,0,0,0-19-8.14h-34a3.57,3.57,0,0,0,0,7.14h34a19.11,19.11,0,0,1,19.09,19.12c0,.3,0,.59,0,.88l-3.5,73.85A19.08,19.08,0,0,1,348,323.34h-2.68a3.29,3.29,0,0,0-.78.32L344,324a3.27,3.27,0,0,0-.89,1,3.17,3.17,0,0,0-.32,1.57,2.16,2.16,0,0,0,0,.36v.29a2,2,0,0,0,0,.35,43.12,43.12,0,0,0,6.54,17.18c-9.5-1.93-22.22-6.89-28.89-19.43a4,4,0,0,0-.33-.39,3.35,3.35,0,0,0-.49-.57l-.47-.32a3.28,3.28,0,0,0-.71-.39H318a2.58,2.58,0,0,0-.68,0H253a19,19,0,0,1-19-17.25l-.82-8.57h34.57a29.92,29.92,0,0,0,29.92-27.21l8.22-86a30.06,30.06,0,0,0-27.12-32.75c-.93-.09-1.87-.14-2.81-.14H152.28a30.08,30.08,0,0,0-30.06,30.07c0,.48,0,1,0,1.43l4.11,86a30,30,0,0,0,27.78,28.57A43,43,0,0,1,150,308.34a8.91,8.91,0,0,0,.61,10,8.68,8.68,0,0,0,7.14,3.57,9.5,9.5,0,0,0,2.25-.28,54.71,54.71,0,0,0,34.74-24h31.32l.86,9.22a26.13,26.13,0,0,0,26.14,23.74h62c8.22,13.61,22.18,19.07,32.68,21.21a7.12,7.12,0,0,0,1.46,0,6.92,6.92,0,0,0,5.79-3.1,7.16,7.16,0,0,0,0-8.07,34.55,34.55,0,0,1-4.47-10.29,26.2,26.2,0,0,0,23.64-25l3.57-73.67A26,26,0,0,0,370.47,212.31ZM192.42,290.38h-.5a2.81,2.81,0,0,0-.71,0,6.28,6.28,0,0,0-1.15.67,4.1,4.1,0,0,0-.46.57,4,4,0,0,0-.32.4c-7.39,13.89-21.07,19.82-31.25,22.35a1.66,1.66,0,0,1-1.85-.61,1.84,1.84,0,0,1,0-2.1A52.85,52.85,0,0,0,162,294.45v-.58a2.54,2.54,0,0,0,0-.39,2.81,2.81,0,0,0,0-.71,3.37,3.37,0,0,0-.28-.61,4.49,4.49,0,0,0-.4-.57l-.64-.39-.57-.32-.68-.25h-3.07a22.9,22.9,0,0,1-22.89-21.82l-4.11-86.28a22.93,22.93,0,0,1,21.83-24l1.06,0H275.77a22.68,22.68,0,0,1,17.07,7.36,23,23,0,0,1,5.71,17.86l-8.21,86a22.79,22.79,0,0,1-22.79,20.71h-75Zm-5.78-87.89a10.43,10.43,0,1,1-10.43-10.42h0A10.42,10.42,0,0,1,186.64,202.49Zm75.56,0a10.43,10.43,0,1,1-10.43-10.42h0a10.42,10.42,0,0,1,10.46,10.39v0Zm-29.32,44.39a19,19,0,0,1-37.74,0,1.75,1.75,0,0,1,1.6-1.89h34.35a1.76,1.76,0,0,1,1.8,1.71A1.09,1.09,0,0,1,232.88,246.88Zm94.85,24.46a7.39,7.39,0,1,1,7.39-7.39h0a7.39,7.39,0,0,1-7.36,7.39Zm-26.86,22.82a13.45,13.45,0,0,1,13.39,12.11,1.25,1.25,0,0,1-1.17,1.32h-24.4a1.24,1.24,0,0,1-1.28-1.21v-.11a13.47,13.47,0,0,1,13.5-12.15Z"/>
  </g>
</svg>
