<svg id="Layer_1" data-name="Layer 1" xmlns="http://www.w3.org/2000/svg" viewBox="0 0 1417.32 1417.32">
  <defs>
    <style>
      .cls-1 {
        fill: #039be5;
      }
    </style>
  </defs>
  <title>watermarkThe logo - Blue</title>
  <g>
    <g>
      <g>
        <g>
          <path class="cls-1" d="M852,74.51c-91.2,0-165,76-161.44,168,3.27,83.85,71.25,151.78,155.08,155,92,3.53,168-70.26,168-161.45C1013.58,147,941.07,74.51,852,74.51ZM941.14,240.4c-2.18,45.66-39.24,82.66-84.9,84.79a89.22,89.22,0,1,1,84.9-84.79Z"/>
          <path class="cls-1" d="M750.76,430.6,578.29,275.14a36.77,36.77,0,0,0-7.85-5.38c-6.36-3.19-158-78.14-279.2,27.2l-78.05,67.82a34.61,34.61,0,0,0-3.42,48.83l2,2.33a34.61,34.61,0,0,0,48.83,3.42l78.05-67.82C409.32,290.2,498.44,318.11,527.94,330a34.68,34.68,0,0,1,10.27,6.4l109.32,98.5a34.61,34.61,0,0,1,1.54,49.95L456.9,680.73a34.6,34.6,0,0,0,.47,48.94l2.22,2.18a34.62,34.62,0,0,0,48.94-.47L752.4,482.77a36.11,36.11,0,0,0-1.64-52.17Z"/>
          <path class="cls-1" d="M848.45,529.39a28.72,28.72,0,0,0-33.05-3.51l-11.93,6.75-1.47.77a28.62,28.62,0,0,0-6.28,46.11c33.53,31.83,107.43,77.4,258.32,82.71a28.6,28.6,0,0,0,29.58-28.59V618.5A28.61,28.61,0,0,0,1056,589.92C930.23,585.35,871.91,549.91,848.45,529.39Z"/>
        </g>
        <path class="cls-1" d="M888.47,57c37.07,5.74,72.42,23.35,98.74,50.14,20.72,23.72,38,51.87,44.3,83,4,30.83,5.18,63.14-6.82,92.49-4.24,13.12-15.08,29-3.13,41.2,7.61,8.64,21,30.92,4.72,36-83.77-69.71-166-141.22-248.47-212.47-12.55-11.86-27.34-22.19-37.9-35.8,12.9-15.38,30.29-26.66,47.54-36.74C818.08,58.29,854.16,53.75,888.47,57Z"/>
        <path class="cls-1" d="M549.25,1063.81c0-.73,0-1.46,0-2.18-.55-87.22-34-127.81-47-140.28-.53-.51-1-1-1.51-1.58-7.26-8.49-31.73-37.06-62.38-73.78-14-16.72-29.22-35.13-44.71-54.12-15.13-18.54-30.5-37.61-45.14-56.17-12.17-15.47-17-30.54-14.88-46.07,4.46-31.52,36.54-60.85,48.4-69.42a37.74,37.74,0,0,0,3.9-3.19l157.7-148.41a22.7,22.7,0,0,0,1-32.09h0l-7.34-7.79-11.1-11.79a22.71,22.71,0,0,0-32.09-1l-2.41,2.28L338.92,562a22.52,22.52,0,0,1-1.84,1.55c-14.54,11-66.09,53.94-75,115.55-5.11,35.27,5.15,70.34,29.64,101.41,17,21.57,35,43.83,52.45,65.15,16.27,19.87,32.1,38.92,46.31,55.87,33,39.44,57.24,67.56,57.7,68.08a22.35,22.35,0,0,0,4.19,4.11c.09.08,3.58,3.38,7.91,11,3.81,6.76,8.28,16.92,11.62,31.24,1,4.22,1.89,8.81,2.64,13.78a231.81,231.81,0,0,1,2.38,34.1v53c0,.44,0,.9,0,1.34-.67,11.94-1.65,23.22-2.87,33.84-1.9,16.48-4.41,31.41-7.34,44.92-5.29,24.5-12,44.33-19,60.24A194.12,194.12,0,0,1,426.3,1295q-2.7,3.65-5.15,6.55a29.72,29.72,0,0,0-2.76,34.12l3.52,6,3,5.12A29.58,29.58,0,0,0,435,1357.51a28.6,28.6,0,0,0,4.12,2.19,30.06,30.06,0,0,0,12,2.49,24.74,24.74,0,0,0,3.44-.22,28.39,28.39,0,0,0,9.24-2.64,29.58,29.58,0,0,0,9.24-6.91c4-4.45,8.21-9.58,12.51-15.43a.24.24,0,0,0,.06-.09c1.2-1.62,2.38-3.29,3.58-5,10-14.46,20.33-33,29.55-56.41a410.35,410.35,0,0,0,20.87-73.61q2.31-12,4.19-25c2.52-17.59,4.39-36.63,5.44-57.22q.63-11.88.88-24.45a30.58,30.58,0,0,0-.51-6.1,23,23,0,0,1-.37-4.3Z"/>
      </g>
      <path class="cls-1" d="M1171.17,501.32l-24.05,56.17a8.55,8.55,0,0,1-11.23,4.5l-28.8-12.32c-13.67-5.86-31.33,4.44-39.22,22.87l-38.42,89.75c-7.89,18.44-3.15,38.32,10.53,44.17l28.8,12.33a8.56,8.56,0,0,1,4.5,11.23l-24,56.17a45.14,45.14,0,0,0,23.67,59.09l150.78,64.54a45.15,45.15,0,0,0,59.1-23.67l121.93-284.86a45.15,45.15,0,0,0-23.67-59.1l-150.78-64.54A45.14,45.14,0,0,0,1171.17,501.32ZM1053.76,688.18c-5.77-2.47-7.76-10.85-4.44-18.61l37.53-87.68c3.33-7.77,10.76-12.1,16.53-9.63l23.76,10.17a8.55,8.55,0,0,1,4.5,11.23l-42.88,100.19a8.55,8.55,0,0,1-11.23,4.5Zm202.46-52.63-18.62,43.51a8.55,8.55,0,0,0,4.5,11.23l46.38,19.85a8.55,8.55,0,0,1,4.5,11.23l-.45,1a8.55,8.55,0,0,1-11.23,4.5l-46.38-19.86a8.55,8.55,0,0,0-11.23,4.5l-18.63,43.51a8.55,8.55,0,0,1-11.23,4.49h0a8.56,8.56,0,0,1-4.5-11.23l18.63-43.5a8.57,8.57,0,0,0-4.5-11.23L1157.6,674a8.55,8.55,0,0,1-4.5-11.23l.44-1a8.57,8.57,0,0,1,11.24-4.5l45.86,19.63a8.55,8.55,0,0,0,11.23-4.5l18.62-43.5a8.56,8.56,0,0,1,11.23-4.5h0A8.56,8.56,0,0,1,1256.22,635.55Z"/>
    </g>
    <path class="cls-1" d="M19.51,1124.21h0a37,37,0,0,0,32.72,46.48c50.37,4.27,94-8.69,130.16-29.55,54.23-31.31,91.48-80.5,108.91-116l28.75-60.92A37,37,0,0,0,302.37,915l-.07,0A37,37,0,0,0,253,932.64l-28.49,60.41c-2.44,5-57.05,113.35-166.35,103.79A36.89,36.89,0,0,0,19.51,1124.21Z"/>
  </g>
</svg>
