<svg id="Layer_1" data-name="Layer 1" xmlns="http://www.w3.org/2000/svg" viewBox="0 0 500 500"><defs><style>.cls-1,.cls-2,.cls-3{fill:#a2b1ba;}.cls-1{opacity:0.14;}.cls-2{opacity:0.19;}</style></defs><title>404</title><path class="cls-1" d="M331.86,379.05c-.47-.25-.94-.5-1.43-.72l-1.51-.74c-1.81-.82-3.71-1.64-5.68-2.47-.66-.24-1.35-.52-2-.79-.27-.11-.57-.2-.85-.31l-8.26,14.28-5.16,9-2.72,4.7h0l-4.77,8.26h0l-1.73,3a9.44,9.44,0,0,1-12.87,3.45L262.41,403.7h0l-11.09-6.43h0l-11.55-6.69h0l-3.9-2.25L181.59,357c-5.54.22-11,.52-16.33.94l48.62,28-94.57-16.66a9.34,9.34,0,0,1-6.2-4.06c-1.08.21-2.12.43-3.13.68-3.16.72-6.24,1.48-9.2,2.28v0c-31.35,8.45-51.08,20.8-51.08,34.56,0,25.55,68,46.25,151.93,46.25s151.91-20.7,151.91-46.25C353.54,394.15,345.64,386,331.86,379.05Zm-156.58,9.28H119.42a9.44,9.44,0,0,1-9.44-9.45V376.8Z"/><path class="cls-2" d="M321,247.62a47.69,47.69,0,0,1-.3,5.65c-.06.61-.14,1.21-.22,1.79a51.37,51.37,0,0,1-1.95,9.19c-.41,1.35-.85,2.69-1.35,4a56.08,56.08,0,0,1-5.1,10.19c-.44.65-.88,1.31-1.32,1.94a55,55,0,0,1-8.29,9.5c-.36.36-.71.69-1.07,1a54.68,54.68,0,0,1-8.84,6.4,57,57,0,0,1-8.65,4.17,53.88,53.88,0,0,1-9.06,2.61h0a55.93,55.93,0,0,1-11.42,1.15h-.52a54.77,54.77,0,0,1-10.27-1h0a1,1,0,0,1-.33-.08h0a49.65,49.65,0,0,1-9.26-2.63h0A57.92,57.92,0,0,1,220,285.5a59.18,59.18,0,0,1-6.31-8.68s0-.05,0-.05v0a57.54,57.54,0,0,1-4.91-10.84,52.39,52.39,0,0,1-2.25-9.14,54.92,54.92,0,0,1-.72-9.14v-.44a57.17,57.17,0,0,1,1.43-12.3,55.9,55.9,0,0,1,5.14-14,58.41,58.41,0,0,1,6.23-9.52,56.67,56.67,0,0,1,11.22-10.55,16.44,16.44,0,0,1,1.38-1c.49-.33,1-.69,1.53-1h0a58.83,58.83,0,0,1,8.59-4.48,57.25,57.25,0,0,1,13-3.67,54.57,54.57,0,0,1,8.84-.69h.14a57.55,57.55,0,0,1,50,28.93c.44.74.85,1.48,1.23,2.23a58.14,58.14,0,0,1,6.4,26.46Z"/><path class="cls-3" d="M332.24,246.88a69.15,69.15,0,0,0-10.81-36.38,68.73,68.73,0,0,0-54.93-31.7c-1.05-.06-2.09-.08-3.13-.08-.69,0-1.43,0-2.14.05a66.63,66.63,0,0,0-14.14,1.9,59.56,59.56,0,0,0-6.67,2,68.16,68.16,0,0,0-10.84,4.94,67.24,67.24,0,0,0-10.35,7.14,68.46,68.46,0,0,0-10.52,10.93,64.78,64.78,0,0,0-6.14,9.55,68.24,68.24,0,0,0-7.77,25.61v0c-.22,2.22-.33,4.5-.33,6.78,0,.71,0,1.45.05,2.19v0a62.29,62.29,0,0,0,.77,8.26,65.25,65.25,0,0,0,2.09,9.25,62.37,62.37,0,0,0,2.25,6.37A68.58,68.58,0,0,0,219.8,301s0,0,.09,0l.05.08A66.53,66.53,0,0,0,239,312h0s0,0,.08,0a67.82,67.82,0,0,0,24.27,4.45,69.43,69.43,0,0,0,9.28-.63c2.22-.31,4.42-.72,6.58-1.24h0a67,67,0,0,0,9.06-2.83,64.92,64.92,0,0,0,7.58-3.48,67.64,67.64,0,0,0,7.63-4.75,66.66,66.66,0,0,0,8.07-6.81c.35-.36.71-.69,1-1a67.51,67.51,0,0,0,7.94-9.67c.44-.65.88-1.34,1.29-2A62.72,62.72,0,0,0,327.05,274v0c.52-1.26,1-2.58,1.46-3.9a65.5,65.5,0,0,0,2.74-10.65c.19-1.12.36-2.25.5-3.4a66,66,0,0,0,.52-8.37A6,6,0,0,0,332.24,246.88ZM327,253.27c-.08,1.15-.22,2.31-.39,3.46a58.27,58.27,0,0,1-2.49,10.76c-.44,1.35-.91,2.64-1.46,3.93v0a62.93,62.93,0,0,1-5.13,10.13l-1.32,2a58.4,58.4,0,0,1-8.07,9.61c-.36.38-.69.71-1,1a62.91,62.91,0,0,1-8.35,6.62h0a64.51,64.51,0,0,1-8,4.55,62.51,62.51,0,0,1-8.1,3.19h0A64.63,64.63,0,0,1,265,311.49h0c-.54,0-1.09,0-1.64,0a64,64,0,0,1-56.14-33.41,61.83,61.83,0,0,1-3.24-6.94,58.56,58.56,0,0,1-3-9.77,63.92,63.92,0,0,1-1.29-8.57c-.16-1.73-.22-3.46-.22-5.21,0-1.35.06-2.69.14-4a62.68,62.68,0,0,1,7.3-25.88,63.73,63.73,0,0,1,6.18-9.53,65.07,65.07,0,0,1,21.55-17.68,63.82,63.82,0,0,1,11.66-4.5,59.2,59.2,0,0,1,7.33-1.54,62.62,62.62,0,0,1,16.88-.35,58.37,58.37,0,0,1,7.42,1.29h0a63.39,63.39,0,0,1,32,18.5l0,0a61.29,61.29,0,0,1,4.8,5.76,55.42,55.42,0,0,1,4.69,7.41,59.9,59.9,0,0,1,3.46,7.39,63.48,63.48,0,0,1,4.2,19.46c.08,1.21.11,2.44.11,3.68A56,56,0,0,1,327,253.27Z"/><path class="cls-3" d="M270.07,220.39a7.86,7.86,0,0,0-1.9-5.47,6.3,6.3,0,0,0-4.77-2.08,10.2,10.2,0,0,0-1.82.33A6.31,6.31,0,0,0,259,214a4.46,4.46,0,0,0-2.12,2.47,9.77,9.77,0,0,0-.65,3.08,17.15,17.15,0,0,0-.2,1.86c0,1,.06,2.58.22,4.73.09.68.17,1.48.28,2.36.19,1.45.38,3.18.63,5.13.3,2.53.69,5.49,1.15,8.87l.83,5.38,2.14,13.78c1.86,0,3.21-.09,3.89-.17a89,89,0,0,0,1.6-9.22c.13-.91.24-1.84.35-2.8l1.24-9.39.58-4.45.38-2.8c.36-3.59.6-6.53.71-8.78.09-1.29.11-2.33.11-3.18A3.17,3.17,0,0,0,270.07,220.39Zm.54,52.81a7.15,7.15,0,0,0-1-2.25v0a8.25,8.25,0,0,0-1-1.21,7.06,7.06,0,0,0-4.86-2.16h-.36a8.19,8.19,0,0,0-5.54,2.58,6.36,6.36,0,0,0-1.87,3.34v.06a7.76,7.76,0,0,0-.14,1.37,6.49,6.49,0,0,0,.11,1.26,7.33,7.33,0,0,0,2.09,4,7.58,7.58,0,0,0,5.51,2.19,8,8,0,0,0,2.45-.38,6.8,6.8,0,0,0,2.74-1.73,7.38,7.38,0,0,0,2-5.25A7.23,7.23,0,0,0,270.61,273.2Z"/><path class="cls-3" d="M324.8,366.39l0,.06-3.54,6.09v6.34a9.41,9.41,0,0,1-9.11,9.42l-5.16,9h14.85a8.6,8.6,0,0,0,7.69-4.74s0,0,0-.06a8.43,8.43,0,0,0,.91-3.81v-32Zm5.55-274.25a8.62,8.62,0,0,0-8.54-7.58H299.27L319.45,96.2l11,6.34V93.18A7.07,7.07,0,0,0,330.35,92.14ZM239.71,390.58h0l-3.9-2.25H119.42a9.44,9.44,0,0,1-9.44-9.45V103a9.43,9.43,0,0,1,9.44-9.41h39l1.21-6.86a11.09,11.09,0,0,1,.63-2.12H109.4a8.63,8.63,0,0,0-8.62,8.62V388.66a8.61,8.61,0,0,0,8.62,8.61H251.26Zm-37.89-306,28.22,5h0l9.58,1.7h0l3.87-6.67Z"/><path class="cls-3" d="M143.56,177.56l-2,11.34h-10a5.54,5.54,0,0,1-5.43-5.68,5.77,5.77,0,0,1,1.59-4,5.31,5.31,0,0,1,3.84-1.65Z"/><path class="cls-3" d="M165,187.61l7.3,1.29H160.52a5.52,5.52,0,0,1,3.57-1.37A4.73,4.73,0,0,1,165,187.61Z"/><path class="cls-3" d="M131.56,203.64H139L137,215h-5.41a5.19,5.19,0,0,1-3.65-1.46,5.87,5.87,0,0,1-.19-8.23,5.14,5.14,0,0,1,1.87-1.27A5.28,5.28,0,0,1,131.56,203.64Z"/><path class="cls-3" d="M129.72,256.12l-1.7,9.64a5.86,5.86,0,0,1-.3-8.32A5.5,5.5,0,0,1,129.72,256.12Z"/><path class="cls-3" d="M129.36,282.34l-3.22,5.57a2.36,2.36,0,0,1,0-.38,5.73,5.73,0,0,1,1.59-4A5.14,5.14,0,0,1,129.36,282.34Z"/><path class="cls-3" d="M131.56,229.72h2.8l-2,11.33h-.82a5.53,5.53,0,0,1-5.43-5.68,5.8,5.8,0,0,1,1.59-4A5.34,5.34,0,0,1,131.56,229.72Z"/><path class="cls-3" d="M114.75,307.57a8.24,8.24,0,0,0-.93,2.3,10.68,10.68,0,0,1,1-2.3l8.4-14.55V293Zm3.57,12.95v0l-.08-.06Zm-3.57-12.95a8.24,8.24,0,0,0-.93,2.3,10.68,10.68,0,0,1,1-2.3l8.4-14.55V293Zm3.57,12.95v0l-.08-.06Zm-3.57-12.95a8.24,8.24,0,0,0-.93,2.3,10.68,10.68,0,0,1,1-2.3l8.4-14.55V293Zm3.57,12.95v0l-.08-.06Zm-3.57-12.95a8.24,8.24,0,0,0-.93,2.3,10.68,10.68,0,0,1,1-2.3l8.4-14.55V293Zm3.57,12.95v0l-.08-.06Zm-3.57-12.95a8.24,8.24,0,0,0-.93,2.3,10.68,10.68,0,0,1,1-2.3l8.4-14.55V293Zm3.57,12.95v0l-.08-.06Zm-3.57-12.95a8.24,8.24,0,0,0-.93,2.3,10.68,10.68,0,0,1,1-2.3l8.4-14.55V293Zm3.57,12.95v0l-.08-.06Zm-3.57-12.95a8.24,8.24,0,0,0-.93,2.3,10.68,10.68,0,0,1,1-2.3l8.4-14.55V293Zm3.57,12.95v0l-.08-.06Zm-3.57-12.95a8.24,8.24,0,0,0-.93,2.3,10.68,10.68,0,0,1,1-2.3l8.4-14.55V293Zm3.57,12.95v0l-.08-.06Zm-3.57-12.95a8.24,8.24,0,0,0-.93,2.3,10.68,10.68,0,0,1,1-2.3l8.4-14.55V293Zm3.57,12.95v0l-.08-.06Zm-3.57-12.95a8.24,8.24,0,0,0-.93,2.3,10.68,10.68,0,0,1,1-2.3l8.4-14.55V293Zm3.57,12.95v0l-.08-.06Zm-3.57-12.95a8.24,8.24,0,0,0-.93,2.3,10.68,10.68,0,0,1,1-2.3l8.4-14.55V293Zm3.57,12.95v0l-.08-.06Zm-3.57-12.95a8.24,8.24,0,0,0-.93,2.3,10.68,10.68,0,0,1,1-2.3l8.4-14.55V293Zm3.57,12.95v0l-.08-.06Zm-3.57-12.95a8.24,8.24,0,0,0-.93,2.3,10.68,10.68,0,0,1,1-2.3l8.4-14.55V293Zm3.57,12.95v0l-.08-.06Zm-3.57-12.95a8.24,8.24,0,0,0-.93,2.3,10.68,10.68,0,0,1,1-2.3l8.4-14.55V293Zm3.57,12.95v0l-.08-.06Zm-3.57-12.95a8.24,8.24,0,0,0-.93,2.3,10.68,10.68,0,0,1,1-2.3l8.4-14.55V293Zm3.57,12.95v0l-.08-.06Zm-3.57-12.95a8.24,8.24,0,0,0-.93,2.3,10.68,10.68,0,0,1,1-2.3l8.4-14.55V293Zm3.57,12.95v0l-.08-.06Zm-3.57-12.95a8.24,8.24,0,0,0-.93,2.3,10.68,10.68,0,0,1,1-2.3l8.4-14.55V293Zm3.57,12.95v0l-.08-.06Zm212.08,36.1-5.63,9.77v.06l-1.53,8.67-3.13,17.71v.05l-.42,2.23a8.75,8.75,0,0,1-.65,2.16,9.49,9.49,0,0,1-10.27,5.49l-4.53-.79h0l-4.77,8.26h0l9.61,1.7h0l8,1.4a8.61,8.61,0,0,0,10-7l2.45-13.8v-.06l.9-5.13,0-.17,1.43-8.12,1.67-9.53,4.67-26.4ZM114.75,307.57a8.24,8.24,0,0,0-.93,2.3,10.68,10.68,0,0,1,1-2.3l8.4-14.55V293Zm3.57,12.95v0l-.08-.06Zm-3.57-12.95a8.24,8.24,0,0,0-.93,2.3,10.68,10.68,0,0,1,1-2.3l8.4-14.55V293Zm3.57,12.95v0l-.08-.06Zm-3.57-12.95a8.24,8.24,0,0,0-.93,2.3,10.68,10.68,0,0,1,1-2.3l8.4-14.55V293Zm3.57,12.95v0l-.08-.06Zm-3.57-12.95a8.24,8.24,0,0,0-.93,2.3,10.68,10.68,0,0,1,1-2.3l8.4-14.55V293Zm3.57,12.95v0l-.08-.06Zm-3.57-12.95a8.24,8.24,0,0,0-.93,2.3,10.68,10.68,0,0,1,1-2.3l8.4-14.55V293Zm3.57,12.95v0l-.08-.06Zm-3.57-12.95a8.24,8.24,0,0,0-.93,2.3,10.68,10.68,0,0,1,1-2.3l8.4-14.55V293Zm3.57,12.95v0l-.08-.06Zm-3.57-12.95a8.24,8.24,0,0,0-.93,2.3,10.68,10.68,0,0,1,1-2.3l8.4-14.55V293Zm3.57,12.95v0l-.08-.06Zm-3.57-12.95a8.24,8.24,0,0,0-.93,2.3,10.68,10.68,0,0,1,1-2.3l8.4-14.55V293Zm3.57,12.95v0l-.08-.06Zm-3.57-12.95a8.24,8.24,0,0,0-.93,2.3,10.68,10.68,0,0,1,1-2.3l8.4-14.55V293Zm3.57,12.95v0l-.08-.06Zm-3.57-12.95a8.24,8.24,0,0,0-.93,2.3,10.68,10.68,0,0,1,1-2.3l8.4-14.55V293Zm3.57,12.95v0l-.08-.06Zm-3.57-12.95a8.24,8.24,0,0,0-.93,2.3,10.68,10.68,0,0,1,1-2.3l8.4-14.55V293Zm3.57,12.95v0l-.08-.06Zm-3.57-12.95a8.24,8.24,0,0,0-.93,2.3,10.68,10.68,0,0,1,1-2.3l8.4-14.55V293Zm3.57,12.95v0l-.08-.06Zm-3.57-12.95a8.24,8.24,0,0,0-.93,2.3,10.68,10.68,0,0,1,1-2.3l8.4-14.55V293Zm3.57,12.95v0l-.08-.06Zm-3.57-12.95a8.24,8.24,0,0,0-.93,2.3,10.68,10.68,0,0,1,1-2.3l8.4-14.55V293Zm3.57,12.95v0l-.08-.06Zm-3.57-12.95a8.24,8.24,0,0,0-.93,2.3,10.68,10.68,0,0,1,1-2.3l8.4-14.55V293Zm3.57,12.95v0l-.08-.06Zm-3.57-12.95a8.24,8.24,0,0,0-.93,2.3,10.68,10.68,0,0,1,1-2.3l8.4-14.55V293Zm3.57,12.95v0l-.08-.06Zm-3.57-12.95a8.24,8.24,0,0,0-.93,2.3,10.68,10.68,0,0,1,1-2.3l8.4-14.55V293Zm3.57,12.95v0l-.08-.06Zm-3.57-12.95a8.24,8.24,0,0,0-.93,2.3,10.68,10.68,0,0,1,1-2.3l8.4-14.55V293Zm3.57,12.95v0l-.08-.06Zm253-215.15-26.08-4.61h0l-14.82-2.61h0l-10.95-2,11,6.34,11.69,6.76L360,112.45a9.43,9.43,0,0,1,7.65,10.93l-.11.57,0,0,8.43,4.89,1.67-9.42v0l.72-4.09A8.61,8.61,0,0,0,371.36,105.37ZM251.29,397.27h0l-11.55-6.69h0l-12.79-2.25-13-2.31-94.57-16.66a9.47,9.47,0,0,1-7.66-10.93l5-28.52,1.65-9.39v0l-.08-.06a8.65,8.65,0,0,1-2-1.56,9.49,9.49,0,0,1-2.42-9,10.68,10.68,0,0,1,1-2.3l8.4-14.55V293l4.67-26.38v-.05l.13-.77v0l1.71-9.59,2.66-15.07h0l2-11.33L136.93,215l2-11.34,2.6-14.74,2-11.34,14.82-84,1.21-6.86a11.09,11.09,0,0,1,.63-2.12,9.49,9.49,0,0,1,10.32-5.51l31.3,5.51h0l28.22,5h0l9.58,1.7,3.87-6.67.91-1.59-9.58-1.67h0L162.21,68.48a8.62,8.62,0,0,0-10,7l-1.59,9.08-1.59,9-14.83,84-2,11.34L129.55,204v0l-1.68,9.43v0l-13.42,76.23v.06L110,315.06l0,.17L108.22,325v0l-7.3,41.42a8.82,8.82,0,0,0-.14,1.54v.3a8.64,8.64,0,0,0,7.11,8.15l2.06.36h0l65.3,11.53L226,397.27l10.57,1.87,25.8,4.56Z"/><path class="cls-3" d="M196.13,166.65l-6,10.46-9.63-1.7-12.93-2.28a5.7,5.7,0,0,1,1-11.26,4.68,4.68,0,0,1,.91.09l17,3Z"/><path class="cls-3" d="M182.26,190.67l-6,10.46-9.6-1.7-3.6-.64a5.54,5.54,0,0,1-4.36-6.53,5.82,5.82,0,0,1,1.83-3.35,5.31,5.31,0,0,1,4.48-1.29l7.3,1.29.39.06Z"/><path class="cls-3" d="M154.4,239a5.76,5.76,0,0,0-4.8,4.67,5.64,5.64,0,0,0,.3,3.1l3.27-5.65Z"/><path class="cls-3" d="M170,215h-1.72l-5.88,10.18-3.87-.68a5.38,5.38,0,0,1-4.17-3.76,5.53,5.53,0,0,1-.19-2.78,5.43,5.43,0,0,1,1.48-3,5.21,5.21,0,0,1,3-1.68h.06a5.19,5.19,0,0,1,.9-.08,5.67,5.67,0,0,1,.94.08l7.9,1.4h0Z"/><path class="cls-3" d="M360,112.45l-17.85-3.15L367.51,124l.11-.57A9.43,9.43,0,0,0,360,112.45ZM307,397.27l-2.72,4.7,4.53.79a9.27,9.27,0,0,0,6.18-1l2.6-4.45Zm-192.18-89.7,8.4-14.55,0-.06,2.93-5v0l3.22-5.57v0l8.78-15.18,6.53-11.33,5.25-9.09,3.25-5.64h0l.25-.44.95-1.67h0l5.33-9.22,2.63-4.56,5.9-10.18.14-.28,6.37-11.06,1.48-2.52,2.85-5,3.16-5.49h0l1.05-1.76,6.56-11.34.24-.45h0l4.76-8.24,1.27-2.21h0L207,147.84l4.94-8.6,1.62-2.77,4.42-7.69,20.37-35.24,1.32-2.31,3.84-6.67-3.87,6.67-9.58-1.7-2.33,4-19.35,33.57-5.19,9-.25.38-6.53,11.37-9.89,17.1h0l-6.05,10.45h0l-1.24,2.15L172.7,188.9l-.06.06h0l-6,10.44v0l-2.43,4.21-5.57,9.66h0l-1,1.68-3.29,5.74-5.19,9-6.56,11.34-8.48,14.74-5.88,10.13v0l-.33.58,0,.05-13.37,23.17,0,.06L110,315.06V326l6.69,3.9,10.68,6.15,16.09,9.31L165.26,358l48.62,28,4,2.31h9l12.79,2.25-3.9-2.25L181.59,357l-20.2-11.66L141.74,334l-23.39-13.48h0v0l-.08-.06a8.65,8.65,0,0,1-2-1.56,9.49,9.49,0,0,1-2.42-9A10.68,10.68,0,0,1,114.78,307.57ZM360,112.45l-17.85-3.15L367.51,124l.11-.57A9.43,9.43,0,0,0,360,112.45ZM307,397.27l-2.72,4.7,4.53.79a9.27,9.27,0,0,0,6.18-1l2.6-4.45Zm-192.18-89.7,8.4-14.55,0-.06,2.93-5v0l3.22-5.57v0l8.78-15.18,6.53-11.33,5.25-9.09,3.25-5.64h0l.25-.44.95-1.67h0l5.33-9.22,2.63-4.56,5.9-10.18.14-.28,6.37-11.06,1.48-2.52,2.85-5,3.16-5.49h0l1.05-1.76,6.56-11.34.24-.45h0l4.76-8.24,1.27-2.21h0L207,147.84l4.94-8.6,1.62-2.77,4.42-7.69,20.37-35.24,1.32-2.31,3.84-6.67-3.87,6.67-9.58-1.7-2.33,4-19.35,33.57-5.19,9-.25.38-6.53,11.37-9.89,17.1h0l-6.05,10.45h0l-1.24,2.15L172.7,188.9l-.06.06h0l-6,10.44v0l-2.43,4.21-5.57,9.66h0l-1,1.68-3.29,5.74-5.19,9-6.56,11.34-8.48,14.74-5.88,10.13v0l-.33.58,0,.05-13.37,23.17,0,.06L110,315.06V326l6.69,3.9,10.68,6.15,16.09,9.31L165.26,358l48.62,28,4,2.31h9l12.79,2.25-3.9-2.25L181.59,357l-20.2-11.66L141.74,334l-23.39-13.48h0v0l-.08-.06a8.65,8.65,0,0,1-2-1.56,9.49,9.49,0,0,1-2.42-9A10.68,10.68,0,0,1,114.78,307.57ZM360,112.45l-17.85-3.15L367.51,124l.11-.57A9.43,9.43,0,0,0,360,112.45ZM307,397.27l-2.72,4.7,4.53.79a9.27,9.27,0,0,0,6.18-1l2.6-4.45Zm-192.18-89.7,8.4-14.55,0-.06,2.93-5v0l3.22-5.57v0l8.78-15.18,6.53-11.33,5.25-9.09,3.25-5.64h0l.25-.44.95-1.67h0l5.33-9.22,2.63-4.56,5.9-10.18.14-.28,6.37-11.06,1.48-2.52,2.85-5,3.16-5.49h0l1.05-1.76,6.56-11.34.24-.45h0l4.76-8.24,1.27-2.21h0L207,147.84l4.94-8.6,1.62-2.77,4.42-7.69,20.37-35.24,1.32-2.31,3.84-6.67-3.87,6.67-9.58-1.7-2.33,4-19.35,33.57-5.19,9-.25.38-6.53,11.37-9.89,17.1h0l-6.05,10.45h0l-1.24,2.15L172.7,188.9l-.06.06h0l-6,10.44v0l-2.43,4.21-5.57,9.66h0l-1,1.68-3.29,5.74-5.19,9-6.56,11.34-8.48,14.74-5.88,10.13v0l-.33.58,0,.05-13.37,23.17,0,.06L110,315.06V326l6.69,3.9,10.68,6.15,16.09,9.31L165.26,358l48.62,28,4,2.31h9l12.79,2.25-3.9-2.25L181.59,357l-20.2-11.66L141.74,334l-23.39-13.48h0v0l-.08-.06a8.65,8.65,0,0,1-2-1.56,9.49,9.49,0,0,1-2.42-9A10.68,10.68,0,0,1,114.78,307.57ZM360,112.45l-17.85-3.15L367.51,124l.11-.57A9.43,9.43,0,0,0,360,112.45ZM307,397.27l-2.72,4.7,4.53.79a9.27,9.27,0,0,0,6.18-1l2.6-4.45Zm-192.18-89.7,8.4-14.55,0-.06,2.93-5v0l3.22-5.57v0l8.78-15.18,6.53-11.33,5.25-9.09,3.25-5.64h0l.25-.44.95-1.67h0l5.33-9.22,2.63-4.56,5.9-10.18.14-.28,6.37-11.06,1.48-2.52,2.85-5,3.16-5.49h0l1.05-1.76,6.56-11.34.24-.45h0l4.76-8.24,1.27-2.21h0L207,147.84l4.94-8.6,1.62-2.77,4.42-7.69,20.37-35.24,1.32-2.31,3.84-6.67-3.87,6.67-9.58-1.7-2.33,4-19.35,33.57-5.19,9-.25.38-6.53,11.37-9.89,17.1h0l-6.05,10.45h0l-1.24,2.15L172.7,188.9l-.06.06h0l-6,10.44v0l-2.43,4.21-5.57,9.66h0l-1,1.68-3.29,5.74-5.19,9-6.56,11.34-8.48,14.74-5.88,10.13v0l-.33.58,0,.05-13.37,23.17,0,.06L110,315.06V326l6.69,3.9,10.68,6.15,16.09,9.31L165.26,358l48.62,28,4,2.31h9l12.79,2.25-3.9-2.25L181.59,357l-20.2-11.66L141.74,334l-23.39-13.48h0v0l-.08-.06a8.65,8.65,0,0,1-2-1.56,9.49,9.49,0,0,1-2.42-9A10.68,10.68,0,0,1,114.78,307.57ZM360,112.45l-17.85-3.15L367.51,124l.11-.57A9.43,9.43,0,0,0,360,112.45ZM307,397.27l-2.72,4.7,4.53.79a9.27,9.27,0,0,0,6.18-1l2.6-4.45Zm-192.18-89.7,8.4-14.55,0-.06,2.93-5v0l3.22-5.57v0l8.78-15.18,6.53-11.33,5.25-9.09,3.25-5.64h0l.25-.44.95-1.67h0l5.33-9.22,2.63-4.56,5.9-10.18.14-.28,6.37-11.06,1.48-2.52,2.85-5,3.16-5.49h0l1.05-1.76,6.56-11.34.24-.45h0l4.76-8.24,1.27-2.21h0L207,147.84l4.94-8.6,1.62-2.77,4.42-7.69,20.37-35.24,1.32-2.31,3.84-6.67-3.87,6.67-9.58-1.7-2.33,4-19.35,33.57-5.19,9-.25.38-6.53,11.37-9.89,17.1h0l-6.05,10.45h0l-1.24,2.15L172.7,188.9l-.06.06h0l-6,10.44v0l-2.43,4.21-5.57,9.66h0l-1,1.68-3.29,5.74-5.19,9-6.56,11.34-8.48,14.74-5.88,10.13v0l-.33.58,0,.05-13.37,23.17,0,.06L110,315.06V326l6.69,3.9,10.68,6.15,16.09,9.31L165.26,358l48.62,28,4,2.31h9l12.79,2.25-3.9-2.25L181.59,357l-20.2-11.66L141.74,334l-23.39-13.48h0v0l-.08-.06a8.65,8.65,0,0,1-2-1.56,9.49,9.49,0,0,1-2.42-9A10.68,10.68,0,0,1,114.78,307.57ZM360,112.45l-17.85-3.15L367.51,124l.11-.57A9.43,9.43,0,0,0,360,112.45ZM307,397.27l-2.72,4.7,4.53.79a9.27,9.27,0,0,0,6.18-1l2.6-4.45Zm-192.18-89.7,8.4-14.55,0-.06,2.93-5v0l3.22-5.57v0l8.78-15.18,6.53-11.33,5.25-9.09,3.25-5.64h0l.25-.44.95-1.67h0l5.33-9.22,2.63-4.56,5.9-10.18.14-.28,6.37-11.06,1.48-2.52,2.85-5,3.16-5.49h0l1.05-1.76,6.56-11.34.24-.45h0l4.76-8.24,1.27-2.21h0L207,147.84l4.94-8.6,1.62-2.77,4.42-7.69,20.37-35.24,1.32-2.31,3.84-6.67-3.87,6.67-9.58-1.7-2.33,4-19.35,33.57-5.19,9-.25.38-6.53,11.37-9.89,17.1h0l-6.05,10.45h0l-1.24,2.15L172.7,188.9l-.06.06h0l-6,10.44v0l-2.43,4.21-5.57,9.66h0l-1,1.68-3.29,5.74-5.19,9-6.56,11.34-8.48,14.74-5.88,10.13v0l-.33.58,0,.05-13.37,23.17,0,.06L110,315.06V326l6.69,3.9,10.68,6.15,16.09,9.31L165.26,358l48.62,28,4,2.31h9l12.79,2.25-3.9-2.25L181.59,357l-20.2-11.66L141.74,334l-23.39-13.48h0v0l-.08-.06a8.65,8.65,0,0,1-2-1.56,9.49,9.49,0,0,1-2.42-9A10.68,10.68,0,0,1,114.78,307.57ZM360,112.45l-17.85-3.15L367.51,124l.11-.57A9.43,9.43,0,0,0,360,112.45ZM307,397.27l-2.72,4.7,4.53.79a9.27,9.27,0,0,0,6.18-1l2.6-4.45Zm-192.18-89.7,8.4-14.55,0-.06,2.93-5v0l3.22-5.57v0l8.78-15.18,6.53-11.33,5.25-9.09,3.25-5.64h0l.25-.44.95-1.67h0l5.33-9.22,2.63-4.56,5.9-10.18.14-.28,6.37-11.06,1.48-2.52,2.85-5,3.16-5.49h0l1.05-1.76,6.56-11.34.24-.45h0l4.76-8.24,1.27-2.21h0L207,147.84l4.94-8.6,1.62-2.77,4.42-7.69,20.37-35.24,1.32-2.31,3.84-6.67-3.87,6.67-9.58-1.7-2.33,4-19.35,33.57-5.19,9-.25.38-6.53,11.37-9.89,17.1h0l-6.05,10.45h0l-1.24,2.15L172.7,188.9l-.06.06h0l-6,10.44v0l-2.43,4.21-5.57,9.66h0l-1,1.68-3.29,5.74-5.19,9-6.56,11.34-8.48,14.74-5.88,10.13v0l-.33.58,0,.05-13.37,23.17,0,.06L110,315.06V326l6.69,3.9,10.68,6.15,16.09,9.31L165.26,358l48.62,28,4,2.31h9l12.79,2.25-3.9-2.25L181.59,357l-20.2-11.66L141.74,334l-23.39-13.48h0v0l-.08-.06a8.65,8.65,0,0,1-2-1.56,9.49,9.49,0,0,1-2.42-9A10.68,10.68,0,0,1,114.78,307.57ZM360,112.45l-17.85-3.15L367.51,124l.11-.57A9.43,9.43,0,0,0,360,112.45ZM320.38,374l-8.26,14.28a9.41,9.41,0,0,0,9.11-9.42v-6.34ZM307,397.27l-2.72,4.7,4.53.79a9.27,9.27,0,0,0,6.18-1l2.6-4.45Zm-192.18-89.7,8.4-14.55,0-.06,2.93-5v0l3.22-5.57v0l8.78-15.18,6.53-11.33,5.25-9.09,3.25-5.64h0l.25-.44.95-1.67h0l5.33-9.22,2.63-4.56,5.9-10.18.14-.28,6.37-11.06,1.48-2.52,2.85-5,3.16-5.49h0l1.05-1.76,6.56-11.34.24-.45h0l4.76-8.24,1.27-2.21h0L207,147.84l4.94-8.6,1.62-2.77,4.42-7.69,20.37-35.24,1.32-2.31,3.84-6.67-3.87,6.67-9.58-1.7-2.33,4-19.35,33.57-5.19,9-.25.38-6.53,11.37-9.89,17.1h0l-6.05,10.45h0l-1.24,2.15L172.7,188.9l-.06.06h0l-6,10.44v0l-2.43,4.21-5.57,9.66h0l-1,1.68-3.29,5.74-5.19,9-6.56,11.34-8.48,14.74-5.88,10.13v0l-.33.58,0,.05-13.37,23.17,0,.06L110,315.06V326l6.69,3.9,10.68,6.15,16.09,9.31L165.26,358l48.62,28,4,2.31h9l12.79,2.25-3.9-2.25L181.59,357l-20.2-11.66L141.74,334l-23.39-13.48h0v0l-.08-.06a8.65,8.65,0,0,1-2-1.56,9.49,9.49,0,0,1-2.42-9A10.68,10.68,0,0,1,114.78,307.57ZM360,112.45l-17.85-3.15L367.51,124l.11-.57A9.43,9.43,0,0,0,360,112.45ZM320.38,374l-8.26,14.28a9.41,9.41,0,0,0,9.11-9.42v-6.34ZM307,397.27l-2.72,4.7,4.53.79a9.27,9.27,0,0,0,6.18-1l2.6-4.45Zm-192.18-89.7,8.4-14.55,0-.06,2.93-5v0l3.22-5.57v0l8.78-15.18,6.53-11.33,5.25-9.09,3.25-5.64h0l.25-.44.95-1.67h0l5.33-9.22,2.63-4.56,5.9-10.18.14-.28,6.37-11.06,1.48-2.52,2.85-5,3.16-5.49h0l1.05-1.76,6.56-11.34.24-.45h0l4.76-8.24,1.27-2.21h0L207,147.84l4.94-8.6,1.62-2.77,4.42-7.69,20.37-35.24,1.32-2.31,3.84-6.67-3.87,6.67-9.58-1.7-2.33,4-19.35,33.57-5.19,9-.25.38-6.53,11.37-9.89,17.1h0l-6.05,10.45h0l-1.24,2.15L172.7,188.9l-.06.06h0l-6,10.44v0l-2.43,4.21-5.57,9.66h0l-1,1.68-3.29,5.74-5.19,9-6.56,11.34-8.48,14.74-5.88,10.13v0l-.33.58,0,.05-13.37,23.17,0,.06L110,315.06V326l6.69,3.9,10.68,6.15,16.09,9.31L165.26,358l48.62,28,4,2.31h9l12.79,2.25-3.9-2.25L181.59,357l-20.2-11.66L141.74,334l-23.39-13.48h0v0l-.08-.06a8.65,8.65,0,0,1-2-1.56,9.49,9.49,0,0,1-2.42-9A10.68,10.68,0,0,1,114.78,307.57ZM360,112.45l-17.85-3.15L367.51,124l.11-.57A9.43,9.43,0,0,0,360,112.45ZM320.38,374l-8.26,14.28a9.41,9.41,0,0,0,9.11-9.42v-6.34ZM307,397.27l-2.72,4.7,4.53.79a9.27,9.27,0,0,0,6.18-1l2.6-4.45Zm-192.18-89.7,8.4-14.55,0-.06,2.93-5v0l3.22-5.57v0l8.78-15.18,6.53-11.33,5.25-9.09,3.25-5.64h0l.25-.44.95-1.67h0l5.33-9.22,2.63-4.56,5.9-10.18.14-.28,6.37-11.06,1.48-2.52,2.85-5,3.16-5.49h0l1.05-1.76,6.56-11.34.24-.45h0l4.76-8.24,1.27-2.21h0L207,147.84l4.94-8.6,1.62-2.77,4.42-7.69,20.37-35.24,1.32-2.31,3.84-6.67-3.87,6.67-9.58-1.7-2.33,4-19.35,33.57-5.19,9-.25.38-6.53,11.37-9.89,17.1h0l-6.05,10.45h0l-1.24,2.15L172.7,188.9l-.06.06h0l-6,10.44v0l-2.43,4.21-5.57,9.66h0l-1,1.68-3.29,5.74-5.19,9-6.56,11.34-8.48,14.74-5.88,10.13v0l-.33.58,0,.05-13.37,23.17,0,.06L110,315.06V326l6.69,3.9,10.68,6.15,16.09,9.31L165.26,358l48.62,28,4,2.31h9l12.79,2.25-3.9-2.25L181.59,357l-20.2-11.66L141.74,334l-23.39-13.48h0v0l-.08-.06a8.65,8.65,0,0,1-2-1.56,9.49,9.49,0,0,1-2.42-9A10.68,10.68,0,0,1,114.78,307.57ZM360,112.45l-17.85-3.15L367.51,124l.11-.57A9.43,9.43,0,0,0,360,112.45ZM320.38,374l-8.26,14.28a9.41,9.41,0,0,0,9.11-9.42v-6.34ZM307,397.27l-2.72,4.7,4.53.79a9.27,9.27,0,0,0,6.18-1l2.6-4.45Zm-192.18-89.7,8.4-14.55,0-.06,2.93-5v0l3.22-5.57v0l8.78-15.18,6.53-11.33,5.25-9.09,3.25-5.64h0l.25-.44.95-1.67h0l5.33-9.22,2.63-4.56,5.9-10.18.14-.28,6.37-11.06,1.48-2.52,2.85-5,3.16-5.49h0l1.05-1.76,6.56-11.34.24-.45h0l4.76-8.24,1.27-2.21h0L207,147.84l4.94-8.6,1.62-2.77,4.42-7.69,20.37-35.24,1.32-2.31,3.84-6.67-3.87,6.67-9.58-1.7-2.33,4-19.35,33.57-5.19,9-.25.38-6.53,11.37-9.89,17.1h0l-6.05,10.45h0l-1.24,2.15L172.7,188.9l-.06.06h0l-6,10.44v0l-2.43,4.21-5.57,9.66h0l-1,1.68-3.29,5.74-5.19,9-6.56,11.34-8.48,14.74-5.88,10.13v0l-.33.58,0,.05-13.37,23.17,0,.06L110,315.06V326l6.69,3.9,10.68,6.15,16.09,9.31L165.26,358l48.62,28,4,2.31h9l12.79,2.25-3.9-2.25L181.59,357l-20.2-11.66L141.74,334l-23.39-13.48h0v0l-.08-.06a8.65,8.65,0,0,1-2-1.56,9.49,9.49,0,0,1-2.42-9A10.68,10.68,0,0,1,114.78,307.57ZM360,112.45l-17.85-3.15L367.51,124l.11-.57A9.43,9.43,0,0,0,360,112.45ZM320.38,374l-8.26,14.28a9.41,9.41,0,0,0,9.11-9.42v-6.34ZM307,397.27l-2.72,4.7,4.53.79a9.27,9.27,0,0,0,6.18-1l2.6-4.45Zm-192.18-89.7,8.4-14.55,0-.06,2.93-5v0l3.22-5.57v0l8.78-15.18,6.53-11.33,5.25-9.09,3.25-5.64h0l.25-.44.95-1.67h0l5.33-9.22,2.63-4.56,5.9-10.18.14-.28,6.37-11.06,1.48-2.52,2.85-5,3.16-5.49h0l1.05-1.76,6.56-11.34.24-.45h0l4.76-8.24,1.27-2.21h0L207,147.84l4.94-8.6,1.62-2.77,4.42-7.69,20.37-35.24,1.32-2.31,3.84-6.67-3.87,6.67-9.58-1.7-2.33,4-19.35,33.57-5.19,9-.25.38-6.53,11.37-9.89,17.1h0l-6.05,10.45h0l-1.24,2.15L172.7,188.9l-.06.06h0l-6,10.44v0l-2.43,4.21-5.57,9.66h0l-1,1.68-3.29,5.74-5.19,9-6.56,11.34-8.48,14.74-5.88,10.13v0l-.33.58,0,.05-13.37,23.17,0,.06L110,315.06V326l6.69,3.9,10.68,6.15,16.09,9.31L165.26,358l48.62,28,4,2.31h9l12.79,2.25-3.9-2.25L181.59,357l-20.2-11.66L141.74,334l-23.39-13.48h0v0l-.08-.06a8.65,8.65,0,0,1-2-1.56,9.49,9.49,0,0,1-2.42-9A10.68,10.68,0,0,1,114.78,307.57ZM360,112.45l-17.85-3.15L367.51,124l.11-.57A9.43,9.43,0,0,0,360,112.45ZM320.38,374l-8.26,14.28a9.41,9.41,0,0,0,9.11-9.42v-6.34ZM307,397.27l-2.72,4.7,4.53.79a9.27,9.27,0,0,0,6.18-1l2.6-4.45Zm-192.18-89.7,8.4-14.55,0-.06,2.93-5v0l3.22-5.57v0l8.78-15.18,6.53-11.33,5.25-9.09,3.25-5.64h0l.25-.44.95-1.67h0l5.33-9.22,2.63-4.56,5.9-10.18.14-.28,6.37-11.06,1.48-2.52,2.85-5,3.16-5.49h0l1.05-1.76,6.56-11.34.24-.45h0l4.76-8.24,1.27-2.21h0L207,147.84l4.94-8.6,1.62-2.77,4.42-7.69,20.37-35.24,1.32-2.31,3.84-6.67-3.87,6.67-9.58-1.7-2.33,4-19.35,33.57-5.19,9-.25.38-6.53,11.37-9.89,17.1h0l-6.05,10.45h0l-1.24,2.15L172.7,188.9l-.06.06h0l-6,10.44v0l-2.43,4.21-5.57,9.66h0l-1,1.68-3.29,5.74-5.19,9-6.56,11.34-8.48,14.74-5.88,10.13v0l-.33.58,0,.05-13.37,23.17,0,.06L110,315.06V326l6.69,3.9,10.68,6.15,16.09,9.31L165.26,358l48.62,28,4,2.31h9l12.79,2.25-3.9-2.25L181.59,357l-20.2-11.66L141.74,334l-23.39-13.48h0v0l-.08-.06a8.65,8.65,0,0,1-2-1.56,9.49,9.49,0,0,1-2.42-9A10.68,10.68,0,0,1,114.78,307.57ZM360,112.45l-17.85-3.15L367.51,124l.11-.57A9.43,9.43,0,0,0,360,112.45ZM320.38,374l-8.26,14.28a9.41,9.41,0,0,0,9.11-9.42v-6.34ZM307,397.27l-2.72,4.7,4.53.79a9.27,9.27,0,0,0,6.18-1l2.6-4.45Zm-192.18-89.7,8.4-14.55,0-.06,2.93-5v0l3.22-5.57v0l8.78-15.18,6.53-11.33,5.25-9.09,3.25-5.64h0l.25-.44.95-1.67h0l5.33-9.22,2.63-4.56,5.9-10.18.14-.28,6.37-11.06,1.48-2.52,2.85-5,3.16-5.49h0l1.05-1.76,6.56-11.34.24-.45h0l4.76-8.24,1.27-2.21h0L207,147.84l4.94-8.6,1.62-2.77,4.42-7.69,20.37-35.24,1.32-2.31,3.84-6.67-3.87,6.67-9.58-1.7-2.33,4-19.35,33.57-5.19,9-.25.38-6.53,11.37-9.89,17.1h0l-6.05,10.45h0l-1.24,2.15L172.7,188.9l-.06.06h0l-6,10.44v0l-2.43,4.21-5.57,9.66h0l-1,1.68-3.29,5.74-5.19,9-6.56,11.34-8.48,14.74-5.88,10.13v0l-.33.58,0,.05-13.37,23.17,0,.06L110,315.06V326l6.69,3.9,10.68,6.15,16.09,9.31L165.26,358l48.62,28,4,2.31h9l12.79,2.25-3.9-2.25L181.59,357l-20.2-11.66L141.74,334l-23.39-13.48h0v0l-.08-.06a8.65,8.65,0,0,1-2-1.56,9.49,9.49,0,0,1-2.42-9A10.68,10.68,0,0,1,114.78,307.57ZM360,112.45l-17.85-3.15L367.51,124l.11-.57A9.43,9.43,0,0,0,360,112.45ZM320.38,374l-8.26,14.28a9.41,9.41,0,0,0,9.11-9.42v-6.34ZM307,397.27l-2.72,4.7,4.53.79a9.27,9.27,0,0,0,6.18-1l2.6-4.45Zm-192.18-89.7,8.4-14.55,0-.06,2.93-5v0l3.22-5.57v0l8.78-15.18,6.53-11.33,5.25-9.09,3.25-5.64h0l.25-.44.95-1.67h0l5.33-9.22,2.63-4.56,5.9-10.18.14-.28,6.37-11.06,1.48-2.52,2.85-5,3.16-5.49h0l1.05-1.76,6.56-11.34.24-.45h0l4.76-8.24,1.27-2.21h0L207,147.84l4.94-8.6,1.62-2.77,4.42-7.69,20.37-35.24,1.32-2.31,3.84-6.67-3.87,6.67-9.58-1.7-2.33,4-19.35,33.57-5.19,9-.25.38-6.53,11.37-9.89,17.1h0l-6.05,10.45h0l-1.24,2.15L172.7,188.9l-.06.06h0l-6,10.44v0l-2.43,4.21-5.57,9.66h0l-1,1.68-3.29,5.74-5.19,9-6.56,11.34-8.48,14.74-5.88,10.13v0l-.33.58,0,.05-13.37,23.17,0,.06L110,315.06V326l6.69,3.9,10.68,6.15,16.09,9.31L165.26,358l48.62,28,4,2.31h9l12.79,2.25-3.9-2.25L181.59,357l-20.2-11.66L141.74,334l-23.39-13.48h0v0l-.08-.06a8.65,8.65,0,0,1-2-1.56,9.49,9.49,0,0,1-2.42-9A10.68,10.68,0,0,1,114.78,307.57ZM360,112.45l-17.85-3.15L367.51,124l.11-.57A9.43,9.43,0,0,0,360,112.45ZM320.38,374l-8.26,14.28a9.41,9.41,0,0,0,9.11-9.42v-6.34ZM307,397.27l-2.72,4.7,4.53.79a9.27,9.27,0,0,0,6.18-1l2.6-4.45Zm-192.18-89.7,8.4-14.55,0-.06,2.93-5v0l3.22-5.57v0l8.78-15.18,6.53-11.33,5.25-9.09,3.25-5.64h0l.25-.44.95-1.67h0l5.33-9.22,2.63-4.56,5.9-10.18.14-.28,6.37-11.06,1.48-2.52,2.85-5,3.16-5.49h0l1.05-1.76,6.56-11.34.24-.45h0l4.76-8.24,1.27-2.21h0L207,147.84l4.94-8.6,1.62-2.77,4.42-7.69,20.37-35.24,1.32-2.31,3.84-6.67-3.87,6.67-9.58-1.7-2.33,4-19.35,33.57-5.19,9-.25.38-6.53,11.37-9.89,17.1h0l-6.05,10.45h0l-1.24,2.15L172.7,188.9l-.06.06h0l-6,10.44v0l-2.43,4.21-5.57,9.66h0l-1,1.68-3.29,5.74-5.19,9-6.56,11.34-8.48,14.74-5.88,10.13v0l-.33.58,0,.05-13.37,23.17,0,.06L110,315.06V326l6.69,3.9,10.68,6.15,16.09,9.31L165.26,358l48.62,28,4,2.31h9l12.79,2.25-3.9-2.25L181.59,357l-20.2-11.66L141.74,334l-23.39-13.48h0v0l-.08-.06a8.65,8.65,0,0,1-2-1.56,9.49,9.49,0,0,1-2.42-9A10.68,10.68,0,0,1,114.78,307.57ZM360,112.45l-17.85-3.15L367.51,124l.11-.57A9.43,9.43,0,0,0,360,112.45ZM320.38,374l-8.26,14.28a9.41,9.41,0,0,0,9.11-9.42v-6.34ZM307,397.27l-2.72,4.7,4.53.79a9.27,9.27,0,0,0,6.18-1l2.6-4.45Zm-192.18-89.7,8.4-14.55,0-.06,2.93-5v0l3.22-5.57v0l8.78-15.18,6.53-11.33,5.25-9.09,3.25-5.64h0l.25-.44.95-1.67h0l5.33-9.22,2.63-4.56,5.9-10.18.14-.28,6.37-11.06,1.48-2.52,2.85-5,3.16-5.49h0l1.05-1.76,6.56-11.34.24-.45h0l4.76-8.24,1.27-2.21h0L207,147.84l4.94-8.6,1.62-2.77,4.42-7.69,20.37-35.24,1.32-2.31,3.84-6.67-3.87,6.67-9.58-1.7-2.33,4-19.35,33.57-5.19,9-.25.38-6.53,11.37-9.89,17.1h0l-6.05,10.45h0l-1.24,2.15L172.7,188.9l-.06.06h0l-6,10.44v0l-2.43,4.21-5.57,9.66h0l-1,1.68-3.29,5.74-5.19,9-6.56,11.34-8.48,14.74-5.88,10.13v0l-.33.58,0,.05-13.37,23.17,0,.06L110,315.06V326l6.69,3.9,10.68,6.15,16.09,9.31L165.26,358l48.62,28,4,2.31h9l12.79,2.25-3.9-2.25L181.59,357l-20.2-11.66L141.74,334l-23.39-13.48h0v0l-.08-.06a8.65,8.65,0,0,1-2-1.56,9.49,9.49,0,0,1-2.42-9A10.68,10.68,0,0,1,114.78,307.57ZM360,112.45l-17.85-3.15L367.51,124l.11-.57A9.43,9.43,0,0,0,360,112.45ZM312.12,388.3a9.41,9.41,0,0,0,9.11-9.42v-6.34l-.85,1.48ZM304.24,402l4.53.79a9.27,9.27,0,0,0,6.18-1l2.6-4.45H307ZM230.07,89.53l-2.33,4-19.35,33.57-5.19,9-.25.38-6.53,11.37-9.89,17.1h0l-6.05,10.45h0l-1.24,2.15L172.7,188.9l-.06.06h0l-6,10.44v0l-2.43,4.21-5.57,9.66h0l-1,1.68-3.29,5.74-5.19,9-6.56,11.34-8.48,14.74-5.88,10.13v0l-.33.58,0,.05-13.37,23.17,0,.06L110,315.06V326l6.69,3.9,10.68,6.15,16.09,9.31L165.26,358l48.62,28,4,2.31h9l12.79,2.25-3.9-2.25L181.59,357l-20.2-11.66L141.74,334l-23.39-13.48h0v0l-.08-.06a8.65,8.65,0,0,1-2-1.56,9.49,9.49,0,0,1-2.42-9,10.68,10.68,0,0,1,1-2.3l8.4-14.55,0-.06,2.93-5v0l3.22-5.57v0l8.78-15.18,6.53-11.33,5.25-9.09,3.25-5.64h0l.25-.44.95-1.67h0l5.33-9.22,2.63-4.56,5.9-10.18.14-.28,6.37-11.06,1.48-2.52,2.85-5,3.16-5.49h0l1.05-1.76,6.56-11.34.24-.45h0l4.76-8.24,1.27-2.21h0L207,147.84l4.94-8.6,1.62-2.77,4.42-7.69,20.37-35.24,1.32-2.31,3.84-6.67-3.87,6.67Zm215.32,69-67.72-39.12h0v0l-32.36-18.66h0l-14.9-8.62L317.2,84.56,261.45,52.39a8.62,8.62,0,0,0-11.78,3.16L234.85,81.3,233,84.56l-2.88,5-2.33,4-19.35,33.57-5.19,9-.25.38-6.53,11.37-9.89,17.1h0l-6.05,10.45h0l-1.24,2.15L172.7,188.9l-.06.06h0l-6,10.44v0l-2.43,4.21-5.57,9.66h0l-1,1.68-3.29,5.74-5.19,9-6.56,11.34-8.48,14.74-5.88,10.13v0l-.33.58,0,.05-13.37,23.17,0,.06L110,297.52l-8,13.89a8.61,8.61,0,0,0,3.16,11.8l3.1,1.79v0h0l1.73,1,6.69,3.9,10.68,6.15,16.09,9.31L165.26,358l48.62,28,4,2.31,15.46,8.94,3.24,1.87L289,429.42a8.67,8.67,0,0,0,11.81-3.19l8.26-14.3L315,401.72l2.6-4.45,2.56-4.39,0-.05,8.79-15.24,1.51-2.63,3.1-5.44,115-199.18A8.59,8.59,0,0,0,445.39,158.57Zm-9.69,15.65-97.5,168.9-7.77,13.5-5.63,9.77,0,.06-3.54,6.09-.85,1.48-8.26,14.28-5.16,9-2.72,4.7-4.78,8.26-1.73,3a9.44,9.44,0,0,1-12.87,3.45L262.41,403.7h0l-11.09-6.43h0l-11.55-6.69h0l-3.9-2.25L181.59,357l-20.2-11.66L141.74,334l-23.39-13.48h0v0l-.08-.06a8.65,8.65,0,0,1-2-1.56,9.49,9.49,0,0,1-2.42-9,10.68,10.68,0,0,1,1-2.3l8.4-14.55,0-.06,2.93-5v0l3.22-5.57v0l8.78-15.18,6.53-11.33,5.25-9.09,3.25-5.64h0l.25-.44.95-1.67h0l5.33-9.22,2.63-4.56,5.9-10.18.14-.28,6.37-11.06,1.48-2.52,2.85-5,3.16-5.49h0l1.05-1.76,6.56-11.34.24-.45h0l4.76-8.24,1.27-2.21h0L207,147.84l4.94-8.6,1.62-2.77,4.42-7.69,20.37-35.24,1.32-2.31,3.84-6.67.93-1.59,8.32-14.38a9.42,9.42,0,0,1,12.88-3.43l33.62,19.4L319.45,96.2l11,6.34,11.69,6.76L367.51,124l0,0,8.43,4.89,56.27,32.47A9.44,9.44,0,0,1,435.7,174.22ZM114.78,307.57l8.4-14.55,0-.06,2.93-5v0l3.22-5.57v0l8.78-15.18,6.53-11.33,5.25-9.09,3.25-5.64h0l.25-.44.95-1.67h0l5.33-9.22,2.63-4.56,5.9-10.18.14-.28,6.37-11.06,1.48-2.52,2.85-5,3.16-5.49h0l1.05-1.76,6.56-11.34.24-.45h0l4.76-8.24,1.27-2.21h0L207,147.84l4.94-8.6,1.62-2.77,4.42-7.69,20.37-35.24,1.32-2.31,3.84-6.67-3.87,6.67-9.58-1.7-2.33,4-19.35,33.57-5.19,9-.25.38-6.53,11.37-9.89,17.1h0l-6.05,10.45h0l-1.24,2.15L172.7,188.9l-.06.06h0l-6,10.44v0l-2.43,4.21-5.57,9.66h0l-1,1.68-3.29,5.74-5.19,9-6.56,11.34-8.48,14.74-5.88,10.13v0l-.33.58,0,.05-13.37,23.17,0,.06L110,315.06V326l6.69,3.9,10.68,6.15,16.09,9.31L165.26,358l48.62,28,4,2.31h9l12.79,2.25-3.9-2.25L181.59,357l-20.2-11.66L141.74,334l-23.39-13.48h0v0l-.08-.06a8.65,8.65,0,0,1-2-1.56,9.49,9.49,0,0,1-2.42-9A10.68,10.68,0,0,1,114.78,307.57ZM307,397.27l-2.72,4.7,4.53.79a9.27,9.27,0,0,0,6.18-1l2.6-4.45ZM320.38,374l-8.26,14.28a9.41,9.41,0,0,0,9.11-9.42v-6.34ZM360,112.45l-17.85-3.15L367.51,124l.11-.57A9.43,9.43,0,0,0,360,112.45ZM114.78,307.57l8.4-14.55,0-.06,2.93-5v0l3.22-5.57v0l8.78-15.18,6.53-11.33,5.25-9.09,3.25-5.64h0l.25-.44.95-1.67h0l5.33-9.22,2.63-4.56,5.9-10.18.14-.28,6.37-11.06,1.48-2.52,2.85-5,3.16-5.49h0l1.05-1.76,6.56-11.34.24-.45h0l4.76-8.24,1.27-2.21h0L207,147.84l4.94-8.6,1.62-2.77,4.42-7.69,20.37-35.24,1.32-2.31,3.84-6.67-3.87,6.67-9.58-1.7-2.33,4-19.35,33.57-5.19,9-.25.38-6.53,11.37-9.89,17.1h0l-6.05,10.45h0l-1.24,2.15L172.7,188.9l-.06.06h0l-6,10.44v0l-2.43,4.21-5.57,9.66h0l-1,1.68-3.29,5.74-5.19,9-6.56,11.34-8.48,14.74-5.88,10.13v0l-.33.58,0,.05-13.37,23.17,0,.06L110,315.06V326l6.69,3.9,10.68,6.15,16.09,9.31L165.26,358l48.62,28,4,2.31h9l12.79,2.25-3.9-2.25L181.59,357l-20.2-11.66L141.74,334l-23.39-13.48h0v0l-.08-.06a8.65,8.65,0,0,1-2-1.56,9.49,9.49,0,0,1-2.42-9A10.68,10.68,0,0,1,114.78,307.57ZM307,397.27l-2.72,4.7,4.53.79a9.27,9.27,0,0,0,6.18-1l2.6-4.45ZM320.38,374l-8.26,14.28a9.41,9.41,0,0,0,9.11-9.42v-6.34ZM360,112.45l-17.85-3.15L367.51,124l.11-.57A9.43,9.43,0,0,0,360,112.45ZM114.78,307.57l8.4-14.55,0-.06,2.93-5v0l3.22-5.57v0l8.78-15.18,6.53-11.33,5.25-9.09,3.25-5.64h0l.25-.44.95-1.67h0l5.33-9.22,2.63-4.56,5.9-10.18.14-.28,6.37-11.06,1.48-2.52,2.85-5,3.16-5.49h0l1.05-1.76,6.56-11.34.24-.45h0l4.76-8.24,1.27-2.21h0L207,147.84l4.94-8.6,1.62-2.77,4.42-7.69,20.37-35.24,1.32-2.31,3.84-6.67-3.87,6.67-9.58-1.7-2.33,4-19.35,33.57-5.19,9-.25.38-6.53,11.37-9.89,17.1h0l-6.05,10.45h0l-1.24,2.15L172.7,188.9l-.06.06h0l-6,10.44v0l-2.43,4.21-5.57,9.66h0l-1,1.68-3.29,5.74-5.19,9-6.56,11.34-8.48,14.74-5.88,10.13v0l-.33.58,0,.05-13.37,23.17,0,.06L110,315.06V326l6.69,3.9,10.68,6.15,16.09,9.31L165.26,358l48.62,28,4,2.31h9l12.79,2.25-3.9-2.25L181.59,357l-20.2-11.66L141.74,334l-23.39-13.48h0v0l-.08-.06a8.65,8.65,0,0,1-2-1.56,9.49,9.49,0,0,1-2.42-9A10.68,10.68,0,0,1,114.78,307.57ZM307,397.27l-2.72,4.7,4.53.79a9.27,9.27,0,0,0,6.18-1l2.6-4.45ZM320.38,374l-8.26,14.28a9.41,9.41,0,0,0,9.11-9.42v-6.34ZM360,112.45l-17.85-3.15L367.51,124l.11-.57A9.43,9.43,0,0,0,360,112.45ZM114.78,307.57l8.4-14.55,0-.06,2.93-5v0l3.22-5.57v0l8.78-15.18,6.53-11.33,5.25-9.09,3.25-5.64h0l.25-.44.95-1.67h0l5.33-9.22,2.63-4.56,5.9-10.18.14-.28,6.37-11.06,1.48-2.52,2.85-5,3.16-5.49h0l1.05-1.76,6.56-11.34.24-.45h0l4.76-8.24,1.27-2.21h0L207,147.84l4.94-8.6,1.62-2.77,4.42-7.69,20.37-35.24,1.32-2.31,3.84-6.67-3.87,6.67-9.58-1.7-2.33,4-19.35,33.57-5.19,9-.25.38-6.53,11.37-9.89,17.1h0l-6.05,10.45h0l-1.24,2.15L172.7,188.9l-.06.06h0l-6,10.44v0l-2.43,4.21-5.57,9.66h0l-1,1.68-3.29,5.74-5.19,9-6.56,11.34-8.48,14.74-5.88,10.13v0l-.33.58,0,.05-13.37,23.17,0,.06L110,315.06V326l6.69,3.9,10.68,6.15,16.09,9.31L165.26,358l48.62,28,4,2.31h9l12.79,2.25-3.9-2.25L181.59,357l-20.2-11.66L141.74,334l-23.39-13.48h0v0l-.08-.06a8.65,8.65,0,0,1-2-1.56,9.49,9.49,0,0,1-2.42-9A10.68,10.68,0,0,1,114.78,307.57ZM307,397.27l-2.72,4.7,4.53.79a9.27,9.27,0,0,0,6.18-1l2.6-4.45ZM320.38,374l-8.26,14.28a9.41,9.41,0,0,0,9.11-9.42v-6.34ZM360,112.45l-17.85-3.15L367.51,124l.11-.57A9.43,9.43,0,0,0,360,112.45ZM114.78,307.57l8.4-14.55,0-.06,2.93-5v0l3.22-5.57v0l8.78-15.18,6.53-11.33,5.25-9.09,3.25-5.64h0l.25-.44.95-1.67h0l5.33-9.22,2.63-4.56,5.9-10.18.14-.28,6.37-11.06,1.48-2.52,2.85-5,3.16-5.49h0l1.05-1.76,6.56-11.34.24-.45h0l4.76-8.24,1.27-2.21h0L207,147.84l4.94-8.6,1.62-2.77,4.42-7.69,20.37-35.24,1.32-2.31,3.84-6.67-3.87,6.67-9.58-1.7-2.33,4-19.35,33.57-5.19,9-.25.38-6.53,11.37-9.89,17.1h0l-6.05,10.45h0l-1.24,2.15L172.7,188.9l-.06.06h0l-6,10.44v0l-2.43,4.21-5.57,9.66h0l-1,1.68-3.29,5.74-5.19,9-6.56,11.34-8.48,14.74-5.88,10.13v0l-.33.58,0,.05-13.37,23.17,0,.06L110,315.06V326l6.69,3.9,10.68,6.15,16.09,9.31L165.26,358l48.62,28,4,2.31h9l12.79,2.25-3.9-2.25L181.59,357l-20.2-11.66L141.74,334l-23.39-13.48h0v0l-.08-.06a8.65,8.65,0,0,1-2-1.56,9.49,9.49,0,0,1-2.42-9A10.68,10.68,0,0,1,114.78,307.57ZM307,397.27l-2.72,4.7,4.53.79a9.27,9.27,0,0,0,6.18-1l2.6-4.45ZM320.38,374l-8.26,14.28a9.41,9.41,0,0,0,9.11-9.42v-6.34ZM360,112.45l-17.85-3.15L367.51,124l.11-.57A9.43,9.43,0,0,0,360,112.45ZM114.78,307.57l8.4-14.55,0-.06,2.93-5v0l3.22-5.57v0l8.78-15.18,6.53-11.33,5.25-9.09,3.25-5.64h0l.25-.44.95-1.67h0l5.33-9.22,2.63-4.56,5.9-10.18.14-.28,6.37-11.06,1.48-2.52,2.85-5,3.16-5.49h0l1.05-1.76,6.56-11.34.24-.45h0l4.76-8.24,1.27-2.21h0L207,147.84l4.94-8.6,1.62-2.77,4.42-7.69,20.37-35.24,1.32-2.31,3.84-6.67-3.87,6.67-9.58-1.7-2.33,4-19.35,33.57-5.19,9-.25.38-6.53,11.37-9.89,17.1h0l-6.05,10.45h0l-1.24,2.15L172.7,188.9l-.06.06h0l-6,10.44v0l-2.43,4.21-5.57,9.66h0l-1,1.68-3.29,5.74-5.19,9-6.56,11.34-8.48,14.74-5.88,10.13v0l-.33.58,0,.05-13.37,23.17,0,.06L110,315.06V326l6.69,3.9,10.68,6.15,16.09,9.31L165.26,358l48.62,28,4,2.31h9l12.79,2.25-3.9-2.25L181.59,357l-20.2-11.66L141.74,334l-23.39-13.48h0v0l-.08-.06a8.65,8.65,0,0,1-2-1.56,9.49,9.49,0,0,1-2.42-9A10.68,10.68,0,0,1,114.78,307.57ZM307,397.27l-2.72,4.7,4.53.79a9.27,9.27,0,0,0,6.18-1l2.6-4.45ZM320.38,374l-8.26,14.28a9.41,9.41,0,0,0,9.11-9.42v-6.34ZM360,112.45l-17.85-3.15L367.51,124l.11-.57A9.43,9.43,0,0,0,360,112.45ZM114.78,307.57l8.4-14.55,0-.06,2.93-5v0l3.22-5.57v0l8.78-15.18,6.53-11.33,5.25-9.09,3.25-5.64h0l.25-.44.95-1.67h0l5.33-9.22,2.63-4.56,5.9-10.18.14-.28,6.37-11.06,1.48-2.52,2.85-5,3.16-5.49h0l1.05-1.76,6.56-11.34.24-.45h0l4.76-8.24,1.27-2.21h0L207,147.84l4.94-8.6,1.62-2.77,4.42-7.69,20.37-35.24,1.32-2.31,3.84-6.67-3.87,6.67-9.58-1.7-2.33,4-19.35,33.57-5.19,9-.25.38-6.53,11.37-9.89,17.1h0l-6.05,10.45h0l-1.24,2.15L172.7,188.9l-.06.06h0l-6,10.44v0l-2.43,4.21-5.57,9.66h0l-1,1.68-3.29,5.74-5.19,9-6.56,11.34-8.48,14.74-5.88,10.13v0l-.33.58,0,.05-13.37,23.17,0,.06L110,315.06V326l6.69,3.9,10.68,6.15,16.09,9.31L165.26,358l48.62,28,4,2.31h9l12.79,2.25-3.9-2.25L181.59,357l-20.2-11.66L141.74,334l-23.39-13.48h0v0l-.08-.06a8.65,8.65,0,0,1-2-1.56,9.49,9.49,0,0,1-2.42-9A10.68,10.68,0,0,1,114.78,307.57ZM307,397.27l-2.72,4.7,4.53.79a9.27,9.27,0,0,0,6.18-1l2.6-4.45ZM320.38,374l-8.26,14.28a9.41,9.41,0,0,0,9.11-9.42v-6.34ZM360,112.45l-17.85-3.15L367.51,124l.11-.57A9.43,9.43,0,0,0,360,112.45ZM114.78,307.57l8.4-14.55,0-.06,2.93-5v0l3.22-5.57v0l8.78-15.18,6.53-11.33,5.25-9.09,3.25-5.64h0l.25-.44.95-1.67h0l5.33-9.22,2.63-4.56,5.9-10.18.14-.28,6.37-11.06,1.48-2.52,2.85-5,3.16-5.49h0l1.05-1.76,6.56-11.34.24-.45h0l4.76-8.24,1.27-2.21h0L207,147.84l4.94-8.6,1.62-2.77,4.42-7.69,20.37-35.24,1.32-2.31,3.84-6.67-3.87,6.67-9.58-1.7-2.33,4-19.35,33.57-5.19,9-.25.38-6.53,11.37-9.89,17.1h0l-6.05,10.45h0l-1.24,2.15L172.7,188.9l-.06.06h0l-6,10.44v0l-2.43,4.21-5.57,9.66h0l-1,1.68-3.29,5.74-5.19,9-6.56,11.34-8.48,14.74-5.88,10.13v0l-.33.58,0,.05-13.37,23.17,0,.06L110,315.06V326l6.69,3.9,10.68,6.15,16.09,9.31L165.26,358l48.62,28,4,2.31h9l12.79,2.25-3.9-2.25L181.59,357l-20.2-11.66L141.74,334l-23.39-13.48h0v0l-.08-.06a8.65,8.65,0,0,1-2-1.56,9.49,9.49,0,0,1-2.42-9A10.68,10.68,0,0,1,114.78,307.57ZM307,397.27l-2.72,4.7,4.53.79a9.27,9.27,0,0,0,6.18-1l2.6-4.45ZM320.38,374l-8.26,14.28a9.41,9.41,0,0,0,9.11-9.42v-6.34ZM360,112.45l-17.85-3.15L367.51,124l.11-.57A9.43,9.43,0,0,0,360,112.45ZM114.78,307.57l8.4-14.55,0-.06,2.93-5v0l3.22-5.57v0l8.78-15.18,6.53-11.33,5.25-9.09,3.25-5.64h0l.25-.44.95-1.67h0l5.33-9.22,2.63-4.56,5.9-10.18.14-.28,6.37-11.06,1.48-2.52,2.85-5,3.16-5.49h0l1.05-1.76,6.56-11.34.24-.45h0l4.76-8.24,1.27-2.21h0L207,147.84l4.94-8.6,1.62-2.77,4.42-7.69,20.37-35.24,1.32-2.31,3.84-6.67-3.87,6.67-9.58-1.7-2.33,4-19.35,33.57-5.19,9-.25.38-6.53,11.37-9.89,17.1h0l-6.05,10.45h0l-1.24,2.15L172.7,188.9l-.06.06h0l-6,10.44v0l-2.43,4.21-5.57,9.66h0l-1,1.68-3.29,5.74-5.19,9-6.56,11.34-8.48,14.74-5.88,10.13v0l-.33.58,0,.05-13.37,23.17,0,.06L110,315.06V326l6.69,3.9,10.68,6.15,16.09,9.31L165.26,358l48.62,28,4,2.31h9l12.79,2.25-3.9-2.25L181.59,357l-20.2-11.66L141.74,334l-23.39-13.48h0v0l-.08-.06a8.65,8.65,0,0,1-2-1.56,9.49,9.49,0,0,1-2.42-9A10.68,10.68,0,0,1,114.78,307.57ZM307,397.27l-2.72,4.7,4.53.79a9.27,9.27,0,0,0,6.18-1l2.6-4.45ZM320.38,374l-8.26,14.28a9.41,9.41,0,0,0,9.11-9.42v-6.34ZM360,112.45l-17.85-3.15L367.51,124l.11-.57A9.43,9.43,0,0,0,360,112.45ZM114.78,307.57l8.4-14.55,0-.06,2.93-5v0l3.22-5.57v0l8.78-15.18,6.53-11.33,5.25-9.09,3.25-5.64h0l.25-.44.95-1.67h0l5.33-9.22,2.63-4.56,5.9-10.18.14-.28,6.37-11.06,1.48-2.52,2.85-5,3.16-5.49h0l1.05-1.76,6.56-11.34.24-.45h0l4.76-8.24,1.27-2.21h0L207,147.84l4.94-8.6,1.62-2.77,4.42-7.69,20.37-35.24,1.32-2.31,3.84-6.67-3.87,6.67-9.58-1.7-2.33,4-19.35,33.57-5.19,9-.25.38-6.53,11.37-9.89,17.1h0l-6.05,10.45h0l-1.24,2.15L172.7,188.9l-.06.06h0l-6,10.44v0l-2.43,4.21-5.57,9.66h0l-1,1.68-3.29,5.74-5.19,9-6.56,11.34-8.48,14.74-5.88,10.13v0l-.33.58,0,.05-13.37,23.17,0,.06L110,315.06V326l6.69,3.9,10.68,6.15,16.09,9.31L165.26,358l48.62,28,4,2.31h9l12.79,2.25-3.9-2.25L181.59,357l-20.2-11.66L141.74,334l-23.39-13.48h0v0l-.08-.06a8.65,8.65,0,0,1-2-1.56,9.49,9.49,0,0,1-2.42-9A10.68,10.68,0,0,1,114.78,307.57ZM307,397.27l-2.72,4.7,4.53.79a9.27,9.27,0,0,0,6.18-1l2.6-4.45ZM320.38,374l-8.26,14.28a9.41,9.41,0,0,0,9.11-9.42v-6.34ZM360,112.45l-17.85-3.15L367.51,124l.11-.57A9.43,9.43,0,0,0,360,112.45ZM114.78,307.57l8.4-14.55,0-.06,2.93-5v0l3.22-5.57v0l8.78-15.18,6.53-11.33,5.25-9.09,3.25-5.64h0l.25-.44.95-1.67h0l5.33-9.22,2.63-4.56,5.9-10.18.14-.28,6.37-11.06,1.48-2.52,2.85-5,3.16-5.49h0l1.05-1.76,6.56-11.34.24-.45h0l4.76-8.24,1.27-2.21h0L207,147.84l4.94-8.6,1.62-2.77,4.42-7.69,20.37-35.24,1.32-2.31,3.84-6.67-3.87,6.67-9.58-1.7-2.33,4-19.35,33.57-5.19,9-.25.38-6.53,11.37-9.89,17.1h0l-6.05,10.45h0l-1.24,2.15L172.7,188.9l-.06.06h0l-6,10.44v0l-2.43,4.21-5.57,9.66h0l-1,1.68-3.29,5.74-5.19,9-6.56,11.34-8.48,14.74-5.88,10.13v0l-.33.58,0,.05-13.37,23.17,0,.06L110,315.06V326l6.69,3.9,10.68,6.15,16.09,9.31L165.26,358l48.62,28,4,2.31h9l12.79,2.25-3.9-2.25L181.59,357l-20.2-11.66L141.74,334l-23.39-13.48h0v0l-.08-.06a8.65,8.65,0,0,1-2-1.56,9.49,9.49,0,0,1-2.42-9A10.68,10.68,0,0,1,114.78,307.57ZM307,397.27l-2.72,4.7,4.53.79a9.27,9.27,0,0,0,6.18-1l2.6-4.45ZM320.38,374l-8.26,14.28a9.41,9.41,0,0,0,9.11-9.42v-6.34ZM360,112.45l-17.85-3.15L367.51,124l.11-.57A9.43,9.43,0,0,0,360,112.45ZM114.78,307.57l8.4-14.55,0-.06,2.93-5v0l3.22-5.57v0l8.78-15.18,6.53-11.33,5.25-9.09,3.25-5.64h0l.25-.44.95-1.67h0l5.33-9.22,2.63-4.56,5.9-10.18.14-.28,6.37-11.06,1.48-2.52,2.85-5,3.16-5.49h0l1.05-1.76,6.56-11.34.24-.45h0l4.76-8.24,1.27-2.21h0L207,147.84l4.94-8.6,1.62-2.77,4.42-7.69,20.37-35.24,1.32-2.31,3.84-6.67-3.87,6.67-9.58-1.7-2.33,4-19.35,33.57-5.19,9-.25.38-6.53,11.37-9.89,17.1h0l-6.05,10.45h0l-1.24,2.15L172.7,188.9l-.06.06h0l-6,10.44v0l-2.43,4.21-5.57,9.66h0l-1,1.68-3.29,5.74-5.19,9-6.56,11.34-8.48,14.74-5.88,10.13v0l-.33.58,0,.05-13.37,23.17,0,.06L110,315.06V326l6.69,3.9,10.68,6.15,16.09,9.31L165.26,358l48.62,28,4,2.31h9l12.79,2.25-3.9-2.25L181.59,357l-20.2-11.66L141.74,334l-23.39-13.48h0v0l-.08-.06a8.65,8.65,0,0,1-2-1.56,9.49,9.49,0,0,1-2.42-9A10.68,10.68,0,0,1,114.78,307.57ZM307,397.27l-2.72,4.7,4.53.79a9.27,9.27,0,0,0,6.18-1l2.6-4.45ZM320.38,374l-8.26,14.28a9.41,9.41,0,0,0,9.11-9.42v-6.34ZM360,112.45l-17.85-3.15L367.51,124l.11-.57A9.43,9.43,0,0,0,360,112.45ZM114.78,307.57l8.4-14.55,0-.06,2.93-5v0l3.22-5.57v0l8.78-15.18,6.53-11.33,5.25-9.09,3.25-5.64h0l.25-.44.95-1.67h0l5.33-9.22,2.63-4.56,5.9-10.18.14-.28,6.37-11.06,1.48-2.52,2.85-5,3.16-5.49h0l1.05-1.76,6.56-11.34.24-.45h0l4.76-8.24,1.27-2.21h0L207,147.84l4.94-8.6,1.62-2.77,4.42-7.69,20.37-35.24,1.32-2.31,3.84-6.67-3.87,6.67-9.58-1.7-2.33,4-19.35,33.57-5.19,9-.25.38-6.53,11.37-9.89,17.1h0l-6.05,10.45h0l-1.24,2.15L172.7,188.9l-.06.06h0l-6,10.44v0l-2.43,4.21-5.57,9.66h0l-1,1.68-3.29,5.74-5.19,9-6.56,11.34-8.48,14.74-5.88,10.13v0l-.33.58,0,.05-13.37,23.17,0,.06L110,315.06V326l6.69,3.9,10.68,6.15,16.09,9.31L165.26,358l48.62,28,4,2.31h9l12.79,2.25-3.9-2.25L181.59,357l-20.2-11.66L141.74,334l-23.39-13.48h0v0l-.08-.06a8.65,8.65,0,0,1-2-1.56,9.49,9.49,0,0,1-2.42-9A10.68,10.68,0,0,1,114.78,307.57ZM307,397.27l-2.72,4.7,4.53.79a9.27,9.27,0,0,0,6.18-1l2.6-4.45ZM320.38,374l-8.26,14.28a9.41,9.41,0,0,0,9.11-9.42v-6.34ZM360,112.45l-17.85-3.15L367.51,124l.11-.57A9.43,9.43,0,0,0,360,112.45ZM114.78,307.57l8.4-14.55,0-.06,2.93-5v0l3.22-5.57v0l8.78-15.18,6.53-11.33,5.25-9.09,3.25-5.64h0l.25-.44.95-1.67h0l5.33-9.22,2.63-4.56,5.9-10.18.14-.28,6.37-11.06,1.48-2.52,2.85-5,3.16-5.49h0l1.05-1.76,6.56-11.34.24-.45h0l4.76-8.24,1.27-2.21h0L207,147.84l4.94-8.6,1.62-2.77,4.42-7.69,20.37-35.24,1.32-2.31,3.84-6.67-3.87,6.67-9.58-1.7-2.33,4-19.35,33.57-5.19,9-.25.38-6.53,11.37-9.89,17.1h0l-6.05,10.45h0l-1.24,2.15L172.7,188.9l-.06.06h0l-6,10.44v0l-2.43,4.21-5.57,9.66h0l-1,1.68-3.29,5.74-5.19,9-6.56,11.34-8.48,14.74-5.88,10.13v0l-.33.58,0,.05-13.37,23.17,0,.06L110,315.06V326l6.69,3.9,10.68,6.15,16.09,9.31L165.26,358l48.62,28,4,2.31h9l12.79,2.25-3.9-2.25L181.59,357l-20.2-11.66L141.74,334l-23.39-13.48h0v0l-.08-.06a8.65,8.65,0,0,1-2-1.56,9.49,9.49,0,0,1-2.42-9A10.68,10.68,0,0,1,114.78,307.57ZM307,397.27l-2.72,4.7,4.53.79a9.27,9.27,0,0,0,6.18-1l2.6-4.45ZM320.38,374l-8.26,14.28a9.41,9.41,0,0,0,9.11-9.42v-6.34ZM360,112.45l-17.85-3.15L367.51,124l.11-.57A9.43,9.43,0,0,0,360,112.45ZM114.78,307.57l8.4-14.55,0-.06,2.93-5v0l3.22-5.57v0l8.78-15.18,6.53-11.33,5.25-9.09,3.25-5.64h0l.25-.44.95-1.67h0l5.33-9.22,2.63-4.56,5.9-10.18.14-.28,6.37-11.06,1.48-2.52,2.85-5,3.16-5.49h0l1.05-1.76,6.56-11.34.24-.45h0l4.76-8.24,1.27-2.21h0L207,147.84l4.94-8.6,1.62-2.77,4.42-7.69,20.37-35.24,1.32-2.31,3.84-6.67-3.87,6.67-9.58-1.7-2.33,4-19.35,33.57-5.19,9-.25.38-6.53,11.37-9.89,17.1h0l-6.05,10.45h0l-1.24,2.15L172.7,188.9l-.06.06h0l-6,10.44v0l-2.43,4.21-5.57,9.66h0l-1,1.68-3.29,5.74-5.19,9-6.56,11.34-8.48,14.74-5.88,10.13v0l-.33.58,0,.05-13.37,23.17,0,.06L110,315.06V326l6.69,3.9,10.68,6.15,16.09,9.31L165.26,358l48.62,28,4,2.31h9l12.79,2.25-3.9-2.25L181.59,357l-20.2-11.66L141.74,334l-23.39-13.48h0v0l-.08-.06a8.65,8.65,0,0,1-2-1.56,9.49,9.49,0,0,1-2.42-9A10.68,10.68,0,0,1,114.78,307.57ZM307,397.27l-2.72,4.7,4.53.79a9.27,9.27,0,0,0,6.18-1l2.6-4.45ZM320.38,374l-8.26,14.28a9.41,9.41,0,0,0,9.11-9.42v-6.34ZM360,112.45l-17.85-3.15L367.51,124l.11-.57A9.43,9.43,0,0,0,360,112.45ZM114.78,307.57l8.4-14.55,0-.06,2.93-5v0l3.22-5.57v0l8.78-15.18,6.53-11.33,5.25-9.09,3.25-5.64h0l.25-.44.95-1.67h0l5.33-9.22,2.63-4.56,5.9-10.18.14-.28,6.37-11.06,1.48-2.52,2.85-5,3.16-5.49h0l1.05-1.76,6.56-11.34.24-.45h0l4.76-8.24,1.27-2.21h0L207,147.84l4.94-8.6,1.62-2.77,4.42-7.69,20.37-35.24,1.32-2.31,3.84-6.67-3.87,6.67-9.58-1.7-2.33,4-19.35,33.57-5.19,9-.25.38-6.53,11.37-9.89,17.1h0l-6.05,10.45h0l-1.24,2.15L172.7,188.9l-.06.06h0l-6,10.44v0l-2.43,4.21-5.57,9.66h0l-1,1.68-3.29,5.74-5.19,9-6.56,11.34-8.48,14.74-5.88,10.13v0l-.33.58,0,.05-13.37,23.17,0,.06L110,315.06V326l6.69,3.9,10.68,6.15,16.09,9.31L165.26,358l48.62,28,4,2.31h9l12.79,2.25-3.9-2.25L181.59,357l-20.2-11.66L141.74,334l-23.39-13.48h0v0l-.08-.06a8.65,8.65,0,0,1-2-1.56,9.49,9.49,0,0,1-2.42-9A10.68,10.68,0,0,1,114.78,307.57ZM307,397.27l-2.72,4.7,4.53.79a9.27,9.27,0,0,0,6.18-1l2.6-4.45ZM320.38,374l-8.26,14.28a9.41,9.41,0,0,0,9.11-9.42v-6.34ZM360,112.45l-17.85-3.15L367.51,124l.11-.57A9.43,9.43,0,0,0,360,112.45ZM114.78,307.57l8.4-14.55,0-.06,2.93-5v0l3.22-5.57v0l8.78-15.18,6.53-11.33,5.25-9.09,3.25-5.64h0l.25-.44.95-1.67h0l5.33-9.22,2.63-4.56,5.9-10.18.14-.28,6.37-11.06,1.48-2.52,2.85-5,3.16-5.49h0l1.05-1.76,6.56-11.34.24-.45h0l4.76-8.24,1.27-2.21h0L207,147.84l4.94-8.6,1.62-2.77,4.42-7.69,20.37-35.24,1.32-2.31,3.84-6.67-3.87,6.67-9.58-1.7-2.33,4-19.35,33.57-5.19,9-.25.38-6.53,11.37-9.89,17.1h0l-6.05,10.45h0l-1.24,2.15L172.7,188.9l-.06.06h0l-6,10.44v0l-2.43,4.21-5.57,9.66h0l-1,1.68-3.29,5.74-5.19,9-6.56,11.34-8.48,14.74-5.88,10.13v0l-.33.58,0,.05-13.37,23.17,0,.06L110,315.06V326l6.69,3.9,10.68,6.15,16.09,9.31L165.26,358l48.62,28,4,2.31h9l12.79,2.25-3.9-2.25L181.59,357l-20.2-11.66L141.74,334l-23.39-13.48h0v0l-.08-.06a8.65,8.65,0,0,1-2-1.56,9.49,9.49,0,0,1-2.42-9A10.68,10.68,0,0,1,114.78,307.57ZM307,397.27l-2.72,4.7,4.53.79a9.27,9.27,0,0,0,6.18-1l2.6-4.45ZM320.38,374l-8.26,14.28a9.41,9.41,0,0,0,9.11-9.42v-6.34ZM360,112.45l-17.85-3.15L367.51,124l.11-.57A9.43,9.43,0,0,0,360,112.45ZM114.78,307.57l8.4-14.55,0-.06,2.93-5v0l3.22-5.57v0l8.78-15.18,6.53-11.33,5.25-9.09,3.25-5.64h0l.25-.44.95-1.67h0l5.33-9.22,2.63-4.56,5.9-10.18.14-.28,6.37-11.06,1.48-2.52,2.85-5,3.16-5.49h0l1.05-1.76,6.56-11.34.24-.45h0l4.76-8.24,1.27-2.21h0L207,147.84l4.94-8.6,1.62-2.77,4.42-7.69,20.37-35.24,1.32-2.31,3.84-6.67-3.87,6.67-9.58-1.7-2.33,4-19.35,33.57-5.19,9-.25.38-6.53,11.37-9.89,17.1h0l-6.05,10.45h0l-1.24,2.15L172.7,188.9l-.06.06h0l-6,10.44v0l-2.43,4.21-5.57,9.66h0l-1,1.68-3.29,5.74-5.19,9-6.56,11.34-8.48,14.74-5.88,10.13v0l-.33.58,0,.05-13.37,23.17,0,.06L110,315.06V326l6.69,3.9,10.68,6.15,16.09,9.31L165.26,358l48.62,28,4,2.31h9l12.79,2.25-3.9-2.25L181.59,357l-20.2-11.66L141.74,334l-23.39-13.48h0v0l-.08-.06a8.65,8.65,0,0,1-2-1.56,9.49,9.49,0,0,1-2.42-9A10.68,10.68,0,0,1,114.78,307.57ZM307,397.27l-2.72,4.7,4.53.79a9.27,9.27,0,0,0,6.18-1l2.6-4.45ZM320.38,374l-8.26,14.28a9.41,9.41,0,0,0,9.11-9.42v-6.34ZM360,112.45l-17.85-3.15L367.51,124l.11-.57A9.43,9.43,0,0,0,360,112.45Z"/><path class="cls-3" d="M391.86,227.61a5.53,5.53,0,0,1-7.52,2.19L366.8,219.67l-8.46-4.88-19.9-11.48-9.19-5.3L317.8,191.4l-16.11-9.31L289,174.79l0,0-7-4-43.31-25a5.46,5.46,0,0,1-2.67-4.72,5.87,5.87,0,0,1,3.22-5.19h0a5,5,0,0,1,2.5-.63,5.24,5.24,0,0,1,2.58.68l2,1.18h0l6.84,4,51.49,29.73,8.32,4.8,8.62,5,0,0,7.52,4.33,9.19,5.33,7.09,4.09,14.9,8.59,8.46,4.89L390,220A5.55,5.55,0,0,1,391.86,227.61Z"/><path class="cls-3" d="M262.08,176.25c-.3,0-.61,0-.91,0a68.06,68.06,0,0,0-14.66,2c-.85.19-1.67.38-2.49.63l-1.29-.74h0l-12.79-7.38-4.23-2.45a5.3,5.3,0,0,1-2.64-5.16,5.84,5.84,0,0,1,5.69-5.38,5.29,5.29,0,0,1,2.6.72l15.27,8.81h0l6,3.46Z"/><path class="cls-3" d="M378.82,250.2a5.53,5.53,0,0,1-7.52,2.19L362,247l-8.49-4.88-15.07-8.7-5.9-3.41v0c-.22-.82-.44-1.64-.68-2.47a68.38,68.38,0,0,0-6-14.44l3.38,1.95,9.19,5.3,1,.58h0l16.2,9.33,8.45,4.89L377,242.57A5.53,5.53,0,0,1,378.82,250.2Z"/><path class="cls-3" d="M206.55,204.41a65.79,65.79,0,0,0-6.13,9.55l-.82-.46a5.32,5.32,0,0,1-1.87-1.84,5.82,5.82,0,0,1,0-5.79,5.72,5.72,0,0,1,4.92-2.91,5.3,5.3,0,0,1,2.63.71Z"/><path class="cls-3" d="M352.77,295.35a5.56,5.56,0,0,1-7.55,2.2l-1.34-.77-5.44-3.16-9.19-5.29L324,285.28a66.44,66.44,0,0,0,5.24-10.08l0,0,9.19,5.3,7.53,4.36,4.91,2.83A5.56,5.56,0,0,1,352.77,295.35Z"/><path class="cls-3" d="M194.82,227.72c0,.19-.11.38-.16.57a69.41,69.41,0,0,0-2.2,11.17l-5.68-3.26-.22-.14a5.07,5.07,0,0,1-1.84-1.81,5.54,5.54,0,0,1,0-5.82,5.67,5.67,0,0,1,4.91-2.88,5.37,5.37,0,0,1,2.63.68Z"/><path class="cls-3" d="M339.73,317.94a5,5,0,0,1-1.29,1.51,5.39,5.39,0,0,1-6.25.69l-2.94-1.7-5-2.86-5.41-3.13,0,0-6.12-3.52-6.89-4a69,69,0,0,0,7.52-6.42c.36-.36.72-.71,1-1.07l.41-.44,14.44,8.34,8.59,5a5.27,5.27,0,0,1,.6.41A5.57,5.57,0,0,1,339.73,317.94Z"/><path class="cls-3" d="M227.11,186.16a66.07,66.07,0,0,0-9.45,6.64c-.24.19-.49.41-.71.6l-4.31-2.5a5.33,5.33,0,0,1-2.55-3.56,5.78,5.78,0,0,1,.68-4.07,4.83,4.83,0,0,1,.91-1.18,5.6,5.6,0,0,1,4-1.73,5.31,5.31,0,0,1,2.63.72l1.76,1Z"/><path class="cls-3" d="M365.78,272.79a5.54,5.54,0,0,1-7.52,2.19l-1.09-.63-8.46-4.88-10.27-5.93-4.94-2.83c.08-.3.14-.63.19-.93.2-1.16.39-2.34.53-3.52a68.68,68.68,0,0,0,.55-7.93l3.67,2.11,12.36,7.14,8.45,4.89,4.67,2.69A5.52,5.52,0,0,1,365.78,272.79Z"/><path class="cls-3" d="M196.28,271.77l-18.56-10.7-1.29-.74-2.91-1.68a5.55,5.55,0,0,1-1.86-7.63,5.93,5.93,0,0,1,2-2,5.34,5.34,0,0,1,5.6-.17l.27.17,13.12,7.55v0c.08.63.17,1.26.28,1.89A64.46,64.46,0,0,0,195,268,36.35,36.35,0,0,0,196.28,271.77Z"/><path class="cls-3" d="M326.7,340.54a5.65,5.65,0,0,1-6.35,2.69,5,5,0,0,1-1.2-.5l-8.65-5-.77-.44-17.49-10.11L276,317.83c1.29-.24,2.53-.49,3.79-.79h0a73.58,73.58,0,0,0,9.39-2.94c.6-.22,1.18-.47,1.78-.71h0l14.08,8.15L324.8,332.9A5.57,5.57,0,0,1,326.7,340.54Z"/><path class="cls-3" d="M313.66,363.13a5.61,5.61,0,0,1-7.55,2.19l-42.69-24.65-3.68-2.11-19.68-11.37-5.41-3.12-20.06-11.59-17.16-9.91,0,0-2.49-1.42L169.43,286.4l-.82-.46-8.13-4.7A5.5,5.5,0,0,1,158,275a5.92,5.92,0,0,1,.61-1.43,5.72,5.72,0,0,1,4.91-2.91,5.35,5.35,0,0,1,2.64.72l6.28,3.62,19.68,11.36,9.17,5.3L214,299l0,0c1.38,1.35,2.8,2.61,4.29,3.82,0,0,0,0,.08,0s0,0,.05.09a68.6,68.6,0,0,0,19.74,11.36h0s0,0,.08,0c1.76.68,3.54,1.29,5.38,1.81,0,0,0,0,.06,0h.05l19.05,11,4.56,2.64,15.12,8.73,13.67,7.88h0l0,0,15.56,9A5.6,5.6,0,0,1,313.66,363.13Z"/><path class="cls-3" d="M384.42,175.86a5.67,5.67,0,0,1-7.74,2.09l-2.28-1.32-8.48-4.89-27.48-15.86-9.19-5.3-7.08-4.09-18.95-10.92-15.78-9.12a5.7,5.7,0,0,1,2.86-10.62,5.6,5.6,0,0,1,2.82.77l36.13,20.86,9.19,5.32L368,159.86l8.45,4.88,5.85,3.38A5.66,5.66,0,0,1,384.42,175.86Z"/></svg>